<svg height="512" viewBox="0 0 64 64" width="512" xmlns="http://www.w3.org/2000/svg"><g id="Icons"><g><g><path d="m51 28v12c0 2.76-2.24 5-5 5h-6c-.55 0-1-.45-1-1s.45-1 1-1h6c1.65 0 3-1.35 3-3v-12c0-.55.45-1 1-1s1 .45 1 1z" fill="#0a5078"/></g></g><g><path d="m51 28v3h-2v-3c0-.55.45-1 1-1s1 .45 1 1z" fill="#00325a"/></g><g><path d="m40 52h-28v-40c0-2.209 1.791-4 4-4h20c2.209 0 4 1.791 4 4z" fill="#fab400"/></g><g><path d="m36 14v10c0 1.1-.9 2-2 2h-16c-1.1 0-2-.9-2-2v-10c0-1.1.9-2 2-2h16c1.1 0 2 .9 2 2z" fill="#0a5078"/></g><g><path d="m18 14h16v10h-16z" fill="#f0f0f0"/></g><g><path d="m43 56h-34c-.552 0-1-.448-1-1v-2c0-.552.448-1 1-1h34c.552 0 1 .448 1 1v2c0 .552-.448 1-1 1z" fill="#0a5078"/></g><g><path d="m25.553 44.895c-.494-.247-.694-.848-.447-1.342l2.276-4.553h-4.382c-.743 0-1.226-.785-.895-1.447l3-6c.247-.494.846-.693 1.342-.447.494.247.694.848.447 1.342l-2.276 4.552h4.382c.743 0 1.226.785.895 1.447l-3 6c-.245.489-.842.696-1.342.448z" fill="#f0f0f0"/></g><g><path d="m54 30h-8c-1.105 0-2-.895-2-2v-7c0-.552.448-1 1-1h10c.552 0 1 .448 1 1v7c0 1.105-.895 2-2 2z" fill="#c80a50"/></g><g><path d="m48 15v5h-2v-5c0-.55.45-1 1-1s1 .45 1 1z" fill="#f0f0f0"/></g><g><path d="m54 15v5h-2v-5c0-.55.45-1 1-1s1 .45 1 1z" fill="#f0f0f0"/></g><g><path d="m46 19h2v1h-2z" fill="#d2d2d2"/></g><g><path d="m52 19h2v1h-2z" fill="#d2d2d2"/></g><g><path d="m41 48h-1v-8h1c.552 0 1 .448 1 1v6c0 .552-.448 1-1 1z" fill="#c80a50"/></g><g><g><path d="m30.93 16.37c-2.655 6.648-2.035 5.099-3.05 7.63h-2.16c1.466-3.665.739-1.849 3.35-8.37.21-.51.79-.77 1.3-.56s.76.79.56 1.3z" fill="#c80a50"/></g></g><g><path d="m28.67 22.03-.79 1.97h-2.16l1.16-2.9c.68.15 1.29.48 1.79.93z" fill="#a00028"/></g><g><path d="m29.46 24h-6.92c.69-1.2 1.98-2 3.46-2s2.77.8 3.46 2z" fill="#00a0c8"/></g><g><circle cx="50" cy="25" fill="#f0f0f0" r="1"/></g></g></svg>