<svg height="512" viewBox="0 0 64 64" width="512" xmlns="http://www.w3.org/2000/svg"><g id="Icons"><g><path d="m32 4c-11.046 0-20 8.954-20 20 0 8.474 12.059 26.379 18.391 34.929.802 1.083 2.416 1.083 3.218.001 6.319-8.53 18.391-26.428 18.391-34.93 0-11.046-8.954-20-20-20z" fill="#c80a50"/></g><g><circle cx="32" cy="25" fill="#a00028" r="14"/></g><g><circle cx="32" cy="24" fill="#f0f0f0" r="14"/></g><g><path d="m40.383 16.856c1.174 1.174 1.174 3.069 0 4.243l-9.021 9.021c-1.174 1.174-3.069 1.174-4.243 0l-4.243-4.243c-1.17-1.17-1.168-3.074 0-4.243 1.174-1.174 3.069-1.174 4.243 0l2.121 2.121 6.899-6.899c1.171-1.169 3.075-1.168 4.244 0z" fill="#d2d2d2"/></g><g><g><path d="m40.383 15.856c1.174 1.174 1.174 3.069 0 4.243l-9.021 9.021c-1.174 1.174-3.069 1.174-4.243 0l-4.243-4.243c-1.17-1.17-1.168-3.074 0-4.243 1.174-1.174 3.069-1.174 4.243 0l2.121 2.121 6.899-6.899c1.171-1.169 3.075-1.168 4.244 0z" fill="#00a0c8"/></g><g><path d="m23.766 24.023h6v1h-6z" fill="#0082aa" transform="matrix(.707 -.707 .707 .707 -9.501 26.109)"/></g></g></g></svg>