<svg id="Capa_1" enable-background="new 0 0 512 512" height="512" viewBox="0 0 512 512" width="512" xmlns="http://www.w3.org/2000/svg"><g id="Route"><path d="m256 304c0 26.559 21.439 48 48 48h128c22.08 0 42.24 8.959 56.641 23.359 14.398 14.401 23.359 34.561 23.359 56.641 0 44.16-35.84 80-80 80h-432v-32h432c26.561 0 48-21.441 48-48 0-26.561-21.439-48-48-48h-128c-22.08 0-42.24-8.961-56.641-23.361-14.398-14.399-23.359-34.559-23.359-56.639 0-44.16 35.84-80 80-80h208v32h-208c-26.561 0-48 21.439-48 48z" fill="#ff8de4"/><path d="m96 256c-53.119 0-96 42.879-96 96 0 40.639 38.721 94.4 66.881 128h58.238c28.16-33.6 66.881-87.361 66.881-128 0-53.121-42.881-96-96-96zm0 160c-35.199 0-64-28.801-64-64 0-35.201 28.801-64 64-64s64 28.799 64 64c0 35.199-28.801 64-64 64z" fill="#ff4db3"/><path d="m66.881 480h58.238c-16.318 19.199-29.119 32-29.119 32s-12.801-12.801-29.119-32z" fill="#ff0068"/><circle cx="96" cy="352" fill="#80eaff" r="64"/><circle cx="96" cy="352" fill="#ff8de4" r="64"/><path d="m512 96c0 40.639-38.721 94.4-66.881 128h-58.238c-28.16-33.6-66.881-87.361-66.881-128 0-53.121 42.881-96 96-96s96 42.879 96 96z" fill="#ff4db3"/><path d="m445.119 224c-16.318 19.199-29.119 32-29.119 32s-12.801-12.801-29.119-32z" fill="#ff0068"/><circle cx="416" cy="96" fill="#ff8de4" r="64"/></g></svg>