<svg id="Layer_1" height="512" viewBox="0 0 256 256" width="512" xmlns="http://www.w3.org/2000/svg"><g><g><g><g><circle cx="128" cy="128" fill="#382b73" r="119.4"/></g></g></g><g><g><g><path d="m111.502 132.494c-17.668 17.011-15.508 43.105 8.642 37.911 12.621-2.867 26.403-16.647 29.268-29.269 1.672-6.76.515-12.56-3.258-16.333-7.562-7.559-22.782-4.179-34.652 7.691zm3.535 3.535c7.729-7.308 15.665-11.333 23.63-9.858-6.721 3.093-17.717 9.81-16.157 20.176 1.291 8.577-11.657 14.356-16.122 16.081-3.927-5.891-.27-17.479 8.649-26.399zm29.522 3.908c-3.162 12.865-19.279 28.428-33.23 25.833 6.741-3.098 17.686-9.797 16.126-20.167-1.288-8.56 11.686-14.359 16.117-16.078 1.68 2.516 2.043 6.139.987 10.412z" fill="#291b4a"/></g></g><g><g><path d="m106.073 44.37c.909-1.033.812-2.608-.219-3.522-1.034-.916-2.614-.82-3.529.213-3.683 4.155-8.434 14.683-.053 24.783 7.705 9.285.362 17.917.053 18.273-.916 1.033-.821 2.613.212 3.529.476.422 1.068.629 1.657.629.69 0 1.378-.284 1.872-.842 3.684-4.155 8.435-14.683.053-24.782-7.702-9.282-.367-17.913-.046-18.281z" fill="#291b4a"/></g></g><g><g><path d="m126.858 44.372c.91-1.034.813-2.609-.218-3.523-1.033-.916-2.612-.82-3.529.213-3.683 4.155-8.434 14.683-.053 24.783 7.705 9.285.362 17.917.053 18.273-.916 1.033-.821 2.613.212 3.529.476.422 1.068.629 1.657.629.69 0 1.378-.284 1.872-.842 3.683-4.155 8.435-14.683.053-24.782-7.692-9.273-.383-17.894-.047-18.28z" fill="#291b4a"/></g></g><g><g><path d="m147.646 44.37c.909-1.033.813-2.608-.219-3.522-1.033-.915-2.612-.821-3.529.213-3.683 4.155-8.435 14.683-.053 24.783 7.704 9.285.362 17.918.053 18.273-.916 1.033-.82 2.613.213 3.529.476.421 1.067.629 1.657.629.69 0 1.378-.284 1.872-.842 3.683-4.155 8.434-14.683.053-24.783-7.702-9.281-.368-17.911-.047-18.28z" fill="#291b4a"/></g></g><g><g><path d="m209.976 58.33h-32.258c-1.381 0-2.5 1.119-2.5 2.5s1.119 2.5 2.5 2.5h29.758v135.26h-50.416c10.208-6.141 17.054-17.326 17.054-30.082v-.341c2.788 2.593 6.511 4.192 10.609 4.192 8.606 0 15.608-7.002 15.608-15.609v-25.398c0-8.607-7.002-15.609-15.608-15.609h-10.609v-16.78c0-1.381-1.119-2.5-2.5-2.5h-93.263c-1.381 0-2.5 1.119-2.5 2.5v69.545c0 12.756 6.846 23.941 17.054 30.082h-44.381v-135.26h29.758c1.381 0 2.5-1.119 2.5-2.5s-1.119-2.5-2.5-2.5h-32.258c-1.381 0-2.5 1.119-2.5 2.5v140.26c0 1.381 1.119 2.5 2.5 2.5h163.951c1.381 0 2.5-1.119 2.5-2.5v-140.26c.001-1.381-1.119-2.5-2.499-2.5zm-35.862 62.413h10.609c5.85 0 10.608 4.759 10.608 10.609v25.398c0 5.85-4.759 10.609-10.608 10.609s-10.609-4.759-10.609-10.609zm-63.181 77.847c-16.587 0-30.082-13.495-30.082-30.082v-67.045h88.263v67.045c0 16.587-13.495 30.082-30.082 30.082z" fill="#291b4a"/></g></g></g><g><g><g><g><path d="m171.614 92.463h-93.263c-1.381 0-2.5 1.119-2.5 2.5v69.545c0 19.344 15.738 35.082 35.082 35.082h28.099c19.345 0 35.082-15.738 35.082-35.082v-69.545c0-1.38-1.119-2.5-2.5-2.5zm-2.5 72.045c0 16.587-13.495 30.082-30.082 30.082h-28.099c-16.587 0-30.082-13.495-30.082-30.082v-67.045h88.263z" fill="#65c1d6"/></g></g></g><g><g><g><path d="m184.724 111.743h-13.109c-1.381 0-2.5 1.119-2.5 2.5v38.507c0 8.607 7.002 15.609 15.609 15.609 8.606 0 15.608-7.002 15.608-15.609v-25.398c0-8.607-7.002-15.609-15.608-15.609zm10.608 41.007c0 5.85-4.759 10.609-10.608 10.609s-10.609-4.759-10.609-10.609v-36.007h10.609c5.85 0 10.608 4.759 10.608 10.609z" fill="#65c1d6"/></g></g></g><g><g><g fill="#149cb2"><path d="m184.724 111.743h-10.609v-16.78c0-1.381-1.119-2.5-2.5-2.5h-93.264c-1.381 0-2.5 1.119-2.5 2.5v69.545c0 19.344 15.738 35.082 35.082 35.082h28.099c19.345 0 35.082-15.738 35.082-35.082v-.341c2.788 2.593 6.511 4.192 10.609 4.192 8.606 0 15.608-7.002 15.608-15.609v-25.398c.001-8.607-7.001-15.609-15.607-15.609zm14.108 41.007c0 7.78-6.329 14.109-14.108 14.109-3.554 0-6.959-1.346-9.588-3.791-.283-.263-.65-.402-1.022-.402-.202 0-.406.041-.599.125-.547.238-.901.778-.901 1.375v.341c0 18.517-15.065 33.582-33.582 33.582h-28.099c-18.517 0-33.582-15.065-33.582-33.582v-69.544c0-.551.449-1 1-1h93.263c.551 0 1 .449 1 1v16.78c0 .828.672 1.5 1.5 1.5h10.609c7.779 0 14.108 6.329 14.108 14.109v25.398z"/><path d="m184.724 115.243h-10.609c-.828 0-1.5.672-1.5 1.5v36.007c0 6.677 5.432 12.109 12.109 12.109s12.108-5.432 12.108-12.109v-25.398c0-6.677-5.432-12.109-12.108-12.109zm10.608 37.507c0 5.85-4.759 10.609-10.608 10.609s-10.609-4.759-10.609-10.609v-36.007h10.609c5.85 0 10.608 4.759 10.608 10.609z"/><path d="m169.114 95.963h-88.263c-.828 0-1.5.672-1.5 1.5v67.045c0 17.414 14.168 31.582 31.582 31.582h28.099c17.414 0 31.582-14.168 31.582-31.582v-67.045c0-.828-.671-1.5-1.5-1.5zm0 68.545c0 16.587-13.495 30.082-30.082 30.082h-28.099c-16.587 0-30.082-13.495-30.082-30.082v-67.045h88.263z"/></g></g></g><g><g><g><path d="m111.502 128.494c-11.872 11.872-15.25 27.093-7.691 34.652 2.646 2.646 6.288 4.005 10.559 4.005 1.82 0 3.754-.247 5.774-.746 6.313-1.561 12.819-5.449 18.319-10.95 5.501-5.5 9.39-12.006 10.949-18.319 1.672-6.76.515-12.561-3.258-16.333-7.562-7.56-22.782-4.18-34.652 7.691zm33.057 7.443c-1.345 5.441-4.766 11.118-9.631 15.983-4.865 4.866-10.542 8.286-15.983 9.631-4.995 1.234-9.113.544-11.598-1.94-5.391-5.391-1.868-18.021 7.691-27.582 6.512-6.512 14.448-10.222 20.552-10.222 2.856 0 5.312.813 7.03 2.531 2.484 2.486 3.173 6.605 1.939 11.599z" fill="#f9b087"/></g></g></g><g><g><g><path d="m143.412 120.26c-2.36.792-23.001 8.139-20.902 22.087 1.524 10.125-16.798 16.353-17.579 16.613-1.31.437-2.018 1.852-1.581 3.162.349 1.047 1.324 1.71 2.371 1.71.262 0 .529-.042.791-.129 2.365-.788 23.048-8.105 20.942-22.101-1.518-10.085 16.768-16.341 17.547-16.603 1.31-.439 2.015-1.856 1.575-3.165-.437-1.308-1.855-2.013-3.164-1.574z" fill="#f9b087"/></g></g></g><g><g><g><path d="m106.073 40.37c.909-1.033.812-2.608-.219-3.522-1.034-.916-2.614-.82-3.529.213-3.683 4.155-8.434 14.683-.053 24.783 7.705 9.285.362 17.917.053 18.273-.916 1.033-.821 2.613.212 3.529.476.422 1.068.629 1.657.629.69 0 1.378-.284 1.872-.842 3.684-4.155 8.435-14.683.053-24.782-7.702-9.282-.367-17.913-.046-18.281z" fill="#d3d3d3"/></g></g></g><g><g><g><path d="m126.858 40.372c.91-1.034.813-2.609-.218-3.523-1.033-.916-2.612-.82-3.529.213-3.683 4.155-8.434 14.683-.053 24.783 7.705 9.285.362 17.917.053 18.273-.916 1.033-.821 2.613.212 3.529.476.422 1.068.629 1.657.629.69 0 1.378-.284 1.872-.842 3.683-4.155 8.435-14.683.053-24.782-7.692-9.273-.383-17.894-.047-18.28z" fill="#d3d3d3"/></g></g></g><g><g><g><path d="m147.646 40.37c.909-1.033.813-2.608-.219-3.522-1.033-.915-2.612-.821-3.529.213-3.683 4.155-8.435 14.683-.053 24.783 7.704 9.285.362 17.918.053 18.273-.916 1.033-.82 2.613.213 3.529.476.421 1.067.629 1.657.629.69 0 1.378-.284 1.872-.842 3.683-4.155 8.434-14.683.053-24.783-7.702-9.281-.368-17.911-.047-18.28z" fill="#d3d3d3"/></g></g></g><g><g><g><g><path d="m106.073 40.37c.909-1.033.812-2.608-.219-3.522-.476-.422-1.068-.629-1.657-.629-.691 0-1.378.285-1.872.842-3.683 4.155-8.434 14.683-.053 24.783 7.705 9.285.362 17.917.053 18.273-.916 1.033-.821 2.613.212 3.529.476.422 1.068.629 1.657.629.69 0 1.378-.284 1.872-.842 3.684-4.155 8.435-14.683.053-24.782-7.702-9.282-.367-17.913-.046-18.281zm-1.13 42.069c-.259.292-.58.336-.748.336-.172 0-.427-.044-.662-.252-.2-.177-.319-.421-.335-.688s.073-.523.259-.734c.35-.402 8.47-9.971-.031-20.215-7.731-9.317-3.367-19.008.021-22.83.26-.293.581-.337.75-.337.173 0 .428.044.662.251.411.365.451.997.084 1.413-.351.402-8.492 9.964.022 20.225 7.732 9.318 3.367 19.008-.022 22.831z" fill="#ebe7f2"/></g></g></g></g><g><g><g><g><path d="m126.858 40.372c.91-1.034.813-2.609-.218-3.523-.476-.422-1.067-.629-1.657-.629-.69 0-1.378.285-1.873.842-3.683 4.155-8.434 14.683-.053 24.783 7.705 9.285.362 17.917.053 18.273-.916 1.033-.821 2.613.212 3.529.476.422 1.068.629 1.657.629.69 0 1.378-.284 1.872-.842 3.683-4.155 8.435-14.683.053-24.782-7.691-9.273-.382-17.894-.046-18.28zm-1.128 42.067c-.259.292-.58.336-.748.336-.172 0-.427-.044-.662-.252-.2-.177-.319-.421-.335-.688s.073-.523.259-.734c.35-.402 8.47-9.971-.031-20.215-7.731-9.317-3.367-19.008.02-22.829.193-.218.46-.338.751-.338.172 0 .427.044.661.251.411.365.45.997.08 1.417-.35.403-8.471 9.981.026 20.221 7.733 9.317 3.368 19.008-.021 22.831z" fill="#ebe7f2"/></g></g></g></g><g><g><g><g><path d="m147.646 40.37c.909-1.033.813-2.608-.219-3.522-.476-.421-1.068-.629-1.658-.629-.69 0-1.377.284-1.872.842-3.683 4.155-8.435 14.683-.053 24.783 7.704 9.285.362 17.918.053 18.273-.916 1.033-.82 2.613.213 3.529.476.421 1.067.629 1.657.629.69 0 1.378-.284 1.872-.842 3.683-4.155 8.434-14.683.053-24.783-7.701-9.281-.367-17.911-.046-18.28zm-1.128 42.069c-.26.293-.581.337-.749.337-.173 0-.428-.044-.662-.251-.2-.177-.319-.422-.335-.689-.016-.266.073-.523.258-.733.35-.402 8.477-9.964-.03-20.216-7.731-9.316-3.367-19.007.021-22.83.26-.293.581-.337.749-.337.173 0 .428.044.663.251.411.364.45.996.082 1.415-.35.402-8.481 9.974.024 20.223 7.731 9.316 3.367 19.007-.021 22.83z" fill="#ebe7f2"/></g></g></g></g><g><g><g><path d="m209.976 54.33h-32.258c-1.381 0-2.5 1.119-2.5 2.5s1.119 2.5 2.5 2.5h29.758v135.26h-158.952v-135.26h29.758c1.381 0 2.5-1.119 2.5-2.5s-1.119-2.5-2.5-2.5h-32.258c-1.381 0-2.5 1.119-2.5 2.5v140.26c0 1.381 1.119 2.5 2.5 2.5h163.951c1.381 0 2.5-1.119 2.5-2.5v-140.26c.001-1.381-1.119-2.5-2.499-2.5z" fill="#f9b087"/></g></g></g><g><g><g><g fill="#ff8639"><path d="m123.994 142.123c-1.414-9.397 8.98-15.681 15.301-18.59.577-.266.925-.866.867-1.499s-.509-1.161-1.125-1.317c-1.07-.272-2.23-.41-3.448-.41-6.755 0-15.036 4.085-21.612 10.661-9.318 9.319-13.199 21.746-8.836 28.291.285.427.758.668 1.249.668.181 0 .364-.033.54-.101 5.605-2.165 18.49-8.226 17.064-17.703zm-17.605 16.305c-3.927-5.891-.27-17.479 8.648-26.399 6.512-6.512 14.448-10.222 20.552-10.222 1.092 0 2.123.121 3.079.364-6.721 3.093-17.717 9.81-16.157 20.176 1.29 8.577-11.658 14.356-16.122 16.081z"/><path d="m143.571 124.024c-.181 0-.365.033-.542.102-5.603 2.173-18.48 8.248-17.058 17.7 1.416 9.41-8.958 15.68-15.268 18.58-.578.266-.925.867-.867 1.5s.509 1.161 1.126 1.317c1.085.275 2.261.414 3.495.414 1.525 0 3.156-.212 4.848-.63 5.703-1.409 11.629-4.97 16.684-10.026 5.056-5.057 8.617-10.982 10.026-16.684 1.158-4.686.745-8.699-1.195-11.605-.286-.427-.759-.668-1.249-.668zm.988 11.913c-1.345 5.441-4.766 11.118-9.631 15.983-4.865 4.866-10.542 8.286-15.983 9.631-1.597.395-3.099.586-4.488.586-1.12 0-2.165-.125-3.127-.368 6.741-3.098 17.685-9.797 16.125-20.167-1.288-8.56 11.686-14.359 16.117-16.078 1.68 2.517 2.043 6.14.987 10.413z"/><path d="m135.522 116.778c-7.456 0-16.423 4.119-24.02 11.717-11.872 11.872-15.25 27.093-7.691 34.652 2.646 2.646 6.288 4.005 10.559 4.005 1.82 0 3.754-.247 5.774-.746 6.313-1.561 12.819-5.449 18.319-10.95 5.501-5.5 9.39-12.006 10.949-18.319 1.672-6.76.515-12.561-3.258-16.333-2.722-2.722-6.438-4.026-10.632-4.026zm12.434 19.998c-1.495 6.051-5.243 12.308-10.554 17.618-5.31 5.31-11.566 9.058-17.618 10.554-1.886.466-3.708.702-5.415.702-3.881 0-7.166-1.233-9.498-3.566-6.964-6.964-3.586-21.253 7.691-32.531 7.061-7.061 15.643-11.277 22.959-11.277 3.915 0 7.225 1.24 9.572 3.586 3.387 3.388 4.404 8.684 2.863 14.914z"/></g></g></g><g><g><g><path d="m209.976 54.33h-32.258c-1.381 0-2.5 1.119-2.5 2.5s1.119 2.5 2.5 2.5h29.758v135.26h-158.952v-135.26h29.758c1.381 0 2.5-1.119 2.5-2.5s-1.119-2.5-2.5-2.5h-32.258c-1.381 0-2.5 1.119-2.5 2.5v140.26c0 1.381 1.119 2.5 2.5 2.5h163.951c1.381 0 2.5-1.119 2.5-2.5v-140.26c.001-1.381-1.119-2.5-2.499-2.5zm1 142.76c0 .551-.449 1-1 1h-163.952c-.551 0-1-.449-1-1v-140.26c0-.551.449-1 1-1h32.258c.551 0 1 .449 1 1s-.449 1-1 1h-29.758c-.828 0-1.5.672-1.5 1.5v135.26c0 .828.672 1.5 1.5 1.5h158.951c.828 0 1.5-.672 1.5-1.5v-135.26c0-.828-.672-1.5-1.5-1.5h-29.758c-.551 0-1-.449-1-1s.449-1 1-1h32.258c.551 0 1 .449 1 1v140.26z" fill="#ff8639"/></g></g></g></g></g></g></svg>