<svg id="color_line" height="512" viewBox="0 0 74 74" width="512" xmlns="http://www.w3.org/2000/svg" data-name="color line"><path d="m35.835 2.328a24.757 24.757 0 0 0 -24.757 24.757c0 13.673 24.757 43.243 24.757 43.243s24.757-29.57 24.757-43.243a24.757 24.757 0 0 0 -24.757-24.757z" fill="#fcd462"/><path d="m35.835 70.828a.5.5 0 0 1 -.384-.179c-1.015-1.213-24.873-29.867-24.873-43.564a25.257 25.257 0 1 1 50.514 0c0 13.7-23.858 42.351-24.873 43.564a.5.5 0 0 1 -.384.179zm0-68a24.284 24.284 0 0 0 -24.257 24.257c0 12.412 21.128 38.643 24.257 42.457 3.129-3.814 24.257-30.042 24.257-42.457a24.284 24.284 0 0 0 -24.257-24.257z" fill="#323c6b"/><path d="m49.015 37.418a16.739 16.739 0 0 1 -26.36 0 10.049 10.049 0 0 1 8.82-6.94 6.526 6.526 0 0 0 8.72 0 10.049 10.049 0 0 1 8.82 6.94z" fill="#89c5cd"/><path d="m35.835 44.338a17.127 17.127 0 0 1 -13.573-6.611.5.5 0 0 1 -.081-.466 10.6 10.6 0 0 1 9.235-7.28.5.5 0 0 1 .394.126 6.027 6.027 0 0 0 8.05 0 .5.5 0 0 1 .394-.126 10.6 10.6 0 0 1 9.235 7.28.5.5 0 0 1 -.081.466 17.127 17.127 0 0 1 -13.573 6.611zm-12.617-7.016a16.238 16.238 0 0 0 25.234 0 9.484 9.484 0 0 0 -8.1-6.32 7.03 7.03 0 0 1 -9.041 0 9.484 9.484 0 0 0 -8.093 6.32z" fill="#323c6b"/><path d="m52.6 27.088a16.629 16.629 0 0 1 -3.58 10.33 10.049 10.049 0 0 0 -8.82-6.94 6.526 6.526 0 0 1 -8.72 0 10.049 10.049 0 0 0 -8.82 6.94 16.754 16.754 0 1 1 29.94-10.33z" fill="#fff"/><path d="m49.015 37.918a.491.491 0 0 1 -.086-.007.5.5 0 0 1 -.389-.335 9.486 9.486 0 0 0 -8.185-6.576 7.03 7.03 0 0 1 -9.041 0 9.486 9.486 0 0 0 -8.184 6.574.5.5 0 0 1 -.867.152 17.023 17.023 0 0 1 -3.688-10.64 17.26 17.26 0 0 1 34.52 0 17.023 17.023 0 0 1 -3.688 10.64.5.5 0 0 1 -.392.192zm-8.82-7.94a.583.583 0 0 1 .059 0 10.628 10.628 0 0 1 8.906 6.407 16.015 16.015 0 0 0 2.935-9.3 16.26 16.26 0 0 0 -32.52 0 16.015 16.015 0 0 0 2.935 9.3 10.628 10.628 0 0 1 8.906-6.407.5.5 0 0 1 .394.126 6.027 6.027 0 0 0 8.05 0 .5.5 0 0 1 .34-.126z" fill="#323c6b"/><circle cx="35.835" cy="22.573" fill="#89c5cd" r="6.599"/><g fill="#323c6b"><path d="m35.835 29.672a7.1 7.1 0 1 1 7.1-7.1 7.108 7.108 0 0 1 -7.1 7.1zm0-13.2a6.1 6.1 0 1 0 6.1 6.1 6.105 6.105 0 0 0 -6.1-6.097z"/><path d="m16.4 48.953a.5.5 0 0 1 -.429-.242c-1.691-2.807-3.148-5.47-4.33-7.915a.5.5 0 1 1 .9-.436c1.169 2.418 2.611 5.054 4.287 7.835a.5.5 0 0 1 -.171.686.493.493 0 0 1 -.257.072z"/><path d="m11.13 39.016a.5.5 0 0 1 -.457-.3c-.188-.424-.362-.843-.536-1.261a.5.5 0 0 1 .924-.383c.169.411.342.823.526 1.239a.5.5 0 0 1 -.457.7z"/><path d="m63.505 25.516a.5.5 0 0 1 -.5-.463 27 27 0 0 0 -2.849-10.253.5.5 0 0 1 .893-.452 28 28 0 0 1 2.956 10.627.5.5 0 0 1 -.462.535z"/><path d="m63.347 30.328a.447.447 0 0 1 -.082-.007.5.5 0 0 1 -.412-.574c.071-.434.129-.861.168-1.278a.5.5 0 0 1 1 .093c-.041.439-.1.89-.179 1.347a.5.5 0 0 1 -.495.419z"/></g><path d="m17.278 18.483a.659.659 0 0 1 -.29-.068.651.651 0 0 1 -.29-.873 21.463 21.463 0 0 1 5.193-6.659.65.65 0 1 1 .849.984 20.182 20.182 0 0 0 -4.88 6.258.65.65 0 0 1 -.582.358z" fill="#fff"/><path d="m25.313 9.872a.65.65 0 0 1 -.332-1.209c.337-.2.682-.386 1.03-.568a.65.65 0 1 1 .6 1.152c-.328.171-.653.346-.97.534a.653.653 0 0 1 -.328.091z" fill="#fff"/></svg>