<svg id="line_color" height="512" viewBox="0 0 74 74" width="512" xmlns="http://www.w3.org/2000/svg" data-name="line color"><path d="m6.93 17.917h35.763a2.93 2.93 0 0 1 2.93 2.93v22.768a0 0 0 0 1 0 0h-41.623a0 0 0 0 1 0 0v-22.768a2.93 2.93 0 0 1 2.93-2.93z" fill="#e1e6e9"/><g opacity=".5"><path d="m42.693 17.917h-35.763a2.93 2.93 0 0 0 -2.93 2.93v2.386a2.93 2.93 0 0 1 2.93-2.933h35.763a2.93 2.93 0 0 1 2.93 2.93v-2.383a2.93 2.93 0 0 0 -2.93-2.93z" fill="#d5d6db"/></g><path d="m10.956 50.931h-5.456v-7.316h40.119v7.316h-13.128" fill="#fcd462"/><path d="m61.461 50.933h7.151a1.387 1.387 0 0 0 1.388-1.388v-5.427a6.906 6.906 0 0 0 -6.9-6.905l-6.139-10.789a2.976 2.976 0 0 0 -2.6-1.514h-8.738v26.023h6.743" fill="#fcd462"/><path d="m68.612 51.434h-7.151a.5.5 0 0 1 0-1h7.151a.889.889 0 0 0 .888-.889v-5.426a6.413 6.413 0 0 0 -6.4-6.406.5.5 0 0 1 -.435-.253l-6.139-10.789a2.479 2.479 0 0 0 -2.163-1.26h-8.24v25.023h6.243a.5.5 0 0 1 0 1h-6.743a.5.5 0 0 1 -.5-.5v-26.023a.5.5 0 0 1 .5-.5h8.74a3.477 3.477 0 0 1 3.037 1.768l5.993 10.54a7.414 7.414 0 0 1 7.111 7.4v5.426a1.891 1.891 0 0 1 -1.892 1.889z" fill="#323c6b"/><path d="m5.5 48.125h40.119v2.806h-40.119z" fill="#f7be56"/><path d="m45.623 48.125v2.808h22.989a1.387 1.387 0 0 0 1.388-1.388v-1.42z" fill="#f7be56"/><path d="m14.188 36.982a.5.5 0 0 1 -.5-.5v-11.432a.5.5 0 0 1 1 0v11.432a.5.5 0 0 1 -.5.5z" fill="#323c6b"/><path d="m35.436 36.982a.5.5 0 0 1 -.5-.5v-11.432a.5.5 0 0 1 1 0v11.432a.5.5 0 0 1 -.5.5z" fill="#323c6b"/><path d="m24.812 36.982a.5.5 0 0 1 -.5-.5v-11.432a.5.5 0 0 1 1 0v11.432a.5.5 0 0 1 -.5.5z" fill="#323c6b"/><path d="m63.091 37.213-6.133-10.794a2.983 2.983 0 0 0 -2.592-1.509h-8.745v12.3z" fill="#89c5cd"/><g fill="#323c6b"><path d="m1 24.75a.5.5 0 0 1 -.5-.5v-.562a.5.5 0 0 1 1 0v.562a.5.5 0 0 1 -.5.5z"/><path d="m1 21.938a.5.5 0 0 1 -.5-.5v-.59a6.438 6.438 0 0 1 6.431-6.431.5.5 0 0 1 0 1 5.437 5.437 0 0 0 -5.431 5.431v.59a.5.5 0 0 1 -.5.5z"/><path d="m73 46.333a.5.5 0 0 1 -.5-.5v-.625a.5.5 0 0 1 1 0v.625a.5.5 0 0 1 -.5.5z"/><path d="m69.374 54.356a.5.5 0 0 1 -.086-.992 3.877 3.877 0 0 0 3.212-3.819v-1.745a.5.5 0 1 1 1 0v1.743a4.876 4.876 0 0 1 -4.038 4.8.522.522 0 0 1 -.088.013z"/><path d="m51.938 40.875h-3.021a.5.5 0 0 1 0-1h3.021a.5.5 0 0 1 0 1z"/></g><path d="m62.879 36.833-5.918-10.409a2.976 2.976 0 0 0 -2.6-1.514h-2.622a2.976 2.976 0 0 1 2.6 1.514l5.918 10.409z" fill="#6eaaad"/><path d="m64.57 37.375h-2.625a6.905 6.905 0 0 1 5.43 6.743v5.427a1.387 1.387 0 0 1 -1.388 1.388h2.625a1.387 1.387 0 0 0 1.388-1.388v-5.427a6.905 6.905 0 0 0 -5.43-6.743z" fill="#f7be56"/><path d="m68.612 51.434h-7.151a.5.5 0 0 1 0-1h7.151a.889.889 0 0 0 .888-.889v-5.426a6.413 6.413 0 0 0 -6.4-6.406.5.5 0 0 1 -.435-.253l-6.139-10.789a2.479 2.479 0 0 0 -2.163-1.26h-8.24v25.023h6.243a.5.5 0 0 1 0 1h-6.743a.5.5 0 0 1 -.5-.5v-26.023a.5.5 0 0 1 .5-.5h8.74a3.477 3.477 0 0 1 3.037 1.768l5.993 10.54a7.414 7.414 0 0 1 7.111 7.4v5.426a1.891 1.891 0 0 1 -1.892 1.889z" fill="#323c6b"/><circle cx="57.455" cy="51.499" fill="#707583" r="5.249"/><path d="m57.455 57.248a5.749 5.749 0 1 1 5.745-5.748 5.756 5.756 0 0 1 -5.745 5.748zm0-10.5a4.749 4.749 0 1 0 4.745 4.752 4.755 4.755 0 0 0 -4.745-4.75z" fill="#323c6b"/><circle cx="57.455" cy="51.499" fill="#bbbbcd" r="2.811"/><path d="m57.455 54.811a3.312 3.312 0 1 1 3.312-3.311 3.315 3.315 0 0 1 -3.312 3.311zm0-5.623a2.312 2.312 0 1 0 2.312 2.312 2.314 2.314 0 0 0 -2.312-2.312z" fill="#323c6b"/><path d="m45.623 44.115h-41.623a.5.5 0 0 1 -.5-.5v-22.767a3.435 3.435 0 0 1 3.431-3.431h35.761a3.435 3.435 0 0 1 3.431 3.431v22.767a.5.5 0 0 1 -.5.5zm-41.123-1h40.623v-22.267a2.434 2.434 0 0 0 -2.431-2.431h-35.761a2.434 2.434 0 0 0 -2.431 2.431z" fill="#323c6b"/><g fill="#e1e6e9" opacity=".4"><path d="m46.874 36.792 3.324-11.917h-.483l-3.324 11.917z"/><path d="m48.963 36.792 3.323-11.917h-1.211l-3.324 11.917z"/><path d="m50.406 36.792 3.324-11.917h-.67l-3.324 11.917z"/></g><path d="m63.092 37.713h-17.472a.5.5 0 0 1 -.5-.5v-12.3a.5.5 0 0 1 .5-.5h8.745a3.487 3.487 0 0 1 3.028 1.762l6.133 10.793a.5.5 0 0 1 -.434.747zm-16.972-1h16.112l-5.709-10.046a2.483 2.483 0 0 0 -2.158-1.256h-8.245z" fill="#323c6b"/><path d="m41.6 46.505h-.54a.472.472 0 0 1 0-.943h.54a.472.472 0 0 1 0 .943z" fill="#fff"/><path d="m39.36 46.505h-4.86a.472.472 0 0 1 0-.943h4.86a.472.472 0 0 1 0 .943z" fill="#fff"/><path d="m45.619 51.431h-13.128a.5.5 0 0 1 0-1h12.628v-6.316h-39.119v6.316h4.956a.5.5 0 1 1 0 1h-5.456a.5.5 0 0 1 -.5-.5v-7.316a.5.5 0 0 1 .5-.5h40.119a.5.5 0 0 1 .5.5v7.316a.5.5 0 0 1 -.5.5z" fill="#323c6b"/><path d="m23.4 51.431h-3.347a.5.5 0 1 1 0-1h3.347a.5.5 0 0 1 0 1z" fill="#323c6b"/><circle cx="27.943" cy="51.499" fill="#707583" r="5.249"/><path d="m27.943 57.248a5.749 5.749 0 1 1 5.749-5.748 5.756 5.756 0 0 1 -5.749 5.748zm0-10.5a4.749 4.749 0 1 0 4.749 4.752 4.755 4.755 0 0 0 -4.749-4.75z" fill="#323c6b"/><circle cx="27.943" cy="51.499" fill="#bbbbcd" r="2.811"/><path d="m27.943 54.811a3.312 3.312 0 1 1 3.312-3.311 3.315 3.315 0 0 1 -3.312 3.311zm0-5.623a2.312 2.312 0 1 0 2.312 2.312 2.314 2.314 0 0 0 -2.312-2.312z" fill="#323c6b"/><circle cx="14.985" cy="51.499" fill="#707583" r="5.249"/><path d="m14.984 57.248a5.749 5.749 0 1 1 5.749-5.748 5.756 5.756 0 0 1 -5.749 5.748zm0-10.5a4.749 4.749 0 1 0 4.749 4.752 4.755 4.755 0 0 0 -4.749-4.75z" fill="#323c6b"/><circle cx="14.985" cy="51.499" fill="#bbbbcd" r="2.811"/><path d="m14.984 54.811a3.312 3.312 0 1 1 3.316-3.311 3.315 3.315 0 0 1 -3.316 3.311zm0-5.623a2.312 2.312 0 1 0 2.316 2.312 2.314 2.314 0 0 0 -2.316-2.312z" fill="#323c6b"/></svg>