<svg id="Layer_1" enable-background="new 0 0 150 150" height="512" viewBox="0 0 150 150" width="512" xmlns="http://www.w3.org/2000/svg"><g><path d="m62.234 86.161 6.383-6.048s-8.521-12.111-8.553-12.351-13.452-6.096-13.452-6.096l-21.941-1.213-17.552 8.315 9.75 14.904z" fill="#263b47"/><path d="m40.628 28.301s-4.994 20.026-3.415 29.137c0 0 24.223 7.787 28.802 20.329h27.478v-9.079l-7.149-10.42-5.202-24.159-3.064-5.808z" fill="#3a556a"/><path d="m92.552 61.06-4.372-1.596s-3.606-23.265-7.819-32.233c-.237-.508-.748-.832-1.308-.83h-38.457c-.621-.011-1.177.384-1.372.973-3.419 10.335-4.508 21.299-3.191 32.105h3.191s-2.122-20.441 2.745-30.318h36.334s3.383 15.095 6.271 28.451c.766 3.606 3.191 21.063 5.09 24.238l3.335-6.59z" fill="#fcd462"/><path d="m105.206 34.795v31.34h5.537l-1.261-31.34z" fill="#3a556a"/><path d="m64.627 105.085h45.158l19.675-20.967-19.675-14.489-9.35 4.436-10.851 2.17h-24.957z" fill="#263b47"/><path d="m142.114 66.901c-5.936-3.479-23.122-11.537-54.397-10.723l1.197 8.553 2.649 14.09c.281 1.541 1.456 2.766 2.984 3.112 5.617 1.324 19.276 5.186 26.584 13.037l23.393-3.463v-20.362c.002-1.741-.914-3.354-2.41-4.244z" fill="#e56353"/><path d="m125.886 66.629v18.781l11.728.431s.351-12.574 0-14.361c0 .032-3.702-3.319-11.728-4.851z" fill="#3a556a"/><path d="m33.384 62.385c-18.004 0-32.6 14.595-32.6 32.6s14.595 32.6 32.6 32.6 32.6-14.595 32.6-32.6c0-.005 0-.011 0-.016 0-17.996-14.588-32.584-32.584-32.584-.006 0-.011 0-.016 0z" fill="#3a556a"/><path d="m33.384 66.135c-15.933 0-28.85 12.917-28.85 28.85s12.917 28.85 28.85 28.85 28.85-12.917 28.85-28.85c0-.005 0-.011 0-.016 0-15.925-12.909-28.834-28.834-28.834-.006 0-.011 0-.016 0z" fill="#2f4859"/><circle cx="33.384" cy="94.969" fill="#e1e6e9" r="18.989"/><path d="m33.384 89.352c-3.12 0-5.649 2.529-5.649 5.649s2.529 5.649 5.649 5.649 5.649-2.529 5.649-5.649c0-.005 0-.011 0-.016 0-3.111-2.522-5.633-5.633-5.633-.005 0-.011 0-.016 0z" fill="#3a556a"/><g fill="#2f4859"><path d="m32.921 66.534.303-2.808c.025-.259.222-.468.479-.511l2.888-.463c.317-.075.514-.393.438-.711-.062-.263-.296-.45-.566-.454l-5.585.303c-.274.005-.503.208-.543.479l-.638 3.846c-.054.322.164.626.485.679.019.003.038.005.057.007l2.042.16c.323.027.607-.207.64-.527z"/><path d="m33.863 123.42-.351 2.808c-.032.262-.234.47-.495.511l-2.872.463c-.318.074-.515.392-.44.709.061.259.287.445.552.456l5.585-.303c.277-.004.512-.205.558-.479l.638-3.846c.054-.322-.164-.626-.485-.679-.019-.003-.038-.005-.057-.007l-2.058-.16c-.298.007-.543.232-.575.527z"/><path d="m32.921 66.534.303-2.808c.025-.259.222-.468.479-.511l2.888-.463c.317-.075.514-.393.438-.711-.062-.263-.296-.45-.566-.454l-5.585.303c-.274.005-.503.208-.543.479l-.638 3.846c-.054.322.164.626.485.679.019.003.038.005.057.007l2.042.16c.323.027.607-.207.64-.527z"/><path d="m33.863 123.42-.351 2.808c-.032.262-.234.47-.495.511l-2.872.463c-.318.074-.515.392-.44.709.061.259.287.445.552.456l5.585-.303c.277-.004.512-.205.558-.479l.638-3.846c.054-.322-.164-.626-.485-.679-.019-.003-.038-.005-.057-.007l-2.058-.16c-.298.007-.543.232-.575.527z"/><path d="m32.921 66.534.303-2.808c.025-.259.222-.468.479-.511l2.888-.463c.317-.075.514-.393.438-.711-.062-.263-.296-.45-.566-.454l-5.585.303c-.274.005-.503.208-.543.479l-.638 3.846c-.054.322.164.626.485.679.019.003.038.005.057.007l2.042.16c.323.027.607-.207.64-.527z"/><path d="m33.863 123.42-.351 2.808c-.032.262-.234.47-.495.511l-2.872.463c-.318.074-.515.392-.44.709.061.259.287.445.552.456l5.585-.303c.277-.004.512-.205.558-.479l.638-3.846c.054-.322-.164-.626-.485-.679-.019-.003-.038-.005-.057-.007l-2.058-.16c-.298.007-.543.232-.575.527z"/><path d="m25.533 67.635-.447-2.792c-.044-.26.094-.516.335-.622l2.665-1.197c.294-.14.419-.493.279-.787-.124-.26-.417-.392-.694-.314l-5.33 1.739c-.271.077-.442.344-.399.622l.399 3.878c.029.316.308.549.624.52.021-.002.041-.005.062-.009l2.027-.367c.31-.065.519-.357.479-.671z"/><path d="m41.203 122.319.447 2.792c.036.263-.108.517-.351.622l-2.665 1.197c-.304.119-.454.462-.335.766s.462.454.766.335l5.314-1.739c.267-.083.435-.346.399-.622l-.383-3.878c-.029-.316-.308-.549-.624-.52-.021.002-.041.005-.062.009l-2.027.367c-.311.065-.519.357-.479.671z"/><path d="m18.767 70.587-1.213-2.585c-.116-.238-.049-.524.16-.686l2.33-1.899c.229-.232.225-.606-.007-.835-.18-.177-.453-.22-.679-.107l-4.691 3.048c-.224.157-.316.444-.223.702l1.372 3.638c.112.306.451.464.757.352.014-.005.027-.011.041-.017l1.867-.894c.26-.134.383-.44.286-.717z"/><path d="m48.016 119.367 1.149 2.585c.106.242.034.525-.176.686l-2.266 1.819c-.24.221-.255.595-.034.834.189.205.496.25.736.107l4.675-3.048c.235-.148.335-.441.239-.702l-1.372-3.574c-.108-.307-.446-.469-.753-.36-.021.007-.041.016-.061.025l-1.851.894c-.267.135-.391.452-.286.734z"/><path d="m12.943 75.198-1.771-2.202c-.16-.207-.16-.495 0-.702l1.707-2.362c.193-.263.136-.632-.127-.825-.242-.177-.578-.145-.782.075l-3.75 4.213c-.177.213-.177.521 0 .734l2.266 3.191c.194.262.563.318.826.125.012-.009.024-.019.036-.029l1.596-1.34c.242-.191.284-.542.093-.784-.028-.035-.059-.066-.094-.094z"/><path d="m53.825 114.755 1.787 2.186c.157.214.157.504 0 .718l-1.723 2.362c-.207.256-.168.631.088.838s.631.168.838-.088l3.734-4.165c.177-.213.177-.521 0-.734l-2.266-3.191c-.194-.262-.563-.318-.826-.125-.012.009-.024.019-.036.029l-1.596 1.34c-.258.199-.347.517-.148.775.031.041.067.077.148.055z"/><path d="m8.523 81.166-2.282-1.596c-.203-.165-.285-.437-.207-.686l1.053-2.729c.095-.27-.012-.569-.255-.718-.28-.167-.642-.076-.81.203-.007.012-.014.024-.02.036l-2.521 4.994c-.124.244-.065.541.144.718l3.016 2.473c.266.204.646.154.85-.112.004-.005.008-.01.012-.016l1.165-1.691c.206-.264.158-.645-.106-.851-.014-.008-.026-.016-.039-.025z"/><path d="m58.261 108.787 2.266 1.596c.216.156.301.437.207.686l-1.037 2.729c-.095.312.082.642.394.736.258.078.535-.028.676-.258l2.537-4.994c.124-.244.065-.541-.144-.718l-3.016-2.473c-.266-.204-.646-.154-.85.112-.004.005-.008.01-.012.016l-1.165 1.691c-.208.251-.172.624.079.831.021.017.042.032.065.046z"/><path d="m5.794 88.075-2.601-1.021c-.243-.098-.393-.345-.367-.606l.303-2.904c.026-.325-.216-.61-.541-.636-.294-.024-.56.173-.624.46l-1.164 5.457c-.045.272.09.543.335.67l3.558 1.596c.297.134.647.003.781-.295.006-.013.012-.027.017-.041l.686-1.947c.094-.307-.076-.633-.383-.733z"/><path d="m60.973 101.878 2.649 1.021c.247.094.399.344.367.606l-.303 2.904c-.033.286.152.552.431.622.314.086.639-.098.726-.413.003-.011.006-.023.008-.034l1.149-5.456c.056-.274-.082-.551-.335-.67l-3.542-1.596c-.285-.14-.629-.022-.769.263-.011.023-.021.047-.029.072l-.686 1.947c-.109.295.041.622.334.734z"/><path d="m4.949 95.448-2.809-.304c-.267-.021-.481-.229-.511-.495l-.463-2.872c-.075-.317-.393-.514-.711-.438-.263.062-.45.296-.454.566l.287 5.585c.019.274.224.499.495.543l3.846.638c.332.046.638-.186.683-.518l.003-.024.16-2.058c.019-.316-.213-.59-.526-.623z"/><path d="m61.835 94.506 2.792.303c.265.019.483.217.527.479l.463 2.888c.075.317.393.514.711.438.263-.062.45-.296.454-.566l-.303-5.505c-.013-.276-.221-.504-.495-.543l-3.83-.638c-.322-.054-.626.164-.679.485-.003.019-.005.038-.007.057l-.16 2.042c.014.292.238.529.527.56z"/><path d="m6.05 102.788-2.856.447c-.266.033-.523-.109-.638-.351l-1.181-2.665c-.119-.304-.462-.454-.766-.335s-.454.462-.335.766l1.739 5.314c.082.26.335.427.606.399l3.878-.383c.317-.02.557-.293.537-.61-.002-.026-.005-.051-.01-.076l-.383-2.027c-.049-.286-.302-.491-.591-.479z"/><path d="m60.734 87.166 2.792-.447c.263-.036.517.108.622.351l1.277 2.665c.122.258.41.393.686.319.322-.093.507-.428.415-.75l-1.739-5.314c-.088-.262-.347-.428-.622-.399l-3.878.383c-.316.029-.549.309-.52.624.002.021.005.041.009.062l.367 2.027c.06.279.306.478.591.479z"/><path d="m9.002 109.601-2.617 1.149c-.247.109-.536.036-.702-.176l-1.835-2.266c-.221-.24-.595-.255-.834-.034-.205.189-.25.496-.107.736l3.048 4.675c.144.24.441.342.702.239l3.638-1.372c.305-.116.458-.457.342-.762-.007-.018-.014-.035-.023-.052l-.878-1.851c-.136-.267-.452-.391-.734-.286z"/><path d="m57.782 80.352 2.585-1.149c.242-.106.525-.034.686.176l1.851 2.266c.221.24.595.255.834.034.205-.189.25-.496.107-.736l-3.048-4.691c-.157-.224-.444-.316-.702-.223l-3.638 1.371c-.306.112-.464.451-.352.757.005.014.011.027.017.041l.894 1.867c.137.286.475.413.766.287z"/><path d="m13.613 115.426-2.202 1.771c-.207.16-.495.16-.702 0l-2.378-1.707c-.216-.186-.534-.186-.75 0-.238.236-.24.62-.004.858.001.001.003.003.004.004l4.165 3.734c.213.177.521.177.734 0l3.191-2.282c.266-.188.33-.557.142-.823-.009-.013-.019-.026-.03-.039l-1.34-1.596c-.239-.208-.602-.183-.81.056-.007.008-.013.016-.02.024z"/><path d="m53.17 74.528 2.186-1.771c.214-.157.504-.157.718 0l2.362 1.707c.223.182.543.182.766 0 .238-.223.25-.597.027-.835-.009-.009-.018-.018-.027-.027l-4.149-3.734c-.213-.177-.521-.177-.734 0l-3.191 2.282c-.262.194-.318.563-.125.826.009.012.019.024.029.036l1.34 1.596c.244.194.598.159.798-.08z"/><path d="m19.581 119.846-1.596 2.282c-.163.206-.44.283-.686.191l-2.792-1.053c-.27-.101-.573.006-.718.255-.164.271-.078.625.194.789.015.009.03.017.046.025l4.979 2.537c.249.127.552.067.734-.144l2.473-3.016c.204-.266.154-.646-.112-.85-.005-.004-.01-.008-.016-.012l-1.707-1.181c-.271-.164-.623-.086-.799.177z"/><path d="m47.203 70.108 1.596-2.282c.16-.21.44-.288.686-.191l2.729 1.037c.312.095.642-.082.736-.394.078-.258-.028-.535-.258-.676l-4.995-2.537c-.244-.124-.541-.065-.718.144l-2.473 3.016c-.206.253-.167.625.086.831.014.011.028.021.042.031l1.691 1.165c.264.206.645.158.851-.106.009-.013.018-.025.027-.038z"/><path d="m26.49 122.574-.957 2.633c-.098.244-.345.393-.606.367l-2.904-.303c-.323-.045-.621.18-.667.502-.044.312.165.604.475.662l5.473 1.149c.266.063.54-.071.654-.319l1.596-3.558c.134-.297.003-.647-.295-.781-.013-.006-.027-.012-.041-.017l-1.947-.686c-.29-.129-.629.001-.759.29-.007.02-.015.041-.022.061z"/><path d="m40.293 67.379 1.021-2.633c.094-.247.344-.399.606-.367l2.904.303c.325.026.61-.216.636-.541.024-.294-.173-.56-.461-.624l-5.473-1.149c-.266-.063-.54.071-.654.319l-1.596 3.558c-.127.31.022.664.332.791.006.003.012.005.019.007l1.931.686c.3.09.617-.061.735-.35z"/></g><path d="m128.136 85.139c-11.791-.009-21.357 9.543-21.366 21.334s9.543 21.357 21.334 21.366 21.357-9.543 21.366-21.334c0-.005 0-.011 0-.016 0-11.785-9.549-21.341-21.334-21.35z" fill="#3a556a"/><path d="m128.136 87.597c-10.434 0-18.893 8.459-18.893 18.893s8.459 18.893 18.893 18.893 18.893-8.459 18.893-18.893c-.009-10.431-8.463-18.884-18.893-18.893z" fill="#2f4859"/><path d="m128.136 94.139c-6.874-.009-12.453 5.556-12.462 12.43s5.556 12.453 12.43 12.462 12.454-5.556 12.462-12.43c0-.011 0-.021 0-.032-.009-6.861-5.569-12.421-12.43-12.43z" fill="#e1e6e9"/><path d="m128.136 102.804c-2.045-.009-3.709 1.641-3.718 3.686s1.641 3.709 3.686 3.718 3.709-1.641 3.718-3.686c0-.011 0-.021 0-.032 0-2.036-1.65-3.686-3.686-3.686z" fill="#3a556a"/><path d="m127.817 87.868.191-1.835c.021-.176.159-.314.335-.335l1.883-.303c.186-.031.322-.194.319-.383.01-.202-.147-.374-.349-.384-.017-.001-.033 0-.05.001l-3.654.191c-.181.011-.331.142-.367.319l-.415 2.521c-.036.208.104.406.313.442.013.002.025.004.038.005l1.34.096c.207.019.391-.13.416-.335z" fill="#2f4859"/><path d="m128.439 125.127-.191 1.835c-.019.171-.15.308-.319.335l-1.867.351c-.186.031-.322.194-.319.383-.01.202.147.374.349.384.017.001.033 0 .05-.001l3.654-.191c.181-.011.331-.142.367-.319l.415-2.521c.036-.208-.104-.406-.313-.442-.013-.002-.025-.004-.038-.005l-1.34-.112c-.208-.039-.408.097-.448.303z" fill="#2f4859"/><path d="m127.817 87.868.191-1.835c.021-.176.159-.314.335-.335l1.883-.303c.186-.031.322-.194.319-.383.01-.202-.147-.374-.349-.384-.017-.001-.033 0-.05.001l-3.654.191c-.181.011-.331.142-.367.319l-.415 2.521c-.036.208.104.406.313.442.013.002.025.004.038.005l1.34.096c.207.019.391-.13.416-.335z" fill="#2f4859"/><path d="m128.439 125.127-.191 1.835c-.019.171-.15.308-.319.335l-1.867.351c-.186.031-.322.194-.319.383-.01.202.147.374.349.384.017.001.033 0 .05-.001l3.654-.191c.181-.011.331-.142.367-.319l.415-2.521c.036-.208-.104-.406-.313-.442-.013-.002-.025-.004-.038-.005l-1.34-.112c-.208-.039-.408.097-.448.303z" fill="#2f4859"/><path d="m127.817 87.868.191-1.835c.021-.176.159-.314.335-.335l1.883-.303c.186-.031.322-.194.319-.383.01-.202-.147-.374-.349-.384-.017-.001-.033 0-.05.001l-3.654.191c-.181.011-.331.142-.367.319l-.415 2.521c-.036.208.104.406.313.442.013.002.025.004.038.005l1.34.096c.207.019.391-.13.416-.335z" fill="#2f4859"/><path d="m128.439 125.127-.191 1.835c-.019.171-.15.308-.319.335l-1.867.351c-.186.031-.322.194-.319.383-.01.202.147.374.349.384.017.001.033 0 .05-.001l3.654-.191c.181-.011.331-.142.367-.319l.415-2.521c.036-.208-.104-.406-.313-.442-.013-.002-.025-.004-.038-.005l-1.34-.112c-.208-.039-.408.097-.448.303z" fill="#2f4859"/><path d="m123.014 88.586-.287-1.835c-.034-.17.061-.339.223-.399l1.739-.782c.177-.079.271-.275.223-.463-.059-.203-.271-.32-.474-.262-.007.002-.014.004-.021.007l-3.479 1.133c-.173.052-.286.219-.271.399l.255 2.537c.015.211.197.37.408.356.013-.001.026-.002.038-.005l1.324-.255c.208-.033.35-.224.322-.431z" fill="#2f4859"/><path d="m133.242 124.457.287 1.819c.029.173-.063.344-.223.415l-1.739.782c-.174.074-.263.267-.207.447.042.198.236.325.435.283.015-.003.03-.007.044-.012l3.495-1.133c.163-.063.267-.224.255-.399l-.255-2.553c-.013-.202-.187-.356-.389-.343-.019.001-.039.004-.058.008l-1.324.255c-.208.033-.35.225-.321.431z" fill="#2f4859"/><path d="m118.546 90.517-.75-1.691c-.061-.158-.016-.337.112-.447l1.484-1.213c.172-.123.211-.363.088-.535s-.363-.211-.535-.088l-3.08 1.995c-.147.104-.206.294-.144.463l.894 2.394c.075.198.297.297.494.221.011-.004.022-.009.032-.014l1.213-.574c.189-.094.272-.317.192-.511z" fill="#2f4859"/><path d="m137.71 122.478.75 1.691c.072.157.026.343-.112.447l-1.484 1.213c-.14.124-.179.327-.096.495.116.183.357.239.543.128l3.112-1.995c.144-.099.203-.283.144-.447l-.894-2.394c-.075-.198-.297-.297-.494-.221-.011.004-.022.009-.032.014l-1.213.574c-.193.082-.291.298-.224.495z" fill="#2f4859"/><path d="m114.732 93.549-1.149-1.452v-.463l1.117-1.596c.121-.143.121-.352 0-.495-.132-.154-.363-.173-.517-.041-.015.013-.029.026-.041.041l-2.441 2.792c-.112.14-.112.339 0 .479l1.484 2.074c.145.154.387.162.541.017.006-.006.012-.011.017-.017l1.021-.878c.1-.141.087-.334-.032-.461z" fill="#2f4859"/><path d="m141.524 119.447 1.165 1.436v.479l-1.117 1.596c-.112.179-.057.416.122.528.149.093.342.073.468-.049l2.457-2.729c.112-.14.112-.339 0-.479l-1.5-2.074c-.145-.154-.387-.162-.541-.017-.006.006-.012.011-.017.017l-1.021.878c-.087.122-.093.284-.016.414z" fill="#2f4859"/><path d="m111.844 97.442-1.5-1.085c-.143-.1-.197-.286-.128-.447l.686-1.771c.073-.198-.029-.419-.227-.492-.183-.067-.388.014-.475.188l-1.596 3.191c-.094.161-.053.367.096.479l1.979 1.596c.164.134.405.11.539-.054.007-.008.013-.017.02-.026l.766-1.101c.06-.176-.005-.373-.16-.478z" fill="#2f4859"/><path d="m144.412 115.537 1.5 1.101c.143.1.197.286.128.447l-.686 1.787c-.084.198.009.427.207.511s.427-.009.511-.207l1.596-3.191c.084-.166.037-.367-.112-.479l-1.963-1.596c-.164-.146-.411-.146-.574 0l-.75 1.117c-.098.181-.034.406.143.51z" fill="#2f4859"/><path d="m110.105 101.974-1.723-.67c-.165-.059-.265-.226-.239-.399l.191-1.899c.031-.212-.116-.408-.327-.439s-.408.116-.439.327l-.75 3.574c-.04.174.046.353.207.431l2.33 1.053c.191.09.42.009.51-.182.006-.013.012-.027.017-.041l.447-1.277c.064-.193-.034-.404-.224-.478z" fill="#2f4859"/><path d="m146.199 111.021 1.723.67c.167.058.273.223.255.399l-.207 1.899c-.004.186.112.353.287.415.215.049.429-.085.478-.3 0-.001.001-.002.001-.003l.75-3.574c.047-.175-.041-.358-.207-.431l-2.33-1.053c-.191-.09-.42-.009-.51.182-.006.013-.012.027-.017.041l-.447 1.261c-.066.198.032.413.224.494z" fill="#2f4859"/><path d="m109.498 106.809-1.835-.207c-.176-.007-.319-.144-.335-.319l-.303-1.883c-.031-.186-.194-.322-.383-.319-.202-.01-.374.147-.384.349-.001.017 0 .033.001.05l.191 3.654c.011.181.142.331.319.367l2.521.415c.208.036.406-.104.442-.313.002-.013.004-.025.005-.038l.112-1.34c.018-.211-.138-.396-.348-.415-.001-.001-.002-.001-.003-.001z" fill="#2f4859"/><path d="m146.805 106.186 1.835.191c.179.015.32.157.335.335l.303 1.883c.031.186.194.322.383.319.202-.016.353-.192.337-.395-.001-.007-.001-.014-.002-.02l-.191-3.67c-.006-.179-.141-.328-.319-.351l-2.521-.415c-.208-.036-.406.104-.442.313-.002.013-.004.025-.005.038l-.112 1.34c-.018.22.146.412.366.43.011.002.022.003.033.002z" fill="#2f4859"/><path d="m110.216 111.692-1.835.287c-.169.028-.334-.065-.399-.223l-.782-1.739c-.075-.198-.296-.298-.495-.223-.198.075-.298.296-.223.495l1.133 3.479c.052.173.219.286.399.271l2.553-.255c.211-.017.368-.202.351-.413-.002-.028-.008-.055-.016-.082l-.255-1.324c-.054-.189-.239-.305-.431-.273z" fill="#2f4859"/><path d="m146.039 101.383 1.835-.287c.169-.028.334.065.399.223l.782 1.739c.08.176.278.265.463.207.196-.05.315-.25.265-.446-.003-.011-.006-.022-.01-.033l-1.133-3.495c-.058-.167-.223-.273-.399-.255l-2.537.255c-.211.015-.37.197-.356.408.001.013.002.026.005.038l.255 1.324c.033.209.225.351.431.322z" fill="#2f4859"/><path d="m112.147 116.08-1.691.75c-.158.061-.337.016-.447-.112l-1.213-1.484c-.123-.172-.363-.211-.535-.088s-.211.363-.088.535l1.931 3.08c.107.142.294.2.463.144l2.394-.894c.198-.075.297-.297.221-.494-.004-.011-.009-.022-.014-.032l-.574-1.213c-.089-.158-.272-.237-.447-.192z" fill="#2f4859"/><path d="m144.109 96.916 1.691-.75c.157-.072.343-.026.447.112l1.213 1.484c.128.172.371.208.543.08s.208-.371.08-.543l-1.995-3.064c-.101-.152-.294-.212-.463-.144l-2.394.894c-.198.075-.297.297-.221.494.004.011.009.022.014.032l.574 1.213c.093.188.317.272.511.192z" fill="#2f4859"/><path d="m115.179 119.893-1.436 1.149h-.447l-1.596-1.117c-.179-.112-.416-.057-.528.122-.093.149-.073.342.049.468l2.729 2.457c.14.112.339.112.479 0l2.074-1.484c.154-.145.162-.387.017-.541-.006-.006-.011-.012-.017-.017l-.878-1.021c-.128-.105-.311-.112-.446-.016z" fill="#2f4859"/><path d="m141.077 93.102 1.452-1.165h.463l1.596 1.117c.14.128.355.128.495 0 .154-.145.162-.387.017-.541-.006-.006-.011-.012-.017-.017l-2.729-2.441c-.14-.112-.339-.112-.479 0l-2.074 1.5c-.154.145-.162.387-.017.541.006.006.011.012.017.017l.878 1.021c.127.065.281.053.398-.032z" fill="#2f4859"/><path d="m119.088 122.861-1.101 1.5c-.106.134-.286.185-.447.128l-1.787-.686c-.176-.07-.377.006-.463.176-.106.172-.053.399.119.505.013.008.026.015.04.021l3.191 1.596c.162.087.363.047.479-.096l1.596-1.979c.152-.155.152-.403 0-.558l-1.117-.766c-.184-.094-.411-.024-.51.159z" fill="#2f4859"/><path d="m137.231 90.214 1.101-1.5c.1-.143.286-.197.447-.128l1.787.686c.198.084.427-.009.511-.207s-.009-.427-.207-.511l-3.191-1.596c-.166-.077-.364-.031-.479.112l-1.596 1.963c-.159.153-.163.405-.01.564.003.004.007.007.01.01l1.101.75c.183.106.417.044.524-.138 0-.002.001-.004.002-.005z" fill="#2f4859"/><path d="m123.604 124.569-.67 1.723c-.059.165-.226.265-.399.239l-1.899-.191c-.189-.015-.362.105-.415.287-.049.215.085.429.3.478.001 0 .002.001.003.001l3.574.75c.154.015.301-.068.367-.207l1.053-2.33c.09-.191.009-.42-.182-.51-.013-.006-.027-.012-.041-.017l-1.261-.447c-.177-.031-.353.06-.43.224z" fill="#2f4859"/><path d="m132.652 88.426.67-1.723c.058-.167.223-.273.399-.255l1.899.207c.212.031.408-.116.439-.327s-.116-.408-.327-.439l-3.574-.75c-.175-.047-.358.041-.431.207l-1.053 2.41c-.09.191-.009.42.182.51.013.006.027.012.041.017l1.261.447c.213.058.432-.068.489-.281.001-.008.003-.015.005-.023z" fill="#2f4859"/><path d="m73.404 79.491c-3.191-6.383-12.622-20.744-31.77-23.536-13.473-2.143-27.245 1.145-38.297 9.143-1.153.88-1.689 2.35-1.372 3.766l.766 3.479c.222.962 1.182 1.561 2.143 1.339.288-.066.555-.203.777-.398 6.383-5.537 11.569-9.016 16.978-10.659 7.207-2.157 14.901-2.063 22.052.271 15.957 5.154 20.106 14.84 21.127 18.287.214.714.852 1.218 1.596 1.261h4.069c1.145.028 2.097-.877 2.125-2.022.008-.322-.058-.641-.194-.931z" fill="#e56353"/><path d="m84.574 27.758-1.915-3.75c-.305-.598-.924-.97-1.596-.957-14.345-1.915-28.882-1.915-43.227 0-.67-.008-1.288.362-1.596.957l-1.851 3.75c-.441.863-.098 1.921.765 2.361.257.131.542.197.831.192h46.993c.969.018 1.769-.753 1.787-1.723.005-.287-.06-.573-.191-.83z" fill="#e56353"/><path d="m101.568 32.625h12.079v6.096h-12.079z" fill="#3a556a"/></g></svg>