<svg height="512" viewBox="0 0 512 512" width="512" xmlns="http://www.w3.org/2000/svg"><g id="Fill_out_line" data-name="Fill out line"><path d="m360 136h32v88h-32z" fill="#68737f"/><path d="m96 96h32v124h-32z" fill="#68737f"/><path d="m292.267 248-20.267-152h32l16 128z" fill="#d4e4f0"/><path d="m152 232v-56h32l16 64z" fill="#68737f"/><path d="m232 352h-136v-120h77l59 80z" fill="#d6323f"/><path d="m488 224-8 128h-255.67l16-56h47.67v-80z" fill="#e04446"/><path d="m224.33 296h63.67v56h-63.67z" fill="#d6323f"/><path d="m256 352h-32a112.02829 112.02829 0 0 0 -168.01-97.00977l-16-27.71044a144.025 144.025 0 0 1 216.01 124.72021z" fill="#e04446"/><path d="m486 256-5 80h-49a32.00409 32.00409 0 0 1 -32-32v-16a32.00409 32.00409 0 0 1 32-32z" fill="#68737f"/><rect fill="#e04446" height="32" rx="16" width="248" x="80" y="64"/><circle cx="112" cy="352" fill="#68737f" r="88"/><circle cx="112" cy="352" fill="#ffefd6" r="40"/><circle cx="432" cy="392" fill="#68737f" r="56"/><circle cx="432" cy="392" fill="#ffefd6" r="16"/><circle cx="112" cy="336" r="8"/><circle cx="128" cy="352" r="8"/><circle cx="112" cy="368" r="8"/><circle cx="96" cy="352" r="8"/><path d="m112 304a48 48 0 1 0 48 48 48.05375 48.05375 0 0 0 -48-48zm0 80a32 32 0 1 1 32-32 32.03667 32.03667 0 0 1 -32 32z"/><path d="m432 368a24 24 0 1 0 24 24 24.0275 24.0275 0 0 0 -24-24zm0 32a8 8 0 1 1 8-8 8.00917 8.00917 0 0 1 -8 8z"/><path d="m485.83691 357.46045a7.96747 7.96747 0 0 0 2.14747-4.96143l8-128a7.99932 7.99932 0 0 0 -7.665-8.49218l-88.31938-3.53272v-76.47412a8.00039 8.00039 0 0 0 -8-8h-7.5293a46.27406 46.27406 0 0 1 13.18653-26.34277l-11.31446-11.31446a62.15192 62.15192 0 0 0 -17.98977 37.65723h-8.353a8.00039 8.00039 0 0 0 -8 8v74.5542l-25.74658-1.03-13.19434-105.551a23.99822 23.99822 0 0 0 -1.05908-47.9732h-216a23.99787 23.99787 0 0 0 -8 46.62378v99.29053a151.51338 151.51338 0 0 0 -52.01758 18.44116 7.99909 7.99909 0 0 0 -2.91992 10.92383l16 27.71093a7.99868 7.99868 0 0 0 10.93457 2.92383 103.42352 103.42352 0 0 1 28.00293-11.11106v8.23462a96.0045 96.0045 0 1 0 119.66382 100.96238h40.33618v32a8.00039 8.00039 0 0 0 8 8h48a8.00039 8.00039 0 0 0 8-8v-32h64.60986a64.00156 64.00156 0 1 0 109.227-2.53955zm-53.83691-29.46045a24.0275 24.0275 0 0 1 -24-24v-16a24.0275 24.0275 0 0 1 24-24h45.48413l-.5 8h-44.98413v16h43.98438l-1 16h-42.98438v16h41.98438l-1.40918 22.54492a63.70356 63.70356 0 0 0 -40.5752-14.54492zm-64-184h16v67.834l-16-.63989zm-104 192h32v16h-32zm0-16v-16h32v16zm-8-32a7.95846 7.95846 0 0 0 -5.24438 1.96875 152.87844 152.87844 0 0 0 -44.24927-56.92775l-14.74561-58.98145a7.99866 7.99866 0 0 0 -7.76074-6.05955h-32a8.00039 8.00039 0 0 0 -8 8v27.40039q-3.96349-.8529-8-1.499v-97.90139h128.99609l15.00391 112.53027v9.3396l-20.75146-12.45087 4.17919-10.44825-14.85546-5.9414-16 40 14.85546 5.9414 5.80127-14.50317 26.771 16.06242v43.47zm-69.33472-68.35547a151.24177 151.24177 0 0 0 -26.66528-11.87231v-23.77222h17.75391zm108.37549-11.3689-13.90332-104.27563h15.80005l13.10986 104.876zm-199.04077-136.27563h216a8 8 0 0 1 0 16h-216a8 8 0 0 1 0-16zm8 32h16v96.21021q-3.97449-.20691-8-.21021c-2.67261 0-5.33887.09009-8 .23zm0 144.31982c2.65649-.20434 5.32422-.31982 8-.31982a104.13966 104.13966 0 0 1 103.69531 96h-8.03149a96.12677 96.12677 0 0 0 -95.66382-88c-2.69434 0-5.36133.11719-8 .33594zm54.70264 168.57227-7.77491-13.46631-13.85546 8 7.78613 13.48584a79.32136 79.32136 0 0 1 -24.8584 6.6875v-15.59912h-16v15.59912a79.32136 79.32136 0 0 1 -24.8584-6.6875l7.78613-13.48584-13.85546-8-7.77491 13.46631a80.65186 80.65186 0 0 1 -18.18945-18.18945l13.46631-7.77491-8-13.85546-13.48584 7.78613a79.3281 79.3281 0 0 1 -6.6875-24.8584h15.59912v-16h-15.59912a79.3281 79.3281 0 0 1 6.6875-24.8584l13.48584 7.78613 8-13.85546-13.46631-7.77491a80.65186 80.65186 0 0 1 18.18945-18.18945l7.77491 13.46631 13.85546-8-7.78613-13.48584a79.32136 79.32136 0 0 1 24.8584-6.6875v15.59912h16v-15.59912a79.32136 79.32136 0 0 1 24.8584 6.6875l-7.78613 13.48584 13.85546 8 7.77491-13.46631a80.65186 80.65186 0 0 1 18.18945 18.18945l-13.46631 7.77491 8 13.85546 13.48584-7.78613a79.3281 79.3281 0 0 1 6.6875 24.8584h-15.59912v16h15.59912a79.3281 79.3281 0 0 1 -6.6875 24.8584l-13.48584-7.78613-8 13.85546 13.46631 7.77491a80.65186 80.65186 0 0 1 -18.18945 18.18945zm73.03369-72.89209a120.04456 120.04456 0 0 0 -172.68653-99.71l-8.0166-13.88379a136.0499 136.0499 0 0 1 60.9668-14.40621c72.30371 0 131.61035 56.7207 135.76758 128zm32.26367 40v-16h32v16zm40-96h-8v-63.67383l183.50488 7.34083-1.02075 16.333h-46.48413a40.04584 40.04584 0 0 0 -40 40v16a39.90539 39.90539 0 0 0 13.37939 29.82178 64.17688 64.17688 0 0 0 -15.64404 10.17822h-77.73535v-48a8.00039 8.00039 0 0 0 -8-8zm151.69727 145.7168-5.23536-14.3828-15.03515 5.47266 5.2395 14.39453a47.4082 47.4082 0 0 1 -17.33252 0l5.2395-14.39453-15.03515-5.47266-5.23536 14.38282a48.33341 48.33341 0 0 1 -13.27124-11.13575l13.25562-7.65332-8-13.85546-13.272 7.66259a47.7616 47.7616 0 0 1 -3.01511-16.73488c0-.11328.00781-.2251.00854-.33838l15.08814 2.66065 2.7793-15.75782-15.09107-2.66113a48.00407 48.00407 0 0 1 8.686-14.99121l9.83178 11.7168 12.25586-10.28516-9.83855-11.7251a47.66872 47.66872 0 0 1 16.28-5.93945v15.3208h16v-15.3208a47.66872 47.66872 0 0 1 16.28 5.93945l-9.83862 11.7251 12.25586 10.28516 9.83178-11.7168a48.00407 48.00407 0 0 1 8.686 14.99121l-15.09102 2.66113 2.7793 15.75782 15.08814-2.66065c.00073.11328.00854.2251.00854.33838a47.7616 47.7616 0 0 1 -3.01514 16.73486l-13.272-7.66259-8 13.85546 13.25562 7.65332a48.33341 48.33341 0 0 1 -13.27119 11.13575z"/><path d="m320 240h32v16h-32z"/><path d="m320 264h32v16h-32z"/><path d="m320 288h32v16h-32z"/></g></svg>