<?xml version="1.0" encoding="iso-8859-1"?>
<!-- Generator: Adobe Illustrator 19.0.0, SVG Export Plug-In . SVG Version: 6.00 Build 0)  -->
<svg version="1.1" id="Capa_1" xmlns="http://www.w3.org/2000/svg" xmlns:xlink="http://www.w3.org/1999/xlink" x="0px" y="0px"
	 viewBox="0 0 512 512" style="enable-background:new 0 0 512 512;" xml:space="preserve">
<path style="fill:#9AA7B8;" d="M90.048,126.152c-4.33,0-7.84-3.51-7.84-7.84V59.498c0-18.786,15.283-34.068,34.068-34.068h5.361
	c4.33,0,7.84,3.51,7.84,7.84s-3.51,7.84-7.84,7.84h-5.361c-10.14,0-18.389,8.249-18.389,18.389v58.816
	C97.887,122.643,94.377,126.152,90.048,126.152z"/>
<path style="fill:#444D56;" d="M101.013,117.268H80.95c-8.113,0-14.691,6.577-14.691,14.691v95.835h49.444v-95.835
	C115.704,123.845,109.126,117.268,101.013,117.268z"/>
<path style="fill:#2C343A;" d="M101.434,117.29c-0.141-0.004-0.279-0.021-0.421-0.021H80.95c-8.113,0-14.691,6.577-14.691,14.691
	v95.835h20.905V131.96C87.165,123.988,93.517,117.514,101.434,117.29z"/>
<polygon style="fill:#EAA50C;" points="436.11,72.05 436.11,228.402 240.572,405.282 182.716,405.282 182.716,222.569 
	214.43,105.499 218.548,90.29 "/>
<polyline style="fill:#A0D9F2;" points="282.521,227.199 212.388,226.516 241.254,119.953 406.439,119.953 406.439,214.64 "/>
<path style="fill:#D18E07;" d="M406.439,235.038H282.521c-0.025,0-0.051,0-0.076,0l-70.132-0.683
	c-2.428-0.023-4.707-1.171-6.173-3.105c-1.465-1.935-1.953-4.44-1.318-6.783l28.866-106.563c0.926-3.417,4.027-5.79,7.567-5.79
	h165.185c4.331,0,7.84,3.51,7.84,7.84V227.2C414.279,231.528,410.77,235.038,406.439,235.038z M282.556,219.359H398.6v-91.567
	H247.253l-24.645,90.983L282.556,219.359z"/>
<path style="fill:#A56B04;" d="M484.562,360.62h20.071c4.209,0,7.566-3.526,7.358-7.729
	c-4.027-81.251-71.198-145.884-153.457-145.846c-85.023,0.04-153.493,70.012-153.493,155.035v43.206v0.002h68.823"/>
<path style="fill:#EAA50C;" d="M162.558,405.288h42.483l-22.32-182.718H35.307c-19.501,0-35.304,15.802-35.304,35.313v147.405"/>
<path style="fill:#F7B32D;" d="M35.307,222.57c-19.501,0-35.304,15.802-35.304,35.313v39.72c0-19.511,15.802-35.313,35.304-35.313
	h147.414v-39.72L35.307,222.57L35.307,222.57z"/>
<circle style="fill:#444D56;" cx="358.611" cy="360.616" r="125.955"/>
<circle style="fill:#9AA7B8;" cx="358.611" cy="360.616" r="78.552"/>
<circle style="fill:#1D2C30;" cx="358.611" cy="360.616" r="29.595"/>
<circle style="fill:#444D56;" cx="81.28" cy="405.29" r="81.28"/>
<circle style="fill:#9AA7B8;" cx="81.28" cy="405.29" r="39.356"/>
<path style="fill:#1D2C30;" d="M81.28,452.482c-26.024,0-47.196-21.172-47.196-47.196c0-26.024,21.172-47.196,47.196-47.196
	s47.196,21.172,47.196,47.196C128.476,431.31,107.304,452.482,81.28,452.482z M81.28,373.769c-17.379,0-31.517,14.138-31.517,31.517
	c0,17.379,14.138,31.517,31.517,31.517s31.517-14.138,31.517-31.517C112.797,387.908,98.659,373.769,81.28,373.769z"/>
<path style="fill:#A56B04;" d="M184.177,60.139h236.856c8.324,0,15.073,6.748,15.073,15.073v15.073H184.177
	c-8.325,0-15.073-6.748-15.073-15.073l0,0C169.105,66.888,175.853,60.139,184.177,60.139z"/>
<path style="fill:#FFE300;" d="M24.845,307.843c18.93,0,34.275-15.346,34.275-34.275s-15.346-34.275-34.275-34.275
	C24.845,239.292,24.845,307.843,24.845,307.843z"/>
<path style="fill:#E5C505;" d="M24.845,290.074v17.77c18.93,0,34.275-15.346,34.275-34.275c0-3.074-0.411-6.051-1.17-8.885
	C54.036,279.304,40.702,290.074,24.845,290.074z"/>
<g>
	<path style="fill:#444D56;" d="M143.393,256.348h-35.6c-4.33,0-7.84-3.51-7.84-7.84c0-4.33,3.51-7.84,7.84-7.84h35.6
		c4.329,0,7.84,3.51,7.84,7.84C151.233,252.838,147.723,256.348,143.393,256.348z"/>
	<path style="fill:#444D56;" d="M143.393,281.072h-35.6c-4.33,0-7.84-3.51-7.84-7.84s3.51-7.84,7.84-7.84h35.6
		c4.329,0,7.84,3.51,7.84,7.84S147.723,281.072,143.393,281.072z"/>
	<path style="fill:#444D56;" d="M143.393,305.795h-35.6c-4.33,0-7.84-3.51-7.84-7.84c0-4.329,3.51-7.84,7.84-7.84h35.6
		c4.329,0,7.84,3.51,7.84,7.84C151.233,302.285,147.723,305.795,143.393,305.795z"/>
</g>
<polygon style="fill:#DB950B;" points="436.11,90.29 436.11,105.499 214.43,105.499 218.548,90.29 "/>
<g>
</g>
<g>
</g>
<g>
</g>
<g>
</g>
<g>
</g>
<g>
</g>
<g>
</g>
<g>
</g>
<g>
</g>
<g>
</g>
<g>
</g>
<g>
</g>
<g>
</g>
<g>
</g>
<g>
</g>
</svg>
