<svg id="flat" height="512" viewBox="0 0 512 512" width="512" xmlns="http://www.w3.org/2000/svg"><path d="m448 296v-73.88963a8 8 0 0 0 -5.89506-7.71811l-81.07135-22.11037a8 8 0 0 0 -2.10493-.28189h-78.92866v104z" fill="#eeac13"/><path d="m384 304-21.65685-21.65685a8 8 0 0 0 -5.65686-2.34315h-148.68629v64h176z" fill="#8c410b"/><path d="m56 272v-46.94095a16 16 0 0 1 7.76807-13.71989l28.43174-17.059a16.00008 16.00008 0 0 1 8.23193-2.28016h62.72385a16 16 0 0 1 8.8752 2.6872l36.84441 24.56294a16 16 0 0 1 7.1248 13.3128v39.43706z" fill="#eeac13"/><circle cx="128" cy="328" fill="#efe8e0" r="104"/><path d="m128 216a112 112 0 1 0 112 112 112.12582 112.12582 0 0 0 -112-112zm0 168a56 56 0 1 1 56-56 56.06353 56.06353 0 0 1 -56 56z" fill="#544d4c"/><circle cx="416" cy="360" fill="#efe8e0" r="72"/><g fill="#544d4c"><path d="m416 280a80 80 0 1 0 80 80 80.09416 80.09416 0 0 0 -80-80zm0 112a32 32 0 1 1 32-32 32.036 32.036 0 0 1 -32 32z"/><circle cx="128" cy="328" r="8"/><path d="m320 232h-16v-104a7.9942 7.9942 0 0 1 2.34375-5.65625l16-16 11.3125 11.3125-13.65625 13.65625z"/></g><path d="m408 232h40v32h-28.68631a8 8 0 0 1 -5.65685-2.34315l-11.3137-11.3137a8 8 0 0 1 -2.34314-5.65686v-4.68629a8 8 0 0 1 8-8z" fill="#ffeaaa"/><path d="m253.656 178.344-18.343-18.344 10.343-10.344-11.312-11.312-32 32 11.312 11.312 10.344-10.343 18.344 18.343z" fill="#8f8781"/><path d="m280 248-43.17878-50.37524a8 8 0 0 1 .4172-10.86318l16.41843-16.41843a8 8 0 0 1 5.65686-2.34315h20.68629z" fill="#544d4c"/><path d="m240 240h40v16h-40z" fill="#544d4c"/><circle cx="416" cy="360" fill="#544d4c" r="8"/><path d="m288 280h-16v-124.6875l-35.3125-35.3125h-76.6875v72h-16v-80a7.99539 7.99539 0 0 1 8-8h88a7.9942 7.9942 0 0 1 5.65625 2.34375l37.65625 37.65625a16.11511 16.11511 0 0 1 4.6875 11.3125z" fill="#8f8781"/><path d="m237.57778 80h-101.57778a8 8 0 0 0 -8 8v24h136v-11.71853a8 8 0 0 0 -3.5624-6.6564l-18.42222-12.28147a7.99994 7.99994 0 0 0 -4.4376-1.3436z" fill="#eeac13"/><path d="m316.6863 232h-36.6863v72a8 8 0 0 0 8 8h40a8 8 0 0 0 8-8v-52.68628a8 8 0 0 0 -2.34314-5.65685l-11.3137-11.31372a8 8 0 0 0 -5.65686-2.34315z" fill="#c47010"/></svg>