<?xml version="1.0" encoding="iso-8859-1"?>
<!-- Generator: Adobe Illustrator 19.0.0, SVG Export Plug-In . SVG Version: 6.00 Build 0)  -->
<svg version="1.1" id="Capa_1" xmlns="http://www.w3.org/2000/svg" xmlns:xlink="http://www.w3.org/1999/xlink" x="0px" y="0px"
	 viewBox="0 0 512 512" style="enable-background:new 0 0 512 512;" xml:space="preserve">
<g>
	<polygon style="fill:#FEDD0A;" points="469.333,166.4 376.917,166.4 299.264,244.139 323.328,268.203 391.083,200.533 
		469.333,200.533 	"/>
	<g>
		<polygon style="fill:#FFA800;" points="469.333,200.533 469.333,354.133 503.467,354.133 503.467,166.4 469.333,166.4 		"/>
		<path style="fill:#FFA800;" d="M76.8,388.267h256c18.851,0,34.133,15.282,34.133,34.133v17.067
			c0,18.851-15.282,34.133-34.133,34.133h-256c-18.851,0-34.133-15.282-34.133-34.133V422.4
			C42.667,403.549,57.949,388.267,76.8,388.267z"/>
	</g>
	<path style="fill:#FFFFFF;" d="M42.667,388.267h256c18.851,0,34.133,15.282,34.133,34.133v17.067
		c0,18.851-15.282,34.133-34.133,34.133h-256c-18.851,0-34.133-15.282-34.133-34.133V422.4
		C8.533,403.549,23.815,388.267,42.667,388.267z"/>
	<path style="fill:#FEDD0A;" d="M68.267,388.267H307.2c18.851,0,34.133,15.282,34.133,34.133v17.067
		c0,18.851-15.282,34.133-34.133,34.133H68.267c-18.851,0-34.133-15.282-34.133-34.133V422.4
		C34.133,403.549,49.415,388.267,68.267,388.267z"/>
	<path d="M332.8,482.133H42.667C19.114,482.106,0.028,463.019,0,439.467V422.4c0.028-23.553,19.114-42.639,42.667-42.667H332.8
		c23.553,0.028,42.639,19.114,42.667,42.667v17.067C375.439,463.019,356.353,482.106,332.8,482.133L332.8,482.133z M42.667,396.8
		c-14.132,0.015-25.585,11.468-25.6,25.6v17.067c0.015,14.132,11.468,25.585,25.6,25.6H332.8c14.132-0.015,25.585-11.468,25.6-25.6
		V422.4c-0.015-14.132-11.468-25.585-25.6-25.6H42.667z"/>
	<rect x="85.333" y="302.933" style="fill:#FFA800;" width="247.467" height="85.333"/>
	<rect x="51.2" y="302.933" style="fill:#FFFFFF;" width="247.467" height="85.333"/>
	<path style="fill:#FFA800;" d="M332.8,302.933H256v-68.267h8.533c18.107-0.005,35.474,7.186,48.277,19.989
		C325.614,267.46,332.805,284.826,332.8,302.933z"/>
	<g>
		<rect x="76.8" y="302.933" style="fill:#FEDD0A;" width="230.4" height="85.333"/>
		<path style="fill:#FEDD0A;" d="M307.2,302.933H256V236.8C286.143,244.601,307.198,271.797,307.2,302.933L307.2,302.933z"/>
	</g>
	<path d="M332.8,396.8H51.2c-2.263,0.001-4.434-0.898-6.035-2.499c-1.6-1.6-2.499-3.771-2.499-6.035v-85.333
		c-0.001-2.263,0.898-4.434,2.499-6.035s3.771-2.499,6.035-2.499h281.6c2.263-0.001,4.434,0.898,6.035,2.499
		c1.6,1.6,2.499,3.771,2.499,6.035v85.333c0.001,2.263-0.898,4.434-2.499,6.035C337.234,395.902,335.063,396.801,332.8,396.8z
		 M59.733,379.733h264.533v-68.267H59.733V379.733z"/>
	<path style="fill:#FFA800;" d="M247.467,302.933H34.133c-14.138,0-25.6-11.462-25.6-25.6v-85.334L8.534,46.933
		c0-4.713,3.821-8.533,8.533-8.533h165.121c3.372,0,6.428,1.986,7.798,5.068l65.279,146.877c0.485,1.091,0.735,2.272,0.735,3.466
		V294.4C256,299.113,252.18,302.933,247.467,302.933z"/>
	<path style="fill:#FFFFFF;" d="M57.088,302.933h-25.6c-13.4-0.747-23.667-12.198-22.955-25.6v-230.4
		c-0.225-4.474,3.207-8.288,7.68-8.533h25.6c-4.473,0.245-7.905,4.06-7.68,8.533v230.4
		C33.421,290.735,43.688,302.186,57.088,302.933L57.088,302.933z"/>
	<path style="fill:#FEDD0A;" d="M230.4,193.792V294.4c0.225,4.474-3.207,8.288-7.68,8.533H57.088
		c-13.4-0.747-23.667-12.198-22.955-25.6v-230.4c-0.225-4.474,3.207-8.288,7.68-8.533h122.368c3.154,0.057,5.942,2.063,6.997,5.035
		l58.539,146.945C230.164,191.462,230.396,192.621,230.4,193.792z"/>
	<g>
		<path d="M247.467,311.467H34.133C17.467,311.521,3.216,299.49,0.475,283.05c-0.506-3.007,0.63-6.056,2.982-7.997
			s5.56-2.482,8.417-1.417s4.929,3.574,5.435,6.581c1.375,8.212,8.499,14.218,16.825,14.183h213.333v-93.867h-102.4
			c-9.421-0.011-17.056-7.645-17.067-17.067v-102.4c0.011-9.421,7.645-17.056,17.067-17.067h44.658l-7.579-17.108L17.067,46.933V64
			h76.8c9.421,0.011,17.056,7.645,17.067,17.067v102.4c-0.011,9.421-7.645,17.056-17.067,17.067h-76.8v12.8
			c0,4.713-3.821,8.533-8.533,8.533S0,218.046,0,213.333V192c-0.001-2.263,0.898-4.434,2.499-6.035s3.771-2.499,6.035-2.499h85.333
			v-102.4H8.533c-2.263,0.001-4.434-0.898-6.035-2.499c-1.6-1.6-2.499-3.771-2.499-6.035v-25.6
			c0.011-9.421,7.645-17.056,17.067-17.067h165.121c6.726,0.002,12.822,3.958,15.563,10.1l12.892,29.108
			c1.169,2.64,0.924,5.692-0.651,8.112c-1.575,2.42-4.266,3.88-7.153,3.88h-57.771v102.4h110.763c4.237,0,7.833,3.108,8.446,7.3
			c0.158,1.001,0.244,2.012,0.258,3.025V294.4C264.523,303.821,256.888,311.456,247.467,311.467z"/>
		<path d="M8.533,256c-2.27,0.021-4.453-0.871-6.059-2.475c-0.754-0.831-1.361-1.783-1.796-2.817
			c-0.436-1.026-0.667-2.127-0.679-3.242c0.031-2.259,0.915-4.423,2.475-6.059c0.829-0.753,1.78-1.359,2.813-1.792
			c3.178-1.341,6.852-0.634,9.305,1.792c1.558,1.636,2.441,3.8,2.475,6.059c-0.014,1.115-0.246,2.216-0.683,3.242
			c-0.435,1.033-1.041,1.985-1.792,2.817C12.986,255.129,10.803,256.021,8.533,256L8.533,256z"/>
	</g>
	<g>
		<path style="fill:#34A9F7;" d="M102.4,81.067v102.4c0,4.693-2.444,8.533-5.43,8.533H42.667V72.533H96.97
			C99.956,72.533,102.4,76.373,102.4,81.067z"/>
		<path style="fill:#34A9F7;" d="M255.829,192H145.067c-4.707-0.014-8.52-3.826-8.533-8.533v-102.4
			c0.014-4.707,3.826-8.52,8.533-8.533h57.856l52.309,117.846C255.469,190.905,255.668,191.446,255.829,192z"/>
	</g>
	<g>
		<path style="fill:#55C9FC;" d="M76.971,81.067v102.4c0,4.693-1.752,8.533-3.894,8.533H34.133V72.533h38.943
			C75.218,72.533,76.971,76.373,76.971,81.067z"/>
		<path style="fill:#55C9FC;" d="M230.4,192h-85.333c-4.707-0.014-8.52-3.826-8.533-8.533v-102.4
			c0.014-4.707,3.826-8.52,8.533-8.533h32.341l52.395,117.846C230.039,190.905,230.239,191.446,230.4,192z"/>
	</g>
	<g>
		<path d="M93.867,200.533H8.533c-2.263,0.001-4.434-0.898-6.035-2.499c-1.6-1.6-2.499-3.771-2.499-6.035V72.533
			c-0.001-2.263,0.898-4.434,2.499-6.035c1.6-1.6,3.771-2.499,6.035-2.499h85.333c9.421,0.011,17.056,7.645,17.067,17.067v102.4
			C110.923,192.888,103.288,200.523,93.867,200.533L93.867,200.533z M17.067,183.467h76.8V81.092l-76.8-0.025V183.467z"/>
		<path d="M255.829,200.533H145.067c-9.421-0.011-17.056-7.645-17.067-17.067v-102.4c0.011-9.421,7.645-17.056,17.067-17.067h57.858
			c3.374,0.002,6.431,1.991,7.8,5.075l52.308,117.85c0.324,0.706,0.599,1.432,0.825,2.175c0.853,2.636,0.416,5.519-1.179,7.783
			C261.107,199.121,258.563,200.476,255.829,200.533L255.829,200.533z M145.067,81.067v102.4h97.729l-45.421-102.4H145.067z"/>
		<path d="M256,200.533h-0.171c-4.697-0.047-8.473-3.88-8.45-8.578s3.838-8.493,8.535-8.493c4.697,0,8.512,3.795,8.535,8.493
			C264.473,196.653,260.697,200.486,256,200.533L256,200.533z"/>
	</g>
	<g>
		<circle style="fill:#FFA800;" cx="59.733" cy="430.933" r="17.067"/>
		<circle style="fill:#FFA800;" cx="315.733" cy="430.933" r="17.067"/>
	</g>
	<g>
		<path d="M59.733,456.533c-14.138,0-25.6-11.462-25.6-25.6c0-14.138,11.462-25.6,25.6-25.6s25.6,11.462,25.6,25.6
			C85.318,445.065,73.865,456.518,59.733,456.533L59.733,456.533z M59.733,422.4c-4.713,0-8.533,3.82-8.533,8.533
			s3.821,8.533,8.533,8.533s8.533-3.82,8.533-8.533C68.262,426.222,64.444,422.405,59.733,422.4L59.733,422.4z"/>
		<path d="M315.733,456.533c-14.138,0-25.6-11.462-25.6-25.6c0-14.138,11.462-25.6,25.6-25.6c14.138,0,25.6,11.462,25.6,25.6
			C341.318,445.065,329.865,456.518,315.733,456.533L315.733,456.533z M315.733,422.4c-4.713,0-8.533,3.82-8.533,8.533
			s3.821,8.533,8.533,8.533c4.713,0,8.533-3.82,8.533-8.533C324.262,426.222,320.444,422.405,315.733,422.4L315.733,422.4z"/>
	</g>
	<rect x="136.533" y="302.933" style="fill:#FFA800;" width="85.333" height="85.333"/>
	<g>
		<path d="M221.867,396.8h-85.333c-2.263,0.001-4.434-0.898-6.035-2.499c-1.6-1.6-2.499-3.771-2.499-6.035v-85.333
			c-0.001-2.263,0.898-4.434,2.499-6.035c1.6-1.6,3.771-2.499,6.035-2.499h85.333c2.263-0.001,4.434,0.898,6.035,2.499
			c1.6,1.6,2.499,3.771,2.499,6.035v85.333c0.001,2.263-0.898,4.434-2.499,6.035C226.301,395.902,224.13,396.801,221.867,396.8z
			 M145.067,379.733h68.267v-68.267h-68.267V379.733z"/>
		<path d="M119.467,226.133c-2.263,0.001-4.434-0.898-6.035-2.499s-2.499-3.771-2.499-6.035v-8.533c0-4.713,3.821-8.533,8.533-8.533
			c4.713,0,8.533,3.821,8.533,8.533v8.533c0.001,2.263-0.898,4.434-2.499,6.035C123.901,225.235,121.73,226.134,119.467,226.133
			L119.467,226.133z"/>
		<path d="M119.467,268.8c-2.263,0.001-4.434-0.898-6.035-2.499c-1.6-1.6-2.499-3.771-2.499-6.035v-8.533
			c0-4.713,3.821-8.533,8.533-8.533c4.713,0,8.533,3.821,8.533,8.533v8.533c0.001,2.263-0.898,4.434-2.499,6.035
			C123.901,267.902,121.73,268.801,119.467,268.8L119.467,268.8z"/>
		<path d="M119.467,311.467c-2.263,0.001-4.434-0.898-6.035-2.499c-1.6-1.6-2.499-3.771-2.499-6.035V294.4
			c0-4.713,3.821-8.533,8.533-8.533c4.713,0,8.533,3.821,8.533,8.533v8.533c0.001,2.263-0.898,4.434-2.499,6.035
			C123.901,310.568,121.73,311.467,119.467,311.467L119.467,311.467z"/>
		<path d="M332.8,311.467H256c-2.263,0.001-4.434-0.898-6.035-2.499c-1.6-1.6-2.499-3.771-2.499-6.035v-68.267
			c-0.001-2.263,0.898-4.434,2.499-6.035c1.6-1.6,3.771-2.499,6.035-2.499h8.533c42.396,0.048,76.752,34.404,76.8,76.8
			c0.001,2.263-0.898,4.434-2.499,6.035C337.234,310.568,335.063,311.467,332.8,311.467L332.8,311.467z M264.533,294.4h59.125
			c-4.28-29.37-29.445-51.162-59.125-51.2V294.4z"/>
	</g>
	<path style="fill:#FC7308;" d="M503.467,354.133v85.333c0.002,9.053-3.593,17.737-9.995,24.139
		c-6.402,6.402-15.085,9.997-24.139,9.995h-76.8l76.8-119.467H503.467z"/>
	<path style="fill:#FFA800;" d="M477.867,354.133v85.333c0.002,9.053-3.593,17.737-9.995,24.139
		c-6.402,6.402-15.085,9.997-24.139,9.995h-51.2l76.8-119.467H477.867z"/>
	<g>
		<path d="M469.333,482.133h-76.8c-3.123,0.001-5.997-1.703-7.493-4.444c-1.496-2.741-1.376-6.08,0.314-8.706l76.8-119.467
			c1.571-2.442,4.276-3.917,7.179-3.917h34.133c2.263-0.001,4.434,0.898,6.035,2.499c1.6,1.6,2.499,3.771,2.499,6.035v85.333
			C511.972,463.019,492.886,482.106,469.333,482.133z M408.162,465.067h61.171c14.132-0.015,25.585-11.468,25.6-25.6v-76.8h-20.942
			L408.162,465.067z"/>
		<path d="M503.467,362.667h-34.133c-2.263,0.001-4.434-0.898-6.035-2.499c-1.6-1.6-2.499-3.771-2.499-6.035V209.067h-66.183
			l-65.258,65.175c-3.34,3.312-8.729,3.298-12.051-0.032c-3.322-3.329-3.325-8.719-0.007-12.052l67.754-67.667
			c1.602-1.595,3.769-2.49,6.029-2.492h78.25c2.263-0.001,4.434,0.898,6.035,2.499c1.6,1.6,2.499,3.771,2.499,6.035V345.6h17.067
			V174.933H380.454L305.3,250.175c-3.338,3.302-8.715,3.289-12.036-0.03c-3.321-3.319-3.338-8.697-0.038-12.036l77.654-77.741
			c1.601-1.601,3.773-2.501,6.038-2.5h126.55c2.263-0.001,4.434,0.898,6.035,2.499c1.6,1.6,2.499,3.771,2.499,6.035v187.733
			c0.001,2.263-0.898,4.434-2.499,6.035C507.901,361.768,505.73,362.667,503.467,362.667z"/>
		<path d="M469.333,209.067c-3.451-0.001-6.562-2.08-7.882-5.268c-1.32-3.188-0.591-6.858,1.849-9.298l34.133-34.133
			c3.341-3.281,8.701-3.256,12.012,0.054c3.311,3.311,3.335,8.671,0.054,12.012l-34.133,34.133
			C473.768,208.169,471.597,209.069,469.333,209.067L469.333,209.067z"/>
		<path d="M392.542,209.067c-3.238,0.001-6.199-1.828-7.646-4.725l-16.555-33.192c-2.067-4.212-0.346-9.303,3.853-11.397
			s9.301-0.405,11.422,3.781l16.555,33.192c1.01,2.025,1.174,4.368,0.456,6.514s-2.26,3.918-4.285,4.928
			C395.163,208.761,393.862,209.069,392.542,209.067z"/>
		<path d="M221.867,337.067h-85.333c-4.713,0-8.533-3.82-8.533-8.533s3.821-8.533,8.533-8.533h85.333
			c4.713,0,8.533,3.82,8.533,8.533S226.579,337.067,221.867,337.067z"/>
		<path d="M221.867,371.2h-85.333c-4.713,0-8.533-3.82-8.533-8.533s3.821-8.533,8.533-8.533h85.333c4.713,0,8.533,3.82,8.533,8.533
			S226.579,371.2,221.867,371.2z"/>
		<path d="M42.667,123.733c-3.451-0.001-6.562-2.08-7.882-5.268c-1.32-3.188-0.591-6.858,1.849-9.298l8.533-8.533
			c3.341-3.281,8.701-3.256,12.012,0.054s3.335,8.671,0.054,12.012l-8.533,8.533C47.102,122.836,44.93,123.736,42.667,123.733
			L42.667,123.733z"/>
		<path d="M42.667,166.4c-3.451-0.001-6.562-2.08-7.882-5.268c-1.32-3.188-0.591-6.858,1.849-9.298l25.6-25.6
			c3.341-3.281,8.701-3.256,12.012,0.054c3.311,3.311,3.335,8.671,0.054,12.012l-25.6,25.6
			C47.102,165.503,44.93,166.403,42.667,166.4L42.667,166.4z"/>
	</g>
</g>
<g>
</g>
<g>
</g>
<g>
</g>
<g>
</g>
<g>
</g>
<g>
</g>
<g>
</g>
<g>
</g>
<g>
</g>
<g>
</g>
<g>
</g>
<g>
</g>
<g>
</g>
<g>
</g>
<g>
</g>
</svg>
