<svg id="Flat" height="512" viewBox="0 0 64 64" width="512" xmlns="http://www.w3.org/2000/svg"><path d="m46 25a1 1 0 0 1 -1-1v-3.764a.994.994 0 0 0 -.553-.894 1 1 0 0 1 .895-1.789 2.984 2.984 0 0 1 1.658 2.683v3.764a1 1 0 0 1 -1 1z" fill="#fcbc04"/><path d="m9 33h40a8 8 0 0 1 8 8v12a0 0 0 0 1 0 0h-48a0 0 0 0 1 0 0v-20a0 0 0 0 1 0 0z" fill="#f8664f"/><path d="m30 53h5v-20h-3z" fill="#cc5144"/><path d="m35 33h14a8 8 0 0 1 8 8v2a0 0 0 0 1 0 0h-12a10 10 0 0 1 -10-10 0 0 0 0 1 0 0z" fill="#f89c8d"/><circle cx="53" cy="53" fill="#57b7eb" r="8"/><circle cx="53" cy="53" fill="#f9e109" r="4"/><path d="m55 59a7.995 7.995 0 0 1 -6.565-12.565 8 8 0 1 0 11.13 11.13 7.96 7.96 0 0 1 -4.565 1.435z" fill="#4891d3"/><path d="m52 51a3.96 3.96 0 0 1 3.929 4.707 3.992 3.992 0 1 0 -6.858-3.414 3.979 3.979 0 0 1 2.929-1.293z" fill="#fcbc04"/><path d="m27.877 17h-12.557a4 4 0 0 0 -3.932 3.263l-2.388 12.737h26l-3.243-12.97a4 4 0 0 0 -3.88-3.03z" fill="#aae1f9"/><path d="m20.994 30a6 6 0 0 1 -5.931-6.912l.937-6.088h-.68a4 4 0 0 0 -3.932 3.263l-2.388 12.737h26l-.75-3z" fill="#57b7eb"/><path d="m44 23h4v10h-4z" fill="#fcbc04"/><path d="m17 22a2 2 0 0 1 2 2v9a0 0 0 0 1 0 0h-4a0 0 0 0 1 0 0v-9a2 2 0 0 1 2-2z" fill="#c4f236"/><path d="m19 29h4a3 3 0 0 1 3 3v1a0 0 0 0 1 0 0h-7a0 0 0 0 1 0 0v-4a0 0 0 0 1 0 0z" fill="#c4f236"/><circle cx="16" cy="48" fill="#57b7eb" r="12"/><circle cx="16" cy="48" fill="#f9e109" r="6"/><circle cx="16" cy="48" fill="#e59730" r="2"/><path d="m18 57a11.98 11.98 0 0 1 -10.867-17.065 11.99 11.99 0 1 0 19.734 13.13 11.954 11.954 0 0 1 -8.867 3.935z" fill="#4891d3"/><path d="m15 44a5.986 5.986 0 0 1 5.77 7.629 6 6 0 1 0 -10.54-5.258 5.982 5.982 0 0 1 4.77-2.371z" fill="#fcbc04"/><g fill="#4891d3"><path d="m10 59.392a1 1 0 0 1 -.865-1.5l1-1.732a1 1 0 0 1 1.732 1l-1 1.732a1 1 0 0 1 -.867.5z"/><path d="m21 40.34a1 1 0 0 1 -.865-1.5l1-1.732a1 1 0 0 1 1.732 1l-1 1.732a1 1 0 0 1 -.867.5z"/><path d="m5.609 55a1 1 0 0 1 -.5-1.866l1.732-1a1 1 0 1 1 1 1.732l-1.732 1a1 1 0 0 1 -.5.134z"/><path d="m24.661 44a1 1 0 0 1 -.5-1.866l1.732-1a1 1 0 0 1 1 1.732l-1.732 1a.992.992 0 0 1 -.5.134z"/><path d="m6 49h-2a1 1 0 0 1 0-2h2a1 1 0 0 1 0 2z"/><path d="m28 49h-2a1 1 0 0 1 0-2h2a1 1 0 0 1 0 2z"/><path d="m7.339 44a.992.992 0 0 1 -.5-.134l-1.732-1a1 1 0 1 1 1-1.732l1.732 1a1 1 0 0 1 -.5 1.866z"/><path d="m26.391 55a1 1 0 0 1 -.5-.134l-1.732-1a1 1 0 0 1 1-1.732l1.732 1a1 1 0 0 1 -.5 1.866z"/><path d="m11 40.34a1 1 0 0 1 -.867-.5l-1-1.732a1 1 0 0 1 1.732-1l1 1.732a1 1 0 0 1 -.865 1.5z"/><path d="m22 59.392a1 1 0 0 1 -.867-.5l-1-1.732a1 1 0 1 1 1.732-1l1 1.732a1 1 0 0 1 -.865 1.5z"/><path d="m16 39a1 1 0 0 1 -1-1v-2a1 1 0 0 1 2 0v2a1 1 0 0 1 -1 1z"/><path d="m16 61a1 1 0 0 1 -1-1v-2a1 1 0 0 1 2 0v2a1 1 0 0 1 -1 1z"/></g><path d="m15 23.993v9.007h4v-3.34a6 6 0 0 1 -4-5.667z" fill="#a1d51c"/><path d="m25.221 30h-4.227a5.984 5.984 0 0 1 -1.994-.34v3.34h7v-1a2.978 2.978 0 0 0 -.779-2z" fill="#a1d51c"/><path d="m25.816 31h-5.816a2.962 2.962 0 0 1 -1-.184v2.184h7v-1a2.962 2.962 0 0 0 -.184-1z" fill="#7ab92d"/><path d="m17 22a0 0 0 0 1 0 0v11a0 0 0 0 1 0 0h-2a0 0 0 0 1 0 0v-9a2 2 0 0 1 2-2z" fill="#a1d51c"/><path d="m17.04 28.487a5.979 5.979 0 0 1 -2.04-4.494v9.007h4v-2.184a3 3 0 0 1 -1.96-2.329z" fill="#7ab92d"/><path d="m45 23h3a0 0 0 0 1 0 0v8a0 0 0 0 1 0 0 3 3 0 0 1 -3-3v-5a0 0 0 0 1 0 0z" fill="#f9e109"/><circle cx="53" cy="53" fill="#4891d3" r="1"/><path d="m29 27h4a.977.977 0 0 0 .467-.131l-.467-1.869h-4a1 1 0 0 0 0 2z" fill="#4891d3"/><path d="m29 29a1 1 0 0 1 -1-1v-4a1 1 0 0 1 2 0v4a1 1 0 0 1 -1 1z" fill="#4891d3"/><path d="m50 41a1 1 0 0 1 -1-1v-3a1 1 0 0 1 2 0v3a1 1 0 0 1 -1 1z" fill="#cc5144"/><path d="m46 41a1 1 0 0 1 -1-1v-3a1 1 0 0 1 2 0v3a1 1 0 0 1 -1 1z" fill="#cc5144"/><path d="m42 41a1 1 0 0 1 -1-1v-3a1 1 0 0 1 2 0v3a1 1 0 0 1 -1 1z" fill="#cc5144"/><path d="m34 33h2v20h-2z" fill="#fcbc04"/><path d="m31 41a1 1 0 0 1 -1-1v-3a1 1 0 0 1 2 0v3a1 1 0 0 1 -1 1z" fill="#57b7eb"/></svg>