<svg id="Capa_1" enable-background="new 0 0 512 512" height="512" viewBox="0 0 512 512" width="512" xmlns="http://www.w3.org/2000/svg"><g><g fill="#655e67"><path d="m500.908 224.516c-4.204 0-7.612-3.408-7.612-7.611v-16.046c0-5.695-4.632-10.328-10.327-10.328h-59.52c-4.204 0-7.612-3.408-7.612-7.611 0-4.204 3.407-7.611 7.612-7.611h59.52c14.088 0 25.55 11.462 25.55 25.551v16.046c.001 4.203-3.407 7.61-7.611 7.61z"/><path d="m11.092 224.516c-4.204 0-7.611-3.408-7.611-7.611v-16.046c0-14.089 11.462-25.551 25.551-25.551h59.519c4.204 0 7.611 3.408 7.611 7.611 0 4.204-3.408 7.611-7.611 7.611h-59.52c-5.695 0-10.328 4.633-10.328 10.328v16.046c0 4.205-3.407 7.612-7.611 7.612z"/><path d="m322.971 93.495c-4.204 0-7.612-3.408-7.612-7.611v-51.087c0-10.793-8.781-19.574-19.574-19.574h-79.57c-10.793 0-19.574 8.781-19.574 19.574v51.087c0 4.204-3.408 7.611-7.611 7.611-4.204 0-7.611-3.408-7.611-7.611v-51.087c-.001-19.187 15.609-34.797 34.796-34.797h79.57c19.187 0 34.797 15.61 34.797 34.797v51.087c0 4.203-3.407 7.611-7.611 7.611z"/></g><path d="m399.652 512h-287.304c-18.748 0-33.946-15.198-33.946-33.946v-364.098l178.144-20 177.052 20v364.098c0 18.748-15.198 33.946-33.946 33.946z" fill="#77d1b3"/><path d="m398.078 109.956v368.098c0 18.748-15.198 33.946-33.946 33.946h35.52c18.748 0 33.946-15.198 33.946-33.946v-364.098z" fill="#67b59f"/><path d="m28.085 89.771c0 13.357 10.828 24.185 24.185 24.185h407.462c13.357 0 24.185-10.828 24.185-24.185s-10.828-24.185-24.185-24.185h-407.463c-13.357 0-24.184 10.828-24.184 24.185z" fill="#f9bf64"/><path d="m459.731 65.586h-35.52c13.357 0 24.185 10.828 24.185 24.185s-10.828 24.185-24.185 24.185h35.52c13.357 0 24.185-10.828 24.185-24.185s-10.828-24.185-24.185-24.185z" fill="#e9a761"/><g fill="#67b59f"><path d="m169.054 412.049c-4.204 0-7.611-3.408-7.611-7.612v-182.92c0-4.204 3.408-7.611 7.611-7.611 4.204 0 7.611 3.408 7.611 7.611v182.92c0 4.204-3.408 7.612-7.611 7.612z"/><path d="m256 412.049c-4.204 0-7.611-3.408-7.611-7.612v-182.92c0-4.204 3.408-7.611 7.611-7.611 4.204 0 7.612 3.408 7.612 7.611v182.92c0 4.204-3.408 7.612-7.612 7.612z"/><path d="m342.947 412.049c-4.204 0-7.611-3.408-7.611-7.612v-182.92c0-4.204 3.407-7.611 7.611-7.611s7.612 3.408 7.612 7.611v182.92c-.001 4.204-3.408 7.612-7.612 7.612z"/></g></g></svg>