<svg id="Capa_1" enable-background="new 0 0 512 512" height="512" viewBox="0 0 512 512" width="512" xmlns="http://www.w3.org/2000/svg"><g><path d="m438.233 466.367v29.85c0 4.575-3.708 8.283-8.283 8.283h-33.133c-4.575 0-8.283-3.709-8.283-8.283v-29.85z" fill="#5a5a5a"/><path d="m415.233 466.367v29.85c0 4.575-3.708 8.283-8.283 8.283h23c4.575 0 8.283-3.709 8.283-8.283v-29.85z" fill="#464646"/><path d="m123.467 466.367v29.85c0 4.575-3.709 8.283-8.283 8.283h-33.134c-4.575 0-8.283-3.709-8.283-8.283v-29.85z" fill="#5a5a5a"/><path d="m100.466 466.367v29.85c0 4.575-3.708 8.283-8.283 8.283h23c4.575 0 8.283-3.709 8.283-8.283v-29.85z" fill="#464646"/><path d="m24.067 173.167v-5h463.867v5l-14.828 266.905c-.975 17.558-15.497 31.295-33.082 31.295h-368.047c-17.585 0-32.107-13.738-33.082-31.295z" fill="#9ed9ae"/><path d="m464.933 168.167v5l-14.828 266.905c-.976 17.558-15.497 31.295-33.082 31.295h23c17.585 0 32.106-13.737 33.082-31.295l14.828-266.905v-5z" fill="#81c8ac"/><g><path d="m49.25 15.783h413.5v68.662h-413.5z" fill="#6a60b2"/><path d="m479.65 7.5h-16.567c-4.575 0-8.283 3.708-8.283 8.283v49.7c0 4.575-3.709 8.283-8.283 8.283h-57.983c-4.575 0-8.283-3.709-8.283-8.283v-49.7c0-4.575-3.709-8.283-8.283-8.283h-16.568c-4.575 0-8.283 3.708-8.283 8.283v49.7c0 4.575-3.709 8.283-8.283 8.283h-57.984c-4.575 0-8.283-3.709-8.283-8.283v-49.7c0-4.575-3.709-8.283-8.283-8.283h-16.567c-4.575 0-8.283 3.708-8.283 8.283v49.7c0 4.575-3.709 8.283-8.283 8.283h-57.983c-4.575 0-8.283-3.709-8.283-8.283v-49.7c0-4.575-3.708-8.283-8.283-8.283h-16.567c-4.575 0-8.283 3.708-8.283 8.283v49.7c0 4.575-3.709 8.283-8.283 8.283h-57.986c-4.575 0-8.283-3.709-8.283-8.283v-49.7c0-4.575-3.709-8.283-8.283-8.283h-16.567c-4.575 0-8.283 3.708-8.283 8.283v96.117h463.867v-96.117c-.001-4.575-3.709-8.283-8.284-8.283z" fill="#766eb8"/><g><path d="m479.65 7.5h-16.567c-1.141 0-2.228.231-3.216.648 2.977 1.256 5.066 4.201 5.066 7.635v96.117h23v-96.117c0-4.575-3.708-8.283-8.283-8.283z" fill="#5d519d"/></g><path d="m496.5 173.167h-481c-4.418 0-8-3.582-8-8v-50.267c0-4.418 3.582-8 8-8h481c4.418 0 8 3.582 8 8v50.267c0 4.418-3.582 8-8 8z" fill="#6a60b2"/><path d="m496.5 106.9h-23c4.418 0 8 3.582 8 8v50.267c0 4.419-3.582 8-8 8h23c4.418 0 8-3.581 8-8v-50.267c0-4.418-3.582-8-8-8z" fill="#5d529d"/></g><path d="m496.5 256h-481c-4.418 0-8-3.582-8-8v-17.133c0-4.418 3.582-8 8-8h481c4.418 0 8 3.582 8 8v17.133c0 4.418-3.582 8-8 8z" fill="#bbe6a9"/><path d="m496.5 222.867h-23c4.418 0 8 3.582 8 8v17.133c0 4.418-3.582 8-8 8h23c4.418 0 8-3.582 8-8v-17.133c0-4.419-3.582-8-8-8z" fill="#9edaab"/></g><g><path d="m496.5 180.667c8.547 0 15.5-6.953 15.5-15.5v-50.267c0-8.547-6.953-15.5-15.5-15.5h-1.066v-83.617c0-8.702-7.081-15.783-15.784-15.783h-16.567c-5.99 0-11.21 3.355-13.884 8.283h-63.349c-2.673-4.928-7.893-8.283-13.883-8.283h-16.567c-5.99 0-11.211 3.355-13.884 8.283h-63.349c-2.673-4.928-7.894-8.283-13.884-8.283h-16.566c-5.99 0-11.211 3.355-13.884 8.283h-63.349c-2.673-4.928-7.894-8.283-13.884-8.283h-16.566c-5.99 0-11.211 3.355-13.884 8.283h-63.349c-2.673-4.928-7.894-8.283-13.884-8.283h-16.567c-8.703 0-15.783 7.081-15.783 15.783v83.617h-1.067c-8.547 0-15.5 6.953-15.5 15.5v50.267c0 8.547 6.953 15.5 15.5 15.5h1.472l1.928 34.7h-3.4c-8.547 0-15.5 6.953-15.5 15.5v17.133c0 8.547 6.953 15.5 15.5 15.5h6.074l2.367 42.618c.222 3.994 3.529 7.084 7.481 7.084.14 0 .281-.004.423-.012 4.136-.229 7.302-3.768 7.072-7.904l-2.32-41.786h438.806l-8.37 150.667h-422.066l-4.434-79.816c-.229-4.136-3.759-7.294-7.904-7.072-4.136.23-7.302 3.769-7.072 7.904l5.85 105.305c1.088 19.587 15.949 35.306 34.86 37.975v17.755c0 8.703 7.08 15.783 15.783 15.783h33.134c8.703 0 15.783-7.08 15.783-15.783v-17.35h250.066v17.35c0 8.703 7.08 15.783 15.783 15.783h33.134c8.703 0 15.783-7.08 15.783-15.783v-17.755c18.911-2.668 33.772-18.388 34.86-37.975l9.832-176.987h6.074c8.547 0 15.5-6.953 15.5-15.5v-17.133c0-8.547-6.953-15.5-15.5-15.5h-3.4l1.928-34.7h1.473zm-380.533 315.55c0 .432-.352.783-.783.783h-33.134c-.432 0-.783-.352-.783-.783v-17.35h34.7zm313.983.783h-33.134c-.432 0-.783-.352-.783-.783v-17.35h34.7v17.35c0 .431-.351.783-.783.783zm10.073-33.133h-368.046c-13.597 0-24.839-10.635-25.594-24.211l-.583-10.489h420.4l-.583 10.489c-.755 13.576-11.997 24.211-25.594 24.211zm-52.273-440.584h59.55v42.2c0 .432-.352.783-.783.783h-57.983c-.432 0-.783-.352-.783-.783v-42.2zm-107.684 0h59.55v42.2c0 .432-.352.783-.783.783h-57.983c-.432 0-.783-.352-.783-.783v-42.2zm-107.682 0h59.55v42.2c0 .432-.352.783-.783.783h-57.983c-.432 0-.783-.352-.783-.783v-42.2zm-107.684 0h59.55v42.2c0 .432-.352.783-.783.783h-57.984c-.432 0-.783-.352-.783-.783zm-49.7 141.884v-50.267c0-.276.225-.5.5-.5h116.25c4.143 0 7.5-3.358 7.5-7.5s-3.357-7.5-7.5-7.5h-100.184v-83.617c0-.432.352-.783.783-.783h16.567c.432 0 .783.352.783.783v49.7c0 8.703 7.08 15.783 15.783 15.783h57.983c8.703 0 15.783-7.081 15.783-15.783v-49.7c0-.432.352-.783.783-.783h16.569c.433 0 .784.352.784.783v49.7c0 8.703 7.08 15.783 15.783 15.783h57.983c8.703 0 15.783-7.081 15.783-15.783v-49.7c0-.432.352-.783.783-.783h16.566c.432 0 .783.352.783.783v49.7c0 8.703 7.08 15.783 15.783 15.783h57.983c8.703 0 15.783-7.081 15.783-15.783v-49.7c0-.432.352-.783.784-.783h16.566c.432 0 .783.352.783.783v49.7c0 8.703 7.08 15.783 15.783 15.783h57.983c8.703 0 15.783-7.081 15.783-15.783v-49.7c0-.432.352-.783.783-.783h16.567c.432 0 .783.352.783.783v83.617h-318.679c-4.143 0-7.5 3.358-7.5 7.5s3.357 7.5 7.5 7.5h334.75c.275 0 .5.224.5.5v50.267c0 .276-.225.5-.5.5h-481c-.275 0-.5-.225-.5-.5zm482 65.7v17.133c0 .276-.225.5-.5.5h-481c-.275 0-.5-.224-.5-.5v-17.133c0-.276.225-.5.5-.5h469.661c.006 0 .012.001.018.001.003 0 .007-.001.01-.001h11.311c.275 0 .5.224.5.5zm-18.923-15.5h-444.154l-1.928-34.7h448.01z"/><path d="m291.005 381.033h-18.438c-4.143 0-7.5 3.358-7.5 7.5s3.357 7.5 7.5 7.5h18.438c7.749 0 14.807-3.935 18.88-10.527 4.074-6.591 4.438-14.664.972-21.595l-5.933-11.866c-1.851-3.705-6.356-5.205-10.061-3.354-3.705 1.853-5.207 6.357-3.354 10.062l5.933 11.866c1.619 3.239.319 5.975-.315 7.001-.636 1.027-2.502 3.413-6.122 3.413z"/><path d="m275.853 293.903c-3.784-7.568-11.392-12.27-19.853-12.27s-16.068 4.701-19.852 12.27l-12.505 25.01c-1.853 3.705-.351 8.21 3.354 10.062 3.706 1.853 8.211.351 10.062-3.354l12.505-25.01c1.245-2.491 3.651-3.978 6.436-3.978s5.191 1.487 6.436 3.978l12.507 25.015c1.313 2.628 3.963 4.148 6.714 4.147 1.127 0 2.272-.255 3.348-.793 3.705-1.853 5.207-6.358 3.354-10.062z"/><path d="m220.492 358.754c1.852-3.705.351-8.21-3.354-10.062-3.707-1.854-8.211-.351-10.062 3.354l-5.933 11.865c-3.466 6.93-3.103 15.003.972 21.595 4.073 6.592 11.131 10.527 18.88 10.527h18.438c4.143 0 7.5-3.358 7.5-7.5s-3.357-7.5-7.5-7.5h-18.438c-3.62 0-5.486-2.387-6.12-3.413-.635-1.026-1.935-3.762-.315-7.001z"/></g></svg>