<?xml version="1.0" encoding="iso-8859-1"?>
<!-- Generator: Adobe Illustrator 22.1.0, SVG Export Plug-In . SVG Version: 6.00 Build 0)  -->
<svg xmlns="http://www.w3.org/2000/svg" xmlns:xlink="http://www.w3.org/1999/xlink" version="1.1" id="Layer_3" x="0px" y="0px" viewBox="0 0 64 64" style="enable-background:new 0 0 64 64;" xml:space="preserve" width="512" height="512">
<g>
	<g>
		<polyline style="fill:#70A17B;" points="6,30 8,16 26,16 28,30   "/>
	</g>
	<g>
		<polygon style="fill:#95D6A4;" points="8,16 6,30 25,30 23,16   "/>
	</g>
	<g>
		<polyline style="fill:#38513E;" points="36,34 34,34 34,30 60,30 60,34 58,34   "/>
	</g>
	<g>
		<polygon style="fill:#54795C;" points="34,30 34,34 36,34 55,34 57,34 57,30   "/>
	</g>
	<g>
		<rect x="36" y="34" style="fill:#70A17B;" width="22" height="24"/>
	</g>
	<g>
		<rect x="36" y="34" style="fill:#95D6A4;" width="19" height="24"/>
	</g>
	<g>
		<rect x="6" y="34" style="fill:#70A17B;" width="22" height="24"/>
	</g>
	<g>
		<rect x="6" y="34" style="fill:#95D6A4;" width="19" height="24"/>
	</g>
	<g>
		<rect x="40" y="40" style="fill:#AD4B53;" width="14" height="12"/>
	</g>
	<g>
		<rect x="40" y="40" style="fill:#E6646E;" width="11" height="12"/>
	</g>
	<g>
		<rect x="10" y="40" style="fill:#BFA95E;" width="14" height="12"/>
	</g>
	<g>
		<rect x="10" y="40" style="fill:#FFE17D;" width="11" height="12"/>
	</g>
	<g>
		<polyline style="fill:#70A17B;" points="36,30 38,16 56,16 58,30   "/>
	</g>
	<g>
		<polygon style="fill:#95D6A4;" points="38,16 36,30 55,30 53,16   "/>
	</g>
	<g>
		<polyline style="fill:#38513E;" points="6,34 4,34 4,30 30,30 30,34 28,34   "/>
	</g>
	<g>
		<polygon style="fill:#54795C;" points="4,30 4,34 6,34 25,34 27,34 27,30   "/>
	</g>
	<g>
		<rect x="42" y="20" style="fill:#A5BF83;" width="10" height="6"/>
	</g>
	<g>
		<rect x="42" y="20" style="fill:#DCFFAF;" width="7" height="6"/>
	</g>
	<g>
		<rect x="12" y="20" style="fill:#A5BF83;" width="10" height="6"/>
	</g>
	<g>
		<rect x="12" y="20" style="fill:#DCFFAF;" width="7" height="6"/>
	</g>
	<g>
		<rect x="2" y="58" style="fill:#6E6D6E;" width="60" height="4"/>
	</g>
	<g>
		<rect x="2" y="58" style="fill:#A4A3A5;" width="57" height="4"/>
	</g>
	<g>
		<path style="fill:#A5BF83;" d="M19,12L19,12c1.921,0,3.763-0.763,5.121-2.121l0.757-0.757C26.237,7.763,27,5.921,27,4v0h0    c-1.921,0-3.763,0.763-5.121,2.121l-0.757,0.757C19.763,8.237,19,10.079,19,12L19,12z"/>
	</g>
	<g>
		<path style="fill:#DCFFAF;" d="M21.879,6.121l-0.757,0.757c-1.289,1.289-2.034,3.016-2.107,4.831    c1.163-0.337,2.235-0.96,3.107-1.831l0.757-0.757c1.289-1.289,2.034-3.016,2.107-4.831C23.823,4.627,22.75,5.25,21.879,6.121z"/>
	</g>
	<g>
		<path style="fill:#A5BF83;" d="M49,10L49,10c1.921,0,3.763-0.763,5.121-2.121l0.757-0.757C56.237,5.763,57,3.921,57,2v0h0    c-1.921,0-3.763,0.763-5.121,2.121l-0.757,0.757C49.763,6.237,49,8.079,49,10L49,10z"/>
	</g>
	<g>
		<path style="fill:#DCFFAF;" d="M51.879,4.121l-0.757,0.757c-1.289,1.289-2.034,3.016-2.107,4.831    c1.163-0.337,2.235-0.96,3.107-1.831l0.757-0.757c1.289-1.289,2.034-3.016,2.107-4.831C53.823,2.627,52.75,3.25,51.879,4.121z"/>
	</g>
	<g>
		<path style="fill:#A5BF83;" d="M15,10L15,10c-1.921,0-3.763-0.763-5.121-2.121L9.121,7.121C7.763,5.763,7,3.921,7,2v0h0    c1.921,0,3.763,0.763,5.121,2.121l0.757,0.757C14.237,6.237,15,8.079,15,10L15,10z"/>
	</g>
	<g>
		<path style="fill:#DCFFAF;" d="M10.879,4.879l-0.757-0.757C9.25,3.25,8.177,2.627,7.014,2.29c0.073,1.815,0.818,3.542,2.107,4.831    l0.757,0.757c0.872,0.872,1.944,1.494,3.107,1.831C12.913,7.895,12.168,6.168,10.879,4.879z"/>
	</g>
	<g>
		<path style="fill:#A5BF83;" d="M45,12L45,12c-1.921,0-3.763-0.763-5.121-2.121l-0.757-0.757C37.763,7.763,37,5.921,37,4v0h0    c1.921,0,3.763,0.763,5.121,2.121l0.757,0.757C44.237,8.237,45,10.079,45,12L45,12z"/>
	</g>
	<g>
		<path style="fill:#DCFFAF;" d="M40.879,6.879l-0.757-0.757C39.25,5.25,38.177,4.627,37.014,4.29    c0.073,1.815,0.818,3.542,2.107,4.831l0.757,0.757c0.872,0.872,1.944,1.494,3.107,1.831C42.913,9.895,42.168,8.168,40.879,6.879z"/>
	</g>
	<g>
		<path d="M28,59H6c-0.553,0-1-0.448-1-1V34c0-0.552,0.447-1,1-1h22c0.553,0,1,0.448,1,1v24C29,58.552,28.553,59,28,59z M7,57h20V35    H7V57z"/>
	</g>
	<g>
		<path d="M30,35h-2v-2h1v-2H5v2h1v2H4c-0.553,0-1-0.448-1-1v-4c0-0.552,0.447-1,1-1h26c0.553,0,1,0.448,1,1v4    C31,34.552,30.553,35,30,35z"/>
	</g>
	<g>
		<path d="M27.01,30.142L25.133,17H8.867L6.99,30.142l-1.98-0.283l2-14C7.08,15.366,7.502,15,8,15h18c0.498,0,0.92,0.366,0.99,0.858    l2,14L27.01,30.142z"/>
	</g>
	<g>
		<path d="M22,27H12c-0.553,0-1-0.448-1-1v-6c0-0.552,0.447-1,1-1h10c0.553,0,1,0.448,1,1v6C23,26.552,22.553,27,22,27z M13,25h8v-4    h-8V25z"/>
	</g>
	<g>
		<path d="M24,53H10c-0.553,0-1-0.448-1-1V40c0-0.552,0.447-1,1-1h14c0.553,0,1,0.448,1,1v12C25,52.552,24.553,53,24,53z M11,51h12    V41H11V51z"/>
	</g>
	<g>
		<path d="M24,49h-3c-0.266,0-0.52-0.105-0.707-0.293L19,47.414l-1.293,1.293c-0.391,0.391-1.023,0.391-1.414,0L15,47.414    l-1.293,1.293C13.52,48.895,13.266,49,13,49h-3v-2h2.586l1.707-1.707c0.391-0.391,1.023-0.391,1.414,0L17,46.586l1.293-1.293    c0.391-0.391,1.023-0.391,1.414,0L21.414,47H24V49z"/>
	</g>
	<g>
		<path d="M58,59H36c-0.553,0-1-0.448-1-1V34c0-0.552,0.447-1,1-1h22c0.553,0,1,0.448,1,1v24C59,58.552,58.553,59,58,59z M37,57h20    V35H37V57z"/>
	</g>
	<g>
		<path d="M60,35h-2v-2h1v-2H35v2h1v2h-2c-0.553,0-1-0.448-1-1v-4c0-0.552,0.447-1,1-1h26c0.553,0,1,0.448,1,1v4    C61,34.552,60.553,35,60,35z"/>
	</g>
	<g>
		<path d="M57.01,30.142L55.133,17H38.867L36.99,30.142l-1.98-0.283l2-14C37.08,15.366,37.502,15,38,15h18    c0.498,0,0.92,0.366,0.99,0.858l2,14L57.01,30.142z"/>
	</g>
	<g>
		<path d="M52,27H42c-0.553,0-1-0.448-1-1v-6c0-0.552,0.447-1,1-1h10c0.553,0,1,0.448,1,1v6C53,26.552,52.553,27,52,27z M43,25h8v-4    h-8V25z"/>
	</g>
	<g>
		<path d="M54,53H40c-0.553,0-1-0.448-1-1V40c0-0.552,0.447-1,1-1h14c0.553,0,1,0.448,1,1v12C55,52.552,54.553,53,54,53z M41,51h12    V41H41V51z"/>
	</g>
	<g>
		<path d="M54,49h-3c-0.266,0-0.52-0.105-0.707-0.293L49,47.414l-1.293,1.293c-0.391,0.391-1.023,0.391-1.414,0L45,47.414    l-1.293,1.293C43.52,48.895,43.266,49,43,49h-3v-2h2.586l1.707-1.707c0.391-0.391,1.023-0.391,1.414,0L47,46.586l1.293-1.293    c0.391-0.391,1.023-0.391,1.414,0L51.414,47H54V49z"/>
	</g>
	<g>
		<path d="M62,63H2c-0.553,0-1-0.448-1-1v-4c0-0.552,0.447-1,1-1h60c0.553,0,1,0.448,1,1v4C63,62.552,62.553,63,62,63z M3,61h58v-2    H3V61z"/>
	</g>
	<g>
		<path d="M19,13c-0.553,0-1-0.448-1-1c0-2.202,0.857-4.272,2.414-5.828l0.758-0.758C22.729,3.857,24.799,3,27,3    c0.553,0,1,0.448,1,1c0,2.202-0.857,4.272-2.414,5.828l-0.758,0.758C23.271,12.143,21.201,13,19,13z M25.905,5.095    c-1.251,0.22-2.402,0.816-3.319,1.733l-0.758,0.758c-0.917,0.917-1.513,2.068-1.733,3.319c1.251-0.22,2.402-0.816,3.319-1.733    l0.758-0.758C25.089,7.498,25.685,6.346,25.905,5.095z"/>
	</g>
	<g>
		<path d="M15,11c-2.201,0-4.271-0.857-5.828-2.414L8.414,7.828C6.857,6.272,6,4.202,6,2c0-0.552,0.447-1,1-1    c2.201,0,4.271,0.857,5.828,2.414l0.758,0.758C15.143,5.728,16,7.798,16,10C16,10.552,15.553,11,15,11z M8.095,3.095    c0.221,1.251,0.816,2.402,1.733,3.319l0.758,0.758c0.917,0.917,2.068,1.513,3.319,1.733c-0.221-1.251-0.816-2.402-1.733-3.319    l-0.758-0.758C10.497,3.912,9.346,3.315,8.095,3.095z"/>
	</g>
	<g>
		<path d="M49,11c-0.553,0-1-0.448-1-1c0-2.202,0.857-4.272,2.414-5.828l0.758-0.758C52.729,1.857,54.799,1,57,1    c0.553,0,1,0.448,1,1c0,2.202-0.857,4.272-2.414,5.828l-0.758,0.758C53.271,10.143,51.201,11,49,11z M55.905,3.095    c-1.251,0.22-2.402,0.816-3.319,1.733l-0.758,0.758c-0.917,0.917-1.513,2.068-1.733,3.319c1.251-0.22,2.402-0.816,3.319-1.733    l0.758-0.758C55.089,5.498,55.685,4.346,55.905,3.095z"/>
	</g>
	<g>
		<path d="M45,13c-2.201,0-4.271-0.857-5.828-2.414l-0.758-0.758C36.857,8.272,36,6.202,36,4c0-0.552,0.447-1,1-1    c2.201,0,4.271,0.857,5.828,2.414l0.758,0.758C45.143,7.728,46,9.798,46,12C46,12.552,45.553,13,45,13z M38.095,5.095    c0.221,1.251,0.816,2.402,1.733,3.319l0.758,0.758c0.917,0.917,2.068,1.513,3.319,1.733c-0.221-1.251-0.816-2.402-1.733-3.319    l-0.758-0.758C40.497,5.912,39.346,5.315,38.095,5.095z"/>
	</g>
</g>
</svg>
