<svg height="512" viewBox="0 0 512 512" width="512" xmlns="http://www.w3.org/2000/svg"><g id="filled_outline" data-name="filled outline"><path d="m464 136v8h-176v-8l13.349-53.395a14 14 0 0 1 13.582-10.605h122.138a14 14 0 0 1 13.582 10.605z" fill="#ea9d2d"/><path d="m224 136v8h-176v-8l13.349-53.395a14 14 0 0 1 13.582-10.605h122.138a14 14 0 0 1 13.582 10.605z" fill="#8dc79d"/><path d="m304 368h-96l8-32h80z" fill="#d9d9d9"/><path d="m216 352h80v16h-80z" fill="#a8a8a8"/><path d="m232 160v8l-.97 16-12.63 208.37-.94 15.5-1.46 24.13v8h-160v-8l-1.46-24.13-.94-15.5-12.63-208.37-.97-16v-8z" fill="#8dc79d"/><path d="m36 136h200a12 12 0 0 1 12 12v20a0 0 0 0 1 0 0h-224a0 0 0 0 1 0 0v-20a12 12 0 0 1 12-12z" fill="#85bc94"/><path d="m192 136h-112l8-32h96z" fill="#6b9777"/><path d="m182 136h-102l6-24h90z" fill="#5e8569"/><path d="m472 160v8l-.97 16-12.63 208.37-.94 15.5-1.46 24.13v8h-160v-8l-1.46-24.13-.94-15.5-12.63-208.37-.97-16v-8z" fill="#ea9d2d"/><path d="m276 136h200a12 12 0 0 1 12 12v20a0 0 0 0 1 0 0h-224a0 0 0 0 1 0 0v-20a12 12 0 0 1 12-12z" fill="#fbb540"/><path d="m432 136h-112l8-32h96z" fill="#d18d28"/><path d="m422 136h-102l6-24h90z" fill="#c38325"/><g fill="#6b9777"><path d="m181.818 288h-21.818v-16h7.245l-17.631-27.7 13.5-8.59 25.455 40a8 8 0 0 1 -6.75 12.3z"/><path d="m117.3 252.3-13.5-8.59 25.454-40a8 8 0 0 1 13.5 0l10.181 16-13.5 8.59-3.435-5.4z"/><path d="m144 288h-53.818a8 8 0 0 1 -6.75-12.3l13.818-21.709 13.5 8.59-6 9.419h39.25z"/></g><circle cx="376" cy="248" fill="#fbb540" r="40"/><path d="m160 400a8 8 0 0 1 -8 8h-96a8.711 8.711 0 0 1 -1.46-.13l-.94-15.5a7.927 7.927 0 0 1 2.4-.37h96a8 8 0 0 1 8 8z" fill="#6b9777"/><path d="m218.4 392.37-.94 15.5a8.711 8.711 0 0 1 -1.46.13h-32a8 8 0 0 1 0-16h32a7.927 7.927 0 0 1 2.4.37z" fill="#6b9777"/><path d="m400 400a8 8 0 0 1 -8 8h-96a8.711 8.711 0 0 1 -1.46-.13l-.94-15.5a7.927 7.927 0 0 1 2.4-.37h96a8 8 0 0 1 8 8z" fill="#fbb540"/><path d="m458.4 392.37-.94 15.5a8.711 8.711 0 0 1 -1.46.13h-32a8 8 0 0 1 0-16h32a7.927 7.927 0 0 1 2.4.37z" fill="#fbb540"/><path d="m30 432h452a6 6 0 0 1 6 6v26a0 0 0 0 1 0 0h-464a0 0 0 0 1 0 0v-26a6 6 0 0 1 6-6z" fill="#d9d9d9"/><path d="m24 448h464v16h-464z" fill="#a8a8a8"/><path d="m232 168-.97 16h-190.06l-.97-16z" fill="#6b9777"/><path d="m472 168-.97 16h-190.06l-.97-16z" fill="#c38325"/><path d="m476 128h-5.754l-11.833-47.336a21.97 21.97 0 0 0 -21.344-16.664h-122.138a21.97 21.97 0 0 0 -21.344 16.664l-11.833 47.336h-5.754a20.023 20.023 0 0 0 -20 20 20.023 20.023 0 0 0 -20-20h-5.754l-11.833-47.336a21.97 21.97 0 0 0 -21.344-16.664h-122.138a21.97 21.97 0 0 0 -21.344 16.664l-11.833 47.336h-5.754a20.023 20.023 0 0 0 -20 20v20a8 8 0 0 0 8 8h8.47l15.03 248h-17.5a14.015 14.015 0 0 0 -14 14v26a8 8 0 0 0 8 8h464a8 8 0 0 0 8-8v-26a14.015 14.015 0 0 0 -14-14h-17.5l15.03-248h8.47a8 8 0 0 0 8-8v-20a20.023 20.023 0 0 0 -20-20zm-166.89-43.455a5.991 5.991 0 0 1 5.821-4.545h122.138a5.991 5.991 0 0 1 5.821 4.545l10.864 43.455h-15.508l-6.485-25.94a8 8 0 0 0 -7.761-6.06h-96a8 8 0 0 0 -7.761 6.06l-6.485 25.94h-15.508zm112.644 43.455h-91.508l4-16h83.508zm-165.754 40a8 8 0 0 0 8 8h8.47l9.212 152h-51.364l9.212-152h8.47a8 8 0 0 0 8-8zm-27.622 192 .97-16h53.3l.97 16zm56.213 16 2.909 48h-63l2.909-48zm-215.481-291.455a5.991 5.991 0 0 1 5.821-4.545h122.138a5.991 5.991 0 0 1 5.821 4.545l10.864 43.455h-15.508l-6.485-25.94a8 8 0 0 0 -7.761-6.06h-96a8 8 0 0 0 -7.761 6.06l-6.485 25.94h-15.508zm112.644 43.455h-91.508l4-16h83.508zm-149.754 32v-12a4 4 0 0 1 4-4h200a4 4 0 0 1 4 4v12zm152 248h25.44l-.97 16h-144.94l-.97-16h89.44a8 8 0 0 0 0-16h-90.41l-13.09-216h175l-13.09 216h-26.41a8 8 0 0 0 0 16zm296 32v16h-448v-16zm-56-32h25.44l-.97 16h-144.94l-.97-16h89.44a8 8 0 0 0 0-16h-90.41l-13.09-216h175l-13.09 216h-26.41a8 8 0 0 0 0 16zm56-248h-208v-12a4 4 0 0 1 4-4h200a4 4 0 0 1 4 4z"/><path d="m188.831 283.85a8 8 0 0 0 -.263-8.145l-25.455-40-13.5 8.59 17.632 27.705h-7.245v16h21.818a8 8 0 0 0 7.013-4.15z"/><path d="m136 222.9 3.432 5.394 13.5-8.59-10.181-16a8 8 0 0 0 -13.5 0l-25.454 40 13.5 8.59z"/><path d="m110.75 262.581-13.5-8.59-13.818 21.714a8 8 0 0 0 6.75 12.3h53.818v-16.005h-39.245z"/><path d="m376 200a48 48 0 1 0 48 48 48.055 48.055 0 0 0 -48-48zm0 80a32 32 0 1 1 32-32 32.036 32.036 0 0 1 -32 32z"/></g></svg>