<?xml version="1.0" encoding="iso-8859-1"?>
<!-- Generator: Adobe Illustrator 21.0.0, SVG Export Plug-In . SVG Version: 6.00 Build 0)  -->
<svg version="1.1" id="Capa_1" xmlns="http://www.w3.org/2000/svg" xmlns:xlink="http://www.w3.org/1999/xlink" x="0px" y="0px"
	 viewBox="0 0 512 512" style="enable-background:new 0 0 512 512;" xml:space="preserve">
<circle style="fill:#FFC473;" cx="256" cy="256" r="256"/>
<path style="fill:#FFAA20;" d="M512,256c0-12.094-0.858-23.986-2.481-35.634L346.908,57.755H165.092l-11.339,41.136H129.05v49.729
	l19.037,18.887l24.151,224.154c-10.46,6.566-17.419,18.197-17.419,31.459c0,10.84,4.651,20.59,12.062,27.376l60.267,59.876
	C236.621,511.435,246.244,512,256,512C397.385,512,512,397.385,512,256z"/>
<polygon style="fill:#008C49;" points="144.637,135.488 177.007,435.918 334.992,435.918 367.362,135.488 "/>
<polygon style="fill:#007539;" points="367.36,135.49 365.95,148.62 334.99,435.92 256,435.92 256,135.49 "/>
<circle style="fill:#57555C;" cx="191.94" cy="423.12" r="37.12"/>
<circle style="fill:#FFFFFF;" cx="191.94" cy="423.12" r="19.12"/>
<circle style="fill:#3C3B41;" cx="320.06" cy="423.12" r="37.12"/>
<circle style="fill:#FFF5CB;" cx="320.06" cy="423.12" r="19.12"/>
<polygon style="fill:#36CD90;" points="346.908,57.755 165.092,57.755 150.799,109.609 361.201,109.609 "/>
<g>
	<polygon style="fill:#00BB64;" points="361.2,109.61 256,109.61 256,57.75 346.91,57.75 358.25,98.89 	"/>
	<rect x="129.05" y="98.89" style="fill:#00BB64;" width="253.9" height="49.729"/>
</g>
<rect x="256" y="98.89" style="fill:#00A753;" width="126.95" height="49.73"/>
<g>
	<polygon style="fill:#FFE670;" points="256.182,233.725 266.366,227.286 256.642,212.477 244.536,231.021 222.585,231.021 
		245.117,194.925 269.632,194.925 282.448,217.119 292.941,210.488 294.689,253.944 	"/>
	<polygon style="fill:#FFE670;" points="241.183,291.079 241.183,310.09 198.35,310.09 188.332,288.79 201.5,265.978 
		190.616,259.76 228.18,237.842 228.384,281.331 218.012,275.406 209.136,291.079 	"/>
</g>
<polygon style="fill:#FFDB2D;" points="323.668,291.079 312.565,310.09 281.483,310.09 281.483,322.586 246.579,300.844 
	281.483,279.102 281.483,291.079 301.956,291.079 284.474,260.803 306.425,260.803 306.888,261.597 "/>
<polygon style="fill:#FFFFFF;" points="245.117,194.925 266.366,227.286 256.182,233.725 294.689,253.944 292.941,210.488 
	282.448,217.119 269.632,194.925 "/>
<polygon style="fill:#FFF5CB;" points="256.183,233.723 266.368,227.285 256,211.495 256,194.924 269.633,194.924 282.446,217.12 
	292.941,210.489 294.69,253.943 "/>
<g>
	<polygon style="fill:#FFFFFF;" points="218.012,275.406 198.35,310.09 188.332,288.79 201.5,265.978 190.616,259.76 
		228.18,237.842 228.384,281.331 	"/>
	<polygon style="fill:#FFFFFF;" points="281.483,279.102 281.483,291.079 323.668,291.079 312.565,310.09 281.483,310.09 
		281.483,322.586 246.579,300.844 	"/>
</g>
<polygon style="fill:#FFF5CB;" points="323.666,291.078 312.566,310.091 281.482,310.091 281.482,322.584 256,306.713 256,294.976 
	281.482,279.102 281.482,291.078 "/>
<g>
</g>
<g>
</g>
<g>
</g>
<g>
</g>
<g>
</g>
<g>
</g>
<g>
</g>
<g>
</g>
<g>
</g>
<g>
</g>
<g>
</g>
<g>
</g>
<g>
</g>
<g>
</g>
<g>
</g>
</svg>
