<svg id="Capa_1" enable-background="new 0 0 512 512" height="512" viewBox="0 0 512 512" width="512" xmlns="http://www.w3.org/2000/svg"><g><g><g><g><g><g><g><circle cx="256" cy="256" fill="#7584f2" r="256"/></g></g></g></g></g></g><path d="m511.842 265.071-88.753-88.754-320.755 21.868 136.404 136.404-171.149 25.238 149.187 149.187c12.787 1.966 25.886 2.986 39.224 2.986 138.349 0 251.065-109.745 255.842-246.929z" fill="#4253ce"/><g><path d="m223.27 359.827h-155.681v-30h136.397l44.369-97.196 27.291 12.458z" fill="#dce1eb"/></g><g><path d="m67.589 359.827h155.681l9.605-21.044h-165.286z" fill="#bec3d2"/></g><g><g><path d="m355.611 202.012h53.517v73.697h-53.517z" fill="#ffce00" transform="matrix(.939 .345 -.345 .939 105.934 -117.292)"/></g><g><path d="m356.837 230.761-12.299 33.448 50.229 18.47 12.363-33.621z" fill="#fdba12"/></g><g><path d="m396.809 208.215h38.084v85.915h-38.084z" fill="#fff" transform="matrix(.939 .345 -.345 .939 112.241 -128.091)"/></g><g><path d="m383.153 284.918 35.744 13.144 14.505-39.446-35.789-13.021z" fill="#e9edf5"/></g><g><path d="m109.296 159.076h264.414v87.424h-264.414z" fill="#e9edf5" transform="matrix(.939 .345 -.345 .939 84.829 -70.891)"/></g><g><path d="m121.798 145.254-19.465 52.931 248.167 91.258 19.781-53.791z" fill="#cdd2e1"/></g><g><path d="m343.054 246.254-227.617-83.702 32.188-87.531 275.464 101.296z" fill="#fff"/></g><g><path d="m121.798 145.254-6.361 17.298 227.617 83.702 16.57-14.479z" fill="#e9edf5"/></g><g><path d="m142.735 139.015h123.232v35.044h-123.232z" fill="#bec3d2" transform="matrix(.939 .345 -.345 .939 66.583 -60.91)"/></g></g><g><ellipse cx="207.397" cy="338.596" fill="#fff" rx="42.603" ry="42.603" transform="matrix(.23 -.973 .973 .23 -169.791 462.652)"/></g><g><path d="m164.799 338.783c.101 23.442 19.132 42.416 42.598 42.416s42.497-18.973 42.598-42.416z" fill="#e9edf5"/></g></g></svg>