<svg height="512pt" viewBox="0 0 512 512.00001" width="512pt" xmlns="http://www.w3.org/2000/svg"><path d="m512 256c0 141.386719-114.617188 256-256 256-141.386719 0-256-114.613281-256-256 0-141.382812 114.613281-256 256-256 141.382812 0 256 114.617188 256 256zm0 0" fill="#5ed1c7"/><path d="m410.78125 459.921875c-42.976562 32.671875-96.609375 52.078125-154.777344 52.078125-58.171875 0-111.804687-19.40625-154.78125-52.078125 32.097656-15.683594 89.410156-26.121094 154.78125-26.121094 65.367188 0 122.691406 10.4375 154.777344 26.121094zm0 0" fill="#2ba494"/><path d="m436.167969 150.21875c-35.816407-200.289062-324.523438-200.289062-360.335938 0-3.191406 17.832031-4.855469 36.1875-4.855469 54.9375 0 126.746094 76.0625 235.710938 185.023438 283.792969 108.957031-48.082031 185.019531-157.046875 185.019531-283.792969 0-18.75-1.664062-37.105469-4.851562-54.9375zm0 0" fill="#fc5f61"/><path d="m400.859375 183.796875c0 74.394531-56.078125 135.707031-128.273437 143.921875-5.441407.628906-10.96875.949219-16.582032.949219-80 0-144.871094-64.867188-144.871094-144.871094 0-80 64.871094-144.855469 144.871094-144.855469 5.613282 0 11.140625.324219 16.582032.953125 72.195312 8.214844 128.273437 69.511719 128.273437 143.902344zm0 0" fill="#fcf8f2"/><path d="m273.785156 29.519531c-5.859375-.679687-11.835937-1.023437-17.78125-1.023437-6.429687 0-12.765625.390625-18.988281 1.152344-16.503906 2.019531-21.179687-22.027344-5.136719-26.398438 7.949219-2.167969 16.035156-3.25 24.125-3.25-81.128906 0-162.261718 50.082031-180.171875 150.226562-3.1875 17.824219-4.847656 36.183594-4.847656 54.929688 0 126.746094 76.054687 235.707031 185.019531 283.792969-34.183594-22.261719-63.589844-57.566407-85.316406-101.640625-14.460938-29.335938 12.636719-62.390625 44.171875-53.71875 13.109375 3.605468 26.90625 5.53125 41.144531 5.53125 5.945313 0 11.921875-.347656 17.761719-1.023438 78.410156-8.914062 137.539063-75.253906 137.539063-154.300781 0-79.035156-59.128907-145.367187-137.519532-154.277344zm-2.402344 287.816407c-5.066406.585937-10.238281.886718-15.378906.886718-56.164062 0-104.386718-34.628906-124.46875-83.652344 0 0 .011719 0 0-.011718-6.40625-15.671875-9.949218-32.808594-9.949218-50.761719 0-24.910156 6.8125-48.253906 18.664062-68.273437 23.425781-39.550782 66.546875-66.132813 115.753906-66.132813 5.140625 0 10.3125.292969 15.402344.890625 67.84375 7.710938 119 65.117188 119 133.515625 0 68.410156-51.15625 125.816406-119.023438 133.539063zm0 0" fill="#e53841"/><path d="m298.832031 272.625c-.71875.203125-1.703125.421875-2.867187.644531-15.671875 3.058594-29.808594 11.441407-39.96875 23.761719-9.527344-11.554688-22.554688-19.644531-37.058594-23.125-.960938-.234375-1.9375-.449219-2.910156-.636719-1.167969-.226562-2.152344-.441406-2.871094-.648437-34.03125-9.464844-54.015625-48.015625-38.226562-82.585938l6.871093-15.042968c3.207031-7.015626 4.765625-14.476563 4.765625-21.882813 0-13.453125-5.152344-26.714844-14.933594-36.757813l30.484376-30.785156c7.371093 6.371094 16.976562 10.214844 27.480468 10.214844 10 0 19.179688-3.496094 26.402344-9.324219 7.21875 5.824219 16.398438 9.324219 26.398438 9.324219 3.796874 0 7.472656-.5 10.964843-1.445312 6.1875-1.660157 11.804688-4.699219 16.515625-8.769532l30.488282 30.785156c-9.785157 10.050782-14.9375 23.308594-14.9375 36.765626 0 7.402343 1.554687 14.859374 4.761718 21.875l6.875 15.042968c15.789063 34.570313-4.195312 73.125-38.234375 82.589844zm0 0" fill="#498dd6"/><path d="m323.894531 233.984375c-5.679687 12.203125-16.222656 21.226563-28.921875 24.757813l-.0625.015624c-.015625.003907-.464844.128907-1.667968.363282-13.765626 2.6875-26.578126 8.796875-37.246094 17.617187-9.171875-7.582031-19.921875-13.164062-31.484375-16.28125-1.886719-.511719-3.796875-.953125-5.722657-1.332031l-.054687-.011719c-1.191406-.226562-1.640625-.351562-1.660156-.355469l-.058594-.015624c-12.699219-3.53125-23.238281-12.554688-28.914063-24.757813-5.664062-12.171875-5.691406-25.65625-.066406-37.964844l6.871094-15.046875c4.023438-8.808594 6.066406-18.183594 6.066406-27.859375 0-12.777343-3.5625-25.039062-10.203125-35.613281l13.285157-13.414062c7.851562 3.980468 16.597656 6.105468 25.542968 6.105468 9.21875 0 18.304688-2.292968 26.398438-6.5625 8.089844 4.269532 17.175781 6.5625 26.402344 6.5625 1.496093 0 2.988281-.058594 4.46875-.179687 7.371093-.582031 14.53125-2.609375 21.074218-5.925781l13.285156 13.414062c-6.648437 10.582031-10.203124 22.84375-10.203124 35.617188 0 9.675781 2.035156 19.050781 6.058593 27.859374l6.878907 15.046876c5.617187 12.304687 5.597656 25.789062-.066407 37.960937zm0 0" fill="#61b3ed"/><path d="m300.90625 183.011719c0 24.707031-20.109375 44.8125-44.816406 44.8125-5.90625 0-11.542969-1.148438-16.710938-3.234375-16.460937-6.636719-28.101562-22.773438-28.101562-41.578125 0-24.714844 20.101562-44.816407 44.8125-44.816407 6.246094 0 12.195312 1.285157 17.601562 3.601563 15.984375 6.851563 27.214844 22.746094 27.214844 41.214844zm0 0" fill="#498dd6"/><path d="m256.089844 150.785156 10.882812 18.035156 20.519532 4.777344-13.792969 15.925782 1.796875 20.988281-19.40625-8.195313-19.40625 8.195313 1.796875-20.988281-13.792969-15.925782 20.519531-4.777344zm0 0" fill="#61b3ed"/></svg>