<svg id="Capa_1" enable-background="new 0 0 500 500" height="512" viewBox="0 0 500 500" width="512" xmlns="http://www.w3.org/2000/svg"><path d="m494.998 255.946c-.473 122.522-90.803 223.691-208.331 241.33-12.265 1.841-61.451 1.764-73.003.047-118.468-17.613-209.138-119.982-208.662-243.269.522-135.309 110.635-244.575 245.944-244.052s244.575 110.635 244.052 245.944z" fill="#ff3972"/><path d="m213.667 427v70.306c11.553 1.718 23.365 2.645 35.387 2.692 12.787.049 25.347-.885 37.613-2.726v-13.554-21.043-35.675z" fill="#5e5e5e"/><path d="m286.667 470.583v-43.583h-73v47h73z" fill="#333"/><g fill="#cecece"><path d="m158.667 55h-53v-3.413c0-13.027 10.56-23.587 23.587-23.587h29.413z"/><path d="m158.667 190h-53v-3.413c0-13.027 10.56-23.587 23.587-23.587h29.413z"/><path d="m158.667 324h-53v-3.413c0-13.027 10.56-23.587 23.587-23.587h29.413z"/><path d="m341.667 55h53v-3.413c0-13.027-10.561-23.587-23.587-23.587h-29.413z"/><path d="m341.667 190h53v-3.413c0-13.027-10.56-23.587-23.587-23.587h-29.413z"/><path d="m341.667 324h53v-3.413c0-13.027-10.56-23.587-23.587-23.587h-29.413z"/></g><path d="m341.167 447h-176c-10.77 0-19.5-8.73-19.5-19.5v-408c0-10.77 8.73-19.5 19.5-19.5h176c10.77 0 19.5 8.73 19.5 19.5v408c0 10.77-8.731 19.5-19.5 19.5z" fill="#5e5e5e"/><path d="m184.667 427.5v-408c0-10.77 8.73-19.5 19.5-19.5h-45c-10.77 0-19.5 8.73-19.5 19.5v408c0 10.77 8.73 19.5 19.5 19.5h45c-10.77 0-19.5-8.73-19.5-19.5z" fill="#333"/><path d="m316.167 358c0 36.451-29.549 66-66 66s-66-29.549-66-66c0-18.652 7.737-35.498 20.178-47.501 11.871-11.454 79.772-11.454 91.643-.001 12.441 12.003 20.179 28.849 20.179 47.502z" fill="#333"/><path d="m316.417 223c0 36.451-29.549 66-66 66s-66-29.549-66-66c0-19.094 8.109-36.295 21.07-48.346 11.782-10.954 79.655-10.266 91.599 1.677 11.943 11.944 19.331 28.444 19.331 46.669z" fill="#333"/><path d="m316.417 89c0 36.451-29.549 66-66 66s-66-29.549-66-66c0-19.208 8.206-36.5 21.303-48.562 11.757-10.827 78.647-10.394 90.518 1.06 12.441 12.004 20.179 28.849 20.179 47.502z" fill="#333"/><circle cx="250.167" cy="89" fill="#ff3972" r="54"/><path d="m227.167 89c0-.668.012-1.332.036-1.994.409-11.226 9.872-20.006 21.106-20.006h51.171c-8.165-18.274-26.175-31.185-47.293-31.962-.67-.025-1.343-.038-2.02-.038-.836 0-1.667.025-2.494.063-.242.011-.483.026-.724.041-.653.038-1.304.092-1.955.15-.195.018-.39.034-.584.055-.805.085-1.605.184-2.398.305-.126.019-.25.044-.375.063-.675.107-1.345.227-2.011.359-.257.051-.513.105-.768.16-.57.121-1.136.252-1.699.392-.23.057-.461.11-.689.17-.742.194-1.479.402-2.208.627-.221.068-.438.144-.658.214-.529.171-1.056.348-1.578.534-.288.103-.574.208-.86.315-.481.181-.957.37-1.431.564-.258.106-.519.207-.775.316-.656.281-1.306.575-1.949.881-.303.144-.602.297-.902.447-.383.191-.765.385-1.143.585-.33.175-.659.352-.986.533-.35.195-.696.396-1.041.599-.546.32-1.085.648-1.618.986-.329.209-.659.415-.984.631-.364.242-.721.492-1.079.742-.247.173-.493.347-.737.524-.372.269-.742.541-1.106.82-.179.137-.355.279-.533.419-.773.606-1.528 1.231-2.266 1.877-.1.088-.202.173-.302.261-.396.352-.784.712-1.17 1.075-.193.182-.384.366-.575.551-1.164 1.128-2.271 2.313-3.332 3.538l-.226.26c-.391.461-.773.928-1.15 1.402-.042.053-.084.107-.126.16-7.902 10.031-12.339 22.919-11.46 36.871 1.655 26.248 22.422 47.725 48.6 50.254 7.281.704 14.289-.068 20.79-2.013-22.265-6.663-38.498-27.297-38.498-51.731z" fill="#cc175d"/><circle cx="250.167" cy="223" fill="#fdd33a" r="54"/><circle cx="250.167" cy="358" fill="#53e09c" r="54"/><path d="m310.167 55h-120v-3.413c0-13.027 10.56-23.587 23.587-23.587h72.826c13.027 0 23.587 10.56 23.587 23.587z" fill="#fff"/><path d="m310.167 190h-120v-3.413c0-13.027 10.56-23.587 23.587-23.587h72.826c13.027 0 23.587 10.56 23.587 23.587z" fill="#fff"/><path d="m310.167 324h-120v-3.413c0-13.027 10.56-23.587 23.587-23.587h72.826c13.027 0 23.587 10.56 23.587 23.587z" fill="#fff"/><path d="m227.167 223c0-.075 0-.149 0-.223.047-11.533 9.603-20.777 21.136-20.777h51.628c-7.452-17.637-24.006-30.486-43.775-32.668-.052-.006-.104-.009-.156-.015-.597-.064-1.196-.122-1.799-.167-.233-.018-.469-.026-.703-.04-.43-.026-.86-.056-1.292-.072-.676-.025-1.355-.039-2.037-.039-.839 0-1.673.025-2.503.063-.247.011-.491.028-.737.042-.619.037-1.237.084-1.854.141-.233.022-.467.042-.7.067-.811.086-1.617.185-2.417.307-.005.001-.01.001-.015.002-.805.123-1.601.269-2.394.427-.235.047-.468.098-.702.148-.584.125-1.164.259-1.74.402-.231.057-.463.113-.694.174-.766.201-1.526.413-2.278.647-.009.003-.019.005-.028.008-.76.236-1.51.494-2.255.763-.223.081-.444.165-.666.249-.546.205-1.088.418-1.625.641-.219.091-.439.18-.657.273-.709.304-1.413.619-2.106.952-.015.007-.031.014-.046.021-.706.34-1.4.7-2.088 1.069-.209.112-.416.229-.623.344-.501.278-.997.563-1.488.855-.205.123-.411.244-.615.369-.642.394-1.277.798-1.9 1.218-.025.017-.05.032-.075.049-.64.433-1.268.883-1.888 1.343-.192.142-.38.287-.57.432-.45.343-.895.692-1.334 1.048-.187.151-.374.302-.559.456-.57.476-1.133.96-1.683 1.458-.027.025-.056.048-.083.073-.568.517-1.122 1.049-1.667 1.589-.172.17-.34.344-.51.516-.392.399-.778.804-1.158 1.215-.166.18-.333.359-.497.541-.491.546-.974 1.1-1.442 1.665-.028.034-.058.067-.086.101-.488.592-.959 1.197-1.422 1.809-.147.194-.29.392-.434.588-.331.451-.655.907-.973 1.368-.14.203-.281.406-.418.611-.404.605-.799 1.218-1.18 1.84-.03.049-.061.096-.091.145-.397.654-.776 1.321-1.146 1.993-.119.216-.233.435-.349.652-.264.495-.52.995-.768 1.5-.11.224-.222.447-.329.673-.315.662-.619 1.33-.907 2.006-3.214 7.545-4.764 15.968-4.179 24.813 1.733 26.175 22.469 47.548 48.579 50.075 7.285.705 14.296-.066 20.799-2.012-22.268-6.66-38.501-27.294-38.501-51.728z" fill="#e0af24"/><path d="m227.167 358c0-.668.012-1.332.036-1.994.409-11.226 9.872-20.006 21.106-20.006h51.171c-8.165-18.274-26.175-31.185-47.293-31.962-.67-.025-1.343-.038-2.02-.038-.836 0-1.667.025-2.494.063-.242.011-.483.026-.724.041-.659.039-1.317.093-1.975.152-.189.017-.377.033-.565.053-.805.085-1.605.184-2.398.305-.126.019-.25.044-.375.063-.675.107-1.345.227-2.011.359-.257.051-.513.105-.768.16-.57.122-1.136.253-1.699.392-.23.057-.461.11-.689.17-.742.194-1.478.402-2.206.627-.223.069-.443.145-.664.216-.527.17-1.052.346-1.571.532-.289.103-.576.208-.862.316-.48.181-.957.37-1.43.564-.258.106-.519.207-.775.316-.656.281-1.306.575-1.949.881-.303.144-.602.297-.902.447-.383.191-.765.385-1.143.585-.33.175-.659.351-.986.533-.349.194-.694.396-1.039.597-.551.323-1.095.655-1.634.996-.324.205-.65.409-.969.621-.365.243-.724.494-1.083.745-.245.172-.49.345-.732.521-.373.27-.744.543-1.11.822-.177.135-.35.276-.526.413-.777.609-1.536 1.237-2.278 1.887-.098.086-.197.169-.294.255-.397.353-.786.714-1.173 1.078-.012.011-.024.022-.035.033-1.427 1.35-2.771 2.785-4.057 4.27l-.038.044c-.392.461-.774.929-1.151 1.403-.042.053-.084.106-.125.16-7.902 10.03-12.339 22.919-11.46 36.87 1.654 26.248 22.421 47.725 48.6 50.255 7.282.704 14.289-.068 20.79-2.013-22.267-6.664-38.5-27.298-38.5-51.732z" fill="#009953"/><path d="m310.167 190h-120v-3.413c0-13.027 10.56-23.587 23.587-23.587h72.826c13.027 0 23.587 10.56 23.587 23.587z" fill="#fff"/><path d="m310.167 324h-120v-3.413c0-13.027 10.56-23.587 23.587-23.587h72.826c13.027 0 23.587 10.56 23.587 23.587z" fill="#fff"/><path d="m264.004 28h-50.25c-13.027 0-23.587 10.56-23.587 23.587v3.413h50.25v-3.413c0-13.027 10.56-23.587 23.587-23.587z" fill="#cecece"/><path d="m264.004 163h-50.25c-13.027 0-23.587 10.56-23.587 23.587v3.413h50.25v-3.413c0-13.027 10.56-23.587 23.587-23.587z" fill="#cecece"/><path d="m264.004 297h-50.25c-13.027 0-23.587 10.56-23.587 23.587v3.413h50.25v-3.413c0-13.027 10.56-23.587 23.587-23.587z" fill="#cecece"/><circle cx="281.917" cy="85.5" fill="#ff6c9d" r="14.5"/><circle cx="260.917" cy="106.5" fill="#ff6c9d" r="10.5"/><circle cx="281.917" cy="224.5" fill="#ffe388" r="14.5"/><circle cx="260.917" cy="245.5" fill="#ffe388" r="10.5"/><circle cx="281.917" cy="358.5" fill="#7befb5" r="14.5"/><circle cx="260.917" cy="379.5" fill="#7befb5" r="10.5"/></svg>