<svg height="512pt" viewBox="0 0 512 512" width="512pt" xmlns="http://www.w3.org/2000/svg"><path d="m512 256c0 141.386719-114.613281 256-256 256s-256-114.613281-256-256 114.613281-256 256-256 256 114.613281 256 256zm0 0" fill="#ff7045"/><path d="m512 256c0-3.546875-.09375-7.074219-.234375-10.585938l-153.429687-153.425781-108.335938 12.816407-6.191406 58.242187 57.09375 143.121094 49.894531 49.894531-14.945313 3.636719-200.023437-200.023438-47.164063 248.988281 92.089844 92.089844c23.792969 7.304688 49.058594 11.246094 75.246094 11.246094 141.386719 0 256-114.613281 256-256zm0 0" fill="#de4726"/><path d="m123.910156 314.167969h260.238282v47.996093h-260.238282zm0 0" fill="#dce1eb"/><path d="m255.90625 314.167969h128.242188v47.996093h-128.242188zm0 0" fill="#cdd2e1"/><path d="m88.664062 159.675781h47.164063v248.988281h-47.164063zm0 0" fill="#fff"/><path d="m384.148438 250h47.164062v158.664062h-47.164062zm0 0" fill="#e9edf5"/><path d="m135.828125 262h90.839844v52.167969h-90.839844zm0 0" fill="#e9edf5"/><path d="m300.902344 69c-45.976563 0-83.246094 37.269531-83.246094 83.246094 0 45.976562 83.246094 153.921875 83.246094 153.921875s83.246094-107.945313 83.246094-153.921875c0-45.976563-37.269532-83.246094-83.246094-83.246094zm0 129.546875c-25.886719 0-46.875-20.984375-46.875-46.871094 0-25.890625 20.988281-46.875 46.875-46.875 25.886718 0 46.871094 20.984375 46.871094 46.875 0 25.886719-20.984376 46.871094-46.871094 46.871094zm0 0" fill="#ffce00"/><path d="m300.902344 306.167969s83.246094-107.945313 83.246094-153.921875c0-45.976563-37.269532-83.246094-83.246094-83.246094-.121094 0-.238282.007812-.355469.007812v35.804688c.117187 0 .234375-.007812.355469-.007812 25.886718 0 46.871094 20.984374 46.871094 46.871093s-20.984376 46.875-46.871094 46.875c-.121094 0-.238282-.011719-.355469-.011719zm0 0" fill="#fc9e15"/></svg>