<svg height="512" viewBox="0 0 128 128" width="512" xmlns="http://www.w3.org/2000/svg"><g id="Circle_Grid" data-name="Circle Grid"><circle cx="64" cy="64" fill="#fe7058" r="64"/></g><g id="icon"><path d="m49.833 25.057h28.334v6.637h-28.334z" fill="#d5d6db"/><path d="m40.455 29.976h47.091v71.514h-47.091z" fill="#e1e6e9"/><path d="m47.027 37.51h7.798v10.073h-7.798z" fill="#d5d6db"/><path d="m46.441 39.199h8.969v6.694h-8.969z" fill="#029bc5" transform="matrix(0 1 -1 0 93.472 -8.38)"/><path d="m50.646 37.643h.54v9.601h-.54z" fill="#d5d6db"/><path d="m46.076 47.582h9.699v1.102h-9.699z" fill="#d5d6db"/><path d="m60.101 37.51h7.798v10.073h-7.798z" fill="#d5d6db"/><path d="m59.516 39.199h8.969v6.694h-8.969z" fill="#029bc5" transform="matrix(0 1 -1 0 106.546 -21.454)"/><path d="m63.72 37.643h.54v9.601h-.54z" fill="#d5d6db"/><path d="m59.15 47.582h9.699v1.102h-9.699z" fill="#d5d6db"/><path d="m73.175 37.51h7.798v10.073h-7.798z" fill="#d5d6db"/><path d="m72.59 39.199h8.969v6.694h-8.969z" fill="#029bc5" transform="matrix(0 1 -1 0 119.62 -34.528)"/><path d="m76.794 37.643h.54v9.601h-.54z" fill="#d5d6db"/><path d="m72.224 47.582h9.699v1.102h-9.699z" fill="#d5d6db"/><path d="m47.027 51.798h7.798v10.073h-7.798z" fill="#d5d6db"/><path d="m46.441 53.487h8.969v6.694h-8.969z" fill="#029bc5" transform="matrix(0 1 -1 0 107.76 5.908)"/><path d="m50.646 51.932h.54v9.601h-.54z" fill="#d5d6db"/><path d="m46.076 61.871h9.699v1.102h-9.699z" fill="#d5d6db"/><path d="m60.101 51.798h7.798v10.073h-7.798z" fill="#d5d6db"/><path d="m59.516 53.487h8.969v6.694h-8.969z" fill="#029bc5" transform="matrix(0 1 -1 0 120.834 -7.166)"/><path d="m63.72 51.932h.54v9.601h-.54z" fill="#d5d6db"/><path d="m59.15 61.871h9.699v1.102h-9.699z" fill="#d5d6db"/><path d="m73.175 51.798h7.798v10.073h-7.798z" fill="#d5d6db"/><path d="m72.59 53.487h8.969v6.694h-8.969z" fill="#029bc5" transform="matrix(0 1 -1 0 133.908 -20.24)"/><path d="m76.794 51.932h.54v9.601h-.54z" fill="#d5d6db"/><path d="m72.224 61.871h9.699v1.102h-9.699z" fill="#d5d6db"/><path d="m47.027 66.086h7.798v10.073h-7.798z" fill="#d5d6db"/><path d="m46.441 67.776h8.969v6.694h-8.969z" fill="#029bc5" transform="matrix(0 1 -1 0 122.048 20.197)"/><path d="m50.646 66.22h.54v9.601h-.54z" fill="#d5d6db"/><path d="m46.076 76.159h9.699v1.102h-9.699z" fill="#d5d6db"/><path d="m60.101 66.086h7.798v10.073h-7.798z" fill="#d5d6db"/><path d="m59.516 67.776h8.969v6.694h-8.969z" fill="#029bc5" transform="matrix(0 1 -1 0 135.122 7.123)"/><path d="m63.72 66.22h.54v9.601h-.54z" fill="#d5d6db"/><path d="m59.15 76.159h9.699v1.102h-9.699z" fill="#d5d6db"/><path d="m73.175 66.086h7.798v10.073h-7.798z" fill="#d5d6db"/><path d="m72.59 67.776h8.969v6.694h-8.969z" fill="#029bc5" transform="matrix(0 1 -1 0 148.197 -5.952)"/><path d="m76.794 66.22h.54v9.601h-.54z" fill="#d5d6db"/><path d="m72.224 76.159h9.699v1.102h-9.699z" fill="#d5d6db"/><path d="m55.358 82.731h17.283v18.76h-17.283z" fill="#3a556a"/><path d="m37.48 100.282h53.041v2.661h-53.041z" fill="#d5d6db"/><g fill="#029bc5"><path d="m56.834 27.274-.901-.131-.403-.817-.403.817-.901.131.652.635-.154.897.806-.423.806.423-.154-.897z"/><path d="m61.069 27.274-.901-.131-.403-.817-.403.817-.901.131.652.635-.154.897.806-.423.806.423-.154-.897z"/><path d="m65.304 27.274-.901-.131-.403-.817-.403.817-.901.131.652.635-.154.897.806-.423.806.423-.154-.897z"/><path d="m69.539 27.274-.901-.131-.403-.817-.403.817-.901.131.652.635-.154.897.806-.423.806.423-.154-.897z"/><path d="m73.774 27.274-.901-.131-.403-.817-.403.817-.901.131.652.635-.154.897.806-.423.806.423-.154-.897z"/></g></g></svg>