<svg height="512" viewBox="0 0 128 128" width="512" xmlns="http://www.w3.org/2000/svg"><g id="Circle_Grid" data-name="Circle Grid"><circle cx="64" cy="64" fill="#21b3a9" r="64"/></g><g id="icon"><path d="m64 30.875a36.535 36.535 0 0 0 -36.371 33.115h72.742a36.535 36.535 0 0 0 -36.371-33.115z" fill="#fcd462"/><path d="m64 24.722a5.622 5.622 0 1 0 5.621 5.621 5.62 5.62 0 0 0 -5.621-5.621z" fill="#fcd462"/><path d="m39.226 56.751a34.334 34.334 0 0 1 18.021-20.558h-4.5a34.379 34.379 0 0 0 -18.012 20.558z" fill="#ebf0f3"/><rect fill="#f7be56" height="5.454" rx="2.727" width="79.727" x="24.137" y="61.807"/><path d="m90.409 77.108-21.436 6.381-10.762-3.2 12.651-2.039a4.347 4.347 0 0 0 2.383-6.638l-25.57 2.337-13.575 7.651 5.471 13.768 29.112-2.157 30.909-12.549a7.538 7.538 0 0 0 -9.183-3.554z" fill="#fcd462"/><path d="m26.443 80.471h12.288v18.166h-12.288z" fill="#3a556a" transform="matrix(.96 -.281 .281 .96 -23.865 12.775)"/></g></svg>