<svg id="Layer_1" height="512" viewBox="0 0 64 64" width="512" xmlns="http://www.w3.org/2000/svg" data-name="Layer 1"><rect fill="#2458ad" height="34" rx="2" width="28" x="2" y="2"/><path d="m4 2a2 2 0 0 0 -2 2v28h23a2 2 0 0 0 2-2v-28z" fill="#2862be"/><rect fill="#2862be" height="28" rx="2" width="20" x="6" y="6"/><path d="m26 31.723v-23.723a2 2 0 0 0 -2-2h-16a2 2 0 0 0 -2 2v24h19a1.987 1.987 0 0 0 1-.277z" fill="#3279ea"/><path d="m25 9-1.286-.514a20.758 20.758 0 0 0 -7.714-1.486 20.758 20.758 0 0 0 -7.714 1.486l-1.286.514v16a2 2 0 0 0 2 2h14a2 2 0 0 0 2-2z" fill="#d76e31"/><path d="m22 23v-15.107a20.695 20.695 0 0 0 -13.714.593l-1.286.514v16h13a2 2 0 0 0 2-2z" fill="#ee8041"/><rect fill="#ee8041" height="13" rx="2" width="16" x="8" y="10"/><path d="m10 10a2 2 0 0 0 -2 2v9a2 2 0 0 0 2 2h12v-13z" fill="#f19846"/><path d="m9 27v3h4v-3" fill="#363a4f"/><path d="m19 27v3h4v-3" fill="#363a4f"/><path d="m19 29h2a1 1 0 0 0 1-1v-1h-3z" fill="#4c506e"/><path d="m9 29h2a1 1 0 0 0 1-1v-1h-3z" fill="#4c506e"/><path d="m10 11h12v6h-12z" fill="#ccc"/><path d="m15 11h2v6h-2z" fill="#ee8041"/><path d="m11 19h10v2h-10z" fill="#ee8041"/><path d="m13 22h6v2h-6z" fill="#d76e31"/><path d="m58 2h4v60h-4z" fill="#363a4f"/><path d="m58 14a36.5 36.5 0 0 0 -22.806-8h-2.194v-4h2.194a36.5 36.5 0 0 1 22.806 8" fill="#3279ea"/><path d="m33 3v3h2.194a36.5 36.5 0 0 1 20.806 6.519v-1.519a36.5 36.5 0 0 0 -22.806-8z" fill="#2862be"/><path d="m50 32h4v30h-4z" fill="#363a4f"/><path d="m38 52v10h-4v-10" fill="#363a4f"/><path d="m50 48h-18v4h18" fill="#363a4f"/><path d="m10 11v5h3a1 1 0 0 0 1-1v-4z" fill="#fff"/><path d="m17 11v5h3a1 1 0 0 0 1-1v-4z" fill="#fff"/><g fill="#4c506e"><path d="m58 2v54a2 2 0 0 0 2-2v-52z"/><path d="m50 32v27a2 2 0 0 0 2-2v-25z"/><path d="m34 52v7a2 2 0 0 0 2-2v-5z"/><path d="m32 50h14a2 2 0 0 0 2-2h-16z"/></g><path d="m4 37h24a3 3 0 0 0 3-3v-30a3 3 0 0 0 -3-3h-24a3 3 0 0 0 -3 3v30a3 3 0 0 0 3 3zm-1-33a1 1 0 0 1 1-1h24a1 1 0 0 1 1 1v30a1 1 0 0 1 -1 1h-24a1 1 0 0 1 -1-1z"/><path d="m8 27.816v2.184a1 1 0 0 0 1 1h4a1 1 0 0 0 1-1v-2h4v2a1 1 0 0 0 1 1h4a1 1 0 0 0 1-1v-2.184a3 3 0 0 0 2-2.816v-16a1 1 0 0 0 -.629-.928l-1.286-.515a21.868 21.868 0 0 0 -16.17 0l-1.286.515a1 1 0 0 0 -.629.928v16a3 3 0 0 0 2 2.816zm4 1.184h-2v-1h2zm8 0v-1h2v1zm-12-19.323.657-.263a19.86 19.86 0 0 1 14.686 0l.657.263v15.323a1 1 0 0 1 -1 1h-14a1 1 0 0 1 -1-1z"/><path d="m10 18h12a1 1 0 0 0 1-1v-6a1 1 0 0 0 -1-1h-12a1 1 0 0 0 -1 1v6a1 1 0 0 0 1 1zm11-2h-4v-4h4zm-10-4h4v4h-4z"/><path d="m11 19h10v2h-10z"/><path d="m13 22h6v2h-6z"/><path d="m62 1h-4a1 1 0 0 0 -1 1v6a37.665 37.665 0 0 0 -21.807-7h-2.193a1 1 0 0 0 -1 1v4a1 1 0 0 0 1 1h2.193a35.637 35.637 0 0 1 21.807 7.494v47.506a1 1 0 0 0 1 1h4a1 1 0 0 0 1-1v-60a1 1 0 0 0 -1-1zm-26.807 4h-1.193v-2h1.193a35.637 35.637 0 0 1 21.807 7.494v1.506a37.665 37.665 0 0 0 -21.807-7zm25.807 56h-2v-58h2z"/><path d="m50 63h4a1 1 0 0 0 1-1v-30a1 1 0 0 0 -1-1h-4a1 1 0 0 0 -1 1v15h-17a1 1 0 0 0 -1 1v4a1 1 0 0 0 1 1h1v9a1 1 0 0 0 1 1h4a1 1 0 0 0 1-1v-9h10v9a1 1 0 0 0 1 1zm1-30h2v28h-2zm-14 28h-2v-8h2zm-4-10v-2h16v2z"/></svg>