<svg height="512" viewBox="0 0 128 128" width="512" xmlns="http://www.w3.org/2000/svg"><g id="Circle_Grid" data-name="Circle Grid"><circle cx="64" cy="64" fill="#2cbfae" r="64"/></g><g id="icon"><g fill="#575b6d"><path d="m96.155 72.899h2.315v21.052h-2.315z"/><path d="m26.279 44.693h3.251v49.376h-3.251z"/><path d="m83.26 44.693h3.251v49.376h-3.251z"/><path d="m71.453 83.784h2.563v8.803h-2.563z"/><path d="m38.775 83.784h2.563v8.803h-2.563z"/></g><path d="m39.222 68.271h34.346a1.839 1.839 0 0 1 1.839 1.839v10.946a0 0 0 0 1 0 0h-38.024a0 0 0 0 1 0 0v-10.946a1.839 1.839 0 0 1 1.839-1.839z" fill="#ef5261"/><rect fill="#da364c" height="3.885" rx="1.943" width="42.956" x="34.917" y="80.601"/><path d="m23 92.215h81.008v4.491h-81.008z" fill="#dbd8dd"/><path d="m37.391 31.294h38.009a14.391 14.391 0 0 1 14.39 14.391 0 0 0 0 1 0 0h-66.79a0 0 0 0 1 0 0 14.391 14.391 0 0 1 14.391-14.391z" fill="#eeefee"/><path d="m44.273 31.294h24.245a11.188 11.188 0 0 1 11.188 11.188v3.2a0 0 0 0 1 0 0h-46.621a0 0 0 0 1 0 0v-3.2a11.188 11.188 0 0 1 11.188-11.188z" fill="#dbd8dd"/><path d="m54.085 31.294h4.62a7.113 7.113 0 0 1 7.113 7.113v7.278a0 0 0 0 1 0 0h-18.846a0 0 0 0 1 0 0v-7.278a7.113 7.113 0 0 1 7.113-7.113z" fill="#eeefee"/><circle cx="97.395" cy="66.616" fill="#eeefee" r="7.605"/><circle cx="97.395" cy="66.617" fill="#f6c863" r="6.282"/><path d="m99.081 68.878h1.106a0 0 0 0 1 0 0v.889a.217.217 0 0 1 -.217.217h-.67a.217.217 0 0 1 -.217-.217v-.889a0 0 0 0 1 -.002 0z" fill="#575b6d"/><path d="m94.6 68.878h1.106a0 0 0 0 1 0 0v.889a.217.217 0 0 1 -.217.217h-.672a.217.217 0 0 1 -.217-.217v-.889a0 0 0 0 1 0 0z" fill="#575b6d"/><rect fill="#ef5261" height="5.924" rx=".331" width="6.611" x="94.09" y="63.25"/><path d="m94.592 63.787h5.607v2.356h-5.607z" fill="#69b0ee"/><path d="m97.192 63.608h.406v2.852h-.406z" fill="#ef5261"/><circle cx="95.322" cy="67.7" fill="#f6c863" r=".441"/><circle cx="99.469" cy="67.7" fill="#f6c863" r=".441"/><path d="m96.253 67.281h2.284v.168h-2.284z" fill="#f6c863"/><path d="m96.253 67.953h2.284v.168h-2.284z" fill="#f6c863"/></g></svg>