<?xml version="1.0" encoding="iso-8859-1"?>
<!-- Generator: Adobe Illustrator 19.0.0, SVG Export Plug-In . SVG Version: 6.00 Build 0)  -->
<svg version="1.1" id="Capa_1" xmlns="http://www.w3.org/2000/svg" xmlns:xlink="http://www.w3.org/1999/xlink" x="0px" y="0px"
	 viewBox="0 0 512 512" style="enable-background:new 0 0 512 512;" xml:space="preserve">
<path style="fill:#E8DBC4;" d="M512,256v0.282c-0.031,25.412-3.751,49.967-10.689,73.143c-6.792,22.727-16.666,44.136-29.121,63.739
	c-2.027,3.187-4.117,6.322-6.28,9.404c-2.487,3.553-5.057,7.032-7.722,10.449c-5.663,7.293-11.713,14.273-18.129,20.898
	c-9.644,9.979-20.083,19.163-31.232,27.47C366.184,493.181,313.292,512,256,512s-110.184-18.819-152.827-50.615
	c-11.149-8.307-21.588-17.492-31.232-27.47c-6.416-6.625-12.466-13.605-18.129-20.898c-2.664-3.417-5.235-6.896-7.722-10.449
	c-2.163-3.082-4.253-6.217-6.28-9.404c-12.455-19.602-22.329-41.012-29.121-63.739C3.751,306.249,0.031,281.694,0,256.282V256
	c0-32.475,6.05-63.54,17.074-92.129c19.78-51.263,55.589-94.563,101.292-123.768c17.638-11.264,36.739-20.428,56.968-27.136
	C200.694,4.556,227.819,0,256,0c120.759,0,221.989,83.613,248.947,196.096C509.565,215.312,512,235.374,512,256z"/>
<path style="fill:#D6C8B0;" d="M512,256v0.282c-0.031,25.412-3.751,49.967-10.689,73.143c-6.792,22.727-16.666,44.136-29.121,63.739
	c-2.027,3.187-4.117,6.322-6.28,9.404c-2.487,3.553-5.057,7.032-7.722,10.449c-5.663,7.293-11.713,14.273-18.129,20.898
	c-9.644,9.979-20.083,19.163-31.232,27.47H103.173c-11.149-8.307-21.588-17.492-31.232-27.47
	c-6.416-6.625-12.466-13.605-18.129-20.898c-2.664-3.417-5.235-6.896-7.722-10.449c-2.163-3.082-4.253-6.217-6.28-9.404
	c-12.455-19.602-22.329-41.012-29.121-63.739C3.751,306.249,0.031,281.694,0,256.282V256c0-32.475,6.05-63.54,17.074-92.129h12.466
	c4.044,0,7.314,3.281,7.314,7.314v52.245c0,4.044,3.271,7.314,7.314,7.314h16.718c4.044,0,7.314-3.271,7.314-7.314v-28.212
	c0-4.033,3.271-7.314,7.314-7.314h44.931c4.044,0,7.314-3.271,7.314-7.314v-40.751c0-4.033,3.271-7.314,7.314-7.314h21.943
	c4.044,0,7.314,3.281,7.314,7.314v73.143c0,4.044,3.271,7.314,7.314,7.314h15.673c4.044,0,7.314-3.271,7.314-7.314v-17.763
	c0-4.033,3.271-7.314,7.314-7.314h33.437c4.044,0,7.314,3.281,7.314,7.314v4.18c0,4.044,3.271,7.314,7.314,7.314h11.494
	c4.044,0,7.314,3.281,7.314,7.314v6.269c0,4.044,3.271,7.314,7.314,7.314h21.943c4.044,0,7.314-3.271,7.314-7.314V176.41
	c0-4.033,3.271-7.314,7.314-7.314h18.808c4.044,0,7.314-3.271,7.314-7.314v-10.449c0-4.033,3.271-7.314,7.314-7.314h6.269
	c4.044,0,7.314,3.281,7.314,7.314v11.494c0,4.086,3.354,7.398,7.45,7.314c3.992-0.073,7.178,3.333,7.178,7.314v12.539
	c0,4.044,3.271,7.314,7.314,7.314h15.673c4.044,0,7.314,3.281,7.314,7.314v15.673c0,4.044,3.271,7.314,7.314,7.314h30.302
	c4.044,0,7.314-3.271,7.314-7.314v-58.514c0-4.033,3.271-7.314,7.314-7.314h8.359c4.044,0,7.314,3.281,7.314,7.314v60.792
	c0,4.514,3.657,8.171,8.171,8.171h16.018c4.514,0,8.182-3.657,8.182-8.171v-26.478C509.565,215.312,512,235.374,512,256z"/>
<path style="fill:#4BC999;" d="M512,256.282c-0.031,25.412-3.751,49.967-10.689,73.143c-2.33,7.774-5.005,15.391-8.035,22.831
	c-12.424,30.616-30.615,58.284-53.217,81.659H71.941c-28.097-29.059-49.371-64.742-61.252-104.49
	C3.751,306.249,0.031,281.694,0,256.282L512,256.282L512,256.282z"/>
<path style="fill:#5C5E70;" d="M465.91,402.568c-7.784,11.128-16.436,21.619-25.851,31.347C393.519,482.064,328.255,512,256,512
	c-23.385,0-46.038-3.135-67.553-9.007c-37.637-10.271-71.826-28.923-100.425-53.812c-5.58-4.859-10.94-9.947-16.081-15.266
	c-9.415-9.728-18.066-20.219-25.851-31.347L465.91,402.568L465.91,402.568z"/>
<rect x="57.469" y="153.882" style="fill:#34ABE0;" width="260.18" height="127.478"/>
<rect x="55.38" y="257.327" style="fill:#279FC9;" width="262.269" height="27.69"/>
<g>
	<path style="fill:#5BD3A2;" d="M512,256.282c-0.031,25.412-3.751,49.967-10.689,73.143c-2.33,7.774-5.005,15.391-8.035,22.831
		h-77.73c-3.678,0-7.011-1.494-9.415-3.897c-2.414-2.414-3.908-5.747-3.908-9.425c0-7.367,5.966-13.333,13.322-13.333h40.5
		c3.678,0,7.011-1.484,9.415-3.897c2.414-2.414,3.908-5.736,3.908-9.425c0-7.356-5.966-13.322-13.322-13.322H444.74
		c-3.678,0-7.011-1.494-9.415-3.908c-2.414-2.403-3.908-5.736-3.908-9.415c0-7.356,5.966-13.322,13.322-13.322h37.418
		c3.678,0,7.011-1.494,9.425-3.908c2.403-2.403,3.897-5.736,3.897-9.415c0-0.93-0.094-1.829-0.272-2.706L512,256.282L512,256.282z"
		/>
	<path style="fill:#5BD3A2;" d="M265.752,334.406L265.752,334.406c0-7.358,5.965-13.323,13.323-13.323h42.934
		c7.358,0,13.323-5.965,13.323-13.324l0,0c0-7.358-5.965-13.323-13.323-13.323H195.441c-7.358,0-13.324,5.965-13.324,13.323l0,0
		c0,7.358-5.965,13.324-13.324,13.324H125.86c-7.358,0-13.323,5.965-13.323,13.323l0,0c0,7.358,5.965,13.324,13.323,13.324h63.659
		c7.358,0,13.324,5.965,13.324,13.323l0,0c0,7.358,5.965,13.324,13.324,13.324h126.568c7.358,0,13.324-5.965,13.324-13.324l0,0
		c0-7.358-5.965-13.323-13.324-13.323h-63.659C271.717,347.728,265.752,341.764,265.752,334.406z"/>
</g>
<path style="fill:#797B89;" d="M237.108,489.148c0,3.678-1.494,7.011-3.908,9.425c-2.403,2.403-5.736,3.897-9.415,3.897h-31.65
	c-1.275,0-2.518,0.178-3.688,0.522c-37.637-10.271-71.826-28.923-100.425-53.812h105.42c7.356,0,13.322,5.966,13.322,13.322
	c0,3.678,1.484,7.011,3.897,9.425c2.414,2.403,5.736,3.897,9.425,3.897h3.699C231.142,475.826,237.108,481.792,237.108,489.148z"/>
<g>
	<rect x="44.408" y="117.311" style="fill:#F4A14E;" width="25.078" height="246.596"/>
	<rect x="305.633" y="117.311" style="fill:#F4A14E;" width="25.078" height="246.596"/>
</g>
<g>
	<rect x="44.408" y="117.311" style="fill:#E28D40;" width="25.078" height="36.571"/>
	<rect x="305.633" y="117.311" style="fill:#E28D40;" width="25.078" height="36.571"/>
</g>
<path style="fill:#FF525D;" d="M329.902,79.694H45.216c-19.201,0-34.767,15.566-34.767,34.767v13.298h354.22v-13.298
	C364.669,95.26,349.104,79.694,329.902,79.694z"/>
<path style="fill:#EF4152;" d="M107.914,79.694H45.216c-19.201,0-34.767,15.566-34.767,34.767v13.298h62.697v-13.298
	C73.146,95.26,88.712,79.694,107.914,79.694z"/>
<path style="fill:#78CAEF;" d="M277.943,196.723h-91.951c-6.925,0-12.539-5.614-12.539-12.539l0,0
	c0-6.925,5.614-12.539,12.539-12.539h91.951c6.925,0,12.539,5.614,12.539,12.539l0,0
	C290.482,191.109,284.867,196.723,277.943,196.723z"/>
<path style="fill:#FF6E7C;" d="M317.649,105.817h-81.502c-5.194,0-9.404-4.21-9.404-9.404l0,0c0-5.194,4.21-9.404,9.404-9.404
	h81.502c5.194,0,9.404,4.21,9.404,9.404l0,0C327.053,101.607,322.843,105.817,317.649,105.817z"/>
<path style="fill:#C69A6A;" d="M333.845,275.09H41.273c-6.751,0-12.224,5.473-12.224,12.224v4.809
	c0,6.751,5.473,12.224,12.224,12.224h292.571c6.751,0,12.224-5.473,12.224-12.224v-4.809
	C346.069,280.563,340.596,275.09,333.845,275.09z"/>
<path style="fill:#B58657;" d="M60.396,292.123v-4.809c0-6.751,5.473-12.224,12.224-12.224H41.273
	c-6.751,0-12.224,5.473-12.224,12.224v4.809c0,6.751,5.473,12.224,12.224,12.224H72.62
	C65.869,304.347,60.396,298.874,60.396,292.123z"/>
<path style="fill:#FCF8F2;" d="M472.189,393.164c-2.027,3.187-4.117,6.322-6.28,9.404c-2.487,3.553-5.057,7.032-7.722,10.449H53.812
	c-2.664-3.417-5.235-6.896-7.722-10.449c-2.163-3.082-4.253-6.217-6.28-9.404H472.189z"/>
<rect x="434.939" y="47.303" style="fill:#797B89;" width="13.061" height="316.604"/>
<path style="fill:#34ABE0;" d="M479.375,21.18h-75.813c-8.784,0-15.906,7.121-15.906,15.906v110.294
	c0,8.784,7.121,15.906,15.906,15.906h75.813c8.784,0,15.906-7.121,15.906-15.906V37.087C495.282,28.301,488.161,21.18,479.375,21.18
	z"/>
<g>
	<path style="fill:#F9EED7;" d="M458.786,57.752h-34.634c-8.614,0-15.597,6.983-15.597,15.597v40.827h65.829V73.349
		C474.384,64.735,467.401,57.752,458.786,57.752z"/>
	<rect x="414.302" y="117.833" style="fill:#F9EED7;" width="15.656" height="8.882"/>
	<rect x="452.984" y="117.833" style="fill:#F9EED7;" width="15.656" height="8.882"/>
</g>
<g>
	<path style="fill:#34ABE0;" d="M459.966,71.858h-36.994c-3.202,0-5.797,2.596-5.797,5.797v7.736c0,3.202,2.596,5.797,5.797,5.797
		h36.994c3.202,0,5.797-2.596,5.797-5.797v-7.736C465.763,74.453,463.168,71.858,459.966,71.858z"/>
	<circle style="fill:#34ABE0;" cx="423.184" cy="103.727" r="6.269"/>
	<circle style="fill:#34ABE0;" cx="459.755" cy="104.511" r="6.269"/>
</g>
<path style="fill:#78CAEF;" d="M479.869,43.123H448c-3.319,0-6.008-2.69-6.008-6.008l0,0c0-3.319,2.69-6.008,6.008-6.008h31.869
	c3.319,0,6.008,2.69,6.008,6.008l0,0C485.878,40.433,483.188,43.123,479.869,43.123z"/>
<path style="fill:#F9EED7;" d="M260.2,52.935c0,7.356-5.966,13.322-13.322,13.322H141.406c-3.678,0-7.011-1.494-9.415-3.908
	c-2.414-2.403-3.908-5.736-3.908-9.415c0-6.102-4.117-11.254-9.718-12.831c17.638-11.264,36.739-20.428,56.968-27.136h44.899
	c7.356,0,13.322,5.966,13.322,13.322c0,3.678,1.494,7.011,3.908,9.415c2.403,2.414,5.736,3.908,9.415,3.908s7.011,1.494,9.415,3.908
	C258.706,45.923,260.2,49.256,260.2,52.935z"/>
<g>
</g>
<g>
</g>
<g>
</g>
<g>
</g>
<g>
</g>
<g>
</g>
<g>
</g>
<g>
</g>
<g>
</g>
<g>
</g>
<g>
</g>
<g>
</g>
<g>
</g>
<g>
</g>
<g>
</g>
</svg>
