<svg height="488pt" viewBox="0 -10 488.00781 488" width="488pt" xmlns="http://www.w3.org/2000/svg"><g fill="#a4c9ff"><path d="m152.453125 319.132812h-28.464844c-4.039062 0-7.3125-3.277343-7.3125-7.3125v-18.671874c0-4.042969 3.273438-7.316407 7.3125-7.316407h.125v-41.273437c0-6.945313 5.554688-12.574219 12.414063-12.574219h11.140625l3.144531-8.5c-2.203125.808594-4.339844 1.925781-6.328125 3.398437-.121094-.179687-.222656-.363281-.351563-.539062-7.429687-10.265625-21.667968-12.484375-31.800781-4.949219-10.132812 7.53125-12.320312 21.957031-4.886719 32.222657.117188.164062.25.304687.371094.464843-.050781.035157-.101562.0625-.152344.101563-11.246093 8.355468-13.679687 24.363281-5.457031 35.765625-.175781.121093-.359375.226562-.53125.355469-10.128906 7.53125-12.316406 21.957031-4.886719 32.222656 7.433594 10.269531 21.671876 12.484375 31.800782 4.953125.175781-.128907.328125-.277344.496094-.40625.023437.027343.042968.0625.0625.09375 5.570312 7.691406 14.578124 11.296875 23.308593 10.277343l.992188.167969v-18.480469zm0 0"/><path d="m362.148438 285.832031c.457031 0 .902343.054688 1.335937.132813-.417969-.078125-.84375-.132813-1.285156-.132813zm0 0"/><path d="m371.738281 221.957031c-.214843.011719-.421875.046875-.636719.0625-.003906-.035156 0-.074219 0-.109375-.550781-11.183594-8.113281-20.3125-18.152343-23.292968 4.921875-10.585938 2.171875-23.570313-7.304688-31.070313.136719-.167969.28125-.316406.414063-.488281 7.714844-10.050782 5.933594-24.535156-3.984375-32.355469-9.914063-7.820313-24.207031-6.015625-31.925781 4.035156-.132813.171875-.242188.355469-.367188.53125-.03125-.023437-.054688-.050781-.082031-.074219-11.019531-8.6875-26.902344-6.683593-35.476563 4.484376-2.382812 3.101562-3.921875 6.589843-4.707031 10.1875h24.140625c10.710938 0 20.296875 6.734374 24.058594 16.894531l22.652344 61.214843h11.140624c6.855469 0 12.414063 5.628907 12.414063 12.578126v41.488281c-.0625-.015625-.128906-.023438-.195313-.035157.90625.199219 1.738282.578126 2.484376 1.078126 4.71875-4.910157 7.507812-11.695313 7.160156-19.082032.210937-.003906.421875.011719.632812 0 12.550782-.632812 22.21875-11.457031 21.589844-24.171875-.625-12.714843-11.308594-22.507812-23.855469-21.875zm0 0"/><path d="m230.503906 4.082031c126.652344-3.257812 231.480469 94.097657 238.460938 216.871094.125 2.210937 1.945312 3.945313 4.183594 3.945313h6.648437c3.589844 0 5.523437 4.167968 3.183594 6.859374l-28.648438 32.925782c-1.675781 1.925781-4.691406 1.925781-6.367187 0l-28.648438-32.925782c-2.34375-2.691406-.410156-6.859374 3.183594-6.859374h8.574219c2.417969 0 4.371093-2.015626 4.207031-4.402344-7.171875-104.058594-96.539062-186.167969-204.261719-183.199219-106.035156 2.921875-191.789062 88.832031-193.394531 193.675781-1.679688 109.890625 88.261719 199.816406 199.054688 199.816406 49.265624 0 94.40625-17.777343 129.203124-47.1875 6.710938-5.671874 16.664063-5.410156 22.90625.761719 6.949219 6.871094 6.445313 18.105469-1.019531 24.417969-40.683593 34.414062-93.476562 55.222656-151.09375 55.222656-131.351562 0-237.632812-108.152344-232.496093-239.101562 4.726562-120.503906 104.367187-217.679688 226.324218-220.820313zm0 0"/></g><path d="m236.675781 468.003906c-65.394531 0-126.296875-25.886718-171.492187-72.886718-44.414063-46.191407-67.5-106.699219-65-170.371094 4.816406-122.78125 105.941406-221.464844 230.21875-224.6640628 62.058594-1.5781252 121.332031 20.5039068 166.910156 62.2226568 45.332031 41.496093 72.195312 97.757812 75.648438 158.421874.003906.082032.0625.167969.1875.167969h6.644531c3.261719 0 6.125 1.835938 7.46875 4.792969 1.335937 2.929688.851562 6.261719-1.265625 8.695312l-28.648438 32.925782c-1.558594 1.789062-3.816406 2.816406-6.203125 2.816406-2.382812 0-4.640625-1.027344-6.199219-2.816406l-28.648437-32.925782c-2.121094-2.4375-2.605469-5.769531-1.269531-8.699218 1.34375-2.953125 4.207031-4.789063 7.46875-4.789063h8.574218c.148438 0 .210938-.105469.214844-.121093-7.132812-103.542969-94.996094-182.382813-200.15625-179.484376-104.683594 2.882813-187.921875 86.226563-189.507812 189.742188-.789063 51.554688 18.851562 100.332031 55.304687 137.347656 37.09375 37.667969 86.726563 58.410156 139.75 58.410156 46.371094 0 91.335938-16.425781 126.621094-46.246093 8.394531-7.09375 20.5625-6.679688 28.300781.972656 4.085938 4.042969 6.304688 9.636719 6.082032 15.351563-.222657 5.761718-2.894532 11.214843-7.332032 14.964843-42.8125 36.222657-97.386718 56.171875-153.671875 56.171875zm-6.171875-463.921875.105469 4c-120.074219 3.085938-217.78125 98.394531-222.433594 216.976563-2.410156 61.480468 19.882813 119.90625 62.773438 164.511718 43.671875 45.417969 102.527343 70.433594 165.726562 70.433594 54.390625 0 107.132813-19.277344 148.507813-54.273437 2.765625-2.339844 4.367187-5.597657 4.503906-9.167969.136719-3.53125-1.179688-6.851562-3.710938-9.351562-4.769531-4.71875-12.300781-4.960938-17.511718-.554688-36.726563 31.039062-83.53125 48.132812-131.789063 48.132812-55.183593 0-106.835937-21.589843-145.445312-60.792968-37.96875-38.554688-58.425781-89.371094-57.605469-143.085938.792969-51.753906 21.640625-100.699218 58.703125-137.824218 37.058594-37.113282 86.273437-58.347657 138.582031-59.789063 52.898438-1.5 103.546875 17.183594 142.625 52.492187 38.832032 35.089844 62.175782 82.828126 65.730469 134.429688.15625 2.210938-.628906 4.421875-2.15625 6.058594-1.554687 1.664062-3.753906 2.621094-6.039063 2.621094h-8.574218l-.207032.179687 28.6875 32.980469 3.351563 2.625-3.019531-2.625 28.648437-32.925782-.167969-.234374h-6.644531c-4.339843 0-7.929687-3.390626-8.175781-7.714844-6.976562-122.695313-109.898438-216.308594-234.363281-213.101563zm0 0" fill="#3762cc"/><path d="m340.367188 231.980469h-192.703126l22.65625-61.214844c3.757813-10.164063 13.347657-16.894531 24.058594-16.894531h99.277344c10.710938 0 20.300781 6.730468 24.058594 16.894531zm0 0" fill="#4671c6"/><path d="m167.484375 215.503906 14.863281-40.164062c1.878906-5.082032 6.671875-8.449219 12.027344-8.449219h99.28125c5.355469 0 10.148438 3.367187 12.027344 8.449219l14.863281 40.164062c.621094 1.671875-.601563 3.460938-2.367187 3.460938h-148.328126c-1.765624 0-2.984374-1.789063-2.367187-3.460938zm0 0" fill="#e0ebfc"/><path d="m394.878906 187.398438c0-7.132813-5.707031-12.910157-12.742187-12.910157-7.035157 0-12.738281 5.777344-12.738281 12.910157 0 7.128906 5.703124 12.910156 12.738281 12.910156 7.035156 0 12.742187-5.78125 12.742187-12.910156zm0 0" fill="#a4c9ff"/><path d="m261.117188 192.925781h-34.203126c-2.378906 0-4.308593-1.929687-4.308593-4.308593v-8.734376c0-2.382812 1.929687-4.3125 4.308593-4.3125h34.203126c2.378906 0 4.308593 1.929688 4.308593 4.3125v8.734376c.003907 2.378906-1.925781 4.308593-4.308593 4.308593zm0 0" fill="#a4c9ff"/><path d="m244.691406 184.246094h-1.351562c-1.992188 0-3.605469-1.613282-3.605469-3.605469v-13.75h8.5625v13.75c.003906 1.992187-1.613281 3.605469-3.605469 3.605469zm0 0" fill="#4671c6"/><path d="m382.101562 204.3125c-3.710937 0-7.292968-1.242188-10.265624-3.585938-7.253907-5.71875-8.566407-16.347656-2.925782-23.695312 2.75-3.582031 6.722656-5.863281 11.179688-6.417969 4.433594-.546875 8.824218.671875 12.347656 3.457031 7.257812 5.71875 8.566406 16.347657 2.929688 23.691407-2.753907 3.585937-6.722657 5.863281-11.179688 6.417969-.699219.085937-1.394531.132812-2.085938.132812zm.050782-25.828125c-.355469 0-.714844.023437-1.074219.070313-2.316406.289062-4.382813 1.476562-5.824219 3.351562-2.988281 3.890625-2.296875 9.515625 1.535156 12.539062 1.835938 1.449219 4.105469 2.085938 6.410157 1.796876 2.3125-.289063 4.382812-1.476563 5.820312-3.347657 2.988281-3.894531 2.300781-9.519531-1.535156-12.542969-1.546875-1.222656-3.40625-1.867187-5.332031-1.867187zm10.042968 16.84375h.019532zm0 0" fill="#3762cc"/><path d="m340.371094 235.980469h-192.703125c-1.308594 0-2.535157-.640625-3.285157-1.714844-.746093-1.074219-.921874-2.445313-.46875-3.671875l22.65625-61.214844c4.316407-11.664062 15.492188-19.507812 27.808594-19.507812h99.277344c12.316406 0 23.492188 7.839844 27.808594 19.507812l22.65625 61.214844c.453125 1.226562.277344 2.597656-.46875 3.671875-.75 1.074219-1.976563 1.714844-3.28125 1.714844zm-186.960938-8h181.210938l-20.660156-55.824219c-3.160157-8.546875-11.320313-14.285156-20.304688-14.285156h-99.277344c-8.984375 0-17.144531 5.738281-20.308594 14.285156zm0 0" fill="#3762cc"/><path d="m362.148438 319.132812h-238.160157c-4.039062 0-7.3125-3.273437-7.3125-7.3125v-18.671874c0-4.042969 3.273438-7.316407 7.3125-7.316407h238.160157c4.039062 0 7.316406 3.273438 7.316406 7.316407v18.671874c0 4.039063-3.277344 7.3125-7.316406 7.3125zm0 0" fill="#6bdddd"/><path d="m362.148438 323.132812h-238.160157c-6.238281 0-11.3125-5.074218-11.3125-11.3125v-18.671874c0-6.242188 5.074219-11.316407 11.3125-11.316407h238.164063c6.238281 0 11.3125 5.078125 11.3125 11.316407v18.671874c0 6.238282-5.078125 11.3125-11.316406 11.3125zm-238.160157-33.300781c-1.828125 0-3.3125 1.488281-3.3125 3.316407v18.671874c0 1.828126 1.488281 3.3125 3.3125 3.3125h238.164063c1.828125 0 3.3125-1.488281 3.3125-3.3125v-18.671874c0-1.828126-1.484375-3.316407-3.3125-3.316407zm0 0" fill="#3762cc"/><path d="m153.449219 319.132812v23.027344c0 4.066406 3.253906 7.363282 7.265625 7.363282h20.855468c4.015626 0 7.269532-3.296876 7.269532-7.363282v-23.027344zm0 0" fill="#f9a7a7"/><path d="m181.570312 353.523438h-20.855468c-6.214844 0-11.265625-5.097657-11.265625-11.363282v-23.027344c0-2.207031 1.789062-4 4-4h35.386719c2.210937 0 4 1.792969 4 4v23.027344c0 6.265625-5.050782 11.363282-11.265626 11.363282zm-24.121093-30.390626v19.027344c0 1.855469 1.464843 3.363282 3.265625 3.363282h20.855468c1.800782 0 3.265626-1.507813 3.265626-3.363282v-19.027344zm0 0" fill="#3762cc"/><path d="m301.183594 319.132812v23.027344c0 4.066406 3.253906 7.363282 7.269531 7.363282h20.855469c4.015625 0 7.269531-3.296876 7.269531-7.363282v-23.027344zm0 0" fill="#f9a7a7"/><path d="m329.308594 353.523438h-20.855469c-6.214844 0-11.269531-5.097657-11.269531-11.363282v-23.027344c0-2.207031 1.792968-4 4-4h35.390625c2.207031 0 4 1.792969 4 4v23.027344c0 6.265625-5.054688 11.363282-11.265625 11.363282zm-24.125-30.390626v19.027344c0 1.855469 1.46875 3.363282 3.269531 3.363282h20.855469c1.800781 0 3.269531-1.507813 3.269531-3.363282v-19.027344zm0 0" fill="#3762cc"/><path d="m362.199219 285.832031c.59375 0 1.167969.078125 1.71875.214844v-41.488281c0-6.949219-5.554688-12.578125-12.410157-12.578125h-214.980468c-6.855469 0-12.414063 5.628906-12.414063 12.578125v41.273437zm0 0" fill="#4671c6"/><path d="m363.921875 290.050781c-.320313 0-.640625-.039062-.957031-.117187-.277344-.070313-.527344-.101563-.765625-.101563h-238.085938c-2.207031 0-4-1.792969-4-4v-41.273437c0-9.140625 7.363281-16.578125 16.414063-16.578125h214.980468c9.050782 0 16.414063 7.4375 16.414063 16.578125v41.492187c0 1.226563-.5625 2.386719-1.535156 3.144531-.710938.558594-1.582031.855469-2.464844.855469zm-235.808594-8.21875h231.808594v-37.273437c0-4.730469-3.773437-8.578125-8.414063-8.578125h-214.980468c-4.640625 0-8.414063 3.847656-8.414063 8.578125zm0 0" fill="#3762cc"/><path d="m170.148438 280.105469c-11.535157 0-20.921876-9.507813-20.921876-21.199219 0-11.6875 9.386719-21.199219 20.921876-21.199219 11.535156 0 20.917968 9.511719 20.917968 21.199219.003906 11.691406-9.382812 21.199219-20.917968 21.199219zm0 0" fill="#f9a7a7"/><path d="m170.148438 273.703125c-8.054688 0-14.601563-6.636719-14.601563-14.796875 0-8.15625 6.546875-14.796875 14.601563-14.796875 8.050781 0 14.597656 6.640625 14.597656 14.796875 0 8.160156-6.546875 14.796875-14.597656 14.796875zm0 0" fill="#ffea92"/><path d="m317.886719 280.105469c-11.539063 0-20.921875-9.507813-20.921875-21.199219 0-11.6875 9.386718-21.199219 20.921875-21.199219 11.535156 0 20.921875 9.511719 20.921875 21.199219 0 11.691406-9.386719 21.199219-20.921875 21.199219zm0 0" fill="#f9a7a7"/><path d="m317.886719 273.703125c-8.050781 0-14.601563-6.636719-14.601563-14.796875 0-8.15625 6.550782-14.796875 14.601563-14.796875s14.601562 6.640625 14.601562 14.796875c0 8.160156-6.550781 14.796875-14.601562 14.796875zm0 0" fill="#ffea92"/><path d="m283.890625 269.753906h-79.746094c-2.8125 0-5.089843-2.277344-5.089843-5.089844v-11.515624c0-2.8125 2.277343-5.089844 5.089843-5.089844h79.746094c2.8125 0 5.089844 2.277344 5.089844 5.089844v11.515624c0 2.8125-2.277344 5.089844-5.089844 5.089844zm0 0" fill="#f9cfcf"/><path d="m150.878906 175.398438c0-7.132813-5.707031-12.910157-12.742187-12.910157-7.035157 0-12.738281 5.777344-12.738281 12.910157 0 7.128906 5.703124 12.910156 12.738281 12.910156 7.035156 0 12.742187-5.78125 12.742187-12.910156zm0 0" fill="#a4c9ff"/><path d="m138.101562 192.3125c-3.707031 0-7.292968-1.242188-10.265624-3.585938-7.253907-5.71875-8.566407-16.347656-2.925782-23.695312 2.753906-3.585938 6.722656-5.863281 11.179688-6.417969 4.441406-.554687 8.824218.671875 12.351562 3.453125 7.253906 5.71875 8.566406 16.347656 2.925782 23.695313-2.75 3.585937-6.71875 5.863281-11.175782 6.417969-.699218.085937-1.398437.132812-2.089844.132812zm.050782-25.828125c-.355469 0-.714844.023437-1.078125.070313-2.316407.289062-4.378907 1.476562-5.820313 3.351562-2.988281 3.890625-2.300781 9.515625 1.535156 12.539062 1.832032 1.449219 4.105469 2.085938 6.410157 1.796876 2.3125-.289063 4.378906-1.476563 5.816406-3.351563 2.988281-3.890625 2.300781-9.519531-1.53125-12.542969-1.546875-1.21875-3.40625-1.863281-5.332031-1.863281zm10.039062 16.84375h.019532zm0 0" fill="#3762cc"/><path d="m363.488281 289.96875c-.242187 0-.484375-.023438-.730469-.070312-.199218-.039063-.398437-.066407-.609374-.066407-2.207032 0-4-1.792969-4-4 0-2.210937 1.792968-4 4-4h.050781c.632812 0 1.273437.0625 2.015625.199219 2.171875.40625 3.605468 2.492188 3.203125 4.664062-.359375 1.925782-2.039063 3.273438-3.929688 3.273438zm0 0" fill="#3762cc"/><path d="m366.210938 291.089844c-.773438 0-1.546876-.222656-2.226563-.675782-.367187-.246093-.742187-.414062-1.117187-.496093l.003906-.007813c-2.085938-.535156-3.453125-2.644531-2.976563-4.757812.007813-.042969.019531-.082032.027344-.125v-40.46875c0-4.730469-3.773437-8.578125-8.410156-8.578125h-11.140625c-1.671875 0-3.167969-1.042969-3.75-2.613281l-22.660156-61.210938c-3.160157-8.546875-11.320313-14.285156-20.304688-14.285156h-24.140625c-1.207031 0-2.355469-.546875-3.113281-1.492188-.761719-.941406-1.050782-2.179687-.792969-3.363281.949219-4.34375 2.78125-8.304687 5.445313-11.773437 4.8125-6.265626 11.75-10.253907 19.539062-11.226563 6.5-.808594 12.925781.5625 18.460938 3.882813 4.214843-4.339844 9.714843-7.097657 15.777343-7.851563 7.085938-.882813 14.09375 1.070313 19.722657 5.515625 10.800781 8.515625 13.371093 23.832031 6.40625 35.394531 7.566406 7.738281 10.289062 18.964844 7.140624 29.347657 8.679688 4.039062 14.894532 12.15625 16.574219 21.675781 5.9375.398437 11.535157 2.765625 16.03125 6.835937 5.371094 4.855469 8.523438 11.539063 8.882813 18.816406.679687 13.839844-9.097656 25.800782-22.292969 28.03125-.566406 6.773438-3.453125 13.25-8.203125 18.191407-.777344.816406-1.828125 1.234375-2.882812 1.234375zm-23.058594-63.109375h8.355468c9.050782 0 16.414063 7.4375 16.414063 16.578125v32.605468c1.097656-2.808593 1.597656-5.84375 1.453125-8.964843-.050781-1.078125.335938-2.128907 1.070312-2.917969.730469-.785156 1.753907-1.246094 2.832032-1.269531h.457031c10.398437-.519531 18.382813-9.484375 17.863281-19.980469-.25-5.136719-2.472656-9.855469-6.257812-13.277344-3.6875-3.339844-8.410156-5.058594-13.375-4.800781l-.550782.058594c-1.070312.078125-2.136718-.273438-2.949218-.984375-.8125-.710938-1.300782-1.722656-1.355469-2.800782-.003906-.058593-.007813-.136718-.007813-.210937-.488281-9.136719-6.625-16.988281-15.289062-19.558594-1.113281-.332031-2.03125-1.128906-2.507812-2.191406-.480469-1.058594-.472657-2.273437.019531-3.328125 4.207031-9.054688 1.617187-20.097656-6.160157-26.253906-.839843-.664063-1.375-1.632813-1.496093-2.699219-.117188-1.0625.199219-2.128906.875-2.957031.097656-.121094.195312-.238282.296875-.351563 6.425781-8.355469 4.953125-20.367187-3.238282-26.828125-3.9375-3.105468-8.847656-4.472656-13.777343-3.859375-4.976563.621094-9.417969 3.171875-12.5 7.1875l-.304688.445313c-.640625.882812-1.617187 1.46875-2.699219 1.613281-1.089843.152344-2.179687-.15625-3.035156-.839844-.039062-.03125-.089844-.074219-.136718-.117187-4.441407-3.476563-9.980469-5.015625-15.566407-4.316406-5.644531.703124-10.683593 3.601562-14.183593 8.15625-.902344 1.175781-1.671876 2.429687-2.3125 3.753906h18.574218c12.316406 0 23.492188 7.839844 27.808594 19.507812zm0 0" fill="#3762cc"/><path d="m153.449219 341.613281c-.226563 0-.453125-.015625-.675781-.054687l-.449219-.078125c-9 .863281-17.851563-2.527344-24-9.046875-5.199219 2.996094-11.199219 4.128906-17.207031 3.207031-7.089844-1.089844-13.328126-4.914063-17.566407-10.765625-8.089843-11.171875-6.429687-26.613281 3.382813-35.8125-6.367188-11.753906-4.070313-26.542969 5.574218-35.753906-6.585937-11.746094-3.574218-26.941406 7.4375-35.125 5.753907-4.277344 12.8125-6.03125 19.863282-4.949219 6.054687.929687 11.488281 3.855469 15.582031 8.332031 1.292969-.710937 2.644531-1.324218 4.042969-1.835937 1.472656-.535157 3.109375-.171875 4.210937.933593 1.101563 1.101563 1.457031 2.75.917969 4.210938l-3.144531 8.496094c-.582031 1.570312-2.078125 2.613281-3.75 2.613281h-11.140625c-4.640625 0-8.414063 3.847656-8.414063 8.578125v41.273438c0 2.207031-1.792969 4-4 4-1.953125 0-3.441406 1.488281-3.441406 3.316406v18.671875c0 1.828125 1.488281 3.3125 3.316406 3.3125h29.457031c2.207032 0 4 1.792969 4 4v18.480469c0 1.179687-.519531 2.300781-1.417968 3.058593-.726563.609375-1.644532.9375-2.578125.9375zm-21-16.707031c3.984375 5.464844 10.335937 8.675781 17 8.707031v-10.480469h-19.671875c1.035156.179688 1.960937.765626 2.570312 1.625.03125.039063.066406.09375.101563.148438zm-22.476563-67.457031c-9.40625 7.0625-11.4375 20.566406-4.519531 30.160156.625.867187.875 1.949219.699219 3-.175782 1.054687-.769532 1.996094-1.644532 2.609375-.125.089844-.25.171875-.378906.253906-8.433594 6.261719-10.242187 18.222656-4.097656 26.707032 2.96875 4.105468 7.339844 6.789062 12.300781 7.550781 4.921875.757812 9.851563-.472657 13.875-3.460938l.410157-.339843c.523437-.414063 1.136718-.683594 1.78125-.796876h-4.410157c-6.238281 0-11.3125-5.074218-11.3125-11.3125v-18.671874c0-4.878907 3.105469-9.046876 7.441407-10.632813v-37.957031c0-9.140625 7.359374-16.578125 16.410156-16.578125h3.820312c-2.980468-3.730469-7.109375-6.125-11.753906-6.839844-4.917969-.753906-9.851562.472656-13.871094 3.460937-8.371094 6.21875-10.175781 18.183594-4.035156 26.667969.125.152344.222656.265625.316406.390625.644532.851563.925782 1.925782.773438 2.984375-.152344 1.058594-.71875 2.011719-1.582032 2.652344-.054687.039063-.144531.101563-.222656.152344zm0 0" fill="#3762cc"/></svg>