<svg height="512" viewBox="0 0 128 128" width="512" xmlns="http://www.w3.org/2000/svg"><g id="Circle_Grid" data-name="Circle Grid"><circle cx="64" cy="64" fill="#3b5059" r="64"/></g><g id="icon"><path d="m-3.958 62.661h71.687v4.13h-71.687z" fill="#828a9e" transform="matrix(0 1 -1 0 96.612 32.84)"/><path d="m40.771 53.971a3 3 0 0 1 -2.985 2.985h-11.8a2.9 2.9 0 0 1 -1.77-.59 2.955 2.955 0 0 1 -1.216-2.395 3.019 3.019 0 0 1 .873-2.112 2.969 2.969 0 0 1 2.112-.873h11.8a2.981 2.981 0 0 1 2.986 2.985z" fill="#f6c863"/><path d="m40.771 59.942a3 3 0 0 1 -2.985 2.985h-11.8a2.9 2.9 0 0 1 -1.77-.59 2.954 2.954 0 0 1 -1.216-2.395 3.019 3.019 0 0 1 .873-2.112 1.983 1.983 0 0 1 .342-.283 2.9 2.9 0 0 1 1.77-.59h11.8a3 3 0 0 1 2.985 2.986z" fill="#f6c863"/><path d="m40.771 65.913a3 3 0 0 1 -2.985 2.987h-11.8a3 3 0 0 1 -2.986-2.987 3.019 3.019 0 0 1 .873-2.112 1.991 1.991 0 0 1 .342-.283 2.9 2.9 0 0 1 1.77-.59h11.8a3 3 0 0 1 2.985 2.986z" fill="#f6c863"/><path d="m40.771 71.884a3 3 0 0 1 -2.985 2.974h-11.8a2.9 2.9 0 0 1 -1.77-.59 2.949 2.949 0 0 1 -1.216-2.384 3.019 3.019 0 0 1 .873-2.112 1.99 1.99 0 0 1 .342-.283 2.9 2.9 0 0 1 1.77-.59h11.8a3 3 0 0 1 2.985 2.986z" fill="#f6c863"/><path d="m40.771 77.843a3 3 0 0 1 -2.985 2.986h-11.8a2.9 2.9 0 0 1 -1.77-.59 2.955 2.955 0 0 1 -1.216-2.396 3.04 3.04 0 0 1 .873-2.112 1.977 1.977 0 0 1 .342-.283 2.9 2.9 0 0 1 1.77-.59h11.8a2.9 2.9 0 0 1 1.77.59 2.956 2.956 0 0 1 1.216 2.395z" fill="#f6c863"/><path d="m40.771 83.814a3 3 0 0 1 -2.985 2.986h-11.8a2.9 2.9 0 0 1 -1.77-.59 2.955 2.955 0 0 1 -1.216-2.396 3.04 3.04 0 0 1 .873-2.112 1.977 1.977 0 0 1 .342-.283 2.9 2.9 0 0 1 1.77-.59h11.8a2.9 2.9 0 0 1 1.77.59 2.956 2.956 0 0 1 1.216 2.395z" fill="#f6c863"/><path d="m40.771 89.785a2.981 2.981 0 0 1 -2.985 2.986h-11.8a2.987 2.987 0 0 1 -2.112-5.1 1.983 1.983 0 0 1 .342-.283 2.9 2.9 0 0 1 1.77-.59h11.8a3 3 0 0 1 2.985 2.985z" fill="#f6c863"/><path d="m37.786 56.957a2.9 2.9 0 0 1 1.77.59h-15.341a2.9 2.9 0 0 1 1.77-.59 2.9 2.9 0 0 1 -1.77-.59h15.34a2.9 2.9 0 0 1 -1.769.59z" fill="#eab54e"/><path d="m37.786 62.928a2.9 2.9 0 0 1 1.77.59h-15.341a2.9 2.9 0 0 1 1.77-.59 2.9 2.9 0 0 1 -1.77-.59h15.34a2.9 2.9 0 0 1 -1.769.59z" fill="#eab54e"/><path d="m37.786 68.9a2.9 2.9 0 0 1 1.77.59h-15.341a2.9 2.9 0 0 1 1.77-.59 2.98 2.98 0 0 1 -1.77-.59h15.34a2.98 2.98 0 0 1 -1.769.59z" fill="#eab54e"/><path d="m37.786 74.858a2.9 2.9 0 0 1 1.77.59h-15.341a2.9 2.9 0 0 1 1.77-.59 2.9 2.9 0 0 1 -1.77-.59h15.34a2.9 2.9 0 0 1 -1.769.59z" fill="#eab54e"/><path d="m37.786 80.829a2.9 2.9 0 0 1 1.77.59h-15.341a2.9 2.9 0 0 1 1.77-.59 2.9 2.9 0 0 1 -1.77-.59h15.34a2.9 2.9 0 0 1 -1.769.59z" fill="#eab54e"/><path d="m37.786 86.8a2.9 2.9 0 0 1 1.77.59h-15.341a2.9 2.9 0 0 1 1.77-.59 2.9 2.9 0 0 1 -1.77-.59h15.34a2.9 2.9 0 0 1 -1.769.59z" fill="#eab54e"/><path d="m60.274 62.661h71.687v4.13h-71.687z" fill="#828a9e" transform="matrix(0 1 -1 0 160.844 -31.392)"/><path d="m105 53.971a3 3 0 0 1 -2.985 2.985h-11.8a2.9 2.9 0 0 1 -1.77-.59 2.955 2.955 0 0 1 -1.215-2.4 3.019 3.019 0 0 1 .873-2.112 2.969 2.969 0 0 1 2.112-.873h11.8a2.981 2.981 0 0 1 2.985 2.99z" fill="#f6c863"/><path d="m105 59.942a3 3 0 0 1 -2.985 2.985h-11.8a2.9 2.9 0 0 1 -1.77-.59 2.954 2.954 0 0 1 -1.215-2.4 3.019 3.019 0 0 1 .87-2.107 1.983 1.983 0 0 1 .342-.283 2.9 2.9 0 0 1 1.77-.59h11.8a3 3 0 0 1 2.988 2.985z" fill="#f6c863"/><path d="m105 65.913a3 3 0 0 1 -2.985 2.986h-11.8a3 3 0 0 1 -2.986-2.986 3.019 3.019 0 0 1 .871-2.113 1.991 1.991 0 0 1 .342-.283 2.9 2.9 0 0 1 1.77-.59h11.8a3 3 0 0 1 2.988 2.986z" fill="#f6c863"/><path d="m105 71.884a3 3 0 0 1 -2.985 2.974h-11.8a2.9 2.9 0 0 1 -1.77-.59 2.949 2.949 0 0 1 -1.215-2.384 3.019 3.019 0 0 1 .873-2.112 1.99 1.99 0 0 1 .342-.283 2.9 2.9 0 0 1 1.77-.59h11.8a3 3 0 0 1 2.985 2.985z" fill="#f6c863"/><path d="m105 77.843a3 3 0 0 1 -2.985 2.986h-11.8a2.9 2.9 0 0 1 -1.77-.59 2.955 2.955 0 0 1 -1.215-2.4 3.04 3.04 0 0 1 .873-2.112 1.977 1.977 0 0 1 .342-.283 2.9 2.9 0 0 1 1.77-.59h11.8a2.9 2.9 0 0 1 1.77.59 2.956 2.956 0 0 1 1.215 2.399z" fill="#f6c863"/><path d="m105 83.814a3 3 0 0 1 -2.985 2.986h-11.8a2.9 2.9 0 0 1 -1.77-.59 2.955 2.955 0 0 1 -1.215-2.4 3.04 3.04 0 0 1 .87-2.11 1.977 1.977 0 0 1 .342-.283 2.9 2.9 0 0 1 1.77-.59h11.8a2.9 2.9 0 0 1 1.77.59 2.956 2.956 0 0 1 1.218 2.397z" fill="#f6c863"/><path d="m105 89.785a2.981 2.981 0 0 1 -2.985 2.986h-11.8a2.987 2.987 0 0 1 -2.112-5.1 1.983 1.983 0 0 1 .342-.283 2.9 2.9 0 0 1 1.77-.59h11.8a3 3 0 0 1 2.985 2.987z" fill="#f6c863"/><path d="m102.015 56.957a2.9 2.9 0 0 1 1.77.59h-15.341a2.9 2.9 0 0 1 1.77-.59 2.9 2.9 0 0 1 -1.77-.59h15.34a2.9 2.9 0 0 1 -1.769.59z" fill="#eab54e"/><path d="m102.015 62.928a2.9 2.9 0 0 1 1.77.59h-15.341a2.9 2.9 0 0 1 1.77-.59 2.9 2.9 0 0 1 -1.77-.59h15.34a2.9 2.9 0 0 1 -1.769.59z" fill="#eab54e"/><path d="m102.015 68.9a2.9 2.9 0 0 1 1.77.59h-15.341a2.9 2.9 0 0 1 1.77-.59 2.98 2.98 0 0 1 -1.77-.59h15.34a2.98 2.98 0 0 1 -1.769.59z" fill="#eab54e"/><path d="m102.015 74.858a2.9 2.9 0 0 1 1.77.59h-15.341a2.9 2.9 0 0 1 1.77-.59 2.9 2.9 0 0 1 -1.77-.59h15.34a2.9 2.9 0 0 1 -1.769.59z" fill="#eab54e"/><path d="m102.015 80.829a2.9 2.9 0 0 1 1.77.59h-15.341a2.9 2.9 0 0 1 1.77-.59 2.9 2.9 0 0 1 -1.77-.59h15.34a2.9 2.9 0 0 1 -1.769.59z" fill="#eab54e"/><path d="m102.015 86.8a2.9 2.9 0 0 1 1.77.59h-15.341a2.9 2.9 0 0 1 1.77-.59 2.9 2.9 0 0 1 -1.77-.59h15.34a2.9 2.9 0 0 1 -1.769.59z" fill="#eab54e"/><path d="m77.674 29.91h4.909v7.67h-4.909z" fill="#dbd8dd"/><path d="m45.42 29.91h4.909v7.67h-4.909z" fill="#dbd8dd"/><rect fill="#828a9e" height="5.458" rx="1.18" width="76.407" x="25.798" y="25.137"/><path d="m38.808 36.79h50.387v2.856h-50.387z" fill="#dbd8dd"/><g fill="#69b0ee"><path d="m86.2 45.785a1.654 1.654 0 0 1 -3.308 0c0-1.435 1.658-3.758 1.658-3.758s1.65 2.396 1.65 3.758z"/><path d="m77.98 45.785a1.654 1.654 0 0 1 -3.308 0c0-1.435 1.658-3.758 1.658-3.758s1.65 2.396 1.65 3.758z"/><path d="m69.764 45.785a1.654 1.654 0 0 1 -3.308 0c0-1.435 1.658-3.758 1.658-3.758s1.65 2.396 1.65 3.758z"/><path d="m61.547 45.785a1.654 1.654 0 0 1 -3.308 0c0-1.435 1.658-3.758 1.658-3.758s1.65 2.396 1.65 3.758z"/><path d="m53.331 45.785a1.654 1.654 0 0 1 -3.308 0c0-1.435 1.658-3.758 1.658-3.758s1.65 2.396 1.65 3.758z"/><path d="m45.114 45.785a1.654 1.654 0 0 1 -3.308 0c0-1.435 1.658-3.758 1.658-3.758s1.65 2.396 1.65 3.758z"/><path d="m82.089 52.446a1.654 1.654 0 0 1 -3.308 0c0-1.435 1.658-3.758 1.658-3.758s1.65 2.397 1.65 3.758z"/><path d="m73.872 52.446a1.654 1.654 0 0 1 -3.308 0c0-1.435 1.658-3.758 1.658-3.758s1.65 2.397 1.65 3.758z"/><path d="m65.656 52.446a1.654 1.654 0 0 1 -3.308 0c0-1.435 1.658-3.758 1.658-3.758s1.65 2.397 1.65 3.758z"/><path d="m57.439 52.446a1.654 1.654 0 0 1 -3.308 0c0-1.435 1.658-3.758 1.658-3.758s1.65 2.397 1.65 3.758z"/><path d="m49.222 52.446a1.654 1.654 0 0 1 -3.308 0c0-1.435 1.658-3.758 1.658-3.758s1.65 2.397 1.65 3.758z"/><path d="m77.98 59.108a1.654 1.654 0 0 1 -3.308 0c0-1.435 1.658-3.758 1.658-3.758s1.65 2.396 1.65 3.758z"/><path d="m69.764 59.108a1.654 1.654 0 0 1 -3.308 0c0-1.435 1.658-3.758 1.658-3.758s1.65 2.396 1.65 3.758z"/><path d="m61.547 59.108a1.654 1.654 0 0 1 -3.308 0c0-1.435 1.658-3.758 1.658-3.758s1.65 2.396 1.65 3.758z"/><path d="m53.331 59.108a1.654 1.654 0 0 1 -3.308 0c0-1.435 1.658-3.758 1.658-3.758s1.65 2.396 1.65 3.758z"/></g><path d="m48.509 94.5v7.05a1.312 1.312 0 0 1 -1.312 1.312h-7.761a1.312 1.312 0 0 1 -1.312-1.312v-7.05z" fill="#828a9e"/><path d="m39.589 94.964h.466v7.899h-.466z" fill="#62667c"/><path d="m41.336 94.964h.466v7.899h-.466z" fill="#62667c"/><path d="m43.084 94.964h.466v7.899h-.466z" fill="#62667c"/><path d="m44.832 94.964h.466v7.899h-.466z" fill="#62667c"/><path d="m46.579 94.964h.466v7.899h-.466z" fill="#62667c"/><path d="m89.879 94.5v7.05a1.312 1.312 0 0 1 -1.312 1.312h-7.761a1.312 1.312 0 0 1 -1.312-1.312v-7.05z" fill="#828a9e"/><path d="m80.958 94.964h.466v7.899h-.466z" fill="#62667c"/><path d="m82.706 94.964h.466v7.899h-.466z" fill="#62667c"/><path d="m84.454 94.964h.466v7.899h-.466z" fill="#62667c"/><path d="m86.201 94.964h.466v7.899h-.466z" fill="#62667c"/><path d="m87.949 94.964h.466v7.899h-.466z" fill="#62667c"/><path d="m86.166 75.291-1.886 2.951 1.394 1.107 2.049-3.443z" fill="#da364c"/><path d="m93.127 73.6v.915a2.9 2.9 0 0 1 -2.9 2.9h-4.05a.579.579 0 0 1 -.579-.579v-3.236a1.448 1.448 0 0 1 1.448-1.448h4.633a1.448 1.448 0 0 1 1.448 1.448z" fill="#ef5261"/><path d="m41.837 75.291 1.886 2.951-1.394 1.107-2.049-3.443z" fill="#da364c"/><path d="m34.876 73.6v.915a2.9 2.9 0 0 0 2.9 2.9h4.054a.579.579 0 0 0 .579-.579v-3.236a1.448 1.448 0 0 0 -1.448-1.448h-4.637a1.448 1.448 0 0 0 -1.448 1.448z" fill="#ef5261"/><path d="m91.627 81.617v9.55h-55.251v-9.55a3.279 3.279 0 0 1 3.279-3.279h48.693a3.279 3.279 0 0 1 3.279 3.279z" fill="#ef5261"/><path d="m81.824 66.644 3.745 12.556h-43.134l3.745-12.556a2.623 2.623 0 0 1 2.514-1.873h30.616a2.623 2.623 0 0 1 2.514 1.873z" fill="#ef5261"/><path d="m82.927 78.706h-37.853l3.168-11.486a.656.656 0 0 1 .633-.482h30.255a.656.656 0 0 1 .633.482z" fill="#69b0ee"/><rect fill="#eeefee" height="5.027" rx=".328" width="7.542" x="80.741" y="82.314"/><rect fill="#eeefee" height="5.027" rx=".328" width="7.542" x="39.721" y="82.314"/><rect fill="#da364c" height="5.246" rx=".984" width="58.843" x="34.58" y="90.347"/><path d="m64.529 66.738-6.152 11.968h-1.551l6.152-11.968z" fill="#eeefee" opacity=".5"/><path d="m73.569 66.738-6.151 11.968h-6.552l6.152-11.968z" fill="#eeefee" opacity=".5"/><rect fill="#414451" height="1.49" rx=".745" width="24.398" x="51.802" y="82.326"/><rect fill="#414451" height="1.49" rx=".745" width="24.398" x="51.802" y="85.85"/></g></svg>