<svg height="512" viewBox="0 0 128 128" width="512" xmlns="http://www.w3.org/2000/svg"><g><path d="m117.49 75.31-42.18 42.18a15.988 15.988 0 0 1 -22.62 0l-14.01-14.01-14.15-14.15-14.02-14.02a15.988 15.988 0 0 1 0-22.62l42.18-42.18a15.988 15.988 0 0 1 22.62 0l14.02 14.02 14.15 14.15 14.01 14.01a15.988 15.988 0 0 1 0 22.62z" fill="#fd5c70"/><path d="m111 64-16.42-16.42-30.58-30.58-47 47 44.202 44.202 2.798 2.798z" fill="#fad271"/><path d="m18.184 53.999h91.641v20.011h-91.641z" fill="#423e4f" transform="matrix(.707 -.707 .707 .707 -26.512 64.005)"/></g></svg>