<svg id="Layer_1" enable-background="new 0 0 512 512" height="512" viewBox="0 0 512 512" width="512" xmlns="http://www.w3.org/2000/svg"><g><path d="m256 21.996c-135.311 0-245.002 109.691-245.002 245.002 0 127.799 97.855 232.724 222.722 243.983l44.573-.001c124.861-11.265 222.709-116.188 222.709-243.982 0-135.311-109.691-245.002-245.002-245.002z" fill="#ffb464"/><path d="m500.042 288.657-157.874-251.061c-26.807-10.074-55.84-15.6-86.168-15.6s-59.361 5.525-86.168 15.6l-157.874 251.061c4.738 54.071 27.036 103.096 61.165 141.35h92.383c15.303 0 27.708 12.406 27.708 27.708v46.138c13.105 3.464 26.638 5.876 40.506 7.127l44.573-.001c13.864-1.251 27.392-3.662 40.493-7.125v-46.138c0-15.303 12.406-27.708 27.708-27.708h92.383c34.129-38.254 56.427-87.28 61.165-141.351z" fill="#ff8743"/><path d="m233.72 510.981c7.34.662 14.768 1.019 22.28 1.019 7.517 0 14.949-.357 22.292-1.02v-123.276h-44.572z" fill="#e9efff"/><path d="m256 423.476c0-6.133 4.972-11.105 11.105-11.105h11.181v-24.667h-44.573v123.277c7.343.662 14.773 1.019 22.287 1.019z" fill="#bec8f7"/><path d="m227.174 22.488-197.98 314.842c-14.259 22.676 2.039 52.178 28.826 52.178h395.961c26.787 0 43.085-29.501 28.826-52.178l-197.981-314.842c-13.352-21.233-44.3-21.233-57.652 0z" fill="#e9efff"/><path d="m361.243 359.526-190.829-190.45c-18.253-1.09-16.997-16.964-16.997-16.964-2.991-.195-5.055-.979-6.484-2.017l-117.739 187.235c-14.259 22.676 2.039 52.178 28.826 52.178h317.465c-.44-3.344 1.183-6.175 1.183-6.175-20.835-7.166-15.425-23.807-15.425-23.807z" fill="#bec8f7"/><g><path d="m453.981 396.071h-395.961c-31.985 0-51.406-35.161-34.382-62.234l197.98-314.842c15.944-25.354 52.855-25.298 68.763 0l197.981 314.842c17.026 27.076-2.401 62.234-34.381 62.234zm-221.251-370.089-197.981 314.842c-11.524 18.326 1.624 42.121 23.27 42.121h395.961c21.648 0 34.793-23.798 23.27-42.122l-197.98-314.841c-10.769-17.127-35.753-17.154-46.54 0z" fill="#6c5475"/></g><path d="m62.528 359.525 313.36-135.9-114.333-181.819c-2.571-4.088-8.541-4.088-11.111 0l-193.466 307.663c-2.742 4.361.396 10.052 5.55 10.056z" fill="#ffdd40"/><path d="m249.654 263.63c-2.942-10.701-11.823-18.83-22.768-20.665-63.096-10.581-56.473-73.886-56.473-73.889l-113.435 180.393c-2.742 4.36.396 10.052 5.55 10.056l191.349-82.986c-1.763-4.634-3.146-8.992-4.223-12.909z" fill="#ffb332"/><path d="m455.016 349.469c2.743 4.362-.398 10.056-5.556 10.056h-386.933l254.169-159.457c17.579-11.028 40.769-5.731 51.815 11.836z" fill="#6c5475"/><path d="m249.654 263.63c-1.682-6.119-5.312-11.39-10.154-15.132l-176.973 111.028h298.715c-77.962-11.519-103.44-66.257-111.588-95.896z" fill="#45304c"/><path d="m34.749 340.824 118.667-188.712c-11.084-.721-9.527-9.508-9.527-9.508l-120.251 191.233c-17.025 27.073 2.397 62.234 34.382 62.234h322.004c-7.795-5.003-3.357-12.738-3.357-12.738-.362-.124-.697-.258-1.042-.388h-317.605c-21.646 0-34.794-23.796-23.271-42.121z" fill="#45304c"/><path d="m221.618 18.994-11.19 17.796c-1.369 2.177-1.34 4.953.073 7.101 2.625 3.99 8.496 3.929 11.038-.114l11.19-17.796c10.787-17.154 35.771-17.127 46.54 0l83.318 132.498c1.899 3.021 5.865 3.97 8.926 2.138 3.158-1.891 4.145-6.009 2.185-9.125l-83.316-132.498c-15.908-25.298-52.82-25.353-68.764 0z" fill="#876d93"/><path d="m335.078 102.354c-3.084 1.923-4.019 5.986-2.084 9.063l29.473 46.869c1.773 2.819 5.374 4.067 8.399 2.674 3.666-1.688 4.923-6.147 2.835-9.467l-29.594-47.063c-1.926-3.06-5.962-3.988-9.029-2.076z" fill="#997da8"/></g></svg>