<svg height="512" viewBox="0 0 128 128" width="512" xmlns="http://www.w3.org/2000/svg"><g id="Circle_Grid" data-name="Circle Grid"><circle cx="64" cy="64" fill="#fe7058" r="64"/></g><g id="icon"><path d="m38.881 39.333h5.424v49.333h-5.424z" fill="#d5d6db"/><path d="m83.695 39.333h5.424v49.333h-5.424z" fill="#d5d6db"/><path d="m98.209 42.537a1.447 1.447 0 0 0 -.309-.037h-67.795a2.156 2.156 0 0 0 -2.156 2.155v14.981a2.142 2.142 0 0 0 1.83 2.122 1.5 1.5 0 0 0 .326.034h67.795a2.157 2.157 0 0 0 2.156-2.156v-14.977a2.142 2.142 0 0 0 -1.847-2.122z" fill="#3a556a"/><g fill="#fcd462"><path d="m98.209 42.537-14.2 19.255h6.321l9.723-13.181v-3.952a2.142 2.142 0 0 0 -1.844-2.122z"/><path d="m89.463 42.504-14.236 19.288h-6.321l14.225-19.288z"/><path d="m74.352 42.504-14.237 19.288h-6.309l14.225-19.288z"/><path d="m59.094 42.504-14.236 19.288h-6.321l14.236-19.288z"/><path d="m37.661 42.5-9.712 13.173v3.963a2.142 2.142 0 0 0 1.83 2.122l14.214-19.258z"/></g><path d="m80.455 84.762h11.775v3.905h-11.775z" fill="#e1e6e9"/><path d="m35.706 84.762h11.775v3.905h-11.775z" fill="#e1e6e9"/></g></svg>