<?xml version="1.0" encoding="iso-8859-1"?>
<!-- Generator: Adobe Illustrator 19.0.0, SVG Export Plug-In . SVG Version: 6.00 Build 0)  -->
<svg version="1.1" id="Capa_1" xmlns="http://www.w3.org/2000/svg" xmlns:xlink="http://www.w3.org/1999/xlink" x="0px" y="0px"
	 viewBox="0 0 512 512" style="enable-background:new 0 0 512 512;" xml:space="preserve">
<path style="fill:#E03636;" d="M504.507,256.003c0,137.245-111.263,248.507-248.507,248.507
	c-89.388,0-167.753-47.197-211.533-118.038c40.742,29.22,90.697,46.428,144.659,46.428c137.255,0,248.507-111.263,248.507-248.507
	c0-47.847-13.521-92.546-36.964-130.459C463.546,99.021,504.507,172.73,504.507,256.003z"/>
<circle style="fill:#FC4747;" cx="256.002" cy="256.002" r="248.507"/>
<circle style="fill:#EFEFEF;" cx="256.002" cy="256.002" r="191.567"/>
<path style="fill:#E0E0E0;" d="M447.568,256.004c0,105.796-85.77,191.567-191.567,191.567c-73.119,0-136.675-40.972-168.953-101.21
	c32.138,24.403,72.23,38.883,115.7,38.883c105.796,0,191.567-85.77,191.567-191.567c0-32.677-8.184-63.446-22.614-90.367
	C417.798,138.296,447.568,193.667,447.568,256.004z"/>
<path style="fill:#3F414C;" d="M302.16,252.469l62.629-62.629c1.952-1.952,1.952-5.114,0-7.066l-35.559-35.559
	c-1.952-1.952-5.114-1.952-7.066,0l-62.629,62.629c-1.952,1.952-5.114,1.952-7.066,0l-62.629-62.629
	c-1.952-1.952-5.114-1.952-7.066,0l-35.559,35.559c-1.952,1.952-1.952,5.114,0,7.066l62.629,62.629c1.952,1.952,1.952,5.114,0,7.066
	l-62.629,62.629c-1.952,1.952-1.952,5.114,0,7.066l35.559,35.559c1.952,1.952,5.114,1.952,7.066,0l62.629-62.629
	c1.952-1.952,5.114-1.952,7.066,0l62.629,62.629c1.952,1.952,5.114,1.952,7.066,0l35.559-35.559c1.952-1.952,1.952-5.114,0-7.066
	l-62.629-62.629C300.208,257.584,300.208,254.42,302.16,252.469z"/>
<path style="fill:#232323;" d="M364.785,322.166c1.959,1.949,1.959,5.116,0,7.065l-35.555,35.555c-1.949,1.959-5.116,1.959-7.065,0
	l-13.641-13.641l21.925-21.915c1.949-1.949,1.949-5.116,0-7.065l-62.636-62.626c-1.949-1.959-1.949-5.116,0-7.075l62.636-62.626
	c1.949-1.949,1.949-5.116,0-7.065l-21.925-21.915l13.641-13.641c1.949-1.959,5.116-1.959,7.065,0l35.555,35.555
	c1.959,1.949,1.959,5.116,0,7.065l-62.626,62.626c-1.949,1.959-1.949,5.116,0,7.075L364.785,322.166z"/>
<path d="M256,512c-68.38,0-132.667-26.628-181.019-74.981S0,324.379,0,256c0-33.321,6.309-65.735,18.75-96.344
	c1.558-3.835,5.93-5.679,9.765-4.121c3.834,1.559,5.68,5.931,4.121,9.765C20.927,194.108,14.99,224.624,14.99,256
	c0,132.894,108.117,241.01,241.01,241.01S497.01,388.894,497.01,256c0-132.894-108.117-241.01-241.01-241.01
	c-79.888,0-154.443,39.493-199.432,105.643c-2.328,3.423-6.989,4.311-10.412,1.983c-3.423-2.328-4.31-6.99-1.983-10.412
	C91.957,41.945,171.144,0,256,0c68.38,0,132.667,26.628,181.019,74.981S512,187.62,512,256s-26.628,132.668-74.981,181.02
	S324.38,512,256,512z"/>
<path d="M325.697,373.748c-3.337,0-6.474-1.299-8.833-3.658l-60.863-60.863l-60.863,60.863c-2.359,2.359-5.496,3.658-8.833,3.658
	c-3.336,0-6.473-1.299-8.832-3.658l-35.559-35.559c-2.359-2.359-3.658-5.496-3.658-8.832c0-3.337,1.299-6.474,3.658-8.833
	l60.863-60.863l-60.863-60.863c-2.359-2.359-3.658-5.496-3.658-8.833c0-3.336,1.299-6.473,3.658-8.832l35.559-35.559
	c2.359-2.359,5.496-3.658,8.832-3.658c3.337,0,6.473,1.299,8.833,3.658l60.863,60.863l60.863-60.863
	c2.359-2.359,5.496-3.658,8.833-3.658c3.336,0,6.473,1.299,8.832,3.658l35.559,35.559c2.359,2.359,3.658,5.496,3.658,8.832
	c0,3.337-1.299,6.473-3.658,8.833l-60.863,60.863l60.863,60.863c2.359,2.359,3.658,5.496,3.658,8.833
	c0,3.336-1.299,6.473-3.658,8.832l-35.559,35.559C332.17,372.449,329.032,373.748,325.697,373.748z M256.001,293.203
	c3.337,0,6.473,1.299,8.833,3.658l60.863,60.863l32.026-32.026l-60.863-60.863c-2.359-2.359-3.658-5.496-3.658-8.833
	s1.299-6.473,3.658-8.833l60.863-60.863l-32.026-32.026l-60.863,60.863c-2.359,2.359-5.496,3.658-8.833,3.658
	s-6.473-1.299-8.833-3.658l-60.863-60.863l-32.026,32.026l60.863,60.863c2.359,2.359,3.658,5.496,3.658,8.833
	c0,3.337-1.299,6.473-3.658,8.833l-60.863,60.863l32.026,32.026l60.863-60.863C249.527,294.502,252.664,293.203,256.001,293.203z
	 M359.49,327.464h0.01H359.49z"/>
<path d="M256.001,455.066c-109.764,0-199.064-89.3-199.064-199.064s89.3-199.064,199.064-199.064s199.064,89.3,199.064,199.064
	c0,40.638-12.167,79.726-35.185,113.036c-0.607,0.877-1.219,1.749-1.839,2.615c-2.408,3.368-7.09,4.144-10.456,1.738
	c-3.368-2.408-4.145-7.089-1.737-10.456c0.573-0.801,1.14-1.608,1.7-2.418c21.279-30.795,32.527-66.934,32.527-104.514
	c0-101.498-82.576-184.074-184.074-184.074S71.927,154.504,71.927,256.002s82.576,184.074,184.074,184.074
	c41.891,0,82.885-14.448,115.431-40.682c3.223-2.596,7.941-2.092,10.539,1.131c2.597,3.223,2.091,7.941-1.132,10.539
	C345.638,439.439,301.302,455.066,256.001,455.066z"/>
<g>
</g>
<g>
</g>
<g>
</g>
<g>
</g>
<g>
</g>
<g>
</g>
<g>
</g>
<g>
</g>
<g>
</g>
<g>
</g>
<g>
</g>
<g>
</g>
<g>
</g>
<g>
</g>
<g>
</g>
</svg>
