<svg enable-background="new 0 0 58 58" height="512" viewBox="0 0 58 58" width="512" xmlns="http://www.w3.org/2000/svg"><path d="m48 26h-9-1.955-16.09-1.955-9l-10 32h58z" fill="#ebba16"/><path d="m32.044 32.557h-6.088c-1.767.696-2.956 1.976-2.956 3.443 0 2.209 2.686 4 6 4s6-1.791 6-4c0-1.467-1.189-2.747-2.956-3.443z" fill="#dd352e"/><path d="m42 14.4c0 7.953-13 21.6-13 21.6s-13-13.647-13-21.6 5.82-14.4 13-14.4 13 6.447 13 14.4z" fill="#366db6"/><g fill="#fff"><path d="m11 47c-.256 0-.512-.098-.707-.293-.391-.391-.391-1.023 0-1.414l2-2c.187-.188.442-.293.707-.293h31.586l1.707-1.707c.391-.391 1.023-.391 1.414 0s.391 1.023 0 1.414l-2 2c-.187.188-.442.293-.707.293h-31.586l-1.707 1.707c-.195.195-.451.293-.707.293z"/><path d="m11 55c-.256 0-.512-.098-.707-.293-.391-.391-.391-1.023 0-1.414l2-2c.187-.188.442-.293.707-.293h31.586l1.707-1.707c.391-.391 1.023-.391 1.414 0s.391 1.023 0 1.414l-2 2c-.187.188-.442.293-.707.293h-31.586l-1.707 1.707c-.195.195-.451.293-.707.293z"/><path d="m16 49h-2c-.552 0-1-.447-1-1s.448-1 1-1h2c.552 0 1 .447 1 1s-.448 1-1 1z"/><path d="m36 49h-4c-.552 0-1-.447-1-1s.448-1 1-1h4c.552 0 1 .447 1 1s-.448 1-1 1zm-10 0h-4c-.552 0-1-.447-1-1s.448-1 1-1h4c.552 0 1 .447 1 1s-.448 1-1 1z"/><path d="m44 49h-2c-.552 0-1-.447-1-1s.448-1 1-1h2c.552 0 1 .447 1 1s-.448 1-1 1z"/><circle cx="29" cy="13" r="7"/></g></svg>