<svg height="512" viewBox="0 0 60 60" width="512" xmlns="http://www.w3.org/2000/svg"><g id="Page-1" fill="none" fill-rule="evenodd"><g id="038---Road-Trip-Date" fill-rule="nonzero"><path id="Shape" d="m59 8v9h-58v-9c0-1.65685425 1.34314575-3 3-3h6v2c0 1.1045695.8954305 2 2 2s2-.8954305 2-2v-2h32v2c0 1.1045695.8954305 2 2 2s2-.8954305 2-2v-2h6c1.6568542 0 3 1.34314575 3 3z" fill="#f44335"/><path id="Shape" d="m56 5h-3c1.6568542 0 3 1.34314575 3 3v9h3v-9c0-1.65685425-1.3431458-3-3-3z" fill="#c81e1e"/><path id="Shape" d="m16 9c.0019904 1.9416892-1.3907518 3.6043776-3.3027125 3.9428557-1.9119607.338478-3.79086629-.7450242-4.45558763-2.5693889-.66472134-1.82436471.07674764-3.86262066 1.75830013-4.8334668v1.46c0 1.1045695.8954305 2 2 2s2-.8954305 2-2v-1.46c1.2393657.7107625 2.0026782 2.03129305 2 3.46z" fill="#c81e1e"/><path id="Shape" d="m14 3v4c0 1.1045695-.8954305 2-2 2s-2-.8954305-2-2v-4c.0032948-1.10320187.8967981-1.9967052 2-2 .5305905-.00282307 1.0395388.2101411 1.41.59.3798589.3704612.5928231.87940947.59 1.41z" fill="#7f8e94"/><path id="Shape" d="m52 9c.0019904 1.9416892-1.3907518 3.6043776-3.3027125 3.9428557-1.9119607.338478-3.7908663-.7450242-4.4555876-2.5693889-.6647214-1.82436471.0767476-3.86262066 1.7583001-4.8334668v1.46c0 1.1045695.8954305 2 2 2s2-.8954305 2-2v-1.46c1.2393657.7107625 2.0026782 2.03129305 2 3.46z" fill="#c81e1e"/><path id="Shape" d="m50 3v4c0 1.1045695-.8954305 2-2 2s-2-.8954305-2-2v-4c.0032948-1.10320187.8967981-1.9967052 2-2 .5305905-.00282307 1.0395388.2101411 1.41.59.3798589.3704612.5928231.87940947.59 1.41z" fill="#7f8e94"/><path id="Shape" d="m59 17v39c0 1.6568542-1.3431458 3-3 3h-52c-1.65685425 0-3-1.3431458-3-3v-39z" fill="#f5f5f5"/><path id="Shape" d="m56 17v39c0 1.6568542-1.3431458 3-3 3h3c1.6568542 0 3-1.3431458 3-3v-39z" fill="#cfd8dc"/><rect id="Rectangle-path" fill="#9d27b0" height="8" rx="1" width="8" x="5" y="22"/><rect id="Rectangle-path" fill="#9d27b0" height="8" rx="1" width="8" x="19" y="22"/><rect id="Rectangle-path" fill="#9d27b0" height="8" rx="1" width="8" x="33" y="22"/><rect id="Rectangle-path" fill="#9d27b0" height="8" rx="1" width="8" x="47" y="22"/><path id="Shape" d="m54 22h-3c.5522847 0 1 .4477153 1 1v6c0 .5522847-.4477153 1-1 1h3c.5522847 0 1-.4477153 1-1v-6c0-.5522847-.4477153-1-1-1z" fill="#6a1b9a"/><rect id="Rectangle-path" fill="#9d27b0" height="8" rx="1" width="8" x="5" y="34"/><rect id="Rectangle-path" fill="#9d27b0" height="8" rx="1" width="8" x="47" y="34"/><path id="Shape" d="m54 34h-3c.5522847 0 1 .4477153 1 1v6c0 .5522847-.4477153 1-1 1h3c.5522847 0 1-.4477153 1-1v-6c0-.5522847-.4477153-1-1-1z" fill="#6a1b9a"/><rect id="Rectangle-path" fill="#9d27b0" height="8" rx="1" width="8" x="5" y="46"/><rect id="Rectangle-path" fill="#9d27b0" height="8" rx="1" width="8" x="47" y="46"/><path id="Shape" d="m54 46h-3c.5522847 0 1 .4477153 1 1v6c0 .5522847-.4477153 1-1 1h3c.5522847 0 1-.4477153 1-1v-6c0-.5522847-.4477153-1-1-1z" fill="#6a1b9a"/><path id="Shape" d="m33 37v5h-8l3.4-4.25c.3799324-.4729114.9533767-.7486057 1.56-.75z" fill="#02a9f4"/><path id="Shape" d="m41 42h-8v-5h3.04c.6066233.0013943 1.1800676.2770886 1.56.75z" fill="#02a9f4"/><path id="Shape" d="m41 42v5c0 .5522847-.4477153 1-1 1h-2c0-1.1045695-.8954305-2-2-2s-2 .8954305-2 2h-7c0-1.1045695-.8954305-2-2-2s-2 .8954305-2 2h-3c-.5522847 0-1-.4477153-1-1v-2c0-1.6568542 1.3431458-3 3-3z" fill="#f44335"/><circle id="Oval" cx="25" cy="48" fill="#3f51b5" r="2"/><circle id="Oval" cx="36" cy="48" fill="#3f51b5" r="2"/><g fill="#000"><path id="Shape" d="m56 4h-5v-1c0-1.65685425-1.3431458-3-3-3s-3 1.34314575-3 3v1h-30v-1c0-1.65685425-1.3431458-3-3-3s-3 1.34314575-3 3v1h-5c-2.209139 0-4 1.790861-4 4v48c0 2.209139 1.790861 4 4 4h52c2.209139 0 4-1.790861 4-4v-48c0-2.209139-1.790861-4-4-4zm-5 5c0 1.6568542-1.3431458 3-3 3s-3-1.3431458-3-3c.0064122-.33670428.0703327-.66983503.189-.985.4225406 1.18980514 1.5483928 1.98471747 2.811 1.98471747s2.3884594-.79491233 2.811-1.98471747c.1186673.31516497.1825878.64829572.189.985zm-4-6c0-.55228475.4477153-1 1-1s1 .44771525 1 1v4c0 .55228475-.4477153 1-1 1s-1-.44771525-1-1zm-32 6c0 1.6568542-1.3431458 3-3 3s-3-1.3431458-3-3c.00641219-.33670428.0703327-.66983503.189-.985.42254062 1.18980514 1.5483928 1.98471747 2.811 1.98471747s2.3884594-.79491233 2.811-1.98471747c.1186673.31516497.1825878.64829572.189.985zm-4-6c0-.55228475.4477153-1 1-1s1 .44771525 1 1v4c0 .55228475-.4477153 1-1 1s-1-.44771525-1-1zm-9 5c0-1.1045695.8954305-2 2-2h4.007c-1.5536734 2.06154115-1.28255715 4.9669495.62571381 6.7054416 1.90827099 1.7384921 4.82630139 1.7384921 6.73457239 0s2.1793872-4.64390045.6257138-6.7054416h28.014c-1.5536734 2.06154115-1.2825572 4.9669495.6257138 6.7054416s4.8263014 1.7384921 6.7345724 0 2.1793872-4.64390045.6257138-6.7054416h4.007c1.1045695 0 2 .8954305 2 2v8h-56zm54 50h-52c-1.1045695 0-2-.8954305-2-2v-38h56v38c0 1.1045695-.8954305 2-2 2z"/><path id="Shape" d="m12 21h-6c-1.1045695 0-2 .8954305-2 2v6c0 1.1045695.8954305 2 2 2h6c1.1045695 0 2-.8954305 2-2v-6c0-1.1045695-.8954305-2-2-2zm-6 8v-6h6v6z"/><path id="Shape" d="m20 31h6c1.1045695 0 2-.8954305 2-2v-6c0-1.1045695-.8954305-2-2-2h-6c-1.1045695 0-2 .8954305-2 2v6c0 1.1045695.8954305 2 2 2zm0-8h6v6h-6z"/><path id="Shape" d="m40 21h-6c-1.1045695 0-2 .8954305-2 2v6c0 1.1045695.8954305 2 2 2h6c1.1045695 0 2-.8954305 2-2v-6c0-1.1045695-.8954305-2-2-2zm-6 8v-6h6v6z"/><path id="Shape" d="m54 21h-6c-1.1045695 0-2 .8954305-2 2v6c0 1.1045695.8954305 2 2 2h6c1.1045695 0 2-.8954305 2-2v-6c0-1.1045695-.8954305-2-2-2zm-6 8v-6h6v6z"/><path id="Shape" d="m12 33h-6c-1.1045695 0-2 .8954305-2 2v6c0 1.1045695.8954305 2 2 2h6c1.1045695 0 2-.8954305 2-2v-6c0-1.1045695-.8954305-2-2-2zm-6 8v-6h6v6z"/><path id="Shape" d="m54 33h-6c-1.1045695 0-2 .8954305-2 2v6c0 1.1045695.8954305 2 2 2h6c1.1045695 0 2-.8954305 2-2v-6c0-1.1045695-.8954305-2-2-2zm-6 8v-6h6v6z"/><path id="Shape" d="m12 45h-6c-1.1045695 0-2 .8954305-2 2v6c0 1.1045695.8954305 2 2 2h6c1.1045695 0 2-.8954305 2-2v-6c0-1.1045695-.8954305-2-2-2zm-6 8v-6h6v6z"/><path id="Shape" d="m54 45h-6c-1.1045695 0-2 .8954305-2 2v6c0 1.1045695.8954305 2 2 2h6c1.1045695 0 2-.8954305 2-2v-6c0-1.1045695-.8954305-2-2-2zm-6 8v-6h6v6z"/><path id="Shape" d="m38.381 37.125c-.5682418-.7125485-1.4306159-1.1267974-2.342-1.125h-6.078c-.9118704-.0017128-1.7746451.4129199-2.343 1.126l-3.098 3.874h-2.52c-2.209139 0-4 1.790861-4 4v2c0 1.1045695.8954305 2 2 2h2.184c.4174114 1.1981296 1.5472421 2.0009455 2.816 2.0009455s2.3985886-.8028159 2.816-2.0009455h5.368c.4174114 1.1981296 1.5472421 2.0009455 2.816 2.0009455s2.3985886-.8028159 2.816-2.0009455h1.184c1.1045695 0 2-.8954305 2-2v-5c.0001065-.2271603-.0771313-.4475878-.219-.625zm-1.562 1.25 2.1 2.625h-4.919v-3.0000026l2.039.0000026c.3036279-.0006906.5909201.1374307.78.375zm-7.639 0c.1898615-.2371369.4772217-.375114.781-.375l2.039-.0000001v3.0000001h-4.919zm-4.18 10.625c-.5522847 0-1-.4477153-1-1s.4477153-1 1-1 1 .4477153 1 1-.4477153 1-1 1zm11 0c-.5522847 0-1-.4477153-1-1s.4477153-1 1-1 1 .4477153 1 1-.4477153 1-1 1zm2.816-2c-.4174114-1.1981296-1.5472421-2.0009455-2.816-2.0009455s-2.3985886.8028159-2.816 2.0009455h-5.368c-.4174114-1.1981296-1.5472421-2.0009455-2.816-2.0009455s-2.3985886.8028159-2.816 2.0009455h-2.184v-2c0-1.1045695.8954305-2 2-2h18v4z"/></g></g></g></svg>