<svg height="512" viewBox="0 0 128 128" width="512" xmlns="http://www.w3.org/2000/svg"><g id="Circle_Grid" data-name="Circle Grid"><circle cx="64" cy="64" fill="#3b5059" r="64"/></g><g id="icon"><path d="m103.97 64.267a32.31 32.31 0 0 1 -16.054 21.844 68.2 68.2 0 0 1 -7.5 4.339c-.209.111-.418.209-.615.307-.824.393-1.635.762-2.434 1.094-1.242.529-2.471 1-3.663 1.4h-26.514a35.63 35.63 0 0 1 -4.733-2.176 29.837 29.837 0 0 1 -6.857-4.964c-2.643-3.073-5.495-7.781-5.384-13.67.135-10.891-1.242-15.587-6.183-18.378 0 0 13.288 1.967 12.084 13.534 0 0 7.388-5.077.934-12.735 0 0-10.375-7.511-.307-17.222-.209.688-2.655 8.089 7.277 11.863 9.576 3.663 8.961 6.355 8.789 6.8.516-.492 3.921-4.413-3.024-12.649a16.566 16.566 0 0 1 -3.946-7.769c-.516-3.467 1.61-6.822 5.495-9.256a24.834 24.834 0 0 1 9.512-3.629s-4.364 4.6-1.721 10.535c1.2 2.778 3.958 5.126 7.351 6.958 6.146 3.27 18.685 11.285 15.624 20.713 0 0 10.621-5.286-3.466-21.66.824.172 13.915 3.245 17.972 16.042a17.232 17.232 0 0 1 -3.787 17.382s9.81-4.216 11.15-8.703z" fill="#ef5261"/><path d="m73.127 56.66h6.885v12.412h-6.885z" fill="#eeefee"/><path d="m42.675 74.287h40.611v29.006h-40.611z" fill="#eeefee"/><path d="m88.093 74.287h-50.232l25.119-22.271z" fill="#f6b863"/><circle cx="62.98" cy="65.525" fill="#eeefee" r="3.546"/><path d="m42.675 74.287h40.611v1.878h-40.611z" fill="#dbd8dd"/><rect fill="#f6b863" height="2.44" rx=".372" width="8.187" x="72.476" y="54.846"/><path d="m88.258 102.284v2.011a.717.717 0 0 1 -.72.705h-49.132a.7.7 0 0 1 -.705-.705v-2.011a.7.7 0 0 1 .705-.705h49.132a.717.717 0 0 1 .72.705z" fill="#2cbfae"/><path d="m45.878 80.721h17.702v16.619h-17.702z" fill="#f6b863"/><path d="m47.039 81.867h15.38v14.321h-15.38z" fill="#69b0ee"/><g fill="#eeefee" opacity=".5"><path d="m56.115 81.867-8.214 14.321h-.862v-.249l8.069-14.072z"/><path d="m62.419 81.867v2.129l-6.999 12.192h-4.622l8.215-14.321z"/></g><path d="m66.788 80.723h13.289v20.829h-13.289z" fill="#f6b863"/><path d="m69.156 82.575h8.674v5.951h-8.674z" fill="#69b0ee"/><g fill="#eeefee" opacity=".5"><path d="m74.713 82.575-4.119 5.951h-1.104l4.12-5.951z"/><path d="m77.597 82.575-4.119 5.951h-1.913l4.119-5.951z"/></g><circle cx="69.156" cy="92.595" fill="#575b6d" r=".658"/><g fill="#f6b863"><path d="m54.155 80.723h1.149v16.617h-1.149z"/><path d="m46.421 88.456h16.617v1.149h-16.617z"/></g></g></svg>