<svg height="512pt" viewBox="0 0 512 512" width="512pt" xmlns="http://www.w3.org/2000/svg"><path d="m512 256c0 141.386719-114.613281 256-256 256s-256-114.613281-256-256 114.613281-256 256-256 256 114.613281 256 256zm0 0" fill="#ff6339"/><path d="m512 256c0-8.171875-.398438-16.25-1.148438-24.226562l-149.011718-149.011719c-11.078125-11.582031-20.324219-19.261719-21.082032-19.890625-.039062-.023438-.054687-.03125-.054687-.03125s-20.929687 17.132812-38.292969 39.820312l-46.410156-36.515625-182.816406 143.847657 18.550781 23.578124 24.800781 24.179688v147.035156l104.882813 104.882813c11.308593 1.527343 22.851562 2.332031 34.582031 2.332031 141.386719 0 256-114.613281 256-256zm0 0" fill="#ff2e00"/><path d="m256 77.460938-139.464844 109.578124v217.746094h278.929688v-217.746094zm0 0" fill="#fff"/><path d="m395.460938 187.039062v217.75h-139.460938v-327.328124zm0 0" fill="#fff5ca"/><path d="m420.265625 233.566406-164.265625-129.246094-164.265625 129.246094-18.550781-23.574218 182.816406-143.847657 182.816406 143.847657zm0 0" fill="#00eccf"/><path d="m438.808594 209.988281-18.546875 23.582031-164.261719-129.25v-38.171874zm0 0" fill="#00cab1"/><path d="m208.890625 271.871094h97.292969v132.914062h-97.292969zm0 0" fill="#00429b"/><path d="m256 271.871094h50.179688v132.917968h-50.179688zm0 0" fill="#002659"/><path d="m401.816406 155.15625c0 37.765625-27.269531 51.019531-46.742187 61.957031-4.457031 2.507813-9.414063 3.757813-14.375 3.757813-4.957031 0-9.917969-1.25-14.371094-3.757813-19.472656-10.9375-46.742187-24.191406-46.742187-61.957031 0-42.292969 61.113281-92.316406 61.113281-92.316406s.019531.007812.054687.03125c1.972656 1.632812 61.0625 50.703125 61.0625 92.285156zm0 0" fill="#ffe767"/><path d="m401.816406 155.15625c0 37.765625-27.269531 51.019531-46.742187 61.957031-4.457031 2.507813-9.414063 3.757813-14.375 3.757813v-158.03125s.019531.007812.054687.03125c1.972656 1.632812 61.0625 50.703125 61.0625 92.285156zm0 0" fill="#ffd000"/><path d="m340.699219 105.640625s-35.890625 31.464844-35.890625 58.0625c0 30.816406 26.957031 35.679687 35.890625 45.085937 8.9375-9.40625 35.894531-14.269531 35.894531-45.085937 0-26.597656-35.894531-58.0625-35.894531-58.0625zm0 0" fill="#ffac00"/><path d="m376.589844 163.699219c0 18.980469-10.226563 28.113281-20.167969 34.527343 0 0 0 0-.007813.007813-3.398437 2.199219-6.761718 4.070313-9.671874 5.910156-.601563.378907-1.175782.75-1.730469 1.128907-1.679688 1.136718-3.144531 2.289062-4.3125 3.511718v-103.144531s35.890625 31.464844 35.890625 58.058594zm0 0" fill="#ff8a00"/><path d="m256 512c87.988281 0 165.597656-44.394531 211.679688-112h-423.359376c46.082032 67.605469 123.691407 112 211.679688 112zm0 0" fill="#00eccf"/><path d="m467.679688 400c-46.078126 67.609375-123.691407 112-211.679688 112v-112zm0 0" fill="#00cab1"/></svg>