<?xml version="1.0" encoding="iso-8859-1"?>
<!-- Generator: Adobe Illustrator 21.0.0, SVG Export Plug-In . SVG Version: 6.00 Build 0)  -->
<svg xmlns="http://www.w3.org/2000/svg" xmlns:xlink="http://www.w3.org/1999/xlink" version="1.1" id="Capa_1" x="0px" y="0px" viewBox="0 0 512 512" style="enable-background:new 0 0 512 512;" xml:space="preserve" width="512" height="512">
<g>
	<g>
		<g>
			<g>
				<g>
					<g>
						<g>
							<g>
								<g>
									<g>
										<g>
											<g>
												<g>
													<circle style="fill:#4BB9EC;" cx="256" cy="256" r="256"/>
												</g>
											</g>
										</g>
									</g>
								</g>
							</g>
						</g>
					</g>
				</g>
			</g>
		</g>
	</g>
	<path style="fill:#0095FF;" d="M511.435,272.84L301.888,63.293L57.064,338.251l56.444,56.444l-14.85,10.117l100.94,100.94   C217.746,509.833,236.619,512,256,512C391.725,512,502.76,406.372,511.435,272.84z"/>
	<g>
		<rect x="98.658" y="315.525" style="fill:#FF641A;" width="314.684" height="89.288"/>
	</g>
	<g>
		<rect x="255.905" y="315.525" style="fill:#F03800;" width="157.438" height="89.288"/>
	</g>
	<g>
		
			<rect x="15.254" y="177.841" transform="matrix(0.4864 -0.8738 0.8738 0.4864 -105.7456 265.0845)" style="fill:#FFA426;" width="314.683" height="89.286"/>
	</g>
	<g>
		
			<rect x="182.063" y="177.841" transform="matrix(-0.4864 -0.8738 0.8738 -0.4864 310.0784 627.2494)" style="fill:#F03800;" width="314.683" height="89.286"/>
	</g>
	<g>
		<polygon style="fill:#F03800;" points="454.937,338.251 301.888,63.293 255.905,88.888 255.905,164.265 376.921,381.675   "/>
	</g>
	<g>
		<circle style="fill:#FFFFFF;" cx="256" cy="118.439" r="16.333"/>
	</g>
	<g>
		<path style="fill:#E9EDF5;" d="M256,102.105c-0.032,0-0.063,0.005-0.095,0.005v32.656c0.032,0,0.063,0.005,0.095,0.005    c9.021,0,16.333-7.313,16.333-16.333S265.021,102.105,256,102.105z"/>
	</g>
	<g>
		<circle style="fill:#FFFFFF;" cx="125.335" cy="349.28" r="16.333"/>
	</g>
	<g>
		<circle style="fill:#E9EDF5;" cx="388.843" cy="349.28" r="16.333"/>
	</g>
</g>















</svg>
