<?xml version="1.0" encoding="iso-8859-1"?>
<!-- Generator: Adobe Illustrator 19.0.0, SVG Export Plug-In . SVG Version: 6.00 Build 0)  -->
<svg version="1.1" id="Capa_1" xmlns="http://www.w3.org/2000/svg" xmlns:xlink="http://www.w3.org/1999/xlink" x="0px" y="0px"
	 viewBox="0 0 496.485 496.485" style="enable-background:new 0 0 496.485 496.485;" xml:space="preserve">
<circle style="fill:#FDBE5E;" cx="248.242" cy="248.242" r="248.242"/>
<rect x="101.624" y="59.733" style="fill:#FFFFFF;" width="293.236" height="428.994"/>
<path style="fill:#193651;" d="M394.861,496.485H101.624c-4.655,0-7.758-3.103-7.758-7.758V59.733c0-4.655,3.103-7.758,7.758-7.758
	h293.236c4.655,0,7.758,3.103,7.758,7.758v428.994C402.618,493.382,398.739,496.485,394.861,496.485z M109.382,480.97h277.721
	V67.491H109.382V480.97z"/>
<rect x="197.454" y="391.913" style="fill:#F16050;" width="100.848" height="96.97"/>
<path style="fill:#193651;" d="M424.339,496.485H72.145c-4.655,0-7.758-3.103-7.758-7.758s3.103-7.758,7.758-7.758h351.418
	c4.655,0,7.758,3.103,7.758,7.758C432.097,493.382,428.218,496.485,424.339,496.485z"/>
<g>
	<rect x="265.309" y="87.661" style="fill:#E1E6E9;" width="42.667" height="55.079"/>
	<rect x="322.715" y="87.661" style="fill:#E1E6E9;" width="42.667" height="55.079"/>
	<rect x="265.309" y="152.824" style="fill:#E1E6E9;" width="42.667" height="55.079"/>
	<rect x="322.715" y="152.824" style="fill:#E1E6E9;" width="42.667" height="55.079"/>
	<rect x="265.309" y="233.503" style="fill:#E1E6E9;" width="42.667" height="55.079"/>
	<rect x="322.715" y="233.503" style="fill:#E1E6E9;" width="42.667" height="55.079"/>
	<rect x="265.309" y="298.667" style="fill:#E1E6E9;" width="42.667" height="55.079"/>
	<rect x="322.715" y="298.667" style="fill:#E1E6E9;" width="42.667" height="55.079"/>
	<rect x="130.327" y="87.661" style="fill:#E1E6E9;" width="42.667" height="55.079"/>
	<rect x="187.733" y="87.661" style="fill:#E1E6E9;" width="42.667" height="55.079"/>
	<rect x="130.327" y="152.824" style="fill:#E1E6E9;" width="42.667" height="55.079"/>
	<rect x="187.733" y="152.824" style="fill:#E1E6E9;" width="42.667" height="55.079"/>
	<rect x="130.327" y="233.503" style="fill:#E1E6E9;" width="42.667" height="55.079"/>
	<rect x="187.733" y="233.503" style="fill:#E1E6E9;" width="42.667" height="55.079"/>
	<rect x="130.327" y="298.667" style="fill:#E1E6E9;" width="42.667" height="55.079"/>
	<rect x="187.733" y="298.667" style="fill:#E1E6E9;" width="42.667" height="55.079"/>
</g>
<g>
	<rect x="345.212" y="378.57" style="fill:#193651;" width="15.515" height="15.515"/>
	<rect x="345.212" y="412.703" style="fill:#193651;" width="15.515" height="15.515"/>
	<rect x="345.212" y="446.836" style="fill:#193651;" width="15.515" height="15.515"/>
	<rect x="135.758" y="378.57" style="fill:#193651;" width="15.515" height="15.515"/>
	<rect x="135.758" y="412.703" style="fill:#193651;" width="15.515" height="15.515"/>
	<rect x="135.758" y="446.836" style="fill:#193651;" width="15.515" height="15.515"/>
</g>
<g>
</g>
<g>
</g>
<g>
</g>
<g>
</g>
<g>
</g>
<g>
</g>
<g>
</g>
<g>
</g>
<g>
</g>
<g>
</g>
<g>
</g>
<g>
</g>
<g>
</g>
<g>
</g>
<g>
</g>
</svg>
