<svg id="Layer_1" enable-background="new 0 0 512 512" height="512" viewBox="0 0 512 512" width="512" xmlns="http://www.w3.org/2000/svg"><g><g><g><path d="m432.52 453.07c0 17.57-18.96 32.63-54.82 43.54-32.62 9.92-75.83 15.39-121.7 15.39s-89.08-5.47-121.7-15.39c-35.86-10.91-54.82-25.97-54.82-43.54s18.96-32.62 54.82-43.53c10.07-3.06 21.16-5.7 33.02-7.89 26.54-4.89 56.98-7.5 88.68-7.5s62.13 2.61 88.67 7.5c11.86 2.18 22.95 4.83 33.03 7.89 35.86 10.91 54.82 25.96 54.82 43.53z" fill="#a4ce39"/><path d="m344.67 401.65-65.7 65.64c-6.13 6.13-14.29 9.51-22.97 9.51s-16.84-3.38-22.98-9.51l-65.7-65.64c26.54-4.89 56.98-7.5 88.68-7.5s62.13 2.61 88.67 7.5z" fill="#68c044"/><path d="m454.78 198.6c0 41.35-12.6 80.99-36.44 114.63-22.98 32.43-54.64 56.97-91.64 71.03l-65.4 65.35c-1.46 1.46-3.38 2.19-5.3 2.19s-3.84-.73-5.3-2.19l-65.4-65.34c-37-14.07-68.66-38.61-91.64-71.04-23.84-33.64-36.44-73.28-36.44-114.63 0-104.19 80.72-189.9 182.97-197.97 5.22-.42 10.49-.63 15.81-.63 109.61 0 198.78 89.09 198.78 198.6z" fill="#ed2061"/><path d="m454.78 198.6c0 41.35-12.6 80.99-36.44 114.63-22.98 32.43-54.64 56.97-91.64 71.03l-65.4 65.35 33.78-65.35c36.99-14.06 68.65-38.6 91.63-71.03 23.84-33.64 36.44-73.28 36.44-114.63 0-104.19-80.72-189.9-182.96-197.97 5.22-.42 10.49-.63 15.81-.63 109.61 0 198.78 89.09 198.78 198.6z" fill="#c71e54"/><path d="m423.15 198.6c0 92.08-74.98 167-167.15 167-5.05 0-10.06-.23-15-.66-85.17-7.61-152.15-79.31-152.15-166.34 0-87.04 66.98-158.73 152.15-166.34 4.94-.43 9.95-.66 15-.66 92.17 0 167.15 74.91 167.15 167z" fill="#eef0f5"/><path d="m423.15 198.6c0 92.08-74.98 167-167.15 167-5.05 0-10.06-.23-15-.66 85.17-7.61 152.15-79.31 152.15-166.34 0-87.04-66.98-158.73-152.15-166.34 4.94-.43 9.95-.66 15-.66 92.17 0 167.15 74.91 167.15 167z" fill="#dae1ea"/></g></g><path d="m337.32 169.993-76.699-60c-2.715-2.123-6.527-2.123-9.242 0l-76.699 60c-1.817 1.422-2.879 3.601-2.879 5.907v94.398c0 4.143 3.358 7.5 7.5 7.5h153.398c4.142 0 7.5-3.357 7.5-7.5v-94.398c0-2.306-1.062-4.485-2.879-5.907z" fill="#f79e60"/><path d="m357.817 177.028-97.196-76.034c-2.715-2.123-6.527-2.123-9.242 0l-97.196 76.034c-3.263 2.552-3.838 7.266-1.286 10.528 2.551 3.261 7.265 3.84 10.528 1.286l92.575-72.419 92.575 72.419c1.372 1.073 3 1.593 4.616 1.593 2.228 0 4.434-.988 5.913-2.879 2.551-3.263 1.976-7.977-1.287-10.528z" fill="#56788b"/><g fill="#fbdf63"><path d="m221 196.745c-4.142 0-7.5 3.357-7.5 7.5v30.355c0 4.143 3.358 7.5 7.5 7.5s7.5-3.357 7.5-7.5v-30.354c0-4.143-3.358-7.501-7.5-7.501z"/><path d="m256 196.745c-4.142 0-7.5 3.357-7.5 7.5v30.355c0 4.143 3.358 7.5 7.5 7.5s7.5-3.357 7.5-7.5v-30.354c0-4.143-3.358-7.501-7.5-7.501z"/><path d="m291 196.745c-4.142 0-7.5 3.357-7.5 7.5v30.355c0 4.143 3.358 7.5 7.5 7.5s7.5-3.357 7.5-7.5v-30.354c0-4.143-3.358-7.501-7.5-7.501z"/><path d="m256 151.516c-4.142 0-7.5 3.357-7.5 7.5v11.021c0 4.143 3.358 7.5 7.5 7.5s7.5-3.357 7.5-7.5v-11.021c0-4.143-3.358-7.5-7.5-7.5z"/></g></g></svg>