<svg height="512" viewBox="0 0 128 128" width="512" xmlns="http://www.w3.org/2000/svg"><g id="Circle_Grid" data-name="Circle Grid"><circle cx="64" cy="64" fill="#f6c863" r="64"/></g><g id="icon"><path d="m30.914 54.345 13.009-5.071v-15.86h-13.009z" fill="#eeefee"/><path d="m31.156 51.894 32.844-21.099 32.844 21.099v47.472h-65.688z" fill="#eeefee"/><g fill="#ef5261"><rect height="6.892" rx=".844" transform="matrix(-1 0 0 -1 128 198.732)" width="74.338" x="26.831" y="95.92"/><path d="m26.762 61.1 36.732-27.486a.843.843 0 0 1 1.012 0l36.732 27.486a.844.844 0 0 0 1.2-.19l2.912-4.139a.843.843 0 0 0 -.186-1.162l-40.664-30.255a.846.846 0 0 0 -1.008 0l-40.652 30.252a.843.843 0 0 0 -.186 1.162l2.912 4.139a.844.844 0 0 0 1.196.193z"/><rect height="4.325" rx=".677" transform="matrix(-1 0 0 -1 74.837 64.824)" width="15.824" x="29.506" y="30.249"/></g><path d="m52.645 67.333h22.71v28.587h-22.71z" fill="#575b6d"/></g></svg>