<svg id="Icons" enable-background="new 0 0 512 512" height="512" viewBox="0 0 512 512" width="512" xmlns="http://www.w3.org/2000/svg"><g><circle cx="256" cy="256" fill="#53b976" r="256"/><g><g><g><g><path d="m402.39 205.38v217.22c0 8.69-5.24 16.14-12.73 19.39h-.01c-2.57 1.11-5.4 1.73-8.38 1.73h-250.54c-2.98 0-5.81-.62-8.38-1.73-7.49-3.24-12.74-10.7-12.74-19.39v-217.22l146.39-146.835z" fill="#fbcb74"/><path d="m402.39 205.38v217.22c0 8.69-5.24 16.14-12.73 19.39h-.01c-7.48-3.25-12.73-10.7-12.73-19.39v-217.22c0-8.68 5.25-16.13 12.73-19.39h.01c7.49 3.25 12.73 10.71 12.73 19.39z" fill="#faefdc"/><path d="m135.08 205.38v217.22c0 8.69-5.24 16.15-12.73 19.39-7.49-3.24-12.74-10.7-12.74-19.39v-217.22c0-8.68 5.25-16.14 12.74-19.39 7.49 3.25 12.73 10.71 12.73 19.39z" fill="#deb36f"/><path d="m345.093 194.096c0 7.033-5.702 12.735-12.735 12.735h-152.716c-7.033 0-12.735-5.702-12.735-12.735s5.702-12.735 12.735-12.735h152.716c7.033 0 12.735 5.702 12.735 12.735z" fill="#fbd9a3"/><path d="m363.729 206.831h-215.458c-7.285 0-13.191 5.906-13.191 13.191v187.939c0 7.285 5.906 13.191 13.191 13.191h215.458c7.285 0 13.191-5.906 13.191-13.191v-187.939c0-7.285-5.906-13.191-13.191-13.191z" fill="#c0405c"/></g><g><path d="m455.76 237.17c0 4.53-1.73 9.05-5.18 12.5-6.94 6.94-18.21 6.9-25.1-.09l-156.89-159.24c-6.92-7.03-18.26-7.03-25.18 0l-156.89 159.24c-3.46 3.51-8.03 5.27-12.59 5.27-4.53 0-9.06-1.73-12.51-5.18-5.83-5.83-6.73-14.72-2.72-21.5.74-1.25 1.65-2.43 2.72-3.5l182.11-182.1c6.9-6.91 18.1-6.9 25 0l182.05 182.1c1.07 1.07 1.98 2.25 2.72 3.5 1.64 2.77 2.46 5.88 2.46 9z" fill="#e9465e"/><path d="m453.3 228.17c-.74 1.25-1.65 2.43-2.72 3.5v.01c-6.94 6.94-18.21 6.89-25.1-.1l-156.89-159.24c-6.92-7.03-18.26-7.03-25.18 0l-156.89 159.24c-3.46 3.51-8.03 5.27-12.6 5.27-4.53 0-9.05-1.72-12.5-5.17-1.08-1.08-1.98-2.26-2.72-3.51.74-1.25 1.65-2.43 2.72-3.5l182.11-182.1c6.9-6.91 18.1-6.9 25 0l182.05 182.1c1.07 1.07 1.98 2.25 2.72 3.5z" fill="#ee6781"/><g fill="#f789a1"><path d="m131.873 170.424-.517-.507c-4.219-4.141-4.251-10.929-.07-15.109l68.629-68.625c4.127-4.127 10.809-4.156 14.972-.066 4.194 4.12 4.248 10.861.122 15.049l-68.112 69.133c-4.116 4.177-10.838 4.234-15.024.125z"/><path d="m380.138 170.423.505-.495c4.23-4.146 4.265-10.947.077-15.136l-68.588-68.607c-4.129-4.13-10.812-4.165-14.984-.079-4.211 4.124-4.272 10.885-.135 15.084l68.082 69.102c4.122 4.182 10.85 4.241 15.043.131z"/></g></g></g><g><path d="m376.61 67.01v83.67l-33.59-33.6v-50.07c0-4.68 3.79-8.47 8.46-8.47h16.67c4.67 0 8.46 3.79 8.46 8.47z" fill="#c0405c"/><path d="m376.61 67.01v71.25l-13.53-13.54c-4.9-4.89-7.64-11.53-7.64-18.44v-39.27c0-4.68 3.79-8.47 8.46-8.47h4.25c4.67 0 8.46 3.79 8.46 8.47z" fill="#e9465e"/></g></g><g><g><g><path d="m362.453 336.075c0 1.049-.178 2.06-.511 3.001-.452 1.296-1.194 2.458-2.146 3.41-1.64 1.64-3.91 2.657-6.411 2.657h-194.77c-5.007 0-9.068-4.06-9.068-9.068 0-2.501 1.016-4.771 2.657-6.411 1.382-1.382 3.216-2.318 5.255-2.576.376-.048.764-.075 1.156-.075h194.77c5.007-.001 9.068 4.054 9.068 9.062z" fill="#d48d77"/><path d="m362.453 336.075c0 1.049-.178 2.06-.511 3.001-.377.048-.764.075-1.156.075h-194.77c-5.007 0-9.068-4.061-9.068-9.068 0-1.049.177-2.06.511-2.996.376-.048.764-.075 1.156-.075h194.77c5.007 0 9.068 4.055 9.068 9.063z" fill="#eea47d"/><path d="m329.411 339.151h-117.851c-3.352 0-6.069-2.717-6.069-6.069s2.717-6.069 6.069-6.069h117.852c3.352 0 6.069 2.717 6.069 6.069s-2.718 6.069-6.07 6.069z" fill="#f5b890"/></g><g><path d="m172.453 345.142h167.094v76.01h-167.094z" fill="#a26d5a"/><path d="m183.629 363.487c0-3.872 3.135-7.008 7.008-7.008h130.726c3.872 0 7.008 3.136 7.008 7.008v57.665h-144.742z" fill="#c17e62"/><path d="m312.741 375.391h-90.664c-5.222 0-9.456-4.233-9.456-9.456 0-5.222 4.233-9.456 9.456-9.456h90.664c5.222 0 9.456 4.233 9.456 9.456 0 5.222-4.233 9.456-9.456 9.456z" fill="#d48d77"/></g></g><g><g><path d="m278.209 309.958v17.054h41.579v-17.054c0-8.544-6.924-15.473-15.473-15.473h-10.634c-8.547 0-15.472 6.929-15.472 15.473z" fill="#dd5e26"/><path d="m278.209 309.958v17.054h31.677v-17.054c0-8.544-6.924-15.473-15.473-15.473h-.731c-8.548 0-15.473 6.929-15.473 15.473z" fill="#ea792e"/></g><g><path d="m292.129 287.988v7.461c0 3.795 3.077 6.867 6.872 6.867 1.273 0 2.465-.347 3.486-.95 2.023-1.192 3.382-3.396 3.382-5.918v-7.461h-13.74z" fill="#f5b890"/><path d="m305.869 287.988v7.461c0 2.522-1.358 4.725-3.382 5.918v-7.974c-2.389.997-5.015 1.548-7.77 1.548-.879 0-1.743-.057-2.588-.161v-6.791h13.74z" fill="#d48d77"/></g><g><g><g><path d="m318.335 265.58h-3.407v-10.66h3.407c2.944 0 5.33 2.386 5.33 5.33 0 2.943-2.386 5.33-5.33 5.33z" fill="#d48d77"/><path d="m318.507 262.537h-3.579v-4.574h3.579c1.263 0 2.287 1.024 2.287 2.287s-1.024 2.287-2.287 2.287z" fill="#c17e62"/></g><g><path d="m273.014 254.919h1.492v10.66h-1.492c-2.944 0-5.33-2.386-5.33-5.33-.001-2.943 2.386-5.33 5.33-5.33z" fill="#d48d77"/><path d="m272.842 257.962h1.664v4.574h-1.664c-1.263 0-2.287-1.024-2.287-2.287-.001-1.263 1.023-2.287 2.287-2.287z" fill="#c17e62"/></g></g><g><path d="m274.505 243.056v28.077c0 5.58 2.261 10.633 5.917 14.29 2.641 2.636 6.003 4.545 9.764 5.409 1.458.332 2.973.508 4.531.508 11.161 0 20.213-9.047 20.213-20.208v-28.077c0-6.117-4.963-11.075-11.08-11.075h-18.27c-1.073 0-2.109.152-3.092.442-4.611 1.335-7.983 5.59-7.983 10.634z" fill="#d48d77"/><path d="m274.505 243.056v28.077c0 5.58 2.261 10.633 5.917 14.29 2.641 2.636 6.003 4.545 9.764 5.409 8.985-2.056 15.682-10.097 15.682-19.7v-10.742c0-13.977-10.087-25.594-23.38-27.968-4.611 1.335-7.983 5.59-7.983 10.634z" fill="#f5b890"/><g fill="#eea47d"><path d="m289.002 261.661h4.12c1.692 0 3.064 1.372 3.064 3.064s-1.372 3.064-3.064 3.064h-4.12c-1.692 0-3.064-1.372-3.064-3.064s1.372-3.064 3.064-3.064z"/><path d="m289.548 231.98h5.169v31.761h-5.169z" transform="matrix(-1 0 0 -1 584.264 495.721)"/></g><g fill="#334353"><path d="m300.202 249.675c1.547 0 2.8 1.254 2.8 2.8v4.888c0 1.547-1.254 2.8-2.8 2.8-1.547 0-2.8-1.254-2.8-2.8v-4.888c0-1.546 1.254-2.8 2.8-2.8z"/><path d="m284.062 249.675c1.547 0 2.8 1.254 2.8 2.8v4.888c0 1.547-1.254 2.8-2.8 2.8-1.547 0-2.8-1.254-2.8-2.8v-4.888c0-1.546 1.254-2.8 2.8-2.8z"/></g><g><path d="m293.985 279.083c4.851 0 8.798-3.947 8.798-8.798 0-.918-.744-1.662-1.662-1.662s-1.662.744-1.662 1.662c0 3.018-2.455 5.473-5.473 5.473-.918 0-1.662.744-1.662 1.662-.001.919.743 1.663 1.661 1.663z" fill="#c17e62"/></g></g><path d="m314.928 265.58h3.407c.596 0 1.166-.102 1.701-.282v1.421c0 2.827-2.291 5.118-5.118 5.118z" fill="#3e4e60"/><path d="m314.928 254.919h3.407c.567 0 1.103.112 1.616.276l.086.005v-13.947c0-6.472-5.246-11.718-11.718-11.718h-13.601v2.927c0 3.82 3.096 6.916 6.916 6.916 2.339 0 4.235 1.896 4.235 4.235v2.486c0 4.871 3.949 8.819 8.819 8.819l.24.013z" fill="#3e4e60"/><path d="m272.14 235.088c0 1.455-1.179 2.634-2.634 2.634-.627 0-1.233-.223-1.709-.63l-3.149-2.685c-1.12-.955-2.845-.159-2.845 1.313v3.714c0 5.2 4.215 9.415 9.415 9.415 2.161 0 4.234-.858 5.762-2.387l3.34-3.34c2.397-2.397 5.648-3.744 9.038-3.744h14.356c2.718 0 4.921-2.203 4.921-4.921s-2.203-4.921-4.921-4.921h-26.02c-3.068 0-5.554 2.486-5.554 5.552z" fill="#3f5d77"/></g><g><path d="m302.783 318.684h13.479v8.328h-13.479z" fill="#d48d77" transform="matrix(-1 0 0 -1 619.045 645.697)"/><path d="m302.783 318.684h7.104v8.328h-7.104z" fill="#f5b890" transform="matrix(-1 0 0 -1 612.67 645.697)"/></g></g><g><g><path d="m251.02 248.05v50.62c0 1.38-.41 2.67-1.12 3.75-.89 1.38-2.26 2.41-3.88 2.86-.59.17-1.22.26-1.86.26h-77.59c-.65 0-1.27-.09-1.86-.26-1.62-.45-2.99-1.48-3.88-2.86-.71-1.08-1.12-2.37-1.12-3.75v-50.62c0-.64.09-1.27.26-1.86.64-2.29 2.44-4.1 4.74-4.74.59-.17 1.22-.26 1.86-.26h77.59c.65 0 1.27.09 1.86.26 2.29.64 4.1 2.44 4.74 4.74.17.59.26 1.22.26 1.86z" fill="#c2aacf"/><path d="m249.9 302.42c-1.22 1.88-3.33 3.12-5.74 3.12h-77.59c-2.41 0-4.52-1.24-5.74-3.12 2.71-7.74 10.08-13.28 18.73-13.28h51.6c8.66 0 16.03 5.54 18.74 13.28z" fill="#9175a7"/><path d="m169.71 248.05v50.62c0 1.38-.41 2.67-1.12 3.75-.89 1.38-2.26 2.41-3.88 2.86-1.62-.45-2.99-1.48-3.88-2.86-.71-1.08-1.12-2.37-1.12-3.75v-50.62c0-3.14 2.11-5.79 5-6.6 2.89.81 5 3.46 5 6.6z" fill="#a583bb"/><path d="m251.02 248.05v50.62c0 1.38-.41 2.67-1.12 3.75-.89 1.38-2.26 2.41-3.88 2.86-1.62-.45-2.99-1.48-3.88-2.86-.71-1.08-1.12-2.37-1.12-3.75v-50.62c0-3.15 2.12-5.8 5-6.6 2.88.8 5 3.45 5 6.6z" fill="#decee5"/><path d="m185.885 250.525h38.96c2.506 0 4.537-2.032 4.537-4.537 0-2.506-2.031-4.537-4.537-4.537h-38.96c-2.506 0-4.537 2.031-4.537 4.537-.001 2.505 2.031 4.537 4.537 4.537z" fill="#ebd9ea"/></g><path d="m211.817 296.863h-12.904c-2.285 0-4.137 1.852-4.137 4.137v17.04h21.177v-17.04c0-2.285-1.852-4.137-4.136-4.137z" fill="#a583bb"/><g><path d="m229.626 318.039h-48.523c-2.478 0-4.486 2.009-4.486 4.486 0 2.478 2.009 4.486 4.486 4.486h48.523c2.478 0 4.486-2.009 4.486-4.486s-2.008-4.486-4.486-4.486z" fill="#c2aacf"/><path d="m220.324 318.039h-29.918c-1.528 0-2.766 1.238-2.766 2.766s1.238 2.766 2.766 2.766h29.918c1.528 0 2.766-1.238 2.766-2.766 0-1.527-1.238-2.766-2.766-2.766z" fill="#decee5"/></g></g></g></g></g></svg>