<svg id="Layer_1" enable-background="new 0 0 512 512" height="512" viewBox="0 0 512 512" width="512" xmlns="http://www.w3.org/2000/svg"><g><g clip-rule="evenodd" fill-rule="evenodd"><path d="m157.719 211.484 98.281-71.477 98.281 71.477c8.931 6.472 21.419 4.478 27.891-4.453s4.478-21.419-4.453-27.891l-109.648-79.743c-3.508-2.663-7.768-4.053-12.071-4.057-4.067-.004-8.173 1.231-11.719 3.8l-110 80c-8.931 6.472-10.925 18.959-4.453 27.891 6.472 8.931 18.959 10.925 27.891 4.453z" fill="#ff5a58"/><path d="m256 140.007-98.281 71.477v35.516 49.389 165.611h48.281v-70c0-27.5 22.5-50 50-50s50 22.5 50 50v70h48.281v-165.611-49.389-35.516zm-30.254 101.861c0-16.64 13.614-30.255 30.254-30.255s30.254 13.614 30.254 30.255v54.521h-60.509v-54.521z" fill="#f0e6e2"/><g fill="#ff9346"><path d="m256 211.613c-16.64 0-30.254 13.614-30.254 30.255v54.521h60.509v-54.521c-.001-16.64-13.615-30.255-30.255-30.255z"/><path d="m256 342c-27.501 0-50 22.5-50 50v70h50z"/><path d="m256 342v120h50v-70c0-27.5-22.5-50-50-50z"/></g><path d="m45.46 378.033 112.259-81.643v-49.39l-135.697 98.689c-8.931 6.472-10.925 18.959-4.453 27.891 6.472 8.931 18.959 10.925 27.891 4.453z" fill="#ff5a58"/><path d="m101.589 396.502c-11 0-20 9-20 20v45.498h40v-45.498c0-11-8.999-20-20-20z" fill="#ff9346"/><path d="m81.589 416.502c0-11 8.999-20 20-20s20 9 20 20v45.498h36.13v-165.611l-112.259 81.644v83.967h36.13v-45.498z" fill="#e6d5cf"/><path d="m354.281 296.389 112.259 81.643c8.931 6.472 21.419 4.478 27.891-4.453s4.478-21.419-4.453-27.891l-135.697-98.688z" fill="#ff5a58"/><path d="m466.54 378.033-112.259-81.643v165.61h36.13v-45.498c0-11 8.999-20 20-20 11 0 20 9 20 20v45.498h36.13v-83.967z" fill="#e6d5cf"/><path d="m430.411 416.502c0-11-8.999-20-20-20s-20 9-20 20v45.498h40z" fill="#ff9346"/><path d="m430.411 462h-40-36.13-48.281-50-50-48.281-36.13-40-36.129-15.46c-11 0-20 9-20 20s9 20 20 20h452c11 0 20-9 20-20s-9-20-20-20h-15.46z" fill="#5cd0b3"/></g><g><path d="m482 452h-5.46v-60.225c.551.031 1.101.065 1.655.065 1.589 0 3.189-.126 4.789-.381 7.906-1.263 14.847-5.528 19.544-12.01 4.697-6.483 6.589-14.407 5.327-22.312-1.263-7.906-5.527-14.847-11.996-19.534l-131.579-95.695v-16.681c.551.031 1.101.065 1.655.065 1.589 0 3.189-.126 4.789-.382 7.906-1.262 14.847-5.528 19.543-12.01 4.698-6.482 6.591-14.406 5.328-22.312-1.262-7.905-5.527-14.846-11.996-19.534l-109.573-79.69c-2.499-1.882-5.209-3.311-8.026-4.317v-37.046h16.25c5.522 0 10-4.477 10-10s-4.478-10-10-10h-16.25v-20.001c0-5.523-4.478-10-10-10s-10 4.477-10 10v20.001h-16.251c-5.523 0-10 4.477-10 10s4.477 10 10 10h16.251v37.061c-2.653.949-5.217 2.264-7.601 3.992l-18.609 13.534c-4.466 3.249-5.454 9.502-2.206 13.969s9.502 5.455 13.969 2.206l18.595-13.524c3.527-2.557 8.41-2.505 11.877.125.054.041.108.082.163.122l109.66 79.754c2.157 1.563 3.576 3.872 3.996 6.502s-.209 5.266-1.772 7.423c-1.562 2.157-3.872 3.576-6.502 3.996-2.632.421-5.268-.209-7.409-1.762l-98.281-71.478c-3.506-2.55-8.256-2.55-11.763 0l-98.267 71.467c-4.452 3.226-10.699 2.229-13.925-2.224-1.563-2.156-2.192-4.792-1.772-7.422s1.839-4.939 4.01-6.513l18.603-13.529c4.466-3.249 5.454-9.502 2.206-13.969-3.248-4.466-9.502-5.454-13.969-2.206l-18.589 13.519c-6.483 4.698-10.748 11.639-12.011 19.544-1.262 7.906.63 15.83 5.327 22.312 6.207 8.566 16.133 12.868 25.988 12.317v16.693l-131.564 95.681c-6.482 4.697-10.748 11.638-12.01 19.544-1.262 7.905.63 15.83 5.328 22.312 4.697 6.482 11.638 10.748 19.543 12.01 1.6.255 3.199.381 4.789.381.554 0 1.105-.034 1.656-.065v60.227h-5.46c-16.542 0-30 13.458-30 30s13.458 30 30 30h452c16.542 0 30-13.458 30-30s-13.458-30-30-30zm-61.589 0h-20v-35.498c0-5.514 4.486-10 10-10s10 4.486 10 10zm-10-65.498c-16.542 0-30 13.458-30 30v35.498h-16.13v-135.974l92.26 67.099v68.875h-16.13v-35.498c0-16.542-13.458-30-30-30zm73.7-32.715c4.452 3.226 5.449 9.473 2.223 13.925-1.562 2.157-3.872 3.576-6.502 3.996-2.633.419-5.267-.209-7.409-1.762l-108.142-78.649v-24.659zm-228.111-201.415 88.281 64.204v235.424h-28.281v-60c0-33.084-26.916-60-60-60s-60 26.916-60 60v60h-28.281v-235.423zm-10 299.628h-30v-60c0-18.604 12.767-34.282 30-38.734zm20-98.735c17.233 4.452 30 20.13 30 38.734v60h-30zm-233.831 18.443c-2.63-.42-4.94-1.839-6.502-3.996-1.563-2.157-2.192-4.793-1.772-7.423s1.839-4.939 4.01-6.512l119.815-87.138v24.659l-108.129 78.638c-2.156 1.562-4.79 2.191-7.422 1.772zm23.29 11.417 92.259-67.098v135.973h-16.13v-35.498c0-16.542-13.458-30-30-30s-30 13.458-30 30v35.498h-16.13v-68.875zm56.13 68.875h-20v-35.498c0-5.514 4.486-10 10-10s10 4.486 10 10zm370.411 40h-452c-5.514 0-10-4.486-10-10s4.486-10 10-10h452c5.514 0 9.999 4.486 9.999 10 .001 5.514-4.485 10-9.999 10z"/><path d="m225.746 306.389h60.509c5.522 0 10-4.477 10-10v-54.521c0-22.197-18.058-40.255-40.254-40.255s-40.254 18.058-40.254 40.255v54.521c-.001 5.523 4.476 10 9.999 10zm10-64.521c0-11.168 9.086-20.255 20.254-20.255s20.254 9.086 20.254 20.255v44.521h-40.509v-44.521z"/><path d="m189.282 149.14c5.523 0 10-4.477 10-10s-4.477-10-10-10h-.007c-5.523 0-9.996 4.477-9.996 10s4.48 10 10.003 10z"/></g></g></svg>