<svg height="512" viewBox="0 0 128 128" width="512" xmlns="http://www.w3.org/2000/svg"><g id="Circle_Grid" data-name="Circle Grid"><circle cx="64" cy="64" fill="#f6c863" r="64"/></g><g id="icon"><path d="m44.709 42.728a1.1 1.1 0 0 1 -1.1-1.1v-17.528a1.1 1.1 0 0 1 2.2 0v17.528a1.1 1.1 0 0 1 -1.1 1.1z" fill="#575b6d"/><path d="m51.009 30.435h-12.6a1.1 1.1 0 0 1 0-2.2h12.6a1.1 1.1 0 1 1 0 2.2z" fill="#575b6d"/><path d="m56.697 77.866h38.716v24.037h-38.716z" fill="#dbd8dd"/><path d="m55.596 77.866h43.303l-3.486-13.211h-39.817z" fill="#ef5261"/><path d="m32.722 54.747v47.156h23.975v-47.156l-11.988-12.385z" fill="#eeefee"/><path d="m30.569 57.492a1.468 1.468 0 0 1 -1.064-2.48l14.136-14.855a1.468 1.468 0 0 1 1.059-.457 1.471 1.471 0 0 1 1.055.447l14.39 14.853a1.468 1.468 0 0 1 -2.11 2.043l-13.322-13.755-13.08 13.748a1.464 1.464 0 0 1 -1.064.456z" fill="#ef5261"/><path d="m44.709 80.841a6.85 6.85 0 0 0 -6.85 6.85v15.2h13.7v-15.2a6.85 6.85 0 0 0 -6.85-6.85z" fill="#62667c"/><path d="m64 82.847a4.2 4.2 0 0 0 -4.2 4.2v8.888h8.4v-8.888a4.2 4.2 0 0 0 -4.2-4.2z" fill="#575b6d"/><path d="m67.2 87.05v7.89h-6.41v-7.89a3.2 3.2 0 0 1 5.33-2.39 2.644 2.644 0 0 1 .29.29 2.789 2.789 0 0 1 .4.57 3.134 3.134 0 0 1 .39 1.53z" fill="#69b0ee"/><path d="m76.055 82.847a4.2 4.2 0 0 0 -4.2 4.2v8.888h8.4v-8.888a4.2 4.2 0 0 0 -4.2-4.2z" fill="#575b6d"/><path d="m79.26 87.05v7.89h-6.41v-7.89a3.2 3.2 0 0 1 5.05-2.61l.31.25a2.273 2.273 0 0 1 .44.49 3.079 3.079 0 0 1 .59 1.52c.01.12.02.23.02.35z" fill="#69b0ee"/><path d="m88.115 82.847a4.2 4.2 0 0 0 -4.2 4.2v8.888h8.4v-8.888a4.2 4.2 0 0 0 -4.2-4.2z" fill="#575b6d"/><path d="m91.32 87.05v7.89h-6.41v-7.89a3.205 3.205 0 0 1 3.21-3.2 3.166 3.166 0 0 1 2.07.77 1.921 1.921 0 0 1 .29.28 2.777 2.777 0 0 1 .41.56 3.054 3.054 0 0 1 .43 1.59z" fill="#69b0ee"/><circle cx="44.709" cy="57.492" fill="#575b6d" r="4.924"/><path d="m29.101 101.903h69.799v3.097h-69.799z" fill="#575b6d"/><g fill="#eeefee"><path d="m90.48 84.9-5.57 8.78v-.72l5.28-8.34a1.921 1.921 0 0 1 .29.28z" opacity=".5"/><path d="m91.32 87.05v.16l-4.9 7.73h-1.51v-.06l5.98-9.42a3.054 3.054 0 0 1 .43 1.59z" opacity=".5"/><path d="m78.21 84.69-5.36 8.46v-.74l5.05-7.97z" opacity=".5"/><path d="m79.24 86.7-5.23 8.24h-1.16v-.61l5.8-9.15a3.079 3.079 0 0 1 .59 1.52z" opacity=".5"/><path d="m66.41 84.95-5.62 8.86v-.73l5.33-8.42a2.644 2.644 0 0 1 .29.29z" opacity=".5"/><path d="m67.2 87.05v.28l-4.83 7.61h-1.54l5.98-9.42a3.134 3.134 0 0 1 .39 1.53z" opacity=".5"/></g></g></svg>