<svg id="Capa_1" enable-background="new 0 0 501.008 501.008" height="512" viewBox="0 0 501.008 501.008" width="512" xmlns="http://www.w3.org/2000/svg"><g><path d="m5.504 256c0-135.309 109.69-245 244.999-245 135.005 0 245.038 110.064 245.001 245.069-.026 92.994-51.862 173.878-128.212 215.357-4.678 2.541-10.284 2.807-15.127.596-30.967-14.142-65.394-22.022-101.661-22.022-36.345 0-70.841 7.914-101.86 22.113-4.648 2.128-10.055 1.951-14.551-.482-76.576-41.428-128.589-122.455-128.589-215.631z" fill="#0a4499"/><path d="m244.504 275c0 8.284-6.716 15-15 15h-170c-8.284 0-15-6.716-15-15s6.716-15 15-15h10c8.284 0 15-6.716 15-15s-6.716-15-15-15h-62.637c1.076-10.2 2.777-20.213 5.066-30h117.571c8.284 0 15 6.716 15 15s-6.716 15-15 15h-20c-8.284 0-15 6.716-15 15s6.716 15 15 15h120c8.284 0 15 6.716 15 15zm-155-135h120c8.284 0 15-6.716 15-15s-6.716-15-15-15h-120c-8.284 0-15 6.716-15 15s6.715 15 15 15zm100-40h70c8.284 0 15-6.716 15-15s-6.716-15-15-15h-70c-8.284 0-15 6.716-15 15s6.715 15 15 15zm-20 280h-70c-8.284 0-15 6.716-15 15s6.716 15 15 15h70c8.284 0 15-6.716 15-15s-6.716-15-15-15zm230-20h-70c-8.284 0-15 6.716-15 15s6.716 15 15 15h70c8.284 0 15-6.716 15-15s-6.716-15-15-15zm-20-70c-8.284 0-15 6.716-15 15s6.716 15 15 15h107.556c2.637-9.772 4.685-19.785 6.103-30zm15-75c0-8.284-6.716-15-15-15h-5c-8.284 0-15-6.716-15-15s6.716-15 15-15h65c8.284 0 15-6.716 15-15s-6.716-15-15-15h-120c-8.284 0-15 6.716-15 15s6.716 15 15 15h15c8.284 0 15 6.716 15 15s-6.716 15-15 15h-75c-8.284 0-15 6.716-15 15s6.716 15 15 15h120c8.284 0 15-6.716 15-15z" fill="#0956c6"/><path d="m346.504 361.488v65.034c0 10.758-8.721 19.478-19.478 19.478h-153.044c-10.758 0-19.478-8.721-19.478-19.478v-65.034c0-46.661 37.826-84.488 84.488-84.488h23.025c46.66 0 84.487 37.826 84.487 84.488z" fill="#ea552d"/><path d="m346.504 361.476v18.098c-12.903 1.543-26.562.632-40.486-3.234-34.586-9.603-61.047-37.789-68.897-72.814-2.023-9.026-2.835-17.852-2.567-26.412 1.466-.076 2.941-.114 4.426-.114h23.049c46.654 0 84.475 37.821 84.475 84.476z" fill="#f76937"/><path d="m340.519 390h-183.03c-11.037 0-19.985-8.948-19.985-19.985v-10.03c0-11.037 8.948-19.985 19.985-19.985h183.03c11.037 0 19.985 8.948 19.985 19.985v10.03c0 11.037-8.948 19.985-19.985 19.985z" fill="#ff956a"/><path d="m133.504 406h234v65.337c-34.769 18.921-74.628 29.671-117 29.671s-82.231-10.75-117-29.671z" fill="#ffc14f"/><path d="m164.504 485.488c-10.709-4.011-21.062-8.748-31-14.151v-65.337h31z" fill="#ffb52d"/><path d="m258.504 177.387v81.227c0 4.079-3.307 7.387-7.387 7.387h-4.227c-4.079 0-7.387-3.307-7.387-7.387v-81.227c0-4.079 3.307-7.387 7.387-7.387h4.227c4.08 0 7.387 3.307 7.387 7.387z" fill="#ffc14f"/><path d="m343.829 181.426c-43.285 43.285-113.58 43.097-156.631-.562-41.584-42.172-42.294-110.367-1.547-153.348 11.813-12.461 25.794-21.545 40.767-27.252 3.479-1.326 6.621 2.623 4.511 5.691-25.494 37.059-21.766 88.165 11.184 121.115s84.058 36.678 121.116 11.183c3.074-2.115 7.014 1.038 5.685 4.524-5.372 14.088-13.734 27.297-25.085 38.649zm-67.333 83.383c0 14.355-11.637 25.992-25.993 25.992-14.355 0-25.993-11.637-25.993-25.992s11.637-25.993 25.993-25.993c14.356.001 25.993 11.638 25.993 25.993z" fill="#ffcd71"/><path d="m343.96 65.001 14.92 8.16c1.387.759 1.387 2.751 0 3.509l-14.92 8.16c-.336.184-.611.459-.795.795l-8.16 14.92c-.759 1.387-2.751 1.387-3.509 0l-8.16-14.92c-.184-.336-.459-.611-.795-.795l-14.92-8.16c-1.387-.759-1.387-2.751 0-3.509l14.92-8.16c.336-.184.612-.459.795-.795l8.16-14.92c.759-1.387 2.751-1.387 3.509 0l8.16 14.92c.184.336.46.612.795.795z" fill="#ffe7c0"/><path d="m276.496 264.809c0 2.474-.346 4.868-.991 7.135-2.267.646-4.661.992-7.135.992-14.355 0-25.993-11.637-25.993-25.992 0-2.474.346-4.868.992-7.135 2.267-.646 4.661-.992 7.135-.992 14.355 0 25.992 11.637 25.992 25.992zm80.057-98.602c5.125-7.387 9.246-15.261 12.36-23.43 1.329-3.486-2.611-6.639-5.685-4.524-37.059 25.495-88.166 21.768-121.116-11.183-32.95-32.95-36.678-84.056-11.184-121.115 2.11-3.068-1.031-7.017-4.511-5.691-9.661 3.682-18.909 8.771-27.428 15.265-29.638 42.804-25.447 102.188 12.142 140.309 39.508 40.065 101.957 43.521 145.422 10.369z" fill="#ffd993"/><path d="m354.504 360h21c5.523 0 10 4.477 10 10v50c0 5.523-4.477 10-10 10h-250c-5.523 0-10-4.477-10-10v-50c0-5.523 4.477-10 10-10h21c2.761 0 5 2.239 5 5v10c0 2.761 2.239 5 5 5h13c2.761 0 5-2.239 5-5v-10c0-2.761 2.239-5 5-5h25c2.761 0 5 2.239 5 5v10c0 2.761 2.239 5 5 5h13c2.761 0 5-2.239 5-5v-10c0-2.761 2.239-5 5-5h26c2.761 0 5 2.239 5 5v10c0 2.761 2.239 5 5 5h13c2.761 0 5-2.239 5-5v-10c0-2.761 2.239-5 5-5h25c2.761 0 5 2.239 5 5v10c0 2.761 2.239 5 5 5h13c2.761 0 5-2.239 5-5v-10c0-2.761 2.238-5 5-5z" fill="#ffcd71"/><path d="m385.504 370v50c0 5.523-4.477 10-10 10h-211v-50h4c2.761 0 5-2.239 5-5v-10c0-2.761 2.239-5 5-5h26c2.761 0 5 2.239 5 5v10c0 2.761 2.239 5 5 5h13c2.761 0 5-2.239 5-5v-10c0-2.761 2.239-5 5-5h26c2.761 0 5 2.239 5 5v10c0 2.761 2.239 5 5 5h13c2.761 0 5-2.239 5-5v-10c0-2.761 2.239-5 5-5h26c2.761 0 5 2.239 5 5v10c0 2.761 2.239 5 5 5h12c2.761 0 5-2.239 5-5v-10c0-2.761 2.239-5 5-5h21c5.523 0 10 4.477 10 10z" fill="#ffd993"/><path d="m341.504 455v28.743c-27.998 11.135-58.534 17.257-90.5 17.257s-62.502-6.122-90.5-17.257v-28.743c0-2.761 2.239-5 5-5h171c2.761 0 5 2.239 5 5z" fill="#ffcd71"/><g fill="#f29500"><path d="m202.506 472.287c.781.781.781 2.047 0 2.828l-9.779 9.779c-.781.781-2.047.781-2.828 0l-9.779-9.779c-.781-.781-.781-2.047 0-2.828l9.779-9.779c.781-.781 2.047-.781 2.828 0zm28.097-9.78c-.781-.781-2.047-.781-2.828 0l-9.779 9.779c-.781.781-.781 2.047 0 2.828l9.779 9.779c.781.781 2.047.781 2.828 0l9.779-9.779c.781-.781.781-2.047 0-2.828zm35.66 0c-.781-.781-2.047-.781-2.828 0l-9.779 9.779c-.781.781-.781 2.047 0 2.828l9.779 9.779c.781.781 2.047.781 2.828 0l9.779-9.779c.781-.781.781-2.047 0-2.828zm47.655 9.78-9.779-9.779c-.781-.781-2.047-.781-2.828 0l-9.779 9.779c-.781.781-.781 2.047 0 2.828l9.779 9.779c.781.781 2.047.781 2.828 0l9.779-9.779c.781-.781.781-2.047 0-2.828z"/><path d="m100.478 326.806c.781.781.781 2.047 0 2.828l-9.779 9.779c-.781.781-2.047.781-2.828 0l-9.779-9.779c-.781-.781-.781-2.047 0-2.828l9.779-9.779c.781-.781 2.047-.781 2.828 0zm-19.227-151.109-9.779-9.779c-.781-.781-2.047-.781-2.828 0l-9.779 9.779c-.781.781-.781 2.047 0 2.828l9.779 9.779c.781.781 2.047.781 2.828 0l9.779-9.779c.781-.781.781-2.047 0-2.828zm322.667 74.118-9.78-9.779c-.781-.781-2.047-.781-2.828 0l-9.779 9.779c-.781.781-.781 2.047 0 2.828l9.779 9.779c.781.781 2.047.781 2.828 0l9.78-9.779c.781-.781.781-2.047 0-2.828z"/></g></g></svg>