<svg height="512" viewBox="0 0 128 128" width="512" xmlns="http://www.w3.org/2000/svg"><g id="Circle_Grid" data-name="Circle Grid"><circle cx="64" cy="64" fill="#fe7058" r="64"/></g><g id="icon"><path d="m30.22 43.811h67.56v46.575h-67.56z" fill="#ebf0f3"/><path d="m39.804 63.777h16.131v25.137h-16.131z" fill="#d5d6db"/><path d="m35.998 70.371h23.742v13.343h-23.742z" fill="#029bc5" transform="matrix(0 1 -1 0 124.912 29.173)"/><path d="m62.655 63.777h29.563v15.724h-29.563z" fill="#d5d6db"/><path d="m70.968 58.252h12.936v26.775h-12.936z" fill="#029bc5" transform="matrix(0 1 -1 0 149.076 -5.797)"/><path d="m47.531 47.004h-10.98l3.921-10.23h9.411z" fill="#fcd462"/><path d="m58.51 47.004h-10.979l2.352-10.23h9.411z" fill="#029bc5"/><path d="m69.49 47.004h-10.98l.784-10.23h9.412z" fill="#fcd462"/><path d="m80.469 47.004h-10.979l-.784-10.23h9.411z" fill="#029bc5"/><path d="m91.449 47.004h-10.98l-2.352-10.23h9.411z" fill="#fcd462"/><path d="m30.49 37.839-4.918 9.161h10.979l3.922-10.23h-8.2a2.022 2.022 0 0 0 -1.783 1.069z" fill="#029bc5"/><path d="m97.51 37.839a2.022 2.022 0 0 0 -1.78-1.065h-8.2l3.919 10.226h10.979z" fill="#029bc5"/><path d="m25.572 47v3.929a5.49 5.49 0 1 0 10.979 0v-3.929z" fill="#0489a8"/><path d="m36.551 47v3.929a5.49 5.49 0 0 0 10.98 0v-3.929z" fill="#f7be56"/><path d="m47.531 47v3.929a5.49 5.49 0 1 0 10.979 0v-3.929z" fill="#0489a8"/><path d="m58.51 47v3.929a5.49 5.49 0 0 0 10.98 0v-3.929z" fill="#f7be56"/><path d="m69.49 47v3.929a5.49 5.49 0 1 0 10.979 0v-3.929z" fill="#0489a8"/><path d="m80.469 47v3.929a5.49 5.49 0 1 0 10.98 0v-3.929z" fill="#f7be56"/><path d="m91.449 47v3.929a5.49 5.49 0 1 0 10.979 0v-3.929z" fill="#0489a8"/><path d="m26.569 87.52h74.863v3.706h-74.863z" fill="#d5d6db"/><circle cx="43.185" cy="76.463" fill="#3e6b82" r=".746"/></g></svg>