<svg id="Capa_1" enable-background="new 0 0 512.845 512.845" height="512" viewBox="0 0 512.845 512.845" width="512" xmlns="http://www.w3.org/2000/svg"><g><g><g><g><g><g><g><circle cx="256" cy="256.205" fill="#ffce00" r="256"/></g></g></g></g></g></g><path d="m512.845 256.64c0-12.494-.895-24.78-2.625-36.795l-129.076-129.077-37.388 131.273-112.412-112.411-120.771 26.591 56.352 56.353-56.352 9.161 44.364 44.364-44.364 21.149 49.758 49.758-49.758 15.755 42.84 42.84-42.84 29.116 104.538 104.538c13.581 2.227 27.522 3.385 41.733 3.385 141.386 0 256.001-114.615 256.001-256z" fill="#ffa300"/><g><path d="m109.728 94.129v41.658h76.887v30.298h-76.887v35.215h76.887v30.299h-76.887v35.215h76.887v30.299h-76.887v35.215h76.887v30.299h-76.887v41.658h90.275c21.215 0 38.413-17.198 38.413-38.413v-233.331c0-21.215-17.198-38.413-38.413-38.413h-90.275z" fill="#fff"/></g><g><path d="m109.729 249.205v17.607h76.887v30.299h-76.887v35.215h76.887v30.299h-76.887v41.657h90.275c21.215 0 38.413-17.198 38.413-38.413v-116.664z" fill="#e9edf5"/></g><g><path d="m313.758 270.163v38.37c-4.194-1.133-8.602-1.737-13.148-1.737-27.826 0-50.464 22.637-50.464 50.463s22.638 50.463 50.464 50.463 50.463-22.638 50.463-50.463v-87.096zm-13.148 100.243c-7.25 0-13.149-5.898-13.149-13.148s5.898-13.148 13.149-13.148c7.25 0 13.148 5.898 13.148 13.148s-5.898 13.148-13.148 13.148z" fill="#555a66"/></g><g><g><path d="m351.073 270.163h-37.315v-156.643c0-20.608 16.706-37.315 37.315-37.315z" fill="#fff"/></g></g><g><path d="m401.537 306.795c-4.547 0-8.955.605-13.149 1.737v-38.37h-37.315v87.096c0 27.826 22.638 50.463 50.464 50.463s50.463-22.638 50.463-50.463-22.638-50.463-50.463-50.463zm0 63.611c-7.25 0-13.149-5.898-13.149-13.148s5.898-13.148 13.149-13.148c7.25 0 13.148 5.898 13.148 13.148s-5.898 13.148-13.148 13.148z" fill="#414952"/></g><g><g><path d="m388.388 270.163h-37.315v-193.958c20.608 0 37.315 16.706 37.315 37.315z" fill="#e9edf5"/></g></g><g><ellipse cx="351.358" cy="301.704" fill="#636978" rx="16.398" ry="16.398" transform="matrix(.707 -.707 .707 .707 -110.427 336.815)"/></g><g><path d="m351.358 285.306c-.073 0-.144.01-.217.011v32.773c.073.001.144.011.217.011 9.056 0 16.398-7.342 16.398-16.398-.001-9.055-7.342-16.397-16.398-16.397z" fill="#555a66"/></g></g></svg>