<svg enable-background="new 0 0 140 140" height="512" viewBox="0 0 140 140" width="512" xmlns="http://www.w3.org/2000/svg"><circle cx="70" cy="70" fill="#de594e" r="64"/><path d="m105.7161255 40.0932274-.0048828.0031738c-.5618286-.8620605-1.3922729-1.4020996-2.3579102-1.7832031-1.704895-.675293-3.4406738-.7104492-5.2875977 1.1162109l-3.7166748-3.7167969c-.2626953-.3579102-.5618896-.65625-.8967896-.8967285l-.0029907-.0031738.000061.0007324c-.5778198-.4140625-1.2493286-.6762695-1.9760132-.8503418-1.7167969-.4013672-3.3771362-.2438965-4.9041138 1.5180664l-2.8985596-2.8984375-.000061.0007324c-.8718262-.9465351-1.9977417-1.3286152-3.2372437-1.460207-1.3596802-.1467285-2.6370239.0449219-3.7566528.9799824l-2.1088867-2.1091328c-.289978-.3759766-.6026001-.6828613-.9334717-.9333496l-.0001221-.0002441c-.9884033-.7485352-2.1435547-.9873047-3.3808594-.9873047-2.5200195.0100098-4.710022.9899902-5.7999878 5.3200703-1.3400269-2.0700703-3.0500488-2.4599628-4.8900146-2.2700214-2.4500122.2600098-4.4500122 1.4899921-4.9299927 6.1499043-1.8400269-3.4399414-3.9299927-3.8198242-6.1099854-3.3100586-2.8400269.6801758-4.8500366 2.670166-3.5700073 10.0600586-3.0400391-6.3100586-5.710022-6.7399902-8.3099976-5.7099609-2.9400024 1.1601562-4.6799946 3.7299805-1.1300049 12.6999512 3.3200073 8.4001465 13.25 27.4099083 16.9199829 28.8400841l4.75 12.9499512v6.4399414c.081543 3.8200684 1.8219604 7.2236328 4.5196533 9.5437012l23.4033203 23.4033279c28.0530399-6.7912676 48.8936771-32.0498125 48.8936771-62.1901933 0-.5583496-.0278931-1.1101074-.0421143-1.6650391z" opacity=".1"/><path d="m103.3520813 38.3149681c-2.940712-1.162838-5.9680099-.4784927-9.5139084 8.4887695s-9.8671646 31.9245796-6.926445 33.0874214c2.940712 1.1628342 14.0298309-19.9091415 17.5757294-28.8764038s1.805336-11.5369491-1.135376-12.6997871z" fill="#dbd8dd"/><path d="m101.430191 42.7962685-21.3978653 50.0373344 2.6543351 1.0495987z" fill="#ededed"/><path d="m91.4742813 33.9659615c-3.1631165-.7505035-6.1425705.3911552-8.4311142 10.036602-2.2885513 9.6454506-5.3427124 33.9334564-2.1795883 34.68396 3.1631165.7505035 11.345726-22.3206902 13.6342697-31.9661369s.1395569-12.0039216-3.0235672-12.7544251z" fill="#ededed"/><path d="m89.906395 38.8475151-14.4099579 54.0587349 2.8550796.6774139z" fill="#dbd8dd"/><path d="m80.4322128 31.1236935c-3.3497696-.3542843-6.261322 1.2118473-7.3416519 11.426466s-1.0170059 35.5787315 2.3327637 35.9330177c3.3497696.3542786 8.7175217-24.4354248 9.7978516-34.6500435s-1.4391861-12.3551579-4.7889634-12.7094402z" fill="#dbd8dd"/><path d="m79.464447 36.3473167-7.6823272 57.4574776 3.0235519.3197785z" fill="#ededed"/><path d="m36.6479187 38.3149681c2.9407158-1.162838 5.9680099-.4784927 9.5139084 8.4887695 3.5459023 8.9672623 9.8671608 31.9245796 6.9264488 33.0874214-2.9407158 1.1628342-14.0298347-19.9091415-17.5757332-28.8764038s-1.8053398-11.5369491 1.135376-12.6997871z" fill="#dbd8dd"/><path d="m38.938324 42.7962685 21.3978615 50.0373344-2.6543313 1.0495987z" fill="#ededed"/><path d="m48.5257149 33.9659615c3.1631203-.7505035 6.1425743.3911552 8.4311218 10.036602 2.2885437 9.6454506 5.3427048 33.9334564 2.1795883 34.68396-3.1631203.7505035-11.345726-22.3206902-13.6342735-31.9661369-2.2885437-9.6454507-.1395531-12.0039216 3.0235634-12.7544251z" fill="#ededed"/><path d="m50.0936012 38.8475151 14.4099617 54.0587349-2.8550796.6774139z" fill="#dbd8dd"/><path d="m59.5677834 31.1236935c3.3497734-.3542843 6.2613258 1.2118473 7.3416557 11.426466s1.0170059 35.5787315-2.3327637 35.9330177c-3.3497696.3542786-8.7175217-24.4354248-9.7978516-34.6500435-1.0803337-10.2146187 1.43919-12.3551579 4.7889596-12.7094402z" fill="#dbd8dd"/><path d="m60.535553 36.3473167 7.6823272 57.4574776-3.0235519.3197785z" fill="#ededed"/><path d="m70.2578812 28.0737648c-3.6272736.0065994-6.5641174 2.0188217-6.5439873 13.0796394s3.0100441 38.2098083 6.6373177 38.2032013c3.6272736-.0065994 6.5183563-27.1662827 6.4982224-38.2271042-.0201264-11.0608177-2.9642793-13.0623378-6.5915528-13.0557365z" fill="#ededed"/><path d="m69.8235321 33.7779694-1.6056519 62.4023361 3.2740326-.0059586z" fill="#dbd8dd"/><path d="m57.1830673 92.519104v6.7205505c.1503944 7.0305023 5.8855743 12.6865997 12.952301 12.6865997 7.0666885 0 12.8019104-5.6560974 12.9523087-12.6865997v-6.7205505z" fill="#dbd8dd"/><path d="m57.183067 92.519104h25.904606v3.676848h-25.904606z" fill="#4abba4"/><path d="m85.4580536 85.6016388c-17.0767746-3.1809006-30.7837906-.0491791-30.9221306-.0164185l-.3199615-.8720779c.1401596-.0309448 14.3092079-3.2462234 31.5780144-.027092z" fill="#dbd8dd"/></svg>