<?xml version="1.0" encoding="iso-8859-1"?>
<!-- Generator: Adobe Illustrator 19.0.0, SVG Export Plug-In . SVG Version: 6.00 Build 0)  -->
<svg version="1.1" id="Capa_1" xmlns="http://www.w3.org/2000/svg" xmlns:xlink="http://www.w3.org/1999/xlink" x="0px" y="0px"
	 viewBox="0 0 512 512" style="enable-background:new 0 0 512 512;" xml:space="preserve">
<path style="fill:#FFA5C8;" d="M512,256c0,140.487-113.677,256-256,256C114.047,512,0,396.835,0,256C0,114.615,114.615,0,256,0
	C397.649,0,512,114.857,512,256z"/>
<path style="fill:#FC95BE;" d="M483.815,242.351C483.814,242.351,483.814,242.351,483.815,242.351
	c-7.729-38.977-43.312-56.459-88.08-56.459h-56.269c-12.689,0-23.934-6.973-29.794-17.628c6.512,0.099,13.597,0.709,18.98-6.36
	c8.033-10.543,0.476-25.827-12.795-25.827h-10.387c-0.001-6.685,0.008-15.479,0.015-26.985c5.807-0.672,20.029,3.28,25.33-10.167
	c-0.002,0.001-0.005,0.001-0.007,0.002c4.193-10.56-3.598-22.023-14.952-22.023h-10.364c0-2.948-0.001-6-0.002-9.164
	c8.039-0.383,14.45-7.003,14.45-15.144c0-4.152,0-7.686,0-11.851c0-8.38-6.801-15.18-15.18-15.18c-24.949,0-124.955,0-141.724,0
	c-8.387,0-15.18,6.801-15.18,15.18v11.851c0,7.056,4.815,12.966,11.334,14.671c0.106,72.772,0.154,137.817,0.191,210.433
	c0,10.72,6.998,19.801,16.669,22.938c-0.332,1.867-0.515,3.785-0.515,5.747c0,17.996,14.588,32.584,32.584,32.584
	s32.584-14.588,32.584-32.584c0-1.553-0.116-3.077-0.326-4.572h13.647c-0.21,1.495-0.326,3.019-0.326,4.572
	c0,17.996,14.588,32.584,32.584,32.584s32.584-14.588,32.584-32.584c0-1.553-0.116-3.077-0.326-4.572h13.647
	c-0.21,1.495-0.326,3.019-0.326,4.572c0,17.996,14.588,32.584,32.584,32.584c17.996,0,32.584-14.588,32.584-32.584
	c0-1.553-0.116-3.077-0.326-4.572h13.647c-0.21,1.495-0.326,3.019-0.326,4.572c0,17.996,14.588,32.584,32.584,32.584
	c21.839,0,37.503-21.103,31.194-42.009c7.005-4.888,11.595-13.004,11.595-22.193C485.15,262.633,486.159,254.123,483.815,242.351z"
	/>
<path style="fill:#78BEFF;" d="M415.032,328.176v18.301c0,17.399-14.112,31.511-31.503,31.511H63.204
	c-15.508,0-28.085-12.577-28.085-28.094c-0.066-66.388,0.159,7.864-0.217-240.855c-0.017-7.885-0.017-14.85-0.026-20.436h170.498
	c0.07,91.854-0.177,115.063,0.209,118.765c0.98,9.602,5.395,18.197,11.987,24.52c7.121,6.835,16.774,11.016,27.409,11.016h65.572
	c52.171,0,93.641,20.374,102.643,65.798C414.399,314.749,415.032,321.228,415.032,328.176z"/>
<path style="fill:#1E8CE6;" d="M415.034,328.173v18.301c0,17.401-14.116,31.518-31.501,31.518H63.206
	c-15.511,0-28.092-12.58-28.092-28.1c0,0-0.025-85.91-0.066-112.045c-0.041-32.484-0.107-100.072-0.149-128.807
	c-0.017-7.884-0.017-14.851-0.025-20.44h127.92v140.777c0,14.567,5.961,28.195,16.237,38.056
	c9.468,9.089,34.564,14.661,48.721,14.661h87.288c38.872,0,73.288,8.502,98.152,26.606
	C414.399,314.751,415.034,321.231,415.034,328.173z"/>
<path style="fill:#3A9BF5;" d="M415.034,328.173v18.301c0,17.401-14.116,31.518-31.501,31.518H97.877
	c-15.511,0-28.092-12.58-28.092-28.1c-0.096-94.383,0.118-19.735-0.239-261.292h127.92v140.777c0,14.567,5.961,28.195,16.237,38.056
	c9.468,9.089,34.564,14.661,48.721,14.661c31.988,2.16,101.282-9.425,150.769,26.606
	C414.399,314.751,415.034,321.231,415.034,328.173z"/>
<path style="fill:#78BEFF;" d="M165.778,356.252c0,7.425-0.682,14.684-1.983,21.735H63.204c-15.506,0-28.085-12.571-28.085-28.094
	v-61.35c0-4.001-0.026-24.556-0.07-50.693c3.87-0.385,7.784-0.576,11.749-0.576C112.508,237.272,165.778,290.542,165.778,356.252z"
	/>
<path style="fill:#1478D2;" d="M222.222,73.758v13.811c0,9.774-7.925,17.69-17.69,17.69H39.374c-9.774,0-17.69-7.916-17.69-17.69
	V73.758c0-9.765,7.916-17.69,17.69-17.69h165.157C214.298,56.067,222.222,63.992,222.222,73.758z"/>
<path style="fill:#1E8CE6;" d="M222.222,73.758v7.149H72.394c-9.774,0-17.69-7.916-17.69-17.69v-7.149h149.828
	C214.298,56.067,222.222,63.992,222.222,73.758z"/>
<path style="fill:#64AFFF;" d="M69.786,349.892c0,0-0.025-82.517-0.066-110.411c-7.413-1.453-15.081-2.212-22.924-2.212
	c-3.962,0-7.875,0.198-11.747,0.578c0.135,85.784,0.042,28.273,0.074,112.045c0,15.52,12.573,28.092,28.083,28.092H97.15
	C81.978,377.596,69.786,365.172,69.786,349.892z"/>
<path style="fill:#1E81CE;" d="M415.032,331.311v15.165c0,17.401-14.108,31.509-31.501,31.509H63.204
	c-15.506,0-28.085-12.571-28.085-28.094v-18.58H415.032z"/>
<g>
	<circle style="fill:#464646;" cx="91.911" cy="383.32" r="37.97"/>
	<circle style="fill:#464646;" cx="183" cy="383.32" r="37.97"/>
	<circle style="fill:#464646;" cx="274.079" cy="383.32" r="37.97"/>
	<circle style="fill:#464646;" cx="365.168" cy="383.32" r="37.97"/>
</g>
<g>
	<path style="fill:#FFEB50;" d="M109.164,383.317c0,9.583-7.76,17.253-17.253,17.253c-9.531,0-17.253-7.721-17.253-17.253
		c0-9.524,7.721-17.253,17.253-17.253C101.478,366.065,109.164,373.821,109.164,383.317z"/>
	<path style="fill:#FFEB50;" d="M200.254,383.317c0,9.493-7.681,17.253-17.253,17.253c-9.531,0-17.26-7.721-17.26-17.253
		c0-9.524,7.729-17.253,17.26-17.253C192.57,366.065,200.254,373.822,200.254,383.317z"/>
	<path style="fill:#FFEB50;" d="M291.336,383.317c0,9.493-7.681,17.253-17.253,17.253c-9.531,0-17.253-7.721-17.253-17.253
		c0-9.524,7.721-17.253,17.253-17.253C283.652,366.065,291.336,373.822,291.336,383.317z"/>
	<path style="fill:#FFEB50;" d="M382.426,383.317c0,9.492-7.682,17.253-17.253,17.253c-9.531,0-17.253-7.721-17.253-17.253
		c0-9.524,7.721-17.253,17.253-17.253C374.739,366.065,382.426,373.821,382.426,383.317z"/>
</g>
<g>
	<path style="fill:#F5C850;" d="M107.587,390.527c-2.73,5.946-8.737,10.04-15.669,10.04c-9.541,0-17.254-7.713-17.254-17.254
		c0-6.945,4.107-12.952,10.04-15.669c-1.023,2.193-1.585,4.642-1.585,7.214c0,9.541,7.713,17.254,17.241,17.254
		C102.944,392.111,105.393,391.551,107.587,390.527z"/>
	<path style="fill:#F5C850;" d="M198.668,390.539c-2.717,5.909-8.688,10.028-15.669,10.028c-9.528,0-17.254-7.713-17.254-17.254
		c0-6.945,4.118-12.941,10.04-15.669c-1.011,2.193-1.585,4.642-1.585,7.214c0,9.541,7.726,17.254,17.254,17.254
		C194.038,392.111,196.475,391.551,198.668,390.539z"/>
	<path style="fill:#F5C850;" d="M289.749,390.539c-2.717,5.909-8.688,10.028-15.669,10.028c-9.528,0-17.254-7.713-17.254-17.254
		c0-6.933,4.107-12.928,10.029-15.669c-1.011,2.193-1.572,4.642-1.572,7.214c0,9.541,7.726,17.254,17.254,17.254
		C285.12,392.111,287.557,391.551,289.749,390.539z"/>
	<path style="fill:#F5C850;" d="M380.844,390.527c-2.717,5.909-8.7,10.04-15.669,10.04c-9.528,0-17.254-7.713-17.254-17.254
		c0-6.933,4.107-12.928,10.028-15.669c-1.011,2.193-1.572,4.642-1.572,7.214c0,9.541,7.726,17.254,17.254,17.254
		C376.213,392.111,378.65,391.551,380.844,390.527z"/>
</g>
<g>
	<path style="fill:#FFEB50;" d="M217.463,153.405h-40.756c-10.358,0-18.755-8.397-18.755-18.755l0,0
		c0-10.358,8.397-18.755,18.755-18.755h40.756c10.358,0,18.755,8.397,18.755,18.755l0,0
		C236.218,145.008,227.821,153.405,217.463,153.405z"/>
	<path style="fill:#FFEB50;" d="M217.463,222.363h-40.756c-10.358,0-18.755-8.397-18.755-18.755l0,0
		c0-10.358,8.397-18.755,18.755-18.755h40.756c10.358,0,18.755,8.397,18.755,18.755l0,0
		C236.218,213.966,227.821,222.363,217.463,222.363z"/>
</g>
<g>
	<path style="fill:#F5C850;" d="M234.895,141.557c-0.943,2.399-2.376,4.558-4.172,6.354c-3.387,3.387-8.082,5.49-13.265,5.49H176.71
		c-10.366,0-18.755-8.388-18.755-18.755c0-5.172,2.091-9.866,5.49-13.265c1.796-1.795,3.956-3.228,6.354-4.171
		c-0.852,2.137-1.319,4.467-1.319,6.911c0,10.355,8.4,18.755,18.755,18.755h40.76C230.428,142.876,232.759,142.409,234.895,141.557z
		"/>
	<path style="fill:#F5C850;" d="M234.895,210.519c-0.943,2.398-2.376,4.558-4.172,6.354c-3.387,3.387-8.082,5.49-13.265,5.49H176.71
		c-10.366,0-18.755-8.4-18.755-18.755c0-5.183,2.091-9.866,5.49-13.265c1.796-1.796,3.956-3.228,6.354-4.172
		c-0.852,2.137-1.319,4.467-1.319,6.911c0,10.355,8.4,18.755,18.755,18.755h40.76C230.428,211.837,232.759,211.371,234.895,210.519z
		"/>
</g>
<g>
</g>
<g>
</g>
<g>
</g>
<g>
</g>
<g>
</g>
<g>
</g>
<g>
</g>
<g>
</g>
<g>
</g>
<g>
</g>
<g>
</g>
<g>
</g>
<g>
</g>
<g>
</g>
<g>
</g>
</svg>
