<svg id="Layer_1" enable-background="new 0 0 512 512" height="512" viewBox="0 0 512 512" width="512" xmlns="http://www.w3.org/2000/svg"><g><g><g><g id="XMLID_1098_"><g id="XMLID_1099_"><g id="XMLID_1459_"><g id="XMLID_1460_"><g id="XMLID_1461_"><g id="XMLID_1462_"><g id="XMLID_1463_"><g id="XMLID_1464_"><g id="XMLID_1465_"><g id="XMLID_1466_"><g id="XMLID_1467_"><g id="XMLID_1468_"><g id="XMLID_1469_"><g id="XMLID_1470_"><g><path d="m1.36 282.54c-.9-8.72-1.36-17.58-1.36-26.54 0-141.38 114.62-256 256-256s256 114.62 256 256c0 9.07-.47 18.02-1.39 26.84l-260.818 109.376z" fill="#ffdc7b"/></g></g></g></g></g></g></g></g></g></g></g></g></g></g></g></g></g><path d="m249.792 392.216 254.927-106.906-121.692-121.691s-17.985-9.846-34.747-8.138l-92.28-92.28-36.053 71.951 48.991 60.956-70.209 173.565z" fill="#ffb83b"/><path d="m384.049 164.89c-16.038-20.962-45.881-26.306-68.184-12.193-15.895 10.058-24.276 27.173-23.958 44.447l-53.423-53.424 49.016-49.015-31.5-31.504-61.753 61.751c-10.366 10.366-10.366 27.171 0 37.537l39.961 39.962-127.384 89.868 85.124 94.12 122.711-86.571c17.696-12.484 23.076-35.91 13.458-54.636 14.692 4.527 31.244 2.451 44.778-7.097 23.738-16.749 28.975-49.953 11.154-73.245z" fill="#4f4f4f"/><path d="m287.5 94.71-31.5 31.49v-63z" fill="#3a3a3a"/><path d="m372.89 238.13c-13.53 9.55-30.08 11.63-44.77 7.1 9.61 18.73 4.23 42.15-13.46 54.64l-58.66 41.38v-180.01l35.91 35.9c-.32-17.27 8.06-34.38 23.96-44.44 22.3-14.12 52.14-8.77 68.18 12.19 17.82 23.29 12.58 56.5-11.16 73.24z" fill="#3a3a3a"/><path d="m510.61 282.84c-6.57 63.04-36.01 119.27-79.88 160.26-52.67 4.64-112.13-3.46-175.05-3.46-62.57 0-121.7 8.12-174.15 3.7-44.08-41.07-73.65-97.52-80.17-160.8 3.33-1.57 6.59-3.35 9.75-5.34 29.88-18.86 67.93-18.86 97.81 0h.02c14.94 9.41 31.92 14.14 48.91 14.14 16.96 0 33.96-4.73 48.89-14.14 14.95-9.42 31.93-14.13 48.92-14.13 16.98 0 33.98 4.71 48.91 14.13 29.89 18.85 67.95 18.85 97.83 0h.02c29.87-18.86 67.93-18.86 97.82 0h.01c3.36 2.12 6.82 4 10.36 5.64z" fill="#7dd3f2"/><path d="m510.61 282.84c-6.57 63.04-36.01 119.27-79.88 160.26l-.01.01c-52.55 4.62-111.86-3.43-174.62-3.47v-176.57c16.83.07 33.68 4.79 48.48 14.13 29.88 18.85 67.94 18.85 97.83 0h.01c29.87-18.86 67.93-18.86 97.82 0h.01c3.36 2.12 6.82 4 10.36 5.64z" fill="#4caed8"/><path d="m486.22 368.1c-13.82 28.32-32.71 53.72-55.49 75l-.01.01c-45.73 42.7-107.12 68.86-174.62 68.89h-.1c-67.42 0-128.75-26.07-174.47-68.66-24.15-22.5-43.94-49.62-57.97-79.94 9.87-3.77 20.2-5.65 30.53-5.65 16.99 0 33.96 5.09 48.92 15.25 14.94 10.16 31.93 15.25 48.91 15.25 16.99 0 33.96-5.09 48.91-15.25 29.88-20.33 67.93-20.33 97.81 0h.02c29.88 20.36 67.93 20.36 97.82 0h.01c27.25-18.54 61.28-20.17 89.73-4.9z" fill="#488eff"/><path d="m486.22 368.1c-13.82 28.32-32.71 53.72-55.49 75l-.01.01c-45.73 42.7-107.12 68.86-174.62 68.89v-154.02c14.83 1.12 29.46 6.12 42.54 15.02h.01c29.89 20.36 67.94 20.36 97.82 0h.01c27.26-18.54 61.3-20.17 89.74-4.9z" fill="#2566e8"/></g></svg>