<?xml version="1.0" encoding="iso-8859-1"?>
<!-- Generator: Adobe Illustrator 19.0.0, SVG Export Plug-In . SVG Version: 6.00 Build 0)  -->
<svg version="1.1" id="Capa_1" xmlns="http://www.w3.org/2000/svg" xmlns:xlink="http://www.w3.org/1999/xlink" x="0px" y="0px"
	 viewBox="0 0 512 512" style="enable-background:new 0 0 512 512;" xml:space="preserve">
<circle style="fill:#2789E1;" cx="256" cy="256" r="256"/>
<path style="fill:#1D67BC;" d="M508.011,301.261L277.75,71l0.969,7.718L266,66l-5.86,30.89L234.25,71l-116,209l78.098,78.098
	L120.31,413l95.921,95.921C229.192,510.942,242.472,512,256,512C381.94,512,486.639,421.058,508.011,301.261z"/>
<polygon style="fill:#F0F0F0;" points="234.25,71 118.25,280 234.25,280 "/>
<polygon style="fill:#E0E0E0;" points="277.75,71 393.75,280 277.75,280 "/>
<rect x="246" y="66" style="fill:#FEEC65;" width="20" height="281"/>
<g>
	<rect x="255.57" y="66" style="fill:#FCD748;" width="10.429" height="281"/>
	<rect x="158" y="299" style="fill:#FCD748;" width="196" height="58"/>
</g>
<rect x="255.57" y="299" style="fill:#FABF40;" width="98.43" height="58"/>
<polygon style="fill:#BCDEFA;" points="342,413 120.31,413 86.31,315 452,315 "/>
<polygon style="fill:#92CBF7;" points="452,315 255.571,315 255.571,413 342,413 "/>
<g>
</g>
<g>
</g>
<g>
</g>
<g>
</g>
<g>
</g>
<g>
</g>
<g>
</g>
<g>
</g>
<g>
</g>
<g>
</g>
<g>
</g>
<g>
</g>
<g>
</g>
<g>
</g>
<g>
</g>
</svg>
