<svg enable-background="new 0 0 512 512" height="512" viewBox="0 0 512 512" width="512" xmlns="http://www.w3.org/2000/svg"><g id="BULINE"><path id="XMLID_152_" d="m512 256c0 70.692-28.654 134.692-74.981 181.019s-110.327 74.981-181.019 74.981-134.692-28.654-181.019-74.981-74.981-110.327-74.981-181.019 28.654-134.692 74.981-181.019 110.327-74.981 181.019-74.981 134.692 28.654 181.019 74.981 74.981 110.327 74.981 181.019z" fill="#00baef"/></g><g id="Icons"><g id="XMLID_20_"><g id="XMLID_161_"><path id="XMLID_187_" d="m398.31 468.83c-1.42.95-2.848 1.885-4.285 2.806s-2.885 1.829-4.345 2.724h-133.68-133.68c-.67-.41-1.338-.823-2.003-1.238s-1.327-.832-1.987-1.252c-.995-.635-1.982-1.277-2.965-1.926s-1.96-1.304-2.935-1.964l2.95-4.95 2.95-4.95 4.085-6.86 4.085-6.86h131.67 131.67l4.235 12.235z" fill="#a04830"/></g><path id="XMLID_181_" d="m169.77 444.36-8.575 15-8.575 15h-15.15-15.15c-.67-.41-1.338-.823-2.003-1.238s-1.327-.832-1.987-1.252v-13.755-13.755h25.72z" fill="#873d2b"/><g id="XMLID_158_"><path id="XMLID_159_" d="m369.027 429.359h-114.073-114.073v-15-15h114.073 114.073v15z" fill="#a04830"/></g><g fill="#873d2b"><path id="XMLID_157_" d="m191.171 399.359h-25.145-25.145v15 15h17.145 17.145l8-15z"/><path id="XMLID_156_" d="m336.921 444.359h25.717 25.718v15 15h-17.145-17.145l-8.573-15z"/><path id="XMLID_155_" d="m315.516 399.359h25.145 25.145v15 15h-17.145-17.145l-8-15z"/></g><g id="XMLID_153_"><path id="XMLID_190_" d="m167.56 377.34-1.265 3.235-1.265 3.235v.005.005l-3.015 7.705-3.015 7.705-.025.065-.025.065-5.87 15-5.87 15-2.93 7.5-2.93 7.5-5.87 15-5.87 15-.69 1.76-.69 1.76c-.995-.575-1.985-1.155-2.97-1.741s-1.965-1.179-2.94-1.779c-.67-.41-1.338-.823-2.003-1.238s-1.327-.832-1.987-1.252c-.995-.635-1.982-1.277-2.965-1.926s-1.96-1.304-2.935-1.964c-1.66-1.13-3.307-2.277-4.941-3.443-1.634-1.165-3.254-2.347-4.859-3.547l14.17-36.23 14.17-36.23 2.395-6.125 2.395-6.125.11-.285.11-.285v-.005-.005l1.82-4.645 1.82-4.645 13.97 5.465z" fill="#a04830"/></g><g id="XMLID_151_"><path id="XMLID_193_" d="m406.64 463c-1.365 1-2.743 1.985-4.131 2.956-1.389.971-2.789 1.929-4.199 2.874-1.42.95-2.848 1.885-4.285 2.806s-2.885 1.829-4.345 2.724c-1.445.89-2.9 1.765-4.365 2.625s-2.94 1.705-4.425 2.535l-1.01-2.58-1.01-2.58-5.865-15-5.865-15-2.935-7.5-2.935-7.5-5.865-15-5.865-15-.005-.01-.005-.01-3.035-7.76-3.035-7.76-.005-.005-.005-.005-1.265-3.235-1.265-3.235 13.97-5.465 13.97-5.465 2.15 5.5 2.15 5.5.095.245.095.245 2.35 6 2.35 6 14.295 36.55z" fill="#a04830"/></g><path id="XMLID_150_" d="m139.618 366.408 13.97 5.465 13.97 5.465-4.28 10.945-4.28 10.945c-5.215-.37-10.245-1.517-14.96-3.336s-9.115-4.309-13.07-7.364l4.325-11.06z" fill="#873d2b"/><path id="XMLID_149_" d="m378.048 389.898c-4.08 2.87-8.58 5.163-13.375 6.771-4.795 1.609-9.885 2.534-15.145 2.669l-4.305-11-4.305-11 13.97-5.465 13.97-5.465 4.595 11.745z" fill="#873d2b"/><path id="XMLID_147_" d="m423.637 204.939-11.702-58.351-11.702-58.351c-2.434-12.137-8.98-22.572-18.013-29.973s-20.551-11.768-32.93-11.768h-28.173-28.173c.023-.388.042-.777.055-1.167s.02-.782.02-1.176c0-10.897-4.417-20.763-11.558-27.904s-17.007-11.556-27.904-11.556-20.763 4.417-27.904 11.558-11.558 17.007-11.558 27.904c0 .394.007.785.02 1.176.013.39.032.779.055 1.167h-25.166-25.166c-12.378 0-23.897 4.367-32.93 11.768s-15.579 17.836-18.013 29.973l-11.702 58.351-11.703 58.349c-.676 3.372-1.014 6.794-1.014 10.217s.338 6.845 1.014 10.217l11.702 58.351 11.702 58.351c2.434 12.137 8.98 22.572 18.013 29.973s20.551 11.768 32.93 11.768h92.726 92.726c12.378 0 23.897-4.367 32.93-11.768s15.579-17.836 18.013-29.973l11.702-58.351 11.702-58.351c.676-3.372 1.014-6.794 1.014-10.217s-.337-6.845-1.013-10.217z" fill="#4f4f74"/><path id="XMLID_146_" d="m214.001 46.418c0 10.923 4.427 20.812 11.586 27.97s17.047 11.586 27.97 11.586 20.812-4.427 27.97-11.586 11.586-17.047 11.586-27.97h-39.556z" fill="#32314b"/><path id="XMLID_145_" d="m400.225 336.461-.564 2.807-.564 2.807c-2.43 12.137-8.975 22.572-18.007 29.973-9.033 7.4-20.553 11.767-32.932 11.767h-92.724-92.724c-12.38 0-23.9-4.366-32.932-11.767-9.033-7.401-15.578-17.835-18.007-29.973l-11.703-58.353-11.703-58.353c-.676-3.371-1.015-6.793-1.015-10.215s.338-6.844 1.015-10.215l11.703-58.353 11.703-58.353c2.43-12.137 8.975-22.572 18.007-29.973s20.553-11.767 32.932-11.767h10.418 10.418l-11.14 55.545-11.14 55.545c-.676 3.371-1.015 6.793-1.015 10.215s.338 6.844 1.015 10.215l11.703 58.353 11.703 58.353c2.43 12.137 8.975 22.572 18.007 29.973 9.033 7.401 20.553 11.767 32.932 11.767h82.306 82.308z" fill="#3e436d"/><path id="XMLID_144_" d="m189.16 270.921c-4.501 0-8.769.995-12.597 2.777s-7.216 4.35-9.959 7.495c-2.743-3.146-6.131-5.714-9.959-7.495s-8.095-2.777-12.597-2.777c-8.263 0-15.744 3.349-21.159 8.764s-8.764 12.896-8.764 21.159 3.349 15.744 8.764 21.159 12.896 8.764 21.159 8.764c4.501 0 8.769-.995 12.597-2.777s7.216-4.35 9.959-7.495c2.743 3.146 6.131 5.714 9.959 7.495 3.828 1.782 8.095 2.777 12.597 2.777 8.263 0 15.744-3.349 21.159-8.764s8.764-12.896 8.764-21.159-3.349-15.744-8.764-21.159c-5.416-5.415-12.896-8.764-21.159-8.764z" fill="#32314b"/><path id="XMLID_143_" d="m380.564 202.46h-125.128-125.128c-1.815 0-3.428-.784-4.537-2.018-1.109-1.235-1.715-2.92-1.518-4.724l4.978-45.776 4.978-45.776c.164-1.545.899-2.903 1.982-3.876 1.082-.972 2.511-1.559 4.062-1.559h115.183 115.184c.107 0 .214.003.32.008.106.006.21.014.311.025 1.409.147 2.686.778 3.649 1.732s1.611 2.231 1.763 3.669l3.506 32.235 3.506 32.235 1.471 13.541 1.471 13.541c.197 1.804-.409 3.49-1.518 4.724-1.107 1.236-2.72 2.019-4.535 2.019z" fill="#a9defc"/><path id="XMLID_142_" d="m380.564 202.46h-125.128-125.128c-1.815 0-3.428-.784-4.537-2.018-1.109-1.235-1.715-2.92-1.518-4.724l4.978-45.776 4.978-45.776c.164-1.545.899-2.903 1.982-3.876 1.082-.972 2.511-1.559 4.062-1.559h24.049 24.049l-.479 4.386-.479 4.386c-.885 8.124.034 15.988 2.42 23.219s6.239 13.83 11.223 19.422c3.067 3.45 6.565 6.517 10.414 9.113s8.049 4.721 12.519 6.289c2.853.998 5.815 1.77 8.868 2.293s6.195.796 9.409.796h70.716 70.716l1.471 13.541 1.471 13.541c.197 1.804-.409 3.49-1.518 4.724-1.11 1.236-2.723 2.019-4.538 2.019z" fill="#9ecfe5"/><path id="XMLID_141_" d="m124.218 300.844c0 5.476 2.22 10.434 5.808 14.023 3.589 3.589 8.546 5.808 14.023 5.808s10.434-2.22 14.023-5.808 5.808-8.546 5.808-14.023c0-5.476-2.22-10.434-5.808-14.023s-8.546-5.808-14.023-5.808-10.434 2.22-14.023 5.808c-3.589 3.589-5.808 8.547-5.808 14.023z" fill="#f8d572"/><path id="XMLID_140_" d="m128.496 300.844c0 4.295 1.741 8.183 4.555 10.997s6.702 4.555 10.997 4.555 8.183-1.741 10.997-4.555 4.555-6.702 4.555-10.997-1.741-8.183-4.555-10.997-6.702-4.555-10.997-4.555-8.183 1.741-10.997 4.555c-2.814 2.815-4.555 6.703-4.555 10.997z" fill="#e8bd52"/><path id="XMLID_139_" d="m148.723 315.671c-.739.237-1.5.417-2.28.538-.781.121-1.581.183-2.399.183-4.296 0-8.183-1.739-10.996-4.552s-4.552-6.7-4.552-10.996 1.739-8.183 4.552-10.996 6.7-4.552 10.996-4.552c.817 0 1.618.062 2.399.183s1.542.302 2.28.538c-3.151.987-5.871 2.951-7.804 5.54-1.932 2.589-3.077 5.802-3.077 9.286s1.144 6.697 3.077 9.286c1.933 2.59 4.653 4.555 7.804 5.542z" fill="#d6aa47"/><path id="XMLID_138_" d="m173.608 300.844c0 4.295 1.741 8.183 4.555 10.997s6.702 4.555 10.997 4.555 8.183-1.741 10.997-4.555 4.555-6.702 4.555-10.997-1.741-8.183-4.555-10.997-6.702-4.555-10.997-4.555-8.183 1.741-10.997 4.555c-2.815 2.815-4.555 6.703-4.555 10.997z" fill="#e8bd52"/><path id="XMLID_137_" d="m169.329 300.844c0 5.476 2.22 10.434 5.808 14.023s8.546 5.808 14.023 5.808 10.434-2.22 14.023-5.808 5.808-8.546 5.808-14.023c0-5.476-2.22-10.434-5.808-14.023s-8.546-5.808-14.023-5.808-10.434 2.22-14.023 5.808-5.808 8.547-5.808 14.023z" fill="#f8d572"/><path id="XMLID_136_" d="m173.608 300.844c0 4.295 1.741 8.183 4.555 10.997s6.702 4.555 10.997 4.555 8.183-1.741 10.997-4.555 4.555-6.702 4.555-10.997-1.741-8.183-4.555-10.997-6.702-4.555-10.997-4.555-8.183 1.741-10.997 4.555c-2.815 2.815-4.555 6.703-4.555 10.997z" fill="#e8bd52"/><path id="XMLID_135_" d="m193.835 315.671c-.739.237-1.5.417-2.28.538-.781.121-1.581.183-2.399.183-4.296 0-8.183-1.739-10.996-4.552s-4.552-6.7-4.552-10.996 1.739-8.183 4.552-10.996 6.7-4.552 10.996-4.552c.817 0 1.618.062 2.399.183s1.542.302 2.28.538c-3.151.987-5.871 2.951-7.804 5.54-1.932 2.589-3.077 5.802-3.077 9.286s1.144 6.697 3.077 9.286c1.932 2.59 4.652 4.555 7.804 5.542z" fill="#d6aa47"/><path id="XMLID_134_" d="m146.071 296.334c0 1.038.421 1.977 1.101 2.658s1.62 1.101 2.658 1.101 1.977-.421 2.658-1.101 1.101-1.62 1.101-2.658-.421-1.977-1.101-2.658-1.62-1.101-2.658-1.101-1.977.421-2.658 1.101-1.101 1.621-1.101 2.658z" fill="#fce4a9"/><path id="XMLID_133_" d="m192.673 296.334c0 1.038.421 1.977 1.101 2.658s1.62 1.101 2.658 1.101 1.977-.421 2.657-1.101 1.101-1.62 1.101-2.658-.421-1.977-1.101-2.658c-.68-.68-1.62-1.101-2.657-1.101-1.038 0-1.977.421-2.658 1.101s-1.101 1.621-1.101 2.658z" fill="#fce4a9"/><path id="XMLID_132_" d="m363.211 270.921c-4.501 0-8.769.995-12.597 2.777s-7.216 4.35-9.959 7.495c-2.743-3.146-6.131-5.714-9.959-7.495s-8.095-2.777-12.597-2.777c-8.263 0-15.744 3.349-21.159 8.764s-8.764 12.896-8.764 21.159 3.349 15.744 8.764 21.159 12.896 8.764 21.159 8.764c4.501 0 8.769-.995 12.597-2.777s7.216-4.35 9.959-7.495c2.743 3.146 6.131 5.714 9.959 7.495 3.828 1.782 8.095 2.777 12.597 2.777 8.263 0 15.744-3.349 21.159-8.764s8.764-12.896 8.764-21.159-3.349-15.744-8.764-21.159c-5.416-5.415-12.896-8.764-21.159-8.764z" fill="#32314b"/><path id="XMLID_131_" d="m298.269 300.844c0 5.476 2.22 10.434 5.808 14.023s8.546 5.808 14.023 5.808c5.476 0 10.434-2.22 14.023-5.808s5.808-8.546 5.808-14.023c0-5.476-2.22-10.434-5.808-14.023s-8.546-5.808-14.023-5.808c-5.476 0-10.434 2.22-14.023 5.808s-5.808 8.547-5.808 14.023z" fill="#f8d572"/><path id="XMLID_130_" d="m302.547 300.844c0 4.295 1.741 8.183 4.555 10.997s6.702 4.555 10.997 4.555 8.183-1.741 10.997-4.555 4.555-6.702 4.555-10.997-1.741-8.183-4.555-10.997-6.702-4.555-10.997-4.555-8.183 1.741-10.997 4.555c-2.814 2.815-4.555 6.703-4.555 10.997z" fill="#e8bd52"/><path id="XMLID_129_" d="m322.774 315.671c-.739.237-1.5.417-2.28.538-.781.121-1.581.183-2.399.183-4.296 0-8.183-1.739-10.996-4.552s-4.552-6.7-4.552-10.996 1.739-8.183 4.552-10.996 6.7-4.552 10.996-4.552c.817 0 1.618.062 2.399.183s1.542.302 2.28.538c-3.151.987-5.871 2.951-7.804 5.54s-3.077 5.802-3.077 9.286 1.144 6.697 3.077 9.286c1.933 2.59 4.653 4.555 7.804 5.542z" fill="#d6aa47"/><path id="XMLID_128_" d="m347.659 300.844c0 4.295 1.741 8.183 4.555 10.997s6.702 4.555 10.997 4.555 8.183-1.741 10.997-4.555 4.555-6.702 4.555-10.997-1.741-8.183-4.555-10.997-6.702-4.555-10.997-4.555-8.183 1.741-10.997 4.555c-2.815 2.815-4.555 6.703-4.555 10.997z" fill="#e8bd52"/><path id="XMLID_127_" d="m343.38 300.844c0 5.476 2.22 10.434 5.808 14.023s8.546 5.808 14.023 5.808c5.476 0 10.434-2.22 14.023-5.808s5.808-8.546 5.808-14.023c0-5.476-2.22-10.434-5.808-14.023s-8.546-5.808-14.023-5.808c-5.476 0-10.434 2.22-14.023 5.808s-5.808 8.547-5.808 14.023z" fill="#f8d572"/><path id="XMLID_126_" d="m347.659 300.844c0 4.295 1.741 8.183 4.555 10.997s6.702 4.555 10.997 4.555 8.183-1.741 10.997-4.555 4.555-6.702 4.555-10.997-1.741-8.183-4.555-10.997-6.702-4.555-10.997-4.555-8.183 1.741-10.997 4.555c-2.815 2.815-4.555 6.703-4.555 10.997z" fill="#e8bd52"/><path id="XMLID_125_" d="m367.886 315.671c-.738.237-1.5.417-2.28.538-.781.121-1.581.183-2.399.183-4.296 0-8.183-1.739-10.996-4.552s-4.552-6.7-4.552-10.996 1.739-8.183 4.552-10.996 6.7-4.552 10.996-4.552c.817 0 1.618.062 2.399.183s1.542.302 2.28.538c-3.151.987-5.871 2.951-7.804 5.54s-3.077 5.802-3.077 9.286 1.144 6.697 3.077 9.286c1.932 2.59 4.652 4.555 7.804 5.542z" fill="#d6aa47"/><path id="XMLID_36_" d="m320.122 296.334c0 1.038.421 1.977 1.101 2.658s1.62 1.101 2.658 1.101 1.977-.421 2.658-1.101 1.101-1.62 1.101-2.658-.421-1.977-1.101-2.658-1.62-1.101-2.658-1.101-1.977.421-2.658 1.101-1.101 1.621-1.101 2.658z" fill="#fce4a9"/><path id="XMLID_35_" d="m366.724 296.334c0 1.038.421 1.977 1.101 2.658s1.62 1.101 2.658 1.101 1.977-.421 2.658-1.101c.68-.68 1.101-1.62 1.101-2.658s-.421-1.977-1.101-2.658c-.68-.68-1.62-1.101-2.658-1.101s-1.977.421-2.658 1.101-1.101 1.621-1.101 2.658z" fill="#fce4a9"/><path id="XMLID_34_" d="m226.41 44.906c0 7.497 3.039 14.283 7.951 19.196s11.7 7.951 19.196 7.951c7.497 0 14.283-3.039 19.196-7.951 4.913-4.913 7.951-11.7 7.951-19.196s-3.039-14.283-7.951-19.196c-4.913-4.913-11.7-7.951-19.196-7.951-7.497 0-14.283 3.039-19.196 7.951s-7.951 11.699-7.951 19.196z" fill="#f8d572"/><path id="XMLID_33_" d="m232.267 44.906c0 5.879 2.383 11.201 6.236 15.054s9.175 6.236 15.054 6.236 11.201-2.383 15.054-6.236 6.236-9.175 6.236-15.054-2.383-11.201-6.236-15.054-9.175-6.236-15.054-6.236-11.202 2.383-15.054 6.236-6.236 9.175-6.236 15.054z" fill="#e8bd52"/><path id="XMLID_32_" d="m259.957 65.203c-1.011.324-2.053.571-3.122.737s-2.165.251-3.284.251c-5.881 0-11.202-2.381-15.053-6.232s-6.232-9.172-6.232-15.053 2.381-11.202 6.232-15.053 9.172-6.232 15.053-6.232c1.119 0 2.215.085 3.284.251s2.111.413 3.122.737c-4.314 1.351-8.038 4.04-10.683 7.584s-4.212 7.943-4.212 12.712 1.567 9.168 4.212 12.712c2.645 3.546 6.369 6.235 10.683 7.586z" fill="#d6aa47"/><path id="XMLID_31_" d="m258.367 38.732c0 1.421.576 2.707 1.507 3.638s2.217 1.507 3.638 1.507 2.707-.576 3.638-1.507 1.507-2.217 1.507-3.638-.576-2.707-1.507-3.638-2.217-1.507-3.638-1.507-2.707.576-3.638 1.507-1.507 2.217-1.507 3.638z" fill="#fce4a9"/><path id="XMLID_30_" d="m290.772 98.732-33.402 33.407-33.402 33.408-18.457 18.456-18.457 18.457h-19.167-19.167l26.158-26.157 26.157-26.158 25.712-25.706 25.713-25.707h19.156z" fill="#fff"/><path id="XMLID_29_" d="m371.251 98.766-34.935 34.935-34.935 34.935-16.912 16.912-16.912 16.912h-19.162-19.162l51.864-51.864 51.864-51.864h18.829 18.829c.107 0 .214.003.32.008.106.006.211.015.312.026z" fill="#fff"/><path id="XMLID_28_" d="m259.946 208.391h-6.389-6.389v-59.005-59.005h6.389 6.389v59.005z" fill="#4f4f74"/><path id="XMLID_27_" d="m300.647 371.876h-49.737-49.736c-3.318 0-6.321-1.345-8.495-3.519s-3.519-5.178-3.519-8.495v-4.052-4.052c0-3.318 1.345-6.321 3.519-8.496 2.174-2.174 5.178-3.519 8.495-3.519h49.736 49.736c3.318 0 6.321 1.345 8.495 3.519s3.519 5.178 3.519 8.496v4.052 4.052c0 3.318-1.345 6.321-3.519 8.495-2.173 2.174-5.177 3.519-8.494 3.519z" fill="#32314b"/><path id="XMLID_26_" d="m362.513 152.299c0 2.335-1.812 4.449-4.742 5.979s-6.978 2.477-11.448 2.477-8.519-.946-11.448-2.477c-2.93-1.53-4.742-3.644-4.742-5.979s1.812-4.449 4.742-5.979 6.978-2.477 11.448-2.477 8.519.946 11.448 2.477c2.93 1.53 4.742 3.644 4.742 5.979z" fill="#d6f0fc"/><path id="XMLID_25_" d="m373.574 152.299c0 1.809-1.404 3.447-3.674 4.632-2.27 1.186-5.406 1.919-8.869 1.919s-6.6-.733-8.869-1.919c-2.27-1.186-3.674-2.823-3.674-4.632s1.404-3.447 3.674-4.632c2.27-1.186 5.406-1.919 8.869-1.919s6.6.733 8.869 1.919c2.27 1.185 3.674 2.823 3.674 4.632z" fill="#fff"/><path d="m247.168 206.46c-1.024 0-2.047-.391-2.829-1.171l-35.125-35.125h-71.127c-2.209 0-4-1.791-4-4s1.791-4 4-4h72.784c1.061 0 2.078.421 2.829 1.171l36.296 36.297c1.562 1.562 1.562 4.095 0 5.657-.781.781-1.805 1.171-2.828 1.171z" fill="#32314b"/><path d="m259.946 206.46c-1.023 0-2.047-.391-2.829-1.171-1.562-1.562-1.562-4.095 0-5.657l36.296-36.297c.75-.75 1.768-1.171 2.829-1.171h72.784c2.209 0 4 1.791 4 4s-1.791 4-4 4h-71.127l-35.125 35.125c-.78.781-1.804 1.171-2.828 1.171z" fill="#32314b"/><path id="XMLID_22_" d="m364.838 232.448c0 3.728-2.503 7.103-6.549 9.546s-9.635 3.954-15.809 3.954-11.763-1.511-15.809-3.954-6.548-5.818-6.548-9.546 2.503-7.103 6.548-9.546c4.046-2.443 9.635-3.954 15.809-3.954s11.763 1.511 15.809 3.954 6.549 5.818 6.549 9.546z" fill="#71719e"/><path id="XMLID_21_" d="m383.042 232.448c0 3.032-2.036 5.778-5.327 7.765s-7.838 3.216-12.86 3.216-9.569-1.229-12.86-3.216-5.327-4.732-5.327-7.765 2.036-5.778 5.327-7.765 7.838-3.216 12.86-3.216 9.569 1.229 12.86 3.216 5.327 4.732 5.327 7.765z" fill="#7d7daa"/></g></g></svg>