<svg viewBox="0 0 512 512" xmlns="http://www.w3.org/2000/svg"><path d="m512 256c0 141.386719-114.613281 256-256 256s-256-114.613281-256-256 114.613281-256 256-256 256 114.613281 256 256zm0 0" fill="#7c00ff"/><path d="m512 256c0-14.074219-1.152344-27.878906-3.339844-41.335938l-68.332031-68.332031-1.316406 1.742188-30.769531-30.769531-.660157.941406-27.25-27.246094-26.832031 41.527344-37.527344-37.527344-11.152344 49-201.0625 91 45.011719 45.011719-14.4375 5.652343 55.785157 55.789063-101.554688 54.839844 109 109c18.769531 4.382812 38.332031 6.707031 58.4375 6.707031 141.386719 0 256-114.613281 256-256zm0 0" fill="#530ac6"/><path d="m406.546875 146.332031h33.78125v81.332031h-33.78125zm0 0" fill="#00edff"/><path d="m103.757812 117.304688v117.695312h69.601563l20.664063-28h108.667968v101.332031h-198.933594v75.375h304.484376v-266.402343zm0 0" fill="#fff"/><path d="m103.757812 308.332031h151.847657v75.375h-151.847657zm0 0" fill="#fff"/><path d="m408.242188 117.304688h-152.636719v89.695312h47.085937v101.332031h-47.085937v75.375h152.636719zm0 0" fill="#dce1eb"/><path d="m336.332031 207.667969h44.8125v124.667969h-44.8125zm0 0" fill="#b9c3cd"/><path d="m391.667969 166c0 17.488281-14.179688 31.667969-31.667969 31.667969s-31.667969-14.179688-31.667969-31.667969 14.179688-31.667969 31.667969-31.667969 31.667969 14.179688 31.667969 31.667969zm0 0" fill="#00edff"/><path d="m134.332031 235h19.332031v50.667969h-19.332031zm0 0" fill="#d2dce1"/><path d="m336.332031 91h44v26.304688h-44zm0 0" fill="#c8d2dc"/><path d="m293.667969 95h22.304687v22.304688h-22.304687zm0 0" fill="#c8d2dc"/><path d="m88.5625 352.792969h334.875v43.5h-334.875zm0 0" fill="#d2dce1"/><path d="m255.605469 352.792969h167.832031v43.496093h-167.832031zm0 0" fill="#b9c3cd"/></svg>