<svg id="Layer_1" enable-background="new 0 0 512 512" height="512" viewBox="0 0 512 512" width="512" xmlns="http://www.w3.org/2000/svg"><g><path d="m102.229 457.722c42.044 33.942 95.528 54.278 153.771 54.278 58.242 0 111.726-20.336 153.771-54.278l24.821-23.024c41.174-43.832 66.407-102.814 66.407-167.697 0-135.309-109.69-244.999-244.999-244.999s-244.999 109.69-244.999 244.999c0 64.883 25.233 123.865 66.407 167.697z" fill="#ff4155"/><path d="m91.684 384.789s-5.76 23.359-14.277 49.909c7.732 8.231 16.026 15.924 24.821 23.024 6.339-33.375 15.753-65.886 15.753-65.886l-13.149-3.523z" fill="#bec8f7"/><path d="m434.592 434.698c-8.517-26.55-14.277-49.909-14.277-49.909l-13.149 3.523-13.149 3.523s9.414 32.511 15.753 65.886c8.796-7.099 17.09-14.792 24.822-23.023z" fill="#bec8f7"/><path d="m49.577 236.504.22-.218c.091-.091 9.296-9.103 24.145-13.605 19.908-6.037 39.855-1.409 59.289 13.755 30.892 24.104 58.326 22.794 75.902 17.454 15.038-4.571 25.402-12.617 29.323-16.025 6.556-50.463 8.639-96.84 9.263-116.399.183-5.729-3.6-10.827-9.137-12.31l-109.998-29.474c-5.537-1.484-11.362 1.04-14.068 6.093-11.153 20.823-40.006 76.542-61.97 135.204-2.059 5.5-3.551 10.946-4.568 16.318z" fill="#e9efff"/><path d="m128.584 79.682c-5.538-1.484-11.362 1.04-14.068 6.093-11.153 20.823-40.006 76.542-61.97 135.204-2.059 5.5-3.551 10.946-4.568 16.318l1.599-.792.22-.218c.091-.091 9.296-9.103 24.145-13.605 12.244-3.713 24.502-3.385 36.647.94 10.175-46.115 29.817-85.834 36.447-100.077 11.603-24.924 29.7-29.145 33.997-29.808z" fill="#bec8f7"/><path d="m274.959 241.682c.832-.91 9.874-10.514 25.224-15.41 21.275-6.785 44.913-1.367 68.366 15.669 25.365 18.425 49.713 14.086 65.672 7.2 15.243-6.575 25.659-16.403 28.155-18.896l.043.014c-.821-3.074-1.8-6.168-2.964-9.28-21.965-58.661-50.817-114.381-61.97-135.204-2.706-5.053-8.531-7.576-14.068-6.093l-109.998 29.474c-5.537 1.483-9.32 6.581-9.137 12.31.644 20.205 2.846 69.024 9.926 121.406z" fill="#e9efff"/><path d="m134.183 364.258c-2.054-2.037-4.64-3.591-7.634-4.393l-26.299-7.047c-2.862-.767-5.744-.745-8.436-.098l-.701 1.315.571 30.755 26.298 7.047 15.871-26.349.551-1.304c-.072.024-.149.05-.221.074z" fill="#ff9100"/><path d="m377.817 364.258c2.054-2.037 4.64-3.591 7.634-4.393l26.299-7.047c2.862-.767 5.744-.745 8.436-.098l.701 1.315-.571 30.755-26.298 7.047-15.872-26.349-.551-1.304c.073.024.15.05.222.074z" fill="#ff9100"/><path d="m134.405 236.203c51.3 40.028 92.869 9.917 102.381 1.844l2.051-3.117s-49.278-41.391-104.432 0c-.288.216-.552.427-.833.641.278.212.554.415.833.632z" fill="#ffb332"/><path d="m369.298 242.184c45.418 32.99 87.617-7.005 92.283-11.674l.434-1.715s-45.68-45.76-99.167 7.727c-.266.265-.507.523-.767.787 2.369 1.486 4.773 3.099 7.217 4.875z" fill="#ffb332"/><g><path d="m255.283 53.037c-5.273 0-9.548-4.274-9.548-9.548v-33.941c0-5.274 4.275-9.548 9.548-9.548s9.548 4.274 9.548 9.548v33.941c0 5.274-4.275 9.548-9.548 9.548z" fill="#ffdd40"/></g><g><path d="m208.342 66.888-24-23.999c-3.729-3.73-3.729-9.774 0-13.504 3.728-3.727 9.774-3.727 13.503 0l24 23.999c3.729 3.73 3.729 9.774 0 13.504-3.73 3.729-9.774 3.727-13.503 0z" fill="#ffb332"/></g><g><path d="m288.721 66.888c-3.729-3.729-3.729-9.774 0-13.504l24-23.999c3.729-3.727 9.775-3.727 13.503 0 3.729 3.73 3.729 9.774 0 13.504l-24 23.999c-3.731 3.729-9.775 3.727-13.503 0z" fill="#ffb332"/></g><path d="m134.405 234.93c-48.11-37.539-85.953 0-85.953 0-12.026 55.916 29.249 104.059 42.662 119.105 2.796-.737 5.813-.789 8.808.013l26.299 7.046c2.994.803 5.58 2.357 7.634 4.394 20.713-6.844 89.084-30.941 99.93-95.946 1.934-11.593 3.607-23.218 5.053-34.611-.002 0-45.882 45.685-104.433-.001z" fill="#ffdd40"/><path d="m256 512c39.242 0 76.32-9.241 109.202-25.643-3.634-63.815-51.131-114.32-109.202-114.32s-105.568 50.505-109.202 114.32c32.881 16.402 69.96 25.643 109.202 25.643z" fill="#ff7186"/><path d="m310.472 137.513c-2.209-25.064 8.957-37.822 13.467-41.895l-50.521 13.537c-5.537 1.483-9.32 6.581-9.137 12.31.644 20.205 2.846 69.024 9.926 121.406l.751-1.19c.832-.91 9.874-10.514 25.224-15.41 7.547-2.407 15.393-3.27 23.421-2.632-9.676-38.066-11.945-72.664-13.131-86.126z" fill="#bec8f7"/><path d="m99.921 354.047 26.298 7.046c2.795.749 5.228 2.159 7.21 3.999-34.171-40.708-33.263-95.594-22.437-143.312-36.423-12.752-62.541 13.149-62.541 13.149-12.026 55.916 29.249 104.059 42.662 119.105 2.797-.736 5.814-.789 8.808.013z" fill="#ffb332"/><path d="m369.298 240.911c-58.188-42.266-95.348-.009-95.357 0 1.26 9.466 2.678 19.059 4.275 28.631 10.846 65.005 79.217 89.103 99.93 95.946 2.054-2.037 4.64-3.591 7.634-4.394l26.299-7.046c2.994-.802 6.01-.749 8.807-.013 13.901-15.593 57.724-66.737 41.128-125.24.001-.001-44.552 47.101-92.716 12.116z" fill="#ffdd40"/><path d="m323.267 222.288c-31.02-2.189-49.32 18.616-49.325 18.623 1.26 9.466 2.678 19.059 4.275 28.631 10.846 65.005 79.217 89.103 99.93 95.946 2.054-2.037 4.64-3.591 7.634-4.394l26.299-7.046c2.994-.802 6.01-.749 8.807-.013-57.511-20.081-84.526-79.406-97.62-131.747z" fill="#ffb332"/></g></svg>