<svg id="Capa_1" enable-background="new 0 0 512 512" height="512" viewBox="0 0 512 512" width="512" xmlns="http://www.w3.org/2000/svg"><g><path d="m512 255.959c0 65.229-24.402 124.754-64.573 169.957-4.854 5.467-9.943 10.72-15.247 15.736-4.721-.962-241.254-49.236-352.389-.031-5.294-5.007-10.363-10.249-15.206-15.706-2.581-2.897-5.1-5.867-7.547-8.887h-.01c-35.657-43.993-57.028-100.038-57.028-161.069 0-45.612 11.93-88.439 32.85-125.522.225-.389.461-.778.686-1.177.01-.02.02-.041.031-.061.01-.031.021-.051.031-.061s.01-.02.021-.031c.01-.02.021-.041.041-.061.01-.02.021-.031.031-.041 44.082-77.076 127.138-129.005 222.309-129.005 80.66 0 152.586 37.288 199.496 95.565v9.839c0 7.024 5.704 12.726 12.728 12.726h3.502c2.304 3.583 4.516 7.228 6.625 10.924.01.01.031.031.041.061.174.287.348.584.512.88.021.041.051.092.082.133 21.013 37.157 33.014 80.096 33.014 125.831z" fill="#ffe706"/><g><path d="m512 255.959c0 65.229-24.402 124.754-64.573 169.957-4.854 5.467-9.943 10.72-15.247 15.736-4.721-.962-241.254-49.236-352.389-.031-5.294-5.007-10.363-10.249-15.206-15.706-2.581-2.897-5.1-5.867-7.547-8.887h-.01c-35.657-43.993-57.028-100.038-57.028-161.069 0-45.612 11.93-88.439 32.85-125.522.225-.389.461-.778.686-1.177.01-.02.02-.041.031-.061.01-.031.021-.051.031-.061s.01-.02.021-.031c.01-.02.021-.041.041-.061.01-.02.021-.031.031-.041 25.395 44.383 63.693 80.422 109.824 102.998 5.222 2.56 10.598 4.966 16.026 7.167 29.03 11.825 60.723 18.48 93.901 18.787h5.12c33.178-.307 64.87-6.962 93.901-18.787 5.427-2.201 10.803-4.607 16.026-7.167 46.08-22.576 84.429-58.615 109.824-102.998.01.021.021.031.041.051.01.01.031.031.041.061.02.041.041.092.072.143.143.246.287.491.44.737.021.041.051.092.082.133 21.01 37.155 33.011 80.094 33.011 125.829z" fill="#ffbf03"/></g><g><path d="m180.745 283.123-.655 9.317c-6.943 2.089-13.937 3.317-20.859 3.768-18.227 1.147-36.035-3.143-51.415-11.795-.01 0-.01-.01-.01-.02-7.619-7.587-13.67-17.211-17.275-29.19l-5.151-17.159c-9.206-30.654 4.219-61.799 29.983-69.539 10.731-3.215 19.794-2.877 27.525.072 27.187 31.718 40.796 72.866 37.857 114.546z" fill="#ff3500"/><path d="m180.745 283.123-.655 9.317c-18.227 1.147-23.665.624-39.045-8.027-.01 0-.01-.01-.01-.02-7.619-7.587-13.67-17.211-17.275-29.19l-5.151-17.159c-9.206-30.654-1.485-61.727 24.279-69.467 27.187 31.718 40.796 72.866 37.857 114.546z" fill="#f20038"/><path d="m229.155 194.87 5.154 17.16c3.599 11.983 3.864 23.331 1.682 33.864l.003.01c-8.062 15.698-20.574 29.108-36.43 38.187-6.022 3.444-12.541 6.267-19.475 8.349l-37.204-123.866c4.825-6.719 12.201-11.991 22.92-15.21l.01-.003c25.775-7.739 54.134 10.857 63.34 41.509z" fill="#c8002b"/></g><g><g><path d="m332.292 333.975-8.385 11.308c-.234-.07-.464-.131-.696-.208-29.935-9.921-23.541-34.734-13.619-64.664l1.103-13.54.98-12.073 1.718-21.129.98-12.073 2.099-25.888.218-2.647c.259-3.156.767-6.221 1.506-9.18 7.539-30.326 39.091-49.8 70.112-40.504.537.163 1.072.332 1.604.509.232.077.453.165.685.242l-.358 19.588c-1.124 61.398-21.379 120.918-57.947 170.259z" fill="#ff8b2b"/><path d="m332.292 333.975-8.385 11.308c-19.226-6.372-6.179-28.957 3.744-58.887l2.195-13.178 1.956-11.75 3.417-20.566 1.956-11.75 4.187-25.196.437-2.574c.511-3.072 1.184-6.083 1.997-9.017 8.351-30.057 26.774-53.89 46.799-48.238l-.358 19.588c-1.122 61.399-21.377 120.919-57.945 170.26z" fill="#fc7d1d"/><path d="m420.635 227.51-1.413 2.251-6.427 10.268-12.193 19.483-6.427 10.268-20.04 32.022c-4.961 14.965-9.864 28.382-17.271 36.81-7.407 8.429-17.308 11.88-32.283 6.918-.225-.075-.453-.165-.676-.247l66.689-201.156c.225.075.462.138.687.213.539.179 1.069.362 1.597.552 22.874 8.323 36.28 29.852 36.397 52.279.032 3.994-.371 8.019-1.212 11.997-1.334 6.312-3.784 12.514-7.428 18.342z" fill="#f9621e"/><path d="m428.065 209.167-29.416-9.749c-1.543-.511-2.734-1.603-3.409-2.947-.675-1.345-.833-2.95-.321-4.492 1.023-3.084 4.349-4.754 7.434-3.732l26.925 8.923c.031 3.995-.372 8.02-1.213 11.997z" fill="#e55015"/><path d="m419.222 229.761-6.427 10.268-32.419-10.744c-1.542-.511-2.733-1.603-3.409-2.947-.682-1.347-.839-2.952-.328-4.494 1.022-3.084 4.348-4.754 7.44-3.729z" fill="#e55015"/><path d="m400.602 259.512-6.427 10.268-16.988-5.63c-1.542-.511-2.733-1.603-3.409-2.947-.675-1.345-.833-2.949-.321-4.492 1.023-3.084 4.349-4.754 7.434-3.732z" fill="#e55015"/><g fill="#f9621e"><path d="m330.211 267.136c-1.022 3.085-4.358 4.759-7.443 3.736l-12.073-4.001.98-12.073 14.797 4.904c1.543.511 2.733 1.603 3.409 2.948.675 1.344.841 2.944.33 4.486z"/><path d="m346.41 238.41c-1.03 3.09-4.35 4.76-7.44 3.74l-3.75-1.24-21.83-7.24.98-12.07 22.81 7.56 5.5 1.82c1.54.51 2.73 1.6 3.4 2.94.68 1.35.84 2.95.33 4.49z"/><path d="m352.04 201.29c-1.02 3.09-4.36 4.76-7.44 3.74l-3.24-1.07-24.89-8.25.22-2.65c.26-3.16.77-6.22 1.51-9.18l25.6 8.49 4.5 1.49c1.54.51 2.74 1.59 3.41 2.94.68 1.34.84 2.95.33 4.49z"/></g></g></g><g><path d="m255.99 113.595c-1.843-.102-3.768.491-5.151 1.956l-28.723 30.234c-42.639 44.895-45.076 107.912-6.001 155.019l34.488 41.568c1.362 1.648 3.41 2.324 5.386 2.222l11.042-65.38c5.257-31.129 5.394-62.907.406-94.079z" fill="#ace334"/><path d="m256 113.591c-.895-.095-1.819.498-2.488 1.958l-13.842 30.234c-20.552 44.894-21.727 107.908-2.891 155.021l16.619 41.566c.661 1.649 1.647 2.326 2.603 2.225l20.339-70.809c8.389-29.205 8.389-60.181 0-89.386z" fill="#56c126"/><path d="m295.875 300.805-34.482 41.566c-1.371 1.649-3.418 2.326-5.4 2.225v-231.005c1.857-.095 3.774.498 5.162 1.958l28.72 30.234c42.642 44.895 45.081 107.908 6 155.022z" fill="#06995a"/></g><path d="m178.392 489.372-7.978 7.976c-28.211-10.003-54.149-24.807-76.82-43.441-4.762-3.911-9.39-7.996-13.855-12.266-.983-11.16-1.475-22.361-1.475-33.561 0-32.988 4.26-65.976 12.78-98.125 3.84-14.477 16.937-24.552 31.918-24.552h81.603c.728 1.24 1.445 2.486 2.15 3.735 36.799 65.28 24.671 147.249-28.323 200.234z" fill="#384c81"/><path d="m256 512c-13.65 0-27.044-1.065-40.11-3.123-15.677-2.467-30.884-6.358-45.476-11.529-7.035-29.343-10.547-59.301-10.547-89.268 0-32.988 4.26-65.976 12.779-98.125 3.84-14.477 16.937-24.552 31.918-24.552h51.436l10.557 24.152c26.368 60.295-7.977 202.445-10.557 202.445z" fill="#303b5a"/><path d="m433.736 408.081c0 11.211-.491 22.422-1.485 33.592-44.165 41.936-103.291 68.29-168.55 70.215-2.56.072-5.12.113-7.7.113v-226.596h133.038c14.971 0 28.078 10.075 31.908 24.552 8.519 32.148 12.789 65.136 12.789 98.124z" fill="#243047"/><g><path d="m159.867 310.745h-98.048v-35.967h98.048l.747.696c10.394 9.593 10.046 26.117-.747 35.271z" fill="#303b5a"/><path d="m264.448 306.915-8.448 3.83h-96.133v-35.967h96.133l8.612 4.024c11.981 5.589 11.878 22.656-.164 28.113z" fill="#243047"/></g><path d="m256 274.777h194.171v35.967h-194.171z" fill="#1b2535"/><g><path d="m208.31 103.16-6.711 14.244c-9.496 20.141-25.835 36.248-46.107 45.451l-12.602 5.721c0-36.126 29.288-65.416 65.42-65.416z" fill="#56c126"/><path d="m142.888 168.577c36.133 0 65.424-29.287 65.424-65.414z" fill="#06995a"/></g><g><path d="m464.62 107.605c-4.198 10.217-11.78 18.74-21.572 23.853-11.548 6.03-24.223 9.859-37.38 11.173l-15.073 1.495c9.789-28.852 36.178-47.383 64.901-48.56 3.164 3.92 6.205 7.934 9.124 12.039z" fill="#56c126"/><path d="m471.726 118.13c-17.889 24.91-50.575 36.356-81.132 25.995l74.025-36.52c1.249 1.751 2.468 3.512 3.666 5.293 1.168 1.731 2.325 3.471 3.441 5.232z" fill="#06995a"/><path d="m390.598 144.127c-37.442-12.696-57.503-53.34-44.805-90.776l10.154 10.284c17.456 17.674 28.806 40.469 32.398 65.057z" fill="#56c126"/><path d="m390.596 144.127c12.698-37.437-7.361-78.077-44.804-90.774z" fill="#06995a"/></g></g><g fill="#e55015"><path d="m346.08 233.92c.68 1.35.84 2.95.33 4.49-1.03 3.09-4.35 4.76-7.44 3.74l-3.75-1.24v-.01l1.96-11.74 5.5 1.82c1.54.51 2.73 1.6 3.4 2.94z"/><path d="m352.04 201.29c-1.02 3.09-4.36 4.76-7.44 3.74l-3.24-1.07.44-2.58c.51-3.07 1.18-6.07 2-9.01l4.5 1.49c1.54.51 2.74 1.59 3.41 2.94.68 1.34.84 2.95.33 4.49z"/></g></svg>