<svg id="Icons" height="512" viewBox="0 0 512 512" width="512" xmlns="http://www.w3.org/2000/svg"><circle cx="256" cy="256" fill="#0989d8" r="256"/><path d="m473.6 290.86c0 9.08-6.29 18.18-17.39 18.82-18-1.18-27.37 21.33-13.36 33 15.75 12.45 2 39.19-18.37 31.8-15.43-6.16-31.69 11.38-22.54 26.87a18.89 18.89 0 0 1 2.71 9.57c0 14.29-17.7 25.19-30.84 14a18.26 18.26 0 0 0 -11.93-4.48c-10.75 0-20.72 9.55-18.46 22a20.47 20.47 0 0 1 .35 3.73c0 18-25.13 25.9-34.86 8.84a18.18 18.18 0 0 0 -16.06-9.41c-8.62-.2-17.16 6.36-18.48 15.5-3.55 20.66-33.19 20.65-36.74 0a18.45 18.45 0 0 0 -18.48-15.5 18.19 18.19 0 0 0 -16.06 9.41 17.89 17.89 0 0 1 -15.84 9.47c-10.59 0-21.06-8.89-18.67-22a19.74 19.74 0 0 0 .32-3.54c0-15.19-18.29-24.52-30.71-14a18.32 18.32 0 0 1 -12 4.59c-12.91 0-24.25-14.38-16.18-28.2a18.53 18.53 0 0 0 2.63-9.41c0-12-12.14-22.28-25.17-17.46-18.25 7.47-35.16-17.83-18.37-31.8a18.2 18.2 0 0 0 6.77-14.17 18.59 18.59 0 0 0 -18.77-18.79c-20.91.12-26.14-29.1-6.38-36.18 16.09-5.43 16.71-29.23 0-35.08a18 18 0 0 1 -12.32-17.3 18.61 18.61 0 0 1 20.1-18.89 18.63 18.63 0 0 0 17.37-20 18.18 18.18 0 0 0 -6.72-12.93 18 18 0 0 1 -6.86-14c0-10.24 8.71-20 20.1-19 3.78.27 8 2.65 11.74 2.4a18.84 18.84 0 0 0 18.49-20.14 18.55 18.55 0 0 0 -2.56-7.94 19 19 0 0 1 -2.71-9.57c0-15.26 19.07-24.7 30.84-14 12.05 10.64 32.05 1 30.64-15.64-3.34-13.44 6.8-24.62 19.56-23.9a17.9 17.9 0 0 1 14.7 9.43 18.19 18.19 0 0 0 16.06 9.41 18.45 18.45 0 0 0 18.48-15.5 20.23 20.23 0 0 1 1.37-4.61 18.16 18.16 0 0 1 17-10.91c8.33 0 16.59 5.17 18.37 15.49 2.94 17.24 25.88 21.29 34.54 6.09 9.88-17.87 38.21-8.51 34.51 12.57a19.74 19.74 0 0 0 -.32 3.5c0 15.19 18.29 24.52 30.71 14 14.79-13.31 39 4.75 28.13 23.61-8.75 14.18 5.66 33.14 22.54 26.87a19.55 19.55 0 0 1 6.84-1.27c15.95 0 25.72 21.3 11.53 33.07a18.2 18.2 0 0 0 -6.77 14.17 18.59 18.59 0 0 0 18.92 18.83c17.1 0 23.9 19.73 14.19 30.93a19 19 0 0 1 -7.92 5.24 18.63 18.63 0 0 0 0 35.08 17.93 17.93 0 0 1 12.33 17.33z" fill="#29a3fb"/><path d="m247.44 231.3 14.56 54.45a46.52 46.52 0 0 1 -32.9 57l-38.55 10.33a46.52 46.52 0 0 1 -57-32.9l-14.55-54.47a46.55 46.55 0 0 1 4.16-34.45 46.55 46.55 0 0 0 4.17-34.45l-10.61-39.59a31.06 31.06 0 0 1 22-38l18.44-4.94 1-.26a31.07 31.07 0 0 1 37 22.22l10.6 39.59a46.58 46.58 0 0 0 20.84 27.75 46.51 46.51 0 0 1 20.84 27.72z" fill="#14a36d"/><path d="m226.61 203.54a46.58 46.58 0 0 1 -20.84-27.75l-10.6-39.59a31.08 31.08 0 0 0 -28.78-23 9 9 0 0 1 5.11 5.57c1.78 6.64-6.4 14.61-18.27 17.79a37.77 37.77 0 0 1 -6.33 1.15 11 11 0 0 0 -9.79 13.54l.12.47 10.61 39.59a46 46 0 0 1 -4.05 34.24 46.45 46.45 0 0 0 -4.29 34.66l14.59 54.45a46.54 46.54 0 0 0 57 32.9l18-4.84a46.52 46.52 0 0 0 32.9-57l-14.55-54.42a46.51 46.51 0 0 0 -20.83-27.76z" fill="#15be79"/><ellipse cx="183.94" cy="154.28" fill="#33db92" rx="10.43" ry="27.66" transform="matrix(.966 -.259 .259 .966 -33.66 52.86)"/><ellipse cx="225.99" cy="240.64" fill="#33db92" rx="12.71" ry="27.66" transform="matrix(.97 -.26 .26 .97 -54.58 66.69)"/><ellipse cx="239.82" cy="292.27" fill="#33db92" rx="8.59" ry="21.85" transform="matrix(.966 -.259 .259 .966 -67.47 72.03)"/><path d="m147.11 97.89a6.68 6.68 0 0 0 -.32 6.48l8.26 16.63a6.65 6.65 0 1 1 -11.94 5.86l-7.26-15a37.87 37.87 0 0 1 -3-24l1.7-8.46a6.63 6.63 0 0 1 8-5.17l7.8 1.77a6.64 6.64 0 0 1 4.2 10z" fill="#7a2b13"/><path d="m147.11 97.89a6.68 6.68 0 0 0 -.32 6.48l8.26 16.63a6.64 6.64 0 0 1 .33 5.12 6.66 6.66 0 0 1 -6.39-3.73l-7.25-15a37.92 37.92 0 0 1 -3.07-24l1.7-8.47a8.19 8.19 0 0 1 .23-.85 6.59 6.59 0 0 1 1.86.15l7.89 1.78a6.64 6.64 0 0 1 4.2 10z" fill="#8c4735"/><g id="Apple"><path d="m341.24 330.49a73.57 73.57 0 0 1 -140-45.42c6.5-20.05 19.31-30.8 35.51-34.76 15.05-3.68 33-1.5 51.64 4.53 38.7 12.55 65.39 37.01 52.85 75.65z" fill="#daab42"/><path d="m341.24 330.49a73.34 73.34 0 0 1 -26.82 36.88 73.59 73.59 0 0 1 -92.88-92.64c3.45-10.63 8.68-18.65 15.25-24.42 15.05-3.68 33-1.5 51.64 4.53 38.66 12.55 65.35 37.01 52.81 75.65z" fill="#f9c744"/><ellipse cx="276.27" cy="275.19" fill="#daab42" rx="11.98" ry="34.36" transform="matrix(.233 -.972 .972 .233 -55.79 479.62)"/><ellipse cx="285.33" cy="311.53" fill="#fad98f" rx="13.65" ry="24.72" transform="matrix(.052 -.999 .999 .052 -40.62 580.27)"/><ellipse cx="323.02" cy="297.69" fill="#fad98f" rx="14.92" ry="8.23" transform="matrix(.481 -.876 .876 .481 -93.42 437.49)"/><path d="m285.87 240.16a4.66 4.66 0 0 0 -6.21 3.38l-7.14 35.8c-.27 1.34 1.55 3 4 3.83s4.94.51 5.51-.73l15.28-33.16a4.67 4.67 0 0 0 -3-6.39z" fill="#7a2b13"/><path d="m294.3 242.89a5.28 5.28 0 0 0 -6.72 3.22l-9.52 30.53c-.43 1.39 1.21 3.09 3.63 3.88a7.77 7.77 0 0 0 1.13.28l14.52-31.52a4.67 4.67 0 0 0 -3-6.39z" fill="#8c4735"/></g><g id="Apple-2" data-name="Apple"><path d="m246.86 344.44a84 84 0 0 1 -168 0c0-24.06 10.11-40.24 26.31-50.25 15-9.3 35.34-13.28 57.66-13.28 46.44 0 84.03 17.15 84.03 63.53z" fill="#e52e44"/><path d="m246.86 344.44a83.62 83.62 0 0 1 -16.12 49.48 84 84 0 0 1 -133.47-67.84c0-12.76 2.84-23.31 8-31.89 15-9.3 35.34-13.28 57.66-13.28 46.34 0 83.93 17.15 83.93 63.53z" fill="#fa4654"/><ellipse cx="156.85" cy="307.29" fill="#e52e44" rx="39.21" ry="13.68" transform="matrix(.997 -.078 .078 .997 -23.56 13.21)"/><ellipse cx="179.48" cy="343.55" fill="#fb626e" rx="28.22" ry="15.58" transform="matrix(.966 -.259 .259 .966 -82.8 58.16)"/><ellipse cx="215.53" cy="315.24" fill="#fb626e" rx="17.03" ry="9.4" transform="matrix(.19 -.98 .98 .19 -134.51 467.9)"/><path d="m110.33 237.18c4.08 7.16 41 27.16 41 27.16a11.06 11.06 0 0 1 3.25 7.87v38.24a5.41 5.41 0 0 0 10.81 0v-38.24a21.79 21.79 0 0 0 -6.39-15.51l-33.07-33.06-1.93-1.84a5.4 5.4 0 0 0 -7.64 0c-2.07 2.11-9.28 9.7-6.03 15.38z" fill="#7a2b13"/><path d="m120.3 237.44c3.61 6.33 36.22 24 36.22 24a9.77 9.77 0 0 1 2.88 6.95v33.79a4.75 4.75 0 0 0 6 4.62v-34.6a21.79 21.79 0 0 0 -6.4-15.5l-33.07-33.06-.21.21c-1.91 1.86-8.29 8.57-5.42 13.59z" fill="#8c4735"/></g><path d="m436.71 199-76.87 210.38a21.85 21.85 0 0 1 -42-11.26l38.63-220.64a21.83 21.83 0 0 1 27.17-17.32l38.23 10.24a21.85 21.85 0 0 1 14.84 28.6z" fill="#ea792e"/><path d="m424.16 171.17c-4 7.07-14.39 10.42-25 7.57a27.82 27.82 0 0 1 -12.33-6.89 5.67 5.67 0 0 0 -9.49 2.73v.11l-47.75 218.84a21.84 21.84 0 0 0 14.83 25.47 21.52 21.52 0 0 0 7.05 1 21.79 21.79 0 0 0 8.37-10.65l76.87-210.35a21.84 21.84 0 0 0 -12.55-27.83z" fill="#f39e22"/><g fill="#ea792e"><path d="m406.59 201.19-15.7.11a103.14 103.14 0 0 1 -37.38-7.14l2.38-13.59a103.06 103.06 0 0 1 37.11 12.69z"/><path d="m392.8 239.94c-1.61 0-13.76.1-15.69.11a101.56 101.56 0 0 1 -30.79-4.81l2.58-14.72a102 102 0 0 1 30.37 11.48z"/><path d="m379.73 282.48c-5.11 0-15.59.25-20.65 0a102 102 0 0 1 -20.47-3.18l2.62-15a102.27 102.27 0 0 1 23 9.11c3.29 1.86 12.26 7.2 15.5 9.07z"/><path d="m394.65 314.1-5.18 14.17c-11.76-3.29-23.74-10.79-34.07-16.9 12.6-.14 26.9-.62 39.25 2.73z"/><path d="m367.83 357.07c-5.11 0-15.58.26-20.65 0a102.24 102.24 0 0 1 -21.58-3.46l2.61-15a101.63 101.63 0 0 1 24.1 9.39c3.32 1.86 12.27 7.21 15.52 9.07z"/><path d="m367.66 388-4.28 11.72c-5.57-2.4-16.28-9.08-21.65-12.14 6.82-.01 19.27-.48 25.93.42z"/></g><ellipse cx="418.94" cy="210.55" fill="#f9c744" rx="27.81" ry="10.43" transform="matrix(.309 -.951 .951 .309 89.34 544.02)"/><ellipse cx="401.42" cy="264.53" fill="#f9c744" rx="20.19" ry="5.3" transform="matrix(.309 -.951 .951 .309 25.89 564.67)"/><path d="m446.84 120.61-33.27 51.16a4.68 4.68 0 0 1 -1.58 1.52 4.9 4.9 0 0 1 -6.89-6.42l27.66-54.38a4.91 4.91 0 0 1 6.82-2l5.6 3.23a4.9 4.9 0 0 1 1.66 6.89z" fill="#528f66"/><path d="m446.84 120.61-33.27 51.16a1.63 1.63 0 0 1 -2.83 1 4.91 4.91 0 0 1 -1.72-6.53l29.25-53.55a4.77 4.77 0 0 1 1.86-1.89l5.05 2.91a4.9 4.9 0 0 1 1.66 6.9z" fill="#53b976"/><ellipse cx="435.52" cy="129.75" fill="#78c795" rx="11.74" ry="3.89" transform="matrix(.5 -.866 .866 .5 105.39 442.05)"/><ellipse cx="424.83" cy="148.27" fill="#78c795" rx="7.77" ry="2.58" transform="matrix(.5 -.866 .866 .5 84.01 442.05)"/><path d="m403.1 104.54-3.23 60.93a4.9 4.9 0 0 1 -9.79 0l-3.23-60.93a4.9 4.9 0 0 1 4.89-5.16h6.46a4.89 4.89 0 0 1 4.9 5.16z" fill="#528f66"/><path d="m403.1 104.54-3.23 60.93a4.88 4.88 0 0 1 -.61 2.12 4.31 4.31 0 0 1 -1.35.15 4.91 4.91 0 0 1 -4.76-4.79l-1.44-61a4.79 4.79 0 0 1 .67-2.57h5.82a4.89 4.89 0 0 1 4.9 5.16z" fill="#53b976"/><ellipse cx="397.86" cy="118.11" fill="#78c795" rx="3.89" ry="11.74"/><ellipse cx="397.86" cy="139.49" fill="#78c795" rx="2.58" ry="7.77"/><path d="m426.15 109.25-18.89 58a4.73 4.73 0 0 1 -1.14 1.88 4.89 4.89 0 0 1 -8.32-4.41l12.65-59.72a4.9 4.9 0 0 1 6.06-3.71l6.24 1.67a4.9 4.9 0 0 1 3.4 6.29z" fill="#528f66"/><path d="m426.15 109.25-18.89 58a4.73 4.73 0 0 1 -1.14 1.88 4.39 4.39 0 0 1 -1.34-.19 4.91 4.91 0 0 1 -3.36-5.86l14.4-59.3a4.75 4.75 0 0 1 1.31-2.31l5.62 1.51a4.9 4.9 0 0 1 3.4 6.27z" fill="#53b976"/><ellipse cx="417.58" cy="121" fill="#78c795" rx="11.74" ry="3.89" transform="matrix(.259 -.966 .966 .259 192.62 493.03)"/><ellipse cx="412.04" cy="141.66" fill="#78c795" rx="7.77" ry="2.58" transform="matrix(.259 -.966 .966 .259 168.57 503)"/></svg>