<?xml version="1.0" encoding="iso-8859-1"?>
<!-- Generator: Adobe Illustrator 19.0.0, SVG Export Plug-In . SVG Version: 6.00 Build 0)  -->
<svg version="1.1" id="Capa_1" xmlns="http://www.w3.org/2000/svg" xmlns:xlink="http://www.w3.org/1999/xlink" x="0px" y="0px"
	 viewBox="0 0 491.52 491.52" style="enable-background:new 0 0 491.52 491.52;" xml:space="preserve">
<g>
	<circle style="fill:#E05B49;" cx="245.76" cy="245.76" r="245.76"/>
	<polygon style="fill:#E05B49;" points="349.696,121.856 352.256,120.832 349.184,121.344 	"/>
</g>
<polygon style="opacity:0.1;enable-background:new    ;" points="349.696,121.856 352.256,120.832 349.184,121.344 "/>
<path style="fill:#E05B49;" d="M362.496,105.472L158.72,142.336l1.536,6.656l16.896,16.896c-0.512,0-1.024,0.512-1.024,0.512
	l-16.896,3.072l1.536,6.144l12.8,12.8v33.28H104.96v29.184c0,26.624,10.752,50.688,28.672,70.144l0,0l1.536,1.536
	c1.536,1.536,2.56,2.56,4.096,4.096L196.608,384v2.048l99.84,100.352C408.064,462.848,491.52,364.032,491.52,245.76
	c0-4.608,0-9.216-0.512-13.824l-120.32-120.832C370.176,107.52,366.592,104.96,362.496,105.472z M349.696,121.856l-0.512-0.512
	l3.072-0.512L349.696,121.856z"/>
<path style="opacity:0.1;enable-background:new    ;" d="M362.496,105.472L158.72,142.336l1.536,6.656l16.896,16.896
	c-0.512,0-1.024,0.512-1.024,0.512l-16.896,3.072l1.536,6.144l12.8,12.8v33.28H104.96v29.184c0,26.624,10.752,50.688,28.672,70.144
	l0,0l1.536,1.536c1.536,1.536,2.56,2.56,4.096,4.096L196.608,384v2.048l99.84,100.352C408.064,462.848,491.52,364.032,491.52,245.76
	c0-4.608,0-9.216-0.512-13.824l-120.32-120.832C370.176,107.52,366.592,104.96,362.496,105.472z M349.696,121.856l-0.512-0.512
	l3.072-0.512L349.696,121.856z"/>
<rect x="196.61" y="360.45" style="fill:#44C4A1;" width="98.3" height="25.6"/>
<g>
	<path style="fill:#3A556A;" d="M160.256,148.992l-1.536-6.656l203.776-36.864c3.584-0.512,7.168,2.048,7.68,5.632l0,0
		c0.512,3.584-2.048,7.168-5.632,7.68L160.256,148.992z"/>
	<path style="fill:#3A556A;" d="M160.256,176.128l-1.536-6.144l203.776-39.936c3.584-0.512,7.168,2.048,7.68,5.632l0,0
		c0.512,3.584-2.048,7.168-5.632,7.68L160.256,176.128z"/>
</g>
<g>
	<path style="fill:#F6C358;" d="M178.688,227.328c-3.072,0-5.12-2.048-5.12-5.12v-51.2c0-3.072,2.048-5.12,5.12-5.12
		s5.12,2.048,5.12,5.12v51.712C183.808,225.28,181.248,227.328,178.688,227.328z"/>
	<path style="fill:#F6C358;" d="M200.192,227.328c-3.072,0-5.12-2.048-5.12-5.12v-55.296c0-3.072,2.048-5.12,5.12-5.12
		s5.12,2.048,5.12,5.12v55.296C205.312,225.28,203.264,227.328,200.192,227.328z"/>
	<path style="fill:#F6C358;" d="M222.208,227.328c-3.072,0-5.12-2.048-5.12-5.12v-59.392c0-3.072,2.048-5.12,5.12-5.12
		s5.12,2.048,5.12,5.12v59.392C227.328,225.28,224.768,227.328,222.208,227.328z"/>
	<path style="fill:#F6C358;" d="M386.56,250.88c0,64-62.976,116.224-140.8,116.224s-140.8-52.224-140.8-116.224H386.56z"/>
</g>
<rect x="104.96" y="222.21" style="fill:#EBF0F3;" width="281.6" height="28.672"/>
<rect x="104.96" y="238.08" style="fill:#44C4A1;" width="281.6" height="12.8"/>
<path style="fill:#FCD462;" d="M104.96,250.88c0,64,62.976,116.224,140.8,116.224V250.88H104.96z"/>
<g>
</g>
<g>
</g>
<g>
</g>
<g>
</g>
<g>
</g>
<g>
</g>
<g>
</g>
<g>
</g>
<g>
</g>
<g>
</g>
<g>
</g>
<g>
</g>
<g>
</g>
<g>
</g>
<g>
</g>
</svg>
