<svg height="512" viewBox="0 0 128 128" width="512" xmlns="http://www.w3.org/2000/svg"><g id="Circle_Grid" data-name="Circle Grid"><circle cx="64" cy="64" fill="#89c5cd" r="64"/></g><g id="icon"><path d="m73.981 24.831c-3.357-.38-6.376 2.392-9.754 2.383-2.484-.007-4.946-1.525-7.332-.837-1.823.526-3.109 2.231-4.914 2.814-1.538.5-3.245.112-4.8.542a4.966 4.966 0 0 0 -3.361 5.386 4.973 4.973 0 0 1 3.4-1.941c1.923-.251 3.893.209 5.807-.1 2.676-.436 5.013-2.342 7.723-2.421 4.846-.142 8.644 5.526 13.437 4.794a5.54 5.54 0 0 0 4.547-5.4 5.541 5.541 0 0 0 -4.753-5.22z" fill="#e1e6e9"/><path d="m41.011 36.861h7.697v31.663h-7.697z" fill="#3a556a"/><path d="m26.11 68.524h44.37v26.681h-44.37z" fill="#d5d6db"/><path d="m24.174 66.152h45.801v3.848h-45.801z" fill="#fe7058"/><path d="m62.667 50.182h40.51v45.023h-40.51z" fill="#fcd462"/><path d="m29.595 72.693h1.989v1.989h-1.989z" fill="#3a556a"/><path d="m35.303 72.693h1.989v1.989h-1.989z" fill="#3a556a"/><path d="m41.011 72.693h1.989v1.989h-1.989z" fill="#3a556a"/><path d="m46.72 72.693h1.989v1.989h-1.989z" fill="#3a556a"/><path d="m52.428 72.693h1.989v1.989h-1.989z" fill="#3a556a"/><path d="m58.136 72.693h1.989v1.989h-1.989z" fill="#3a556a"/><path d="m21.994 92.599h84.013v2.605h-84.013z" fill="#ebf0f3"/><g fill="#3e6b82"><path d="m66.053 55.153h1.744v5.73h-1.744z"/><path d="m71.409 55.153h1.744v5.73h-1.744z"/><path d="m76.765 55.153h1.744v5.73h-1.744z"/><path d="m82.122 55.153h1.744v5.73h-1.744z"/><path d="m87.478 55.153h1.744v5.73h-1.744z"/><path d="m92.834 55.153h1.744v5.73h-1.744z"/><path d="m98.19 55.153h1.744v5.73h-1.744z"/></g><path d="m69.975 78.505h8.76v14.095h-8.76z" fill="#3a556a"/></g></svg>