<svg xmlns="http://www.w3.org/2000/svg" height="512pt" version="1.1" viewBox="0 0 512 512" width="512pt">
<g id="surface1">
<path d="M 512 256 C 512 397.386719 397.386719 512 256 512 C 114.613281 512 0 397.386719 0 256 C 0 114.613281 114.613281 0 256 0 C 397.386719 0 512 114.613281 512 256 Z M 512 256 " style=" stroke:none;fill-rule:nonzero;fill:rgb(61.960784%,41.176471%,88.627451%);fill-opacity:1;" />
<path d="M 512 256 C 512 282.050781 508.109375 307.191406 500.871094 330.871094 C 468.859375 435.71875 371.328125 512 256 512 C 151.441406 512 61.511719 449.300781 21.769531 359.449219 C 7.769531 327.820312 0 292.820312 0 256 C 0 209.78125 12.25 166.429688 33.679688 129 C 77.800781 206.070312 160.839844 258 256 258 C 351.160156 258 434.210938 206.070312 478.320312 129 C 499.75 166.429688 512 209.78125 512 256 Z M 512 256 " style=" stroke:none;fill-rule:nonzero;fill:rgb(55.686275%,30.980392%,82.352941%);fill-opacity:1;" />
<path d="M 481.261719 377.699219 C 474.101562 390.921875 465.828125 403.441406 456.539062 415.128906 C 448.101562 425.761719 438.820312 435.699219 428.820312 444.851562 C 399.410156 471.78125 363.699219 491.929688 324.140625 502.828125 L 324.128906 502.828125 C 302.429688 508.808594 279.589844 512 256 512 C 232.410156 512 209.570312 508.808594 187.871094 502.828125 L 187.859375 502.828125 C 148.300781 491.929688 112.589844 471.78125 83.179688 444.851562 C 73.179688 435.699219 63.898438 425.761719 55.460938 415.128906 C 46.171875 403.441406 37.898438 390.921875 30.738281 377.699219 Z M 481.261719 377.699219 " style=" stroke:none;fill-rule:nonzero;fill:rgb(19.607843%,23.137255%,35.294118%);fill-opacity:1;" />
<path d="M 373.957031 295.492188 C 373.648438 308.699219 362.425781 319.054688 349.21875 319.054688 L 165.253906 319.054688 C 158.023438 319.054688 151.21875 317.089844 146.214844 313.332031 C 141.222656 309.570312 138.035156 304.027344 138.035156 296.847656 C 138.035156 286.089844 145.609375 276.816406 156.148438 274.65625 L 169.90625 271.835938 L 169.917969 271.835938 L 175.363281 270.710938 C 174.933594 270.730469 174.515625 270.742188 174.097656 270.742188 C 172.496094 270.742188 170.933594 270.566406 169.410156 270.246094 C 168.441406 270.035156 167.480469 269.773438 166.554688 269.441406 C 157.890625 266.355469 151.472656 258.105469 151.472656 248.074219 C 151.472656 237.316406 159.035156 228.042969 169.574219 225.882812 L 189.046875 221.878906 C 188.617188 221.902344 188.1875 221.914062 187.757812 221.914062 C 187.390625 221.914062 187.039062 221.902344 186.6875 221.878906 L 186.621094 221.878906 C 176.863281 221.394531 168.429688 214.570312 165.914062 205.132812 C 165.40625 203.269531 165.144531 201.296875 165.144531 199.257812 C 165.144531 188.496094 172.71875 179.214844 183.257812 177.054688 L 204.371094 172.71875 C 203.941406 172.742188 203.511719 172.753906 203.078125 172.753906 C 202.761719 172.753906 202.441406 172.742188 202.132812 172.730469 C 190.355469 172.234375 180.46875 162.523438 180.46875 150.097656 C 180.46875 139.335938 188.042969 130.054688 198.582031 127.894531 L 212.089844 125.113281 C 216.144531 124.289062 218.96875 120.695312 218.957031 116.558594 L 218.957031 116.484375 C 218.957031 90.960938 235.03125 69.1875 257.597656 60.71875 C 260.378906 59.671875 263.066406 60.386719 264.941406 62.03125 C 267.234375 64.039062 268.316406 67.433594 266.828125 70.742188 C 263.464844 78.195312 261.589844 86.464844 261.589844 95.171875 L 261.589844 95.371094 C 261.621094 105.511719 271.113281 113.011719 281.050781 110.96875 L 292.703125 108.578125 C 302.460938 106.570312 311.773438 110.5625 316.746094 118.058594 C 318.796875 121.113281 320.109375 124.761719 320.429688 128.820312 C 321.257812 139.238281 314.949219 148.578125 305.511719 151.972656 L 308.609375 151.332031 C 310.164062 151.011719 311.710938 150.859375 313.21875 150.859375 C 323.394531 150.859375 332.347656 157.773438 335.015625 167.484375 C 335.542969 169.402344 335.832031 171.433594 335.832031 173.539062 C 335.832031 183.195312 329.710938 191.652344 320.835938 194.839844 L 321.707031 194.660156 C 322.546875 194.484375 323.394531 194.351562 324.234375 194.277344 C 336.988281 192.976562 348.378906 201.773438 349.4375 214.902344 C 350.164062 224.097656 345.347656 232.445312 337.71875 236.621094 L 337.695312 236.632812 C 336.679688 237.183594 335.621094 237.660156 334.519531 238.054688 L 335.710938 237.8125 C 337.265625 237.492188 338.808594 237.339844 340.320312 237.339844 C 349.613281 237.339844 357.871094 243.09375 361.265625 251.484375 C 362.347656 254.097656 362.929688 256.972656 362.929688 260.007812 C 362.929688 264.636719 361.53125 268.980469 359.105469 272.609375 C 368.003906 276.320312 374.210938 285.195312 373.957031 295.492188 Z M 373.957031 295.492188 " style=" stroke:none;fill-rule:nonzero;fill:rgb(100%,100%,100%);fill-opacity:1;" />
<path d="M 316.75 118.058594 C 303.773438 120.527344 281.246094 124.417969 242.152344 130.492188 C 226.71875 87.121094 264.941406 62.027344 264.941406 62.027344 C 267.234375 64.035156 268.316406 67.429688 266.828125 70.738281 C 263.464844 78.191406 261.589844 86.460938 261.589844 95.171875 L 261.589844 95.367188 C 261.625 105.511719 271.117188 113.007812 281.050781 110.96875 L 292.703125 108.574219 C 302.460938 106.570312 311.777344 110.5625 316.75 118.058594 Z M 316.75 118.058594 " style=" stroke:none;fill-rule:nonzero;fill:rgb(81.568627%,96.470588%,100%);fill-opacity:1;" />
<path d="M 337.71875 236.621094 L 337.695312 236.632812 L 334.519531 238.054688 L 174.097656 270.742188 L 169.410156 270.246094 C 168.441406 270.035156 167.480469 269.773438 166.554688 269.441406 C 157.890625 266.355469 151.472656 258.105469 151.472656 248.074219 C 151.472656 237.316406 159.035156 228.042969 169.578125 225.882812 L 189.046875 221.878906 C 188.617188 221.902344 188.1875 221.914062 187.757812 221.914062 C 187.394531 221.914062 187.039062 221.902344 186.6875 221.878906 L 186.621094 221.878906 C 176.863281 221.394531 168.429688 214.570312 165.914062 205.132812 L 335.015625 167.484375 C 335.546875 169.402344 335.832031 171.429688 335.832031 173.535156 C 335.832031 183.195312 329.714844 191.648438 320.839844 194.835938 L 321.710938 194.660156 C 322.546875 194.484375 323.398438 194.351562 324.234375 194.273438 C 336.992188 192.972656 348.378906 201.769531 349.4375 214.902344 C 350.164062 224.097656 345.347656 232.441406 337.71875 236.621094 Z M 337.71875 236.621094 " style=" stroke:none;fill-rule:nonzero;fill:rgb(81.568627%,96.470588%,100%);fill-opacity:1;" />
<path d="M 373.957031 295.492188 C 373.648438 308.699219 362.425781 319.054688 349.21875 319.054688 L 165.253906 319.054688 C 158.023438 319.054688 151.21875 317.089844 146.214844 313.332031 C 141.222656 309.570312 138.035156 304.027344 138.035156 296.847656 L 361.265625 251.480469 C 362.347656 254.09375 362.933594 256.972656 362.933594 260.003906 C 362.933594 264.632812 361.53125 268.976562 359.105469 272.605469 C 368.003906 276.320312 374.210938 285.195312 373.957031 295.492188 Z M 373.957031 295.492188 " style=" stroke:none;fill-rule:nonzero;fill:rgb(81.568627%,96.470588%,100%);fill-opacity:1;" />
<path d="M 186.683594 221.878906 L 189.042969 221.878906 C 188.613281 221.898438 188.183594 221.910156 187.753906 221.910156 C 187.390625 221.910156 187.035156 221.898438 186.683594 221.878906 Z M 186.683594 221.878906 " style=" stroke:none;fill-rule:nonzero;fill:rgb(61.960784%,41.176471%,88.627451%);fill-opacity:1;" />
<path d="M 334.519531 238.054688 L 169.917969 271.832031 L 175.363281 270.707031 C 174.933594 270.730469 174.515625 270.742188 174.097656 270.742188 C 171.472656 270.742188 168.925781 270.277344 166.554688 269.441406 C 158.707031 266.640625 152.699219 259.617188 151.640625 250.851562 L 151.640625 250.839844 C 151.527344 249.9375 151.472656 249.011719 151.472656 248.074219 C 151.472656 237.3125 159.035156 228.042969 169.574219 225.882812 L 189.046875 221.878906 L 320.839844 194.835938 L 324.234375 194.273438 C 335.886719 193.082031 346.40625 200.324219 348.941406 211.605469 C 349.171875 212.671875 349.347656 213.765625 349.4375 214.898438 C 350.265625 225.320312 343.957031 234.65625 334.519531 238.054688 Z M 334.519531 238.054688 " style=" stroke:none;fill-rule:nonzero;fill:rgb(100%,91.372549%,33.333333%);fill-opacity:1;" />
<path d="M 305.515625 151.96875 L 204.371094 172.71875 L 202.132812 172.730469 C 191.714844 172.289062 182.785156 164.648438 180.867188 154.285156 C 180.601562 152.929688 180.46875 151.527344 180.46875 150.097656 C 180.46875 139.335938 188.042969 130.054688 198.585938 127.890625 L 212.089844 125.113281 L 281.050781 110.96875 L 292.703125 108.578125 C 305.085938 106.03125 316.75 113.152344 319.757812 124.816406 C 320.089844 126.097656 320.320312 127.429688 320.429688 128.820312 C 321.257812 139.234375 314.953125 148.574219 305.515625 151.96875 Z M 305.515625 151.96875 " style=" stroke:none;fill-rule:nonzero;fill:rgb(100%,91.372549%,33.333333%);fill-opacity:1;" />
<path d="M 373.957031 295.492188 C 373.648438 308.699219 362.425781 319.054688 349.21875 319.054688 L 165.253906 319.054688 L 359.105469 272.605469 C 366.914062 275.855469 372.644531 283.089844 373.769531 291.765625 C 373.925781 292.980469 373.988281 294.226562 373.957031 295.492188 Z M 373.957031 295.492188 " style=" stroke:none;fill-rule:nonzero;fill:rgb(100%,91.372549%,33.333333%);fill-opacity:1;" />
<path d="M 305.515625 151.96875 L 204.371094 172.71875 L 202.132812 172.730469 C 191.714844 172.289062 182.785156 164.648438 180.867188 154.285156 L 319.757812 124.816406 C 320.089844 126.09375 320.320312 127.429688 320.429688 128.816406 C 321.257812 139.234375 314.953125 148.574219 305.515625 151.96875 Z M 305.515625 151.96875 " style=" stroke:none;fill-rule:nonzero;fill:rgb(100%,81.960784%,7.058824%);fill-opacity:1;" />
<path d="M 334.519531 238.054688 L 169.917969 271.832031 L 175.363281 270.707031 C 174.933594 270.730469 174.515625 270.742188 174.097656 270.742188 C 171.472656 270.742188 168.925781 270.277344 166.554688 269.441406 C 158.707031 266.640625 152.699219 259.617188 151.640625 250.851562 L 151.640625 250.839844 L 348.941406 211.601562 C 349.171875 212.671875 349.351562 213.765625 349.4375 214.898438 C 350.265625 225.320312 343.957031 234.65625 334.519531 238.054688 Z M 334.519531 238.054688 " style=" stroke:none;fill-rule:nonzero;fill:rgb(100%,81.960784%,7.058824%);fill-opacity:1;" />
<path d="M 373.957031 295.492188 C 373.648438 308.699219 362.425781 319.054688 349.21875 319.054688 L 262.515625 319.054688 L 373.769531 291.765625 C 373.925781 292.980469 373.988281 294.226562 373.957031 295.492188 Z M 373.957031 295.492188 " style=" stroke:none;fill-rule:nonzero;fill:rgb(100%,81.960784%,7.058824%);fill-opacity:1;" />
<path d="M 369.820312 319.050781 L 356 357.621094 L 347.738281 357.621094 L 347.738281 393.480469 L 331.53125 437.03125 L 331.53125 483.808594 C 331.53125 491.148438 328.738281 497.820312 324.140625 502.828125 L 324.128906 502.828125 C 302.429688 508.808594 279.589844 512 256 512 C 232.410156 512 209.570312 508.808594 187.871094 502.828125 L 187.859375 502.828125 C 183.261719 497.820312 180.46875 491.148438 180.46875 483.808594 L 180.46875 437.03125 L 164.261719 393.480469 L 164.261719 357.621094 L 156 357.621094 L 142.179688 319.050781 Z M 369.820312 319.050781 " style=" stroke:none;fill-rule:nonzero;fill:rgb(100%,65.882353%,47.843137%);fill-opacity:1;" />
<path d="M 369.820312 319.050781 L 356 357.621094 L 347.738281 357.621094 L 347.738281 393.480469 L 331.53125 437.03125 L 331.53125 483.808594 C 331.53125 491.148438 328.738281 497.820312 324.140625 502.828125 L 324.128906 502.828125 C 302.429688 508.808594 279.589844 512 256 512 L 256 319.050781 Z M 369.820312 319.050781 " style=" stroke:none;fill-rule:nonzero;fill:rgb(92.156863%,46.666667%,13.333333%);fill-opacity:1;" />
<path d="M 347.738281 393.480469 L 331.53125 437.03125 L 180.46875 437.03125 L 164.261719 393.480469 Z M 347.738281 393.480469 " style=" stroke:none;fill-rule:nonzero;fill:rgb(92.156863%,46.666667%,13.333333%);fill-opacity:1;" />
<path d="M 369.820312 319.050781 L 355.996094 357.617188 L 156.003906 357.617188 L 142.179688 319.050781 Z M 369.820312 319.050781 " style=" stroke:none;fill-rule:nonzero;fill:rgb(92.156863%,46.666667%,13.333333%);fill-opacity:1;" />
<path d="M 369.820312 319.050781 L 355.996094 357.617188 L 256 357.617188 L 256 319.050781 Z M 369.820312 319.050781 " style=" stroke:none;fill-rule:nonzero;fill:rgb(65.098039%,22.352941%,7.843137%);fill-opacity:1;" />
<path d="M 331.53125 437.03125 L 331.53125 483.808594 C 331.53125 491.148438 328.738281 497.820312 324.140625 502.828125 C 302.441406 508.808594 279.589844 512 256 512 L 256 437.03125 Z M 331.53125 437.03125 " style=" stroke:none;fill-rule:nonzero;fill:rgb(92.156863%,46.666667%,13.333333%);fill-opacity:1;" />
<path d="M 347.738281 393.480469 L 331.53125 437.03125 L 256 437.03125 L 256 393.480469 Z M 347.738281 393.480469 " style=" stroke:none;fill-rule:nonzero;fill:rgb(65.098039%,22.352941%,7.843137%);fill-opacity:1;" />
<path d="M 429.726562 136.085938 L 428.203125 136.085938 C 421.449219 136.085938 415.976562 130.609375 415.976562 123.859375 L 415.976562 122.335938 L 407.261719 122.335938 L 407.261719 123.859375 C 407.261719 130.609375 401.785156 136.085938 395.035156 136.085938 L 393.507812 136.085938 L 393.507812 144.800781 L 395.035156 144.800781 C 401.785156 144.800781 407.261719 150.273438 407.261719 157.027344 L 407.261719 158.554688 L 415.976562 158.554688 L 415.976562 157.027344 C 415.976562 150.273438 421.449219 144.800781 428.203125 144.800781 L 429.726562 144.800781 Z M 429.726562 136.085938 " style=" stroke:none;fill-rule:nonzero;fill:rgb(100%,100%,100%);fill-opacity:1;" />
<path d="M 476.203125 234.976562 L 474.679688 234.976562 C 467.925781 234.976562 462.453125 229.5 462.453125 222.746094 L 462.453125 221.222656 L 453.738281 221.222656 L 453.738281 222.746094 C 453.738281 229.5 448.261719 234.976562 441.511719 234.976562 L 439.984375 234.976562 L 439.984375 243.691406 L 441.511719 243.691406 C 448.261719 243.691406 453.738281 249.164062 453.738281 255.917969 L 453.738281 257.441406 L 462.453125 257.441406 L 462.453125 255.917969 C 462.453125 249.164062 467.925781 243.691406 474.679688 243.691406 L 476.203125 243.691406 Z M 476.203125 234.976562 " style=" stroke:none;fill-rule:nonzero;fill:rgb(100%,100%,100%);fill-opacity:1;" />
<path d="M 422.394531 323.375 L 420.871094 323.375 C 414.117188 323.375 408.644531 317.898438 408.644531 311.148438 L 408.644531 309.621094 L 399.929688 309.621094 L 399.929688 311.148438 C 399.929688 317.898438 394.453125 323.375 387.699219 323.375 L 386.175781 323.375 L 386.175781 332.089844 L 387.699219 332.089844 C 394.453125 332.089844 399.929688 337.5625 399.929688 344.316406 L 399.929688 345.84375 L 408.644531 345.84375 L 408.644531 344.316406 C 408.644531 337.5625 414.117188 332.089844 420.871094 332.089844 L 422.394531 332.089844 Z M 422.394531 323.375 " style=" stroke:none;fill-rule:nonzero;fill:rgb(100%,100%,100%);fill-opacity:1;" />
<path d="M 77.070312 225.757812 L 75.546875 225.757812 C 68.792969 225.757812 63.320312 220.28125 63.320312 213.53125 L 63.320312 212.007812 L 54.601562 212.007812 L 54.601562 213.53125 C 54.601562 220.28125 49.128906 225.757812 42.375 225.757812 L 40.851562 225.757812 L 40.851562 234.472656 L 42.375 234.472656 C 49.128906 234.472656 54.601562 239.945312 54.601562 246.699219 L 54.601562 248.226562 L 63.320312 248.226562 L 63.320312 246.699219 C 63.320312 239.945312 68.792969 234.472656 75.546875 234.472656 L 77.070312 234.472656 Z M 77.070312 225.757812 " style=" stroke:none;fill-rule:nonzero;fill:rgb(100%,100%,100%);fill-opacity:1;" />
<path d="M 134.394531 142.75 L 132.871094 142.75 C 126.117188 142.75 120.644531 137.277344 120.644531 130.523438 L 120.644531 129 L 111.929688 129 L 111.929688 130.523438 C 111.929688 137.277344 106.453125 142.75 99.699219 142.75 L 98.175781 142.75 L 98.175781 151.46875 L 99.699219 151.46875 C 106.453125 151.46875 111.929688 156.941406 111.929688 163.695312 L 111.929688 165.21875 L 120.644531 165.21875 L 120.644531 163.695312 C 120.644531 156.941406 126.117188 151.46875 132.871094 151.46875 L 134.394531 151.46875 Z M 134.394531 142.75 " style=" stroke:none;fill-rule:nonzero;fill:rgb(100%,100%,100%);fill-opacity:1;" />
<path d="M 122.394531 323.484375 L 120.871094 323.484375 C 114.117188 323.484375 108.644531 318.011719 108.644531 311.257812 L 108.644531 309.734375 L 99.929688 309.734375 L 99.929688 311.257812 C 99.929688 318.011719 94.453125 323.484375 87.699219 323.484375 L 86.175781 323.484375 L 86.175781 332.199219 L 87.699219 332.199219 C 94.453125 332.199219 99.929688 337.675781 99.929688 344.425781 L 99.929688 345.953125 L 108.644531 345.953125 L 108.644531 344.425781 C 108.644531 337.675781 114.117188 332.199219 120.871094 332.199219 L 122.394531 332.199219 Z M 122.394531 323.484375 " style=" stroke:none;fill-rule:nonzero;fill:rgb(100%,100%,100%);fill-opacity:1;" />
</g>
</svg>