<svg id="Capa_1" enable-background="new 0 0 512 512" height="512" viewBox="0 0 512 512" width="512" xmlns="http://www.w3.org/2000/svg"><g><g><path d="m512 256c0 141.38-114.62 256-256 256s-256-114.62-256-256c0-46.22 12.25-89.57 33.68-127 44.12-77.07 127.16-129 222.32-129s178.2 51.93 222.32 129c21.43 37.43 33.68 80.78 33.68 127z" fill="#f4dee8"/><path d="m512 256c0 141.38-114.62 256-256 256s-256-114.62-256-256c0-46.22 12.25-89.57 33.68-127 44.12 77.07 127.16 129 222.32 129s178.21-51.93 222.32-129c21.43 37.43 33.68 80.78 33.68 127z" fill="#f4b4d1"/></g><g><g><path d="m286.72 270.93-30.72 54.888-130.5-20.038v-37.54l31.34-27.28 99.16-9.74 3.89.38z" fill="#fff"/><path d="m386.5 268.24v37.54l-130.5 20.038v-94.598l99.16 9.74z" fill="#cff6ff"/></g><path d="m276.71 187.53-20.71 58.2-82.46-19.83v-48.37l82.46-27.01 2.68.88z" fill="#fff"/><g><path d="m296.23 369.26-40.23 88.458-191.48-31.738v-82.82l191.48-28.92 5.93.9z" fill="#fff"/><path d="m447.48 343.16v82.82l-191.48 31.738v-143.478z" fill="#cff6ff"/></g><g><path d="m338.46 177.53v48.37l-82.46 19.83v-95.21z" fill="#cff6ff"/></g><g><path d="m256 105.567 14.737 23.274-14.737 38.246-30.764-30.755c-8.49-8.498-8.49-22.266 0-30.764 4.253-4.245 9.815-6.371 15.386-6.371 5.562-.001 11.133 2.126 15.378 6.37z" fill="#dd1265"/><path d="m286.764 136.332-30.764 30.755v-61.519c8.498-8.489 22.266-8.489 30.764 0 8.489 8.498 8.489 22.265 0 30.764z" fill="#ba0d5c"/></g><path d="m256 146.02 18.566 17.638-18.566 23.872h-.01c-13.74 0-13.74-10-27.48-10s-13.74 10-27.49 10c-13.74 0-13.74-10-27.48-10v-31.51z" fill="#ff619e"/></g><g><path d="m256.36 425.98 50.345 46.557-50.345 39.463h-.36c-76.15 0-144.53-33.25-191.42-86.02z" fill="#2a4a70"/><path d="m447.42 425.98c-46.82 52.69-115.05 85.91-191.06 86.02v-86.02z" fill="#1a3760"/></g><path d="m256 305.78 14.737 23.254-14.737 28.126h-.01c-19.15 0-19.15-14-38.3-14-19.14 0-19.14 14-38.29 14-19.14 0-19.14-14-38.29-14s-19.15 14-38.3 14c-19.14 0-19.14-14-38.29-14v-37.38z" fill="#ff619e"/><g><g fill="#ff619e"><path d="m77.58 390.43-13 12.99-.06-.06v-25.99l.06.06c3.59-3.59 9.41-3.59 13 0 3.58 3.59 3.58 9.41 0 13z"/><path d="m154.146 377.428c-3.591-3.587-9.408-3.587-12.998 0-1.793-1.793-4.147-2.692-6.497-2.692-2.354 0-4.704.899-6.501 2.692-3.587 3.59-3.587 9.407 0 12.998l12.998 12.994 12.998-12.994c3.587-3.59 3.587-9.407 0-12.998z"/><path d="m230.714 377.428c-3.591-3.587-9.408-3.587-12.998 0-1.793-1.793-4.147-2.692-6.497-2.692-2.354 0-4.704.899-6.501 2.692-3.587 3.59-3.587 9.407 0 12.998l12.998 12.994 12.998-12.994c3.587-3.59 3.587-9.407 0-12.998z"/></g><g><path d="m184.1 205.22-10.56 10.55v-21.11c2.92-2.91 7.64-2.91 10.56 0 2.91 2.92 2.91 7.64 0 10.56z" fill="#ff619e"/><path d="m239.072 194.659c-2.917-2.914-7.642-2.914-10.558 0-1.457-1.457-3.369-2.187-5.278-2.187-1.912 0-3.821.73-5.281 2.187-2.914 2.917-2.914 7.642 0 10.558l10.558 10.555 10.558-10.555c2.914-2.917 2.914-7.642.001-10.558z" fill="#ff619e"/><g fill="#ff4784"><path d="m294.045 194.659c-2.917-2.914-7.642-2.914-10.558 0-1.457-1.457-3.369-2.187-5.278-2.187-1.912 0-3.821.73-5.281 2.187-2.914 2.917-2.914 7.642 0 10.558l10.558 10.555 10.558-10.555c2.915-2.917 2.915-7.642.001-10.558z"/><path d="m338.46 194.66v21.11l-10.56-10.55c-2.91-2.92-2.91-7.64 0-10.56 1.46-1.46 3.37-2.19 5.28-2.19s3.82.73 5.28 2.19z"/></g></g><path d="m307.282 377.428c-3.59-3.587-9.408-3.587-12.998 0-1.794-1.793-4.147-2.692-6.497-2.692-2.354 0-4.704.899-6.501 2.692-3.587 3.59-3.587 9.407 0 12.998l12.998 12.994 12.998-12.994c3.587-3.59 3.587-9.407 0-12.998z" fill="#ff4784"/><g><path d="m256 270.93 7.842 11.65-7.842 14.34-13-12.99c-3.58-3.59-3.58-9.41 0-13 1.8-1.79 4.15-2.69 6.5-2.69s4.71.9 6.5 2.69z" fill="#ff619e"/><g><path d="m181.48 270.932c-3.591-3.587-9.408-3.587-12.998 0-1.794-1.793-4.147-2.692-6.497-2.692-2.354 0-4.704.899-6.501 2.692-3.587 3.591-3.587 9.408 0 12.998l12.998 12.994 12.998-12.994c3.586-3.591 3.586-9.408 0-12.998z" fill="#ff619e"/><path d="m356.516 270.932c-3.59-3.587-9.408-3.587-12.998 0-1.793-1.793-4.147-2.692-6.497-2.692-2.354 0-4.704.899-6.501 2.692-3.587 3.591-3.587 9.408 0 12.998l12.998 12.994 12.998-12.994c3.587-3.591 3.587-9.408 0-12.998z" fill="#ff4784"/></g></g><path d="m383.85 377.428c-3.591-3.587-9.408-3.587-12.998 0-1.793-1.793-4.147-2.692-6.497-2.692-2.354 0-4.704.899-6.501 2.692-3.587 3.59-3.587 9.407 0 12.998l12.998 12.994 12.998-12.994c3.587-3.59 3.587-9.407 0-12.998z" fill="#ff4784"/><path d="m447.48 377.37v25.99l-.06.06-13-12.99c-3.58-3.59-3.58-9.41 0-13 1.8-1.8 4.15-2.69 6.5-2.69s4.71.89 6.5 2.69c.02-.02.04-.04.06-.06z" fill="#ff4784"/></g><g fill="#ff4784"><path d="m338.46 146.02v31.51c-13.74 0-13.74 10-27.49 10-13.74 0-13.74-10-27.49-10-13.74 0-13.74 10-27.48 10v-41.51z"/><path d="m447.48 305.78v37.38c-19.15 0-19.15 14-38.3 14s-19.15-14-38.3-14-19.15 14-38.3 14-19.15-14-38.3-14c-19.14 0-19.14 14-38.28 14v-51.38z"/><path d="m269 283.93-13 12.99v-25.99c3.59-3.58 9.41-3.58 13 0 3.58 3.59 3.58 9.41 0 13z"/></g><path d="m256 225.9 15.685 9.094-15.685 17.556c-21.74 0-21.74 15.69-43.49 15.69-21.76 0-21.76-15.69-43.51-15.69s-21.75 15.69-43.5 15.69v-42.34z" fill="#ff619e"/><path d="m386.5 225.9v42.34c-21.74 0-21.74-15.69-43.49-15.69s-21.75 15.69-43.5 15.69-21.75-15.69-43.5-15.69h-.01v-26.65z" fill="#ff4784"/></g></svg>