<svg id="Capa_1" enable-background="new 0 0 512 512" height="512" viewBox="0 0 512 512" width="512" xmlns="http://www.w3.org/2000/svg"><g><circle cx="256" cy="256" fill="#2681ff" r="256"/><g><path d="m512 256c0-10.581-.655-21.009-1.902-31.253l-131.957-131.957-59.952-17.736-62.27 38.27-63.568-38.27-62.919 36.973-4.352 38.919-40 49.679 138.418 138.418-11.298 105.887 66.093 66.093c130.943-11.299 233.707-121.151 233.707-255.023z" fill="#005fe0"/></g><circle cx="125.08" cy="200.625" fill="#fff275" r="15"/><circle cx="386.92" cy="200.625" fill="#ffd300" r="15"/><g><path d="m395.718 129.204c-6.315-35.272-37.198-62.134-74.258-62.134-41.609 0-75.46 33.852-75.46 75.46h20c0-30.581 24.879-55.46 55.46-55.46 26.322 0 48.403 18.438 54.048 43.073-10.907 4.491-18.588 15.22-18.588 27.747v30h60v-30c0-13.507-8.927-24.926-21.202-28.686z" fill="#04303e"/><path d="m346.92 180.625h80v20h-80z" fill="#7d8186"/></g><g><path d="m256 105.064v37.466h10c0-13.631-3.651-26.417-10-37.466z" fill="#a1aab7"/><path d="m190.54 67.07c-37.06 0-67.943 26.862-74.258 62.134-12.275 3.76-21.202 15.179-21.202 28.686v30h60v-30c0-12.527-7.681-23.256-18.588-27.747 5.645-24.635 27.726-43.073 54.048-43.073 30.581 0 55.46 24.879 55.46 55.46h10v-37.466c-13.03-22.677-37.482-37.994-65.46-37.994z" fill="#d1d9e1"/></g><g><path d="m256 142.53h15v167.76h-15z" fill="#7d8186"/><path d="m241 142.53h15v167.76h-15z" fill="#9f9fa4"/></g><g><path d="m256 289.41c-24.19 0-43.8 19.61-43.8 43.8v111.72h43.8z" fill="#09607d"/><path d="m299.8 333.21c0-24.19-19.61-43.8-43.8-43.8v155.52h43.8z" fill="#04303e"/></g><path d="m234.1 348.45h21.9v51.84h-21.9z" fill="#d1d9e1"/><path d="m256 348.45h21.9v51.84h-21.9z" fill="#a1aab7"/><path d="m85.08 180.625h80v20h-80z" fill="#9f9fa4"/></g></svg>