<?xml version="1.0" encoding="iso-8859-1"?>
<!-- Generator: Adobe Illustrator 19.0.0, SVG Export Plug-In . SVG Version: 6.00 Build 0)  -->
<svg version="1.1" id="Capa_1" xmlns="http://www.w3.org/2000/svg" xmlns:xlink="http://www.w3.org/1999/xlink" x="0px" y="0px"
	 viewBox="0 0 512 512" style="enable-background:new 0 0 512 512;" xml:space="preserve">
<path style="fill:#E64C3C;" d="M256,512C114.842,512,0,397.158,0,256S114.842,0,256,0s256,114.842,256,256S397.158,512,256,512z"/>
<g>
	<path style="fill:#F36E69;" d="M452.267,264.533L452.267,264.533c-4.71,0-8.533-3.823-8.533-8.533
		c0.017-52.719-23.185-101.948-65.331-138.633c-3.558-3.089-3.925-8.482-0.836-12.032c3.089-3.55,8.482-3.925,12.041-0.836
		c45.926,39.97,71.211,93.773,71.194,151.501C460.8,260.719,456.977,264.533,452.267,264.533z"/>
	<path style="fill:#F36E69;" d="M324.07,80.393c-0.981,0-1.98-0.171-2.953-0.529C300.297,72.175,278.391,68.275,256,68.267
		c-4.71,0-8.533-3.823-8.533-8.533c0-4.719,3.823-8.533,8.533-8.533l0,0c24.414,0.009,48.316,4.267,71.023,12.646
		c4.42,1.63,6.682,6.545,5.052,10.965C330.803,78.259,327.535,80.393,324.07,80.393z"/>
	<path style="fill:#F36E69;" d="M128,409.6c-1.937,0-3.874-0.649-5.478-1.988C75.844,368.529,51.183,316.1,51.2,256
		c0-4.719,3.823-8.533,8.533-8.533l0,0c4.71,0,8.533,3.823,8.533,8.533c-0.017,54.895,22.537,102.793,65.212,138.522
		c3.61,3.021,4.087,8.405,1.067,12.015C132.855,408.559,130.432,409.6,128,409.6z"/>
	<path style="fill:#F36E69;" d="M256,460.8c-22.98,0-45.559-3.78-67.106-11.238c-4.454-1.545-6.81-6.409-5.265-10.854
		c1.536-4.454,6.391-6.827,10.854-5.274c19.746,6.835,40.439,10.3,61.517,10.3c4.71,0,8.533,3.814,8.533,8.533
		C264.533,456.986,260.71,460.8,256,460.8z"/>
</g>
<path style="fill:#FFFFFF;" d="M256,341.333c-47.053,0-85.333-38.281-85.333-85.333s38.281-85.333,85.333-85.333
	s85.333,38.281,85.333,85.333S303.053,341.333,256,341.333z"/>
<g>
</g>
<g>
</g>
<g>
</g>
<g>
</g>
<g>
</g>
<g>
</g>
<g>
</g>
<g>
</g>
<g>
</g>
<g>
</g>
<g>
</g>
<g>
</g>
<g>
</g>
<g>
</g>
<g>
</g>
</svg>
