<?xml version="1.0" encoding="iso-8859-1"?>
<!-- Generator: Adobe Illustrator 19.0.0, SVG Export Plug-In . SVG Version: 6.00 Build 0)  -->
<svg version="1.1" id="Capa_1" xmlns="http://www.w3.org/2000/svg" xmlns:xlink="http://www.w3.org/1999/xlink" x="0px" y="0px"
	 viewBox="0 0 511.999 511.999" style="enable-background:new 0 0 511.999 511.999;" xml:space="preserve">
<linearGradient id="SVGID_1_" gradientUnits="userSpaceOnUse" x1="256.8102" y1="512.783" x2="256.8102" y2="1.116" gradientTransform="matrix(0.9973 0 0 -0.9973 -0.1299 512.2678)">
	<stop  offset="0" style="stop-color:#2AF598"/>
	<stop  offset="1" style="stop-color:#009EFD"/>
</linearGradient>
<path style="fill:url(#SVGID_1_);" d="M256.089,431.699c-96.79,0-175.533-78.744-175.533-175.533S159.3,80.632,256.089,80.632
	s175.533,78.744,175.533,175.533S352.879,431.699,256.089,431.699z M256.089,120.526c-74.792,0-135.639,60.847-135.639,135.639
	c0,74.791,60.847,135.639,135.639,135.639s135.639-60.848,135.639-135.639C391.729,181.373,330.881,120.526,256.089,120.526z
	 M256.089,330.967c-41.245,0-74.801-33.556-74.801-74.801c0-41.245,33.556-74.801,74.801-74.801s74.801,33.556,74.801,74.801
	C330.89,297.411,297.335,330.967,256.089,330.967z M256.089,221.258c-19.248,0-34.907,15.659-34.907,34.907
	c0,19.248,15.659,34.907,34.907,34.907s34.907-15.659,34.907-34.907C290.996,236.918,275.337,221.258,256.089,221.258z
	 M234.272,511.155l-39.449-6.069l6.067-39.43l39.43,6.066L234.272,511.155z M278.355,511.08l-6.067-39.43l39.43-6.066l6.086,39.427
	L278.355,511.08z M363.884,490.996l-23.465-32.264l17.484-12.713l19.318-9.659l17.842,35.682l-16.376,8.188L363.884,490.996z
	 M153.204,490.103l-19.335-9.668l-17.467-12.703l23.465-32.264l14.802,10.765l16.376,8.188L153.204,490.103z M81.632,443.964
	l-26.7-29.667l29.653-26.688l26.687,29.652L81.632,443.964z M430.836,443.651l-29.653-26.688l26.687-29.652l29.666,26.673
	L430.836,443.651z M480.661,377.391l-35.682-17.842l8.616-17.232l7.413-17.79l36.825,15.343l-8.251,19.679L480.661,377.391z
	 M29.879,377.126l-7.413-17.79l-8.616-17.232l35.682-17.842l9.5,19.107l7.672,18.413L29.879,377.126z M3.061,297.288l-1.414-19.795
	L0,257.731l39.756-3.313l1.677,20.133l1.421,19.896L3.061,297.288z M508.902,297.039l-39.756-3.313l1.647-19.76l1.414-19.796
	l39.792,2.842l-1.441,20.151L508.902,297.039z M471.101,223.235l-6.082-19.767l-4.646-20.133l38.873-8.97l4.327,18.751l5.658,18.388
	L471.101,223.235z M42.716,222.682l-38.873-8.97l4.651-20.152l6.077-19.748l38.13,11.733l-5.658,18.388L42.716,222.682z
	 M64.907,155.305L31.25,133.887l10.951-17.201l11.065-16.597l33.194,22.129l-10.95,16.425L64.907,155.305z M448.74,155.247
	l-12.44-17.171l-10.71-16.828l33.658-21.418l10.383,16.316l11.372,15.636L448.74,155.247z M108.05,98.722L83.129,67.57
	l15.504-12.404l15.354-12.563l25.263,30.876L123.625,86.26L108.05,98.722z M402.138,98.575l-14.06-12.653l-15.302-11.129
	l23.465-32.263l16.987,12.355l15.599,14.039L402.138,98.575z M343.283,59.57l-17.531-7.305l-18.159-5.587l11.732-38.13l20.002,6.155
	l19.3,8.042L343.283,59.57z M166.002,58.567l-11.732-38.13l18.159-5.587l17.531-7.305l15.344,36.825l-19.319,8.048L166.002,58.567z
	 M275.554,40.739H235.66l-0.02-39.894l40.416-0.001v39.894L275.554,40.739z"/>
<g>
</g>
<g>
</g>
<g>
</g>
<g>
</g>
<g>
</g>
<g>
</g>
<g>
</g>
<g>
</g>
<g>
</g>
<g>
</g>
<g>
</g>
<g>
</g>
<g>
</g>
<g>
</g>
<g>
</g>
</svg>
