<svg id="Capa_1" enable-background="new 0 0 512 512" height="512" viewBox="0 0 512 512" width="512" xmlns="http://www.w3.org/2000/svg"><g><g><g><g><g><circle cx="256" cy="256" fill="#ff95bd" r="248.5"/></g><g><path d="m271.5 489c-137.243 0-248.5-111.257-248.5-248.5 0-64.678 24.716-123.578 65.21-167.789-49.601 45.432-80.71 110.725-80.71 183.289 0 137.243 111.257 248.5 248.5 248.5 72.564 0 137.858-31.109 183.289-80.711-44.21 40.494-103.111 65.211-167.789 65.211z" fill="#ff7bac"/></g><g><circle cx="256" cy="256" fill="#f8e868" r="172.5"/></g><g><path d="m272.095 412.405c-95.269 0-172.5-77.231-172.5-172.5 0-43.539 16.137-83.304 42.747-113.658-36.065 31.617-58.842 78.023-58.842 129.753 0 95.269 77.231 172.5 172.5 172.5 51.73 0 98.136-22.777 129.753-58.842-30.354 26.61-70.119 42.747-113.658 42.747z" fill="#e8ab4c"/></g><g><circle cx="256" cy="256" fill="#ff95bd" r="97"/></g><g><path d="m271.5 337.5c-53.572 0-97-43.428-97-97 0-22.837 7.896-43.827 21.101-60.399-22.303 17.772-36.601 45.164-36.601 75.899 0 53.572 43.428 97 97 97 30.735 0 58.127-14.298 75.899-36.601-16.572 13.205-37.562 21.101-60.399 21.101z" fill="#ff7bac"/></g><g><circle cx="256" cy="256" fill="#f8e868" r="38"/></g><g><path d="m272.626 277.374c-20.987 0-38-17.013-38-38 0-6.208 1.498-12.062 4.137-17.236-12.32 6.283-20.763 19.083-20.763 33.862 0 20.987 17.013 38 38 38 14.779 0 27.579-8.443 33.863-20.764-5.175 2.639-11.029 4.138-17.237 4.138z" fill="#e8ab4c"/></g><g><g><g><path d="m107.54 105.895-10.697-10.515c3.524-3.585 7.248-6.897 10.85-10.101l.504-.449 9.971 11.207-.507.45c-3.574 3.18-6.949 6.181-10.121 9.408z" fill="#fff"/></g><g><path d="m129.548 86.907-9.35-11.729c1.603-1.278 3.211-2.4 4.767-3.486.547-.382 1.094-.763 1.638-1.15l3.234-2.269c.721-.484 1.452-.952 2.185-1.419l1.069-.686 8.158 12.588-1.161.745c-.61.389-1.221.778-1.822 1.181l-3.006 2.11c-.54.385-1.125.793-1.71 1.201-1.426.995-2.773 1.934-4.002 2.914z" fill="#fff"/></g></g></g></g></g></g><g><path d="m417.791 434.622 10.074 11.113c3.934-3.565 7.802-7.297 11.499-11.092l-10.742-10.469c-3.482 3.575-7.127 7.09-10.831 10.448z"/><path d="m437.02 74.98c-48.352-48.351-112.64-74.98-181.02-74.98s-132.668 26.629-181.02 74.98c-48.351 48.353-74.98 112.64-74.98 181.02s26.629 132.667 74.98 181.02c48.352 48.351 112.64 74.98 181.02 74.98 58.244 0 113.124-19.059 158.705-55.117l-9.307-11.764c-42.904 33.941-94.566 51.881-149.398 51.881-132.888 0-241-108.112-241-241s108.112-241 241-241 241 108.112 241 241c0 57.605-20.647 113.358-58.14 156.987l11.377 9.776c39.828-46.348 61.763-105.572 61.763-166.763 0-68.38-26.629-132.667-74.98-181.02z"/><path d="m256 436c99.252 0 180-80.748 180-180s-80.748-180-180-180-180 80.748-180 180 80.748 180 180 180zm0-345c90.981 0 165 74.019 165 165s-74.019 165-165 165-165-74.019-165-165 74.019-165 165-165z"/><path d="m256 360.5c57.621 0 104.5-46.878 104.5-104.5s-46.879-104.5-104.5-104.5-104.5 46.878-104.5 104.5 46.879 104.5 104.5 104.5zm0-194c49.351 0 89.5 40.149 89.5 89.5s-40.149 89.5-89.5 89.5-89.5-40.149-89.5-89.5 40.149-89.5 89.5-89.5z"/><path d="m256 301.5c25.089 0 45.5-20.411 45.5-45.5s-20.411-45.5-45.5-45.5-45.5 20.411-45.5 45.5 20.411 45.5 45.5 45.5zm0-76c16.817 0 30.5 13.682 30.5 30.5s-13.683 30.5-30.5 30.5-30.5-13.682-30.5-30.5 13.683-30.5 30.5-30.5z"/><path d="m248.5 113h15v15h-15z"/><path d="m113 248.5h15v15h-15z"/><path d="m248.5 384h15v15h-15z"/><path d="m384 248.5h15v15h-15z"/></g></g></svg>