<svg id="Capa_1" enable-background="new 0 0 510 510" height="512" viewBox="0 0 510 510" width="512" xmlns="http://www.w3.org/2000/svg"><g><path d="m0 0v510h255l15-255-15-255c-7.2 0-247.8 0-255 0z" fill="#fff5f5"/><path d="m255 0v510h255c0-14.4 0-495.6 0-510-7.2 0-247.8 0-255 0z" fill="#d3dce3"/><path d="m90 165h-30v-105h105v30h-75z" fill="#fe6664"/><path d="m345 90h75v75h30c0-28.3 0-88.5 0-105-28.3 0-88.5 0-105 0z" fill="#e82e68"/><path d="m165 450h-105v-105h30v75h75z" fill="#fe6664"/><path d="m420 420c-20.2 0-63.2 0-75 0v30h105c0-28.3 0-88.5 0-105-10.5 0-19.5 0-30 0z" fill="#e82e68"/><path d="m240 180v60c-7.3 0-52.7 0-60 0v30h60v60h15l15-75-15-75c-5.2 0-9.8 0-15 0z" fill="#fe6664"/><path d="m270 270h60c0-10.5 0-19.5 0-30-7.3 0-52.7 0-60 0 0-7.3 0-52.7 0-60-5.2 0-9.8 0-15 0v150h15c0-7.3 0-52.7 0-60z" fill="#e82e68"/></g></svg>