<svg height="512pt" viewBox="0 -1 512 512" width="512pt" xmlns="http://www.w3.org/2000/svg"><path d="m504.5 255.175781c0-137.121093-111.257812-248.28125-248.5-248.28125s-248.5 111.160157-248.5 248.28125c0 137.121094 111.257812 248.277344 248.5 248.277344s248.5-111.15625 248.5-248.277344zm0 0" fill="#2bd9f8"/><path d="m256 6.894531c-6.734375 0-13.402344.277344-20 .800781 127.890625 10.179688 228.5 117.085938 228.5 247.480469s-100.609375 237.300781-228.5 247.476563c6.597656.523437 13.265625.800781 20 .800781 137.242188 0 248.5-111.15625 248.5-248.277344 0-137.121093-111.257812-248.28125-248.5-248.28125zm0 0" fill="#40c1fa"/><path d="m466 255.175781c0 115.976563-94.019531 210-210 210s-210-94.023437-210-210c0-115.980469 94.019531-210 210-210s210 94.019531 210 210zm0 0" fill="#efe9ed"/><path d="m256 45.175781c-6.746094 0-13.414062.328125-20 .953125 106.597656 10.074219 190 99.8125 190 209.046875 0 109.230469-83.402344 198.972657-190 209.042969 6.585938.625 13.253906.957031 20 .957031 115.980469 0 210-94.019531 210-210s-94.019531-210-210-210zm0 0" fill="#e1d3da"/><path d="m353.070312 255.175781c0-53.5625-43.421874-96.988281-96.984374-96.988281h-.171876c-53.5625 0-96.984374 43.421875-96.984374 96.984375 0 53.566406 43.421874 96.984375 96.984374 96.984375h.171876c53.5625.003906 96.984374-43.417969 96.984374-96.980469zm0 0" fill="#e5646e"/><path d="m256 158.191406c-8.378906 0-16.511719 1.058594-24.269531 3.054688 41.867187 10.765625 72.804687 48.738281 72.804687 93.929687 0 45.191407-30.9375 83.164063-72.804687 93.929688 7.757812 1.992187 15.890625 3.054687 24.269531 3.054687 53.609375 0 97.070312-43.421875 97.070312-96.984375s-43.460937-96.984375-97.070312-96.984375zm0 0" fill="#da2f3c"/><path d="m442.875 80.355469c-44.359375-47.320313-104.328125-75.851563-168.855469-80.3359378-4.140625-.2890622-7.714843 2.8281248-8 6.9609378-.289062 4.132812 2.828125 7.714843 6.960938 8.003906 60.738281 4.21875 117.1875 31.082031 158.953125 75.632813 41.957031 44.757812 65.066406 103.199218 65.066406 164.558593 0 64.3125-25.066406 124.777344-70.585938 170.253907-45.519531 45.480468-106.039062 70.523437-170.414062 70.523437s-124.894531-25.042969-170.414062-70.523437c-45.519532-45.476563-70.585938-105.941407-70.585938-170.253907 0-61.359375 23.109375-119.800781 65.066406-164.558593 41.765625-44.554688 98.214844-71.414063 158.953125-75.632813 4.132813-.289063 7.25-3.871094 6.960938-8.003906-.285157-4.132813-3.882813-7.246094-8.003907-6.9609378-64.523437 4.4843748-124.492187 33.0156248-168.851562 80.3359378-44.574219 47.550781-69.125 109.636719-69.125 174.820312 0 68.320313 26.628906 132.554688 74.980469 180.863281 48.355469 48.308594 112.640625 74.914063 181.019531 74.914063s132.664062-26.605469 181.019531-74.914063c48.351563-48.308593 74.980469-112.542968 74.980469-180.863281 0-65.183593-24.550781-127.269531-69.125-174.820312zm0 0"/><path d="m38.5 255.175781c0 58.09375 22.625 112.714844 63.703125 153.792969 41.082031 41.082031 95.699219 63.707031 153.796875 63.707031s112.714844-22.625 153.796875-63.707031c41.078125-41.078125 63.703125-95.699219 63.703125-153.792969 0-58.097656-22.625-112.714843-63.703125-153.796875-41.082031-41.082031-95.699219-63.703125-153.796875-63.703125s-112.714844 22.621094-153.796875 63.703125c-41.078125 41.082032-63.703125 95.699219-63.703125 153.796875zm217.5-202.5c111.660156 0 202.5 90.839844 202.5 202.5 0 111.65625-90.839844 202.5-202.5 202.5s-202.5-90.84375-202.5-202.5c0-111.660156 90.839844-202.5 202.5-202.5zm0 0"/><path d="m256.085938 344.660156h-.171876c-43.671874 0-80.753906-31.179687-88.175781-74.136718-.703125-4.082032-4.585937-6.816407-8.664062-6.113282-4.082031.703125-6.820313 4.585938-6.113281 8.667969 8.664062 50.167969 51.964843 86.582031 102.953124 86.582031h.171876c57.613281 0 104.484374-46.871094 104.484374-104.484375s-46.871093-104.484375-104.484374-104.484375h-.171876c-50.515624 0-93.746093 36.015625-102.789062 85.640625-.742188 4.074219 1.960938 7.980469 6.035156 8.722657 4.078125.746093 7.980469-1.960938 8.722656-6.035157 7.742188-42.488281 44.765626-73.328125 88.03125-73.328125h.171876c49.34375 0 89.484374 40.144532 89.484374 89.484375 0 49.339844-40.140624 89.484375-89.484374 89.484375zm0 0"/></svg>