<svg enable-background="new 0 0 24 24" height="512" viewBox="0 0 24 24" width="512" xmlns="http://www.w3.org/2000/svg"><g id="color_1_"><g><path d="m21.172 21.25h-18.344c-1.147 0-2.078-.93-2.078-2.078v-14.344c0-1.147.93-2.078 2.078-2.078h18.345c1.147 0 2.078.93 2.078 2.078v14.345c-.001 1.147-.931 2.077-2.079 2.077z" fill="#00bcd4"/></g><g><circle cx="12" cy="12" fill="#f44336" r="4"/></g></g><g id="regular_1.5"><g><g><path d="m.75 7c-.414 0-.75-.336-.75-.75v-1.5c0-1.517 1.233-2.75 2.75-2.75h1.5c.414 0 .75.336.75.75s-.336.75-.75.75h-1.5c-.689 0-1.25.561-1.25 1.25v1.5c0 .414-.336.75-.75.75z"/></g><g><path d="m23.25 7c-.414 0-.75-.336-.75-.75v-1.5c0-.689-.561-1.25-1.25-1.25h-1.5c-.414 0-.75-.336-.75-.75s.336-.75.75-.75h1.5c1.517 0 2.75 1.233 2.75 2.75v1.5c0 .414-.336.75-.75.75z"/></g><g><path d="m4.25 22h-1.5c-1.517 0-2.75-1.233-2.75-2.75v-1.5c0-.414.336-.75.75-.75s.75.336.75.75v1.5c0 .689.561 1.25 1.25 1.25h1.5c.414 0 .75.336.75.75s-.336.75-.75.75z"/></g><g><path d="m21.25 22h-1.5c-.414 0-.75-.336-.75-.75s.336-.75.75-.75h1.5c.689 0 1.25-.561 1.25-1.25v-1.5c0-.414.336-.75.75-.75s.75.336.75.75v1.5c0 1.517-1.233 2.75-2.75 2.75z"/></g></g><g><path d="m12 16c-2.206 0-4-1.794-4-4s1.794-4 4-4 4 1.794 4 4-1.794 4-4 4zm0-6.5c-1.378 0-2.5 1.122-2.5 2.5s1.122 2.5 2.5 2.5 2.5-1.122 2.5-2.5-1.122-2.5-2.5-2.5z"/></g></g></svg>