<svg height="512pt" viewBox="0 0 512 512" width="512pt" xmlns="http://www.w3.org/2000/svg"><path d="m512 256c0 141.386719-114.613281 256-256 256s-256-114.613281-256-256 114.613281-256 256-256 256 114.613281 256 256zm0 0" fill="#ff4b00"/><path d="m282.308594 35.316406-54.015625 54.015625 51.675781 51.675781-87.574219 87.574219 100.324219 100.324219-163.929688 130.253906 36.152344 36.152344c28.292969 10.773438 58.984375 16.6875 91.058594 16.6875 138.425781 0 251.171875-109.871094 255.832031-247.160156zm0 0" fill="#dd3400"/><path d="m319.605469 101.222656v127.207032h-25.441407v179.789062h-76.328124v-179.789062h-25.441407v-127.207032zm0 0" fill="#fdbf00"/><path d="m294.164062 63.058594c0 21.117187-17.046874 38.164062-38.164062 38.164062s-38.164062-17.046875-38.164062-38.164062c0-21.117188 17.046874-38.164063 38.164062-38.164063s38.164062 17.046875 38.164062 38.164063zm0 0" fill="#fdbf00"/><path d="m256 101.222656v-76.328125c21.117188 0 38.164062 17.046875 38.164062 38.164063 0 21.117187-17.046874 38.164062-38.164062 38.164062zm0 0" fill="#ff9f00"/><path d="m294.164062 408.21875h-38.164062v-306.996094h63.605469v127.207032h-25.441407zm0 0" fill="#ff9f00"/><path d="m356.496094 440.785156h-200.992188l29.003906-58.007812h142.984376zm0 0" fill="#3e5959"/><path d="m356.496094 440.785156h-100.496094v-58.007812h71.492188zm0 0" fill="#384949"/><path d="m128.789062 433.660156h254.421876v25.445313h-254.421876zm0 0" fill="#4a696f"/><path d="m256 433.660156h127.210938v25.445313h-127.210938zm0 0" fill="#3e5959"/></svg>