<svg xmlns="http://www.w3.org/2000/svg" xmlns:xlink="http://www.w3.org/1999/xlink" width="645.289" height="137.618" viewBox="0 0 645.289 137.618">
  <defs>
    <linearGradient id="linear-gradient" x1="-0.093" y1="0.323" x2="1.098" y2="0.771" gradientUnits="objectBoundingBox">
      <stop offset="0" stop-color="#ef4b23"/>
      <stop offset="0.151" stop-color="#ef4b28"/>
      <stop offset="0.393" stop-color="#b5229e"/>
      <stop offset="0.579" stop-color="#362da5"/>
      <stop offset="0.725" stop-color="#0076ab"/>
      <stop offset="0.83" stop-color="#166b8b"/>
      <stop offset="1" stop-color="#00b59d"/>
    </linearGradient>
  </defs>
  <g id="Group_110" data-name="Group 110" transform="translate(-310 -199.274)">
    <path id="Path_370" data-name="Path 370" d="M-150.927.043l15.6,4.945q-3.587,13.042-11.928,19.373t-21.166,6.331q-15.868,0-26.084-10.841T-204.725-9.792q0-19.889,10.271-30.893t27.008-11q14.618,0,23.747,8.64,5.434,5.108,8.151,14.672l-15.922,3.8a16.888,16.888,0,0,0-5.9-9.782,16.893,16.893,0,0,0-10.9-3.587,18.127,18.127,0,0,0-14.373,6.358q-5.516,6.358-5.516,20.6,0,15.107,5.434,21.519a17.646,17.646,0,0,0,14.129,6.412,16.112,16.112,0,0,0,11.031-4.076Q-152.937,8.793-150.927.043Zm19.748-.38a31.218,31.218,0,0,1,3.75-14.727,25.737,25.737,0,0,1,10.624-10.868,31.528,31.528,0,0,1,15.352-3.75q13.1,0,21.465,8.5T-71.62.315q0,13.1-8.45,21.71t-21.275,8.613a33.513,33.513,0,0,1-15.134-3.587,24.6,24.6,0,0,1-10.95-10.515Q-131.179,9.608-131.179-.337Zm15.65.815q0,8.586,4.076,13.151A12.949,12.949,0,0,0-101.4,18.194a12.868,12.868,0,0,0,10.026-4.565Q-87.325,9.064-87.325.37q0-8.477-4.048-13.042A12.868,12.868,0,0,0-101.4-17.237a12.949,12.949,0,0,0-10.053,4.565Q-115.528-8.108-115.528.478Zm49.854,28.856V-50.331H-50.4V29.334Zm24.911,0V-50.331h15.27V29.334ZM17.567,10.966,32.783,13.52a24.958,24.958,0,0,1-9.265,12.743q-6.331,4.375-15.841,4.375-15.053,0-22.28-9.836-5.706-7.88-5.706-19.889,0-14.346,7.5-22.47A24.7,24.7,0,0,1,6.155-29.681q12.879,0,20.324,8.5T33.6,4.88H-4.659q.163,6.793,3.7,10.569a11.558,11.558,0,0,0,8.8,3.777,9.35,9.35,0,0,0,6.032-1.956A12.082,12.082,0,0,0,17.567,10.966Zm.869-15.433q-.163-6.63-3.424-10.08A10.506,10.506,0,0,0,7.079-18a10.606,10.606,0,0,0-8.26,3.641q-3.261,3.641-3.206,9.89Zm71.916-6.847L75.3-8.6A10.923,10.923,0,0,0,71.85-15.39a10.421,10.421,0,0,0-6.983-2.282,11.41,11.41,0,0,0-9.1,3.94q-3.4,3.94-3.4,13.178,0,10.271,3.451,14.509a11.33,11.33,0,0,0,9.265,4.239A10.292,10.292,0,0,0,72.2,15.721q2.771-2.473,3.913-8.5l15,2.554q-2.337,10.325-8.966,15.6t-17.77,5.271q-12.662,0-20.188-7.988T36.663.533q0-14.292,7.554-22.253t20.433-7.961q10.542,0,16.764,4.538T90.353-11.314Zm32.03-17.063V-16.2H111.949V7.054a57.85,57.85,0,0,0,.3,8.233,3.355,3.355,0,0,0,1.359,1.929,4.309,4.309,0,0,0,2.581.761,19.754,19.754,0,0,0,6.141-1.467l1.3,11.847a30.354,30.354,0,0,1-12.064,2.282,19.135,19.135,0,0,1-7.445-1.386,10.865,10.865,0,0,1-4.864-3.587,14.156,14.156,0,0,1-2.147-5.95,74.022,74.022,0,0,1-.489-10.76V-16.2h-7.01V-28.377h7.01V-39.843l15.324-8.912v20.378ZM154.548,7.3l-7.612-1.373a11.855,11.855,0,0,1,4.418-6.806q3.134-2.209,9.313-2.209,5.612,0,8.358,1.328a8.336,8.336,0,0,1,3.866,3.373q1.119,2.045,1.119,7.507l-.09,9.791a33.991,33.991,0,0,0,.4,6.164,17.991,17.991,0,0,0,1.507,4.254h-8.3q-.328-.836-.806-2.478-.209-.746-.3-.985a15.122,15.122,0,0,1-4.6,3.134,13.166,13.166,0,0,1-5.224,1.045,10.8,10.8,0,0,1-7.716-2.657,8.831,8.831,0,0,1-2.821-6.716,9.015,9.015,0,0,1,1.284-4.791,8.386,8.386,0,0,1,3.6-3.224,28.111,28.111,0,0,1,6.671-1.955,45.7,45.7,0,0,0,8.149-2.06V7.812a4.343,4.343,0,0,0-1.194-3.448q-1.194-1.03-4.507-1.03a6,6,0,0,0-3.492.881A6.119,6.119,0,0,0,154.548,7.3Zm11.224,6.806a52.429,52.429,0,0,1-5.1,1.284,15.375,15.375,0,0,0-4.567,1.463,3.5,3.5,0,0,0-1.642,2.955,4.114,4.114,0,0,0,1.313,3.045,4.585,4.585,0,0,0,3.343,1.284,7.264,7.264,0,0,0,4.328-1.492,5.254,5.254,0,0,0,2-2.776,16.564,16.564,0,0,0,.328-4.089Zm42.041,15.223h-8.388V13.155a25.007,25.007,0,0,0-.537-6.642,4.658,4.658,0,0,0-1.746-2.343,4.991,4.991,0,0,0-2.91-.836,6.726,6.726,0,0,0-3.91,1.194,6.016,6.016,0,0,0-2.373,3.164,27.349,27.349,0,0,0-.642,7.283V29.334h-8.388v-31.7h7.791V2.29a12.693,12.693,0,0,1,10.447-5.373,12.586,12.586,0,0,1,5.074,1A8.5,8.5,0,0,1,205.708.469a9.246,9.246,0,0,1,1.642,3.522,26.2,26.2,0,0,1,.463,5.642Zm34.28,0H234.3V24.677a12.587,12.587,0,0,1-4.582,4.045,11.756,11.756,0,0,1-5.328,1.328,12.074,12.074,0,0,1-9.358-4.4q-3.9-4.4-3.9-12.283,0-8.059,3.791-12.253a12.359,12.359,0,0,1,9.582-4.194A11.869,11.869,0,0,1,233.7,1.335V-14.426h8.388ZM219.7,12.8q0,5.074,1.4,7.343a6.339,6.339,0,0,0,5.671,3.283,6.173,6.173,0,0,0,4.925-2.463q2.03-2.463,2.03-7.358,0-5.463-1.97-7.865a6.234,6.234,0,0,0-5.045-2.4,6.3,6.3,0,0,0-5,2.373Q219.7,8.081,219.7,12.8Zm44.747,16.537V-50.331h25.812q14.672,0,19.128,1.2a20.888,20.888,0,0,1,11.466,7.8q4.619,6,4.619,15.515a25.992,25.992,0,0,1-2.663,12.336,21.844,21.844,0,0,1-6.766,7.852,23.313,23.313,0,0,1-8.341,3.777A91.819,91.819,0,0,1,291.025-.717H280.537V29.334Zm16.085-66.188v22.606h8.8q9.51,0,12.716-1.25a10.562,10.562,0,0,0,5.027-3.913,10.709,10.709,0,0,0,1.82-6.195,10.291,10.291,0,0,0-2.554-7.173,11.123,11.123,0,0,0-6.467-3.532,77.314,77.314,0,0,0-11.575-.543Zm63.439,26.084-13.857-2.5q2.337-8.369,8.043-12.39t16.955-4.021q10.216,0,15.216,2.418a15.175,15.175,0,0,1,7.037,6.141q2.038,3.722,2.038,13.667l-.163,17.824a61.881,61.881,0,0,0,.734,11.222,32.754,32.754,0,0,0,2.744,7.744H367.615q-.6-1.522-1.467-4.51-.38-1.359-.543-1.793a27.53,27.53,0,0,1-8.369,5.706,23.969,23.969,0,0,1-9.51,1.9q-8.912,0-14.047-4.836a16.076,16.076,0,0,1-5.135-12.227,16.412,16.412,0,0,1,2.337-8.722,15.267,15.267,0,0,1,6.548-5.869,51.177,51.177,0,0,1,12.145-3.559q10.705-2.011,14.835-3.75V-9.847q0-4.4-2.174-6.276T354.029-18a10.927,10.927,0,0,0-6.358,1.6A11.14,11.14,0,0,0,343.976-10.771Zm20.432,12.39a95.446,95.446,0,0,1-9.292,2.337q-6.358,1.359-8.314,2.663A6.369,6.369,0,0,0,343.813,12a7.49,7.49,0,0,0,2.391,5.543,8.348,8.348,0,0,0,6.086,2.337,13.224,13.224,0,0,0,7.88-2.717,9.565,9.565,0,0,0,3.641-5.054,30.149,30.149,0,0,0,.6-7.445Zm16.814-30h16.248l13.8,40.974L424.75-28.377h15.813L420.186,27.16l-3.641,10.053a40.983,40.983,0,0,1-3.831,7.717,16.719,16.719,0,0,1-4.184,4.32,18.292,18.292,0,0,1-5.815,2.581,30.2,30.2,0,0,1-7.8.924,40.457,40.457,0,0,1-8.64-.924l-1.359-11.955a33.782,33.782,0,0,0,6.467.706q5.325,0,7.88-3.125a21.683,21.683,0,0,0,3.913-7.961Z" transform="translate(514.725 250.964)" fill="url(#linear-gradient)"/>
    <text id="Payments_and_Collections_made_easy" data-name="Payments and Collections made easy" transform="translate(323 330.892)" font-size="25" font-family="SegoeUI, Segoe UI" letter-spacing="0.251em"><tspan x="0" y="0">payments and collections made easy</tspan></text>
  </g>
</svg>
